<svg width="25" height="25" viewBox="0 0 25 25" fill="none" xmlns="http://www.w3.org/2000/svg">
<path d="M22.1842 16.0235C22.0276 17.7566 21.7758 19.1649 21.4695 20.4214C21.2653 21.678 20.0402 22.7251 18.7129 22.7251H17.0793C16.1604 22.7251 15.4457 21.9921 15.4457 21.0497V16.7565C15.4457 15.7094 14.6289 14.8717 13.6079 14.8717H11.2596C10.2386 14.8717 9.42186 15.7094 9.42186 16.7565V21.0497C9.42186 21.9921 8.70716 22.7251 7.78827 22.7251H5.84839C4.52111 22.7251 3.39802 21.7827 3.09172 20.4214C2.78542 19.0602 2.51985 17.7578 2.37703 16.0235C2.19576 13.8225 2.37703 11.7303 2.47913 10.3691C2.47913 9.53138 2.98962 8.69368 3.70431 8.17012L10.8512 3.24866C11.2596 2.93452 11.7701 2.7251 12.2806 2.7251C12.7911 2.7251 13.4037 2.93452 13.8121 3.24866L20.959 8.17012C21.6737 8.69368 22.1842 9.53138 22.1842 10.3691C22.2863 11.7303 22.3829 13.8244 22.1842 16.0235Z" fill="#F66232"/>
</svg>
