<svg width="25" height="25" viewBox="0 0 25 25" fill="none" xmlns="http://www.w3.org/2000/svg">
<path d="M19.7735 5.70345C18.0217 3.82845 15.4454 2.68262 12.7661 2.68262C10.0868 2.68262 7.51056 3.72428 5.7587 5.70345C4.316 7.37012 3.59465 9.45345 3.80075 11.5368C3.80075 11.9534 3.9038 12.3701 4.00685 12.6826C4.9343 17.0576 9.67461 20.9118 11.7356 22.3701C12.0448 22.5785 12.3539 22.6826 12.7661 22.6826C13.1783 22.6826 13.4875 22.5785 13.7966 22.3701C15.7546 20.9118 20.5979 17.0576 21.5254 12.6826C21.6284 12.3701 21.6284 11.9534 21.7315 11.5368C21.9376 9.45345 21.2162 7.37012 19.7735 5.70345ZM12.7661 14.6618C11.2204 14.6618 9.88071 13.4118 9.88071 11.7451C9.88071 10.0784 11.1173 8.82845 12.7661 8.82845C14.4149 8.82845 15.6515 10.0784 15.6515 11.7451C15.6515 13.4118 14.3119 14.6618 12.7661 14.6618Z" fill="#51A3E1"/>
</svg>
