<svg width="25" height="25" viewBox="0 0 25 25" fill="none" xmlns="http://www.w3.org/2000/svg">
<path d="M22.7661 8.88317V17.371C22.7661 18.7368 21.6394 19.9076 20.2055 20.0051C18.0546 20.2002 15.0843 20.2978 12.8309 20.2978C10.5776 20.2978 7.60727 20.1027 5.45636 20.0051C4.02242 19.9076 2.89575 18.7368 2.89575 17.371V8.88317L4.43212 9.66366L11.4994 13.371C11.9091 13.5661 12.4212 13.6637 12.8309 13.6637C13.2406 13.6637 13.7527 13.5661 14.1624 13.371L21.2297 9.66366L22.7661 8.88317Z" fill="#51A3E1"/>
<path d="M22.6637 6.73688C22.6637 6.932 22.5613 7.22468 22.3564 7.32224L21.1273 7.90761L13.3431 12.0052C12.9334 12.2003 12.5237 12.2003 12.114 12.0052L3.10063 7.32224C2.89578 7.22468 2.69093 7.02956 2.79336 6.83444C2.99821 5.66371 4.02245 4.6881 5.35397 4.59053C7.50488 4.39541 10.4752 4.29785 12.7285 4.29785C14.9819 4.29785 18.0546 4.49297 20.1031 4.59053C21.4346 4.6881 22.4588 5.56614 22.6637 6.73688Z" fill="#51A3E1"/>
</svg>
