<svg width="25" height="25" viewBox="0 0 25 25" fill="none" xmlns="http://www.w3.org/2000/svg">
<path d="M12.219 14.678C10.7281 13.4521 9.73264 11.9394 9.20929 11.0786L8.81891 10.3427C8.8909 10.2654 9.36546 9.76788 9.8641 9.22614C10.5322 8.50029 10.4806 7.41519 9.7873 6.71338C9.14998 6.06826 8.37149 5.28286 7.74406 4.65791C7.11275 4.02908 6.11317 3.89978 5.46224 4.50828C4.65948 5.25869 3.93982 6.39766 3.89405 8.38624C3.89148 11.1882 6.01844 14.0781 8.31852 16.3154C10.6223 18.842 13.7854 21.3745 16.8434 21.3716C18.7696 21.3276 19.9063 20.6435 20.6627 19.866C21.32 19.1905 21.1625 18.1062 20.496 17.4397L18.5382 15.482C17.8352 14.7791 16.7412 14.7234 16.0102 15.397C15.51 15.8578 15.0484 16.2961 14.925 16.4111C14.925 16.4111 13.2251 15.5054 12.219 14.678Z" fill="#51A3E1"/>
</svg>
