<svg width="215" height="317" viewBox="0 0 215 317" fill="none" xmlns="http://www.w3.org/2000/svg">
<path d="M161.46 174.382C161.491 174.397 161.521 174.415 161.551 174.434L162.938 175.227L162.347 176.241C162.498 180.52 164.57 182.682 168.252 183.331L169.765 184.196L168.664 186.083L167.966 185.684L166.314 199.279L154.156 207.961L152.643 207.096L150.706 193.363C154.389 188.502 156.46 183.972 156.61 179.521C156.61 177.71 157.894 175.509 159.477 174.602C160.225 174.175 160.904 174.116 161.414 174.361L161.416 174.357L161.46 174.382Z" fill="#B54825"/>
<path d="M160.992 175.469C162.575 174.564 163.858 175.297 163.858 177.108C164.009 181.386 166.079 183.546 169.763 184.196L167.825 200.143L154.154 207.961L152.217 194.227C155.9 189.367 157.971 184.837 158.122 180.386C158.125 178.575 159.408 176.373 160.992 175.469Z" fill="#F66232"/>
<path d="M159.44 179.452C159.44 180.431 160.135 180.829 160.992 180.339C161.849 179.849 162.544 178.658 162.544 177.677C162.544 176.698 161.849 176.3 160.992 176.79C160.136 177.281 159.44 178.472 159.44 179.452Z" fill="#B54825"/>
<path d="M152.22 194.229L152.644 207.098L175.469 220.149L172.019 205.553L152.22 194.229Z" fill="#B54825"/>
<path d="M169.764 184.196C162.685 181.27 157.21 186.513 152.22 194.229L172.021 205.551C177.918 198.47 183.785 193.82 189.565 195.518L169.764 184.196Z" fill="#E0592E"/>
<path d="M159.44 179.453C159.44 180.432 160.134 180.83 160.992 180.34C161.849 179.85 162.543 178.659 162.543 177.678C162.543 176.699 161.849 176.301 160.992 176.791C160.136 177.282 159.44 178.473 159.44 179.453Z" fill="#B54825"/>
<path d="M162.086 176.693L159.892 180.457L181.203 192.644L183.398 188.88L162.086 176.693Z" fill="#B54825"/>
<path d="M182.77 186.568C182.802 186.584 182.832 186.601 182.861 186.62L184.248 187.414L183.657 188.428C183.808 192.706 185.879 194.868 189.562 195.518L191.075 196.382L189.974 198.27L189.276 197.871L187.625 211.465L175.466 220.147L173.953 219.282L172.016 205.549C175.7 200.689 177.77 196.158 177.921 191.708C177.921 189.897 179.204 187.695 180.789 186.789C181.536 186.362 182.216 186.302 182.726 186.547L182.728 186.544L182.77 186.568Z" fill="#B54825"/>
<path d="M182.304 187.654C183.887 186.75 185.17 187.482 185.17 189.293C185.321 193.572 187.392 195.732 191.075 196.381L189.138 212.329L175.467 220.146L173.529 206.413C177.213 201.553 179.283 197.022 179.434 192.572C179.436 190.762 180.721 188.561 182.304 187.654Z" fill="#F66232"/>
<path d="M180.753 191.638C180.753 192.617 181.447 193.015 182.305 192.525C183.162 192.036 183.856 190.845 183.856 189.864C183.856 188.884 183.162 188.487 182.305 188.976C181.447 189.466 180.753 190.657 180.753 191.638Z" fill="#B54825"/>
<path d="M162.928 197.125L160.235 199.533V198.33L162.928 197.125Z" fill="#9D9D9C"/>
<path d="M162.548 200.068L163.037 203.149L161.843 200.233L162.548 200.068Z" fill="#878787"/>
<path d="M161.29 199.347L161.777 202.427L160.583 199.512L161.29 199.347Z" fill="#878787"/>
<path d="M161.777 202.426L163.037 203.147L161.844 200.231L160.583 199.511L161.777 202.426Z" fill="#B2B2B2"/>
<path d="M165.079 198.383L162.386 200.791V199.586L165.079 198.383Z" fill="#9D9D9C"/>
<path d="M160.236 199.533L162.386 200.792V199.587L160.236 198.33V199.533Z" fill="#C6C6C6"/>
<path d="M162.386 199.586L165.079 198.383L162.929 197.124L160.236 198.329L162.386 199.586Z" fill="#EDEDED"/>
<path opacity="0.2" d="M136.303 253.037L138.807 254.467C156.104 246.202 181.881 246.707 198.126 255.997C214.371 265.287 215.256 280.028 200.801 289.918L203.305 291.349L197.689 294.56L195.186 293.129C177.889 301.396 152.112 300.889 135.866 291.599C119.621 282.309 118.736 267.569 133.191 257.678L130.688 256.247L136.303 253.037Z" fill="#1D1D1B"/>
<path d="M140.851 223.76C140.865 223.704 144.764 221.961 146.54 221.169C147.112 220.915 147.727 220.787 148.353 220.792L152.172 220.823C154.174 220.733 154.556 221.798 153.097 221.903L154.114 221.822C156.067 221.601 156.402 222.869 155.11 222.935L155.689 222.975C157.41 222.796 157.917 224.314 156.704 224.404L156.048 224.468C157.806 224.477 158.22 225.573 156.937 226.012L150.043 227.872L147.941 229.141C146.761 229.842 146.128 232.94 146.128 232.94L146.241 236.58C145.704 238.106 143.998 237.781 144.037 236.144L143.262 232.534L140.85 229.801L140.851 223.76Z" fill="#FFBB7D"/>
<path d="M48.4519 275.761L40.1418 280.748L34.1845 287.32C33.4674 288.133 34.1669 289.228 35.0242 288.782L34.1827 289.81C33.2395 290.883 34.3019 292.359 35.4643 291.68L34.9716 292.397C33.8198 293.88 35.0242 295.134 36.4461 294.217L37.1263 293.75C35.9043 295 37.2596 296.431 38.4202 295.362L45.2822 289.933L48.9937 288.442C50.8468 287.471 51.9057 288.237 52.607 289.784L53.687 292.783C54.0621 293.821 55.0685 294.505 56.1835 294.474L56.2168 294.472C56.9356 294.453 57.6667 293.774 57.3879 293.118C55.7435 289.237 56.1309 283.484 56.1309 283.344C56.1309 283.165 56.2203 278.424 56.2203 278.424L48.4519 275.761Z" fill="#FFBB7D"/>
<path d="M64.308 291.544C65.0811 292.07 66.2522 292.511 67.5251 292.789C68.705 293.06 69.9848 293.192 71.1173 293.138C71.2348 293.138 71.3435 293.13 71.4522 293.13C72.42 293.13 73.3106 293.331 73.9435 293.694L76.9572 295.418L98.5828 307.787C99.0509 308.058 99.3718 308.398 99.505 308.792C99.5594 308.962 99.5839 309.148 99.5681 309.334C99.5681 309.381 99.5594 309.419 99.5524 309.466C99.1614 311.656 100.762 313.357 103.895 314.215C104.216 314.307 104.559 314.394 104.919 314.463C105.294 314.541 105.692 314.611 106.106 314.656L106.2 314.672C106.255 314.679 106.309 314.687 106.364 314.694C106.637 314.732 106.972 314.772 107.238 314.772C107.543 314.772 107.763 314.719 107.878 314.602C107.917 314.564 107.941 314.524 107.948 314.486V316.379C107.95 316.384 107.948 316.389 107.948 316.394V316.519L107.919 316.512C107.906 316.533 107.899 316.552 107.878 316.573C107.761 316.681 107.542 316.736 107.238 316.736C106.918 316.736 106.488 316.674 106.2 316.636L106.106 316.627C101.796 316.064 99.3718 314.305 99.505 311.874V310.827C99.3858 310.412 99.0808 310.037 98.5846 309.752L76.959 297.384L73.9452 295.66C73.3123 295.297 72.4217 295.095 71.454 295.095C71.3453 295.095 71.2348 295.102 71.1191 295.111C68.7611 295.227 65.7999 294.515 64.3097 293.51C63.4121 292.914 62.8423 291.862 62.8423 290.733V288.761C62.8405 289.888 63.4103 290.94 64.308 291.544Z" fill="#9D9D9C"/>
<path d="M104.99 310.964C106.325 310.075 108.121 309.502 110.081 309.316C110.3 309.316 110.517 309.37 110.619 309.44L113.407 312.294C113.641 312.534 114.336 312.527 114.571 312.294C115.249 311.567 115.547 310.725 115.554 309.921C115.554 309.902 115.552 309.882 115.552 309.862C115.554 309.829 115.559 309.804 115.559 309.764V311.713C115.561 311.751 115.559 311.791 115.559 311.829V311.968H115.556C115.526 312.746 115.226 313.552 114.569 314.26C114.334 314.5 113.64 314.5 113.405 314.269L110.617 311.414C110.516 311.338 110.296 311.282 110.079 311.282C108.731 311.364 107.039 312.025 106.038 312.395L104.958 311.296C104.879 311.181 104.904 311.042 104.99 310.964Z" fill="#9D9D9C"/>
<path d="M73.4302 287.336C73.5161 287.443 73.5003 287.591 73.4144 287.667C73.0936 287.884 72.7342 288.077 72.3608 288.247L70.6269 286.438L70.5322 286.346C70.4849 286.292 70.4463 286.223 70.4463 286.153V284.212C70.4533 284.274 70.4849 284.335 70.5322 284.373L73.4302 287.336Z" fill="#9D9D9C"/>
<path d="M107.239 314.771C106.973 314.771 106.638 314.733 106.364 314.693C106.31 314.684 106.254 314.677 106.201 314.67L106.107 314.654C105.693 314.607 105.295 314.538 104.92 314.462C104.56 314.392 104.217 314.307 103.896 314.213C100.765 313.354 99.1639 311.654 99.5531 309.464C99.5601 309.417 99.5689 309.379 99.5689 309.332C99.5847 309.146 99.5601 308.961 99.5058 308.79C99.3726 308.396 99.0535 308.056 98.5836 307.785L76.958 295.417L73.9443 293.692C73.3114 293.328 72.4207 293.128 71.453 293.128C71.3443 293.128 71.2338 293.137 71.1181 293.137C69.9856 293.19 68.704 293.06 67.5258 292.788C66.253 292.51 65.0819 292.069 64.3087 291.543C63.4111 290.938 62.8413 289.888 62.8413 288.757C62.8413 288.525 62.8641 288.294 62.9184 288.061C63.0359 287.472 63.3322 286.877 63.8319 286.337C64.0668 286.097 64.754 286.088 64.996 286.337L67.5258 288.921L67.7836 289.183C67.8765 289.252 68.1044 289.306 68.3148 289.306C69.4228 289.205 70.4624 288.966 71.4144 288.634C71.7423 288.518 72.0631 288.386 72.3594 288.247C72.7346 288.077 73.094 287.884 73.413 287.667C73.499 287.59 73.5147 287.443 73.4288 287.335L70.5308 284.373C70.4835 284.335 70.4537 284.272 70.4449 284.211C70.4449 284.149 70.4607 284.088 70.5238 284.026C70.6413 283.918 70.8516 283.862 71.1567 283.862C71.2268 283.862 71.3057 283.862 71.3916 283.871C71.6651 283.887 71.9772 283.925 72.2034 283.963L72.2963 283.972C76.8581 284.567 79.302 286.509 78.8479 289.169C78.7305 289.818 79.0899 290.429 79.8175 290.855L101.441 303.215L104.455 304.939C105.079 305.302 105.963 305.496 106.939 305.496H107.283C109.625 305.373 112.602 306.085 114.092 307.082C114.99 307.683 115.553 308.74 115.551 309.862C115.551 309.881 115.555 309.9 115.553 309.921C115.546 310.725 115.248 311.569 114.569 312.295C114.334 312.527 113.64 312.534 113.405 312.295L110.618 309.44C110.516 309.37 110.297 309.317 110.079 309.317C108.119 309.502 106.322 310.074 104.988 310.964C104.902 311.043 104.879 311.182 104.956 311.298L106.036 312.397L106.417 312.784L106.98 313.357L107.862 314.255C107.893 314.293 107.932 314.347 107.947 314.394V314.486C107.94 314.524 107.916 314.562 107.877 314.602C107.762 314.715 107.542 314.771 107.239 314.771Z" fill="#C6C6C6"/>
<path d="M145.449 250.942H55.0386V259.894H145.449V250.942Z" fill="#706F6F"/>
<path d="M132.211 232.663C149.865 242.759 149.865 259.127 132.211 269.222C114.558 279.318 85.9334 279.318 68.2805 269.222C50.6259 259.127 50.6259 242.759 68.2805 232.663C85.9334 222.568 114.556 222.568 132.211 232.663Z" fill="#706F6F"/>
<path d="M132.21 241.616C149.865 251.711 149.865 268.079 132.21 278.174C114.557 288.27 85.9329 288.27 68.28 278.174C50.6254 268.079 50.6254 251.711 68.28 241.616C85.9329 231.52 114.556 231.52 132.21 241.616Z" fill="#706F6F"/>
<path d="M143.041 256.496V252.321H57.4463V256.496C57.4463 262.759 61.6241 269.022 69.9816 273.801C86.6948 283.358 113.792 283.358 130.505 273.801C138.863 269.024 143.041 262.759 143.041 256.496Z" fill="#706F6F"/>
<path d="M130.506 235.017C147.219 244.574 147.219 260.07 130.506 269.627C113.793 279.184 86.6953 279.184 69.9821 269.627C53.269 260.07 53.269 244.574 69.9821 235.017C86.6953 225.459 113.793 225.459 130.506 235.017Z" fill="#DADADA"/>
<path d="M137.652 254.228C136.899 259.079 133.281 263.803 126.799 267.51C112.13 275.897 88.3518 275.897 73.6829 267.51C67.2083 263.803 63.588 259.079 62.8376 254.228C61.8839 248.116 65.5042 241.811 73.6829 237.131C88.3518 228.744 112.13 228.744 126.799 237.131C134.985 241.811 138.598 248.116 137.652 254.228Z" fill="#706F6F"/>
<path d="M137.652 254.228C136.9 259.08 133.281 263.803 126.8 267.51C112.131 275.897 88.3521 275.897 73.6831 267.51C67.2086 263.803 63.5883 259.08 62.8379 254.228C63.59 249.384 67.2086 244.661 73.6831 240.953C88.3521 232.566 112.131 232.566 126.8 240.953C133.281 244.659 136.901 249.384 137.652 254.228Z" fill="#3C3C3B"/>
<path d="M78.768 236.579L73.0964 239.821L68.6626 237.286L74.3324 234.044L78.768 236.579Z" fill="#706F6F"/>
<path d="M133.081 266.291L127.411 269.533L122.977 266.998L128.647 263.756L133.081 266.291Z" fill="#1D1D1B"/>
<path d="M133.08 266.29L130.717 267.641L130.673 264.913L133.08 266.29Z" fill="#706F6F"/>
<path d="M71.1679 238.718L71.2643 239.965L74.3324 238.116V234.044L68.6626 237.286L71.1679 238.718Z" fill="#878787"/>
<path d="M76.8038 239.533L71.2637 243.424V239.966L74.3318 238.116L76.8038 239.533Z" fill="#3C3C3B"/>
<path d="M137.655 254.225C136.902 259.076 133.284 263.799 126.802 267.506C122.561 269.932 117.568 271.65 112.242 272.674C112.119 272.702 111.99 272.724 111.86 272.745C107.582 273.541 103.096 273.883 98.6443 273.777C92.431 273.626 86.2598 272.596 80.767 270.693C80.6373 270.642 80.5075 270.599 80.3778 270.55C79.1786 270.128 78.0145 269.656 76.8872 269.14C75.8756 268.682 74.9008 268.189 73.9611 267.659C73.8664 267.616 73.7805 267.559 73.6859 267.508C70.1953 265.511 67.5374 263.214 65.7088 260.766C64.834 259.592 64.1485 258.383 63.6488 257.159C63.2666 256.194 62.9914 255.213 62.8389 254.225C63.4753 250.102 66.191 246.074 70.9754 242.681C71.4313 242.353 71.9081 242.03 72.406 241.722C72.818 241.458 73.2441 241.2 73.6841 240.95C74.7395 240.349 75.83 239.79 76.9713 239.283C79.4574 238.152 82.131 237.235 84.9273 236.527C94.1754 234.158 104.747 234.044 114.127 236.176C118.745 237.221 123.065 238.817 126.801 240.95C133.284 244.657 136.904 249.38 137.655 254.225Z" fill="#1D1D1B"/>
<path d="M141.377 230.952C140.835 230.874 140.27 230.702 139.687 230.43L124.513 225.09L112.193 220.117L109.332 218.966L106.709 194.819V194.097C114.498 195.17 118.827 201.839 128.031 209.226L145.453 221.664C148.87 225.521 146.145 231.689 141.377 230.952Z" fill="#516A96"/>
<path opacity="0.15" d="M141.377 230.954C140.836 230.876 140.271 230.704 139.687 230.431L124.514 225.092L112.194 220.119L112.953 212.555L126.847 222.56L141.377 230.954Z" fill="black"/>
<path d="M98.6445 273.779L111.615 270.408L111.86 272.749C107.582 273.542 103.094 273.885 98.6445 273.779Z" fill="#1E2E4D"/>
<path d="M112.242 272.677C112.119 272.705 111.989 272.728 111.859 272.749C107.582 273.544 103.095 273.886 98.6438 273.78C92.4305 273.629 86.2593 272.599 80.7665 270.696C80.6368 270.646 80.5071 270.602 80.3773 270.554C79.1781 270.132 78.014 269.66 76.8867 269.144L81.5187 267.989L82.0394 267.861L107.496 259.76L112.077 259.474C112.271 263.624 112.14 268.019 112.242 272.677Z" fill="#29406A"/>
<path d="M114.129 236.177C114.027 238.788 113.912 241.28 113.782 243.576C113.342 251.183 112.835 256.557 112.835 256.557C112.835 256.708 112.835 256.873 112.805 257.03C112.734 257.867 112.481 258.69 112.076 259.469C111.889 259.841 111.664 260.206 111.412 260.556C106.838 266.811 92.5087 270.475 83.3694 270.626C82.4507 270.654 81.5846 270.633 80.7904 270.582C80.6537 270.575 80.5152 270.562 80.3784 270.546C79.1792 270.124 78.0151 269.652 76.8878 269.136C75.8762 268.678 74.9014 268.184 73.9617 267.655C73.2675 266.073 73.1816 263.783 72.7555 260.692C72.2208 255.783 71.758 251.28 71.3758 247.181C71.3477 246.887 71.3249 246.594 71.2969 246.3C71.225 245.521 71.1601 244.748 71.0953 243.996C71.0585 243.551 71.0234 243.116 70.9796 242.68C69.8523 229.169 69.5998 220.323 69.8014 215.527V215.491C69.8154 214.553 69.8873 213.767 69.9522 213.122C69.9522 213.079 69.9522 213.044 69.9592 213.008C71.4687 211.24 73.399 209.452 75.5238 207.691C78.8549 204.928 82.6769 202.266 86.1955 200.012C86.5707 199.769 86.9476 199.533 87.3158 199.304C88.5378 198.76 89.744 198.238 90.9221 197.765C91.3271 197.593 91.7321 197.435 92.1283 197.279C94.1445 196.493 96.066 195.812 97.8665 195.289C98.033 195.232 98.2066 195.189 98.3714 195.138C99.774 194.723 101.096 194.409 102.323 194.194C104.129 193.864 105.712 193.765 107.027 193.907H107.034C107.569 193.971 108.067 194.157 108.529 194.464C108.805 194.643 109.071 194.866 109.324 195.123L109.388 195.187C112.821 198.816 114.048 209.493 114.28 220.957C114.389 226.064 114.303 231.317 114.129 236.177Z" fill="#29406A"/>
<path d="M114.129 236.177C114.027 238.788 113.912 241.28 113.782 243.576C113.342 251.183 112.835 256.557 112.835 256.557C112.835 256.708 112.835 256.873 112.805 257.03C112.734 257.867 112.481 258.69 112.076 259.469C111.889 259.841 111.664 260.206 111.412 260.556C106.838 266.811 92.5087 270.475 83.3694 270.626C82.4507 270.654 81.5846 270.633 80.7904 270.582C80.6537 270.575 80.5152 270.562 80.3784 270.546C79.1792 270.124 78.0151 269.652 76.8878 269.136C75.8762 268.678 74.9014 268.184 73.9617 267.655C73.2675 266.073 73.1816 263.783 72.7555 260.692C72.2208 255.783 71.758 251.28 71.3758 247.181C71.3477 246.887 71.3249 246.594 71.2969 246.3C71.225 245.521 71.1601 244.748 71.0953 243.996C71.0585 243.551 71.0234 243.116 70.9796 242.68C69.8523 229.169 69.5998 220.323 69.8014 215.527V215.491C69.8154 214.553 69.8873 213.767 69.9522 213.122C69.9522 213.079 69.9522 213.044 69.9592 213.008C71.4687 211.24 73.399 209.452 75.5238 207.691C78.8549 204.928 82.6769 202.266 86.1955 200.012C86.5707 199.769 86.9476 199.533 87.3158 199.304C88.5378 198.76 89.744 198.238 90.9221 197.765C91.3271 197.593 91.7321 197.435 92.1283 197.279C94.1445 196.493 96.066 195.812 97.8665 195.289C98.033 195.232 98.2066 195.189 98.3714 195.138C99.774 194.723 101.096 194.409 102.323 194.194C104.129 193.864 105.712 193.765 107.027 193.907H107.034C107.569 193.971 108.067 194.157 108.529 194.464C108.805 194.643 109.071 194.866 109.324 195.123L109.388 195.187C112.821 198.816 114.048 209.493 114.28 220.957C114.389 226.064 114.303 231.317 114.129 236.177Z" fill="#29406A"/>
<path d="M86.1792 230.153C84.7118 242.047 80.7969 244.365 77.003 244.796C75.0096 245.025 73.0513 244.725 71.498 245.018C71.4699 245.447 71.3963 245.878 71.2964 246.307C70.7985 248.453 69.5555 250.594 68.6666 252.976C68.6666 252.976 58.6366 279.684 57.4514 280.973C57.3287 281.108 57.192 281.237 57.0464 281.351C53.3104 284.371 44.7285 281.488 44.7285 276.795C44.7285 275.651 53.491 243.652 53.519 243.429C57.4497 234.662 59.9567 230.246 65.8317 218.645C67.0957 216.148 68.4983 214.337 69.9499 213.127C77.9778 206.43 87.7115 217.779 86.1792 230.153Z" fill="#516A96"/>
<path d="M109.334 218.967C104.821 222.56 103.049 224.329 93.7972 227.298C90.9676 212.152 82.8626 207.986 75.522 207.699C78.6479 204.52 83.5341 201.054 87.342 198.66C91.3182 196.888 95.0508 196.081 98.3696 195.142C99.5319 195.338 100.48 195.536 100.985 195.642C108.003 195.687 111.384 211.289 109.334 218.967Z" fill="#516A96"/>
<path opacity="0.15" d="M81.5195 267.989C81.2232 268.848 80.9777 269.713 80.7902 270.587C80.7831 270.623 80.7761 270.658 80.7691 270.694C80.6394 270.644 80.5096 270.6 80.3799 270.552C79.1807 270.13 78.0166 269.658 76.8893 269.142C75.8777 268.683 74.9029 268.19 73.9632 267.661C73.269 266.079 73.1831 263.788 72.757 260.698C72.2223 255.789 71.7595 251.286 71.3773 247.186C71.3492 246.893 71.3264 246.6 71.2984 246.306C70.8005 248.452 69.5575 250.593 68.6686 252.976C68.6686 252.976 67.3975 256.353 65.7127 260.769C62.6499 268.763 58.2196 280.142 57.4534 280.972C57.3307 281.108 57.194 281.236 57.0484 281.351L56.8608 280.972L63.6527 257.162L65.0623 250.352C67.2152 248.055 68.5757 246.032 70.3815 243.076C70.8285 242.34 71.8822 240.748 72.3082 239.966C74.2087 236.532 75.9934 234.505 77.4521 230.432C77.2066 233.337 77.0331 236.308 76.9752 239.284C76.9384 241.123 76.9472 242.962 77.0033 244.795C77.2417 253.212 78.5198 261.383 81.5195 267.989Z" fill="black"/>
<path d="M100.628 202.395C100.318 202.986 99.7759 203.547 98.9852 204.026C98.9203 204.076 98.8537 204.125 98.7871 204.158C95.9048 205.826 91.2116 205.854 88.31 204.217C85.4085 202.581 85.3927 199.897 88.275 198.226C88.9342 197.861 89.6758 197.563 90.4682 197.363C90.8802 197.247 91.3255 197.162 91.7726 197.094C92.004 197.059 92.2179 197.042 92.4493 197.025C92.8122 196.99 93.1751 196.971 93.5398 196.969C95.4245 196.959 97.3109 197.356 98.752 198.167C99.7461 198.735 100.395 199.419 100.714 200.136C100.798 200.315 100.847 200.496 100.882 200.692C101.003 201.263 100.907 201.836 100.628 202.395Z" fill="#FFBB7D"/>
<path d="M100.824 182.18L86.0166 182.264L86.1258 201.243L100.933 201.159L100.824 182.18Z" fill="#FFBB7D"/>
<path opacity="0.1" d="M100.884 200.688C101.003 201.261 100.907 201.834 100.63 202.392C100.319 202.982 99.7777 203.543 98.987 204.022C95.2422 202.423 93.361 200.06 92.4511 197.021C92.1811 196.121 91.9935 195.173 91.8726 194.159H91.8883L101.827 195.085L102.339 200.615L100.884 200.688Z" fill="#21211F"/>
<path d="M107.462 190.244L106.231 190.668C106.282 191.54 106.708 195.221 106.708 195.221C106.733 195.818 106.684 196.464 106.533 197.112C106.156 198.829 105.127 200.47 103.191 200.571L102.337 200.621L100.931 200.696H100.881L100.377 200.72C98.5435 200.646 96.1574 199.6 94.2727 197.76C94.022 197.51 93.7713 197.237 93.5452 196.963C92.8667 196.141 92.2636 195.195 91.8866 194.151C91.5605 193.306 91.3589 192.385 91.3081 191.391H91.0819C89.6496 191.465 87.565 192.212 86.0836 192.212C85.3052 192.212 84.7021 192.038 84.4005 191.441C83.1452 188.928 83.3959 186.339 83.0698 183.528C83.019 182.333 83.2452 181.837 83.3469 180.89C84.2515 171.236 89.9283 170.889 94.2745 170.539C98.1438 170.366 102.011 171.908 104.397 175.665C105.001 176.636 105.504 177.756 105.881 179.05C106.182 179.996 106.382 181.015 106.533 182.135C106.307 182.981 106.031 183.703 106.031 183.703L106.408 184.474L108.293 188.331C108.644 189.076 108.267 189.996 107.462 190.244Z" fill="#FFBB7D"/>
<path d="M92.8592 169.093C86.3794 169.617 83.0238 172.863 82.3961 179.273C81.7843 185.514 83.6006 192.335 86.1462 194.688C95.0454 195.851 89.3002 186.353 89.3002 186.353C89.3002 186.353 89.7648 186.966 90.3363 187.706L94.7158 184.972C94.1688 177.499 94.0549 174.38 104.399 175.667C105.128 173.488 104.378 168.16 92.8592 169.093Z" fill="#1D1D1B"/>
<path d="M87.8907 187.316C88.066 189.325 89.9788 191.497 91.3059 191.382C92.6314 191.269 92.3438 189.653 92.1878 187.642C92.0861 186.312 92.2597 184.395 90.7677 184.1C89.4633 183.844 87.633 184.371 87.8907 187.316Z" fill="#FFBB7D"/>
<path opacity="0.1" d="M106.029 183.7L107.135 185.963C101.574 187.114 93.4358 184.471 90.9077 179.172C91.9631 179.346 93.0431 179.321 94.1231 179.297H94.6245C98.3921 179.222 102.135 179.123 105.878 179.047C106.18 179.993 106.38 181.013 106.53 182.133C106.306 182.98 106.029 183.7 106.029 183.7Z" fill="#1D1D1B"/>
<path d="M82.2576 180.682L107.135 178.979L105.92 173.283C105.082 168.152 100.738 167.168 96.6426 167.586C96.6426 167.586 83.5971 167.499 81.9351 177.366L82.2576 180.682Z" fill="#29406A"/>
<path d="M96.813 179.684C112.192 184.47 119.364 182.172 120.087 178.007L106.794 177.146C105.391 178.318 101.596 179.083 96.813 179.684Z" fill="#516A96"/>
<path d="M214.858 271.029L214.36 270.959C213.739 265.691 210.348 260.232 204.056 255.37C189.268 243.939 163.81 239.898 145.524 245.71L143.245 243.949L140.526 245.039L140.805 243.07L137.759 242.648L136.974 248.2L138.866 248.462C133.457 251.292 129.865 254.968 128.159 259.04L127.666 258.973L127.072 263.176L127.091 263.18C126.423 269.424 129.791 276.189 137.416 282.083C152.204 293.514 177.662 297.554 195.948 291.742L198.227 293.503L204.239 291.095L204.703 287.808C210.278 284.349 213.495 279.877 214.279 275.055L214.291 275.057L214.858 271.029Z" fill="#3C3C3B"/>
<path d="M143.768 240.236L146.048 241.997C164.333 236.185 189.792 240.225 204.58 251.656C219.368 263.087 218.183 277.807 202.481 285.617L204.76 287.378L198.749 289.788L196.469 288.028C178.184 293.839 152.726 289.799 137.937 278.368C123.149 266.937 124.336 252.217 140.036 244.407L137.759 242.646L143.768 240.236Z" fill="#878787"/>
<path d="M200.309 253.271C201.971 254.556 203.407 255.89 204.603 257.251C205.9 258.715 206.92 260.21 207.685 261.717C208.549 263.402 209.077 265.1 209.28 266.779C209.315 267.031 209.343 267.284 209.357 267.538C209.476 269.314 209.224 271.064 208.623 272.744C208.533 272.981 208.44 273.219 208.337 273.452C207.671 275.008 206.694 276.498 205.4 277.88C204.247 279.121 202.851 280.281 201.198 281.335C199.671 282.318 197.921 283.211 195.966 283.994C194.012 284.777 191.941 285.416 189.776 285.913C187.46 286.449 185.037 286.821 182.556 287.034C179.784 287.281 176.937 287.324 174.076 287.182C173.648 287.163 173.21 287.137 172.779 287.109C169.726 286.895 166.669 286.472 163.676 285.847C163.252 285.756 162.824 285.663 162.409 285.565C159.617 284.923 156.891 284.107 154.295 283.117C151.968 282.235 149.747 281.223 147.662 280.075C145.723 279.012 143.905 277.831 142.243 276.546C140.581 275.261 139.145 273.928 137.95 272.566C136.652 271.103 135.632 269.608 134.868 268.1C134.003 266.416 133.476 264.718 133.267 263.04C133.232 262.789 133.209 262.533 133.188 262.282C133.074 260.503 133.321 258.755 133.924 257.076C134.012 256.838 134.107 256.6 134.21 256.367C134.876 254.812 135.853 253.322 137.152 251.938C138.304 250.696 139.706 249.534 141.354 248.482C142.887 247.496 144.631 246.607 146.586 245.822C148.541 245.039 150.617 244.398 152.777 243.903C155.098 243.365 157.515 242.995 159.996 242.782C162.763 242.537 165.61 242.493 168.471 242.636C168.899 242.655 169.337 242.681 169.768 242.71C172.821 242.924 175.884 243.346 178.871 243.973C179.299 244.061 179.721 244.157 180.139 244.254C182.935 244.893 185.656 245.713 188.258 246.701C190.584 247.583 192.805 248.595 194.888 249.745C196.827 250.806 198.645 251.985 200.309 253.271Z" fill="#3C3C3B"/>
<path d="M197.779 254.994C198.172 254.836 198.219 254.499 197.886 254.242C197.553 253.983 196.964 253.902 196.571 254.06L191.755 255.989L188.631 253.573L192.944 251.846C193.337 251.688 193.384 251.351 193.051 251.094C192.718 250.835 192.129 250.753 191.736 250.911L187.423 252.639L184.299 250.226L187.029 249.132C187.422 248.974 187.469 248.637 187.136 248.38C186.803 248.121 186.214 248.039 185.821 248.197L183.091 249.291L179.364 246.409C179.029 246.15 178.44 246.069 178.049 246.227L173.664 247.984L169.937 245.101C169.602 244.843 169.015 244.761 168.622 244.919L164.243 246.675L161.925 244.883C161.592 244.626 161.003 244.542 160.61 244.7C160.217 244.858 160.17 245.195 160.503 245.452L162.821 247.244L159.148 248.717L155.484 245.885C155.151 245.628 154.561 245.544 154.169 245.702C153.776 245.86 153.729 246.197 154.062 246.454L157.726 249.286L154.053 250.759L149.961 247.597C149.626 247.338 149.039 247.256 148.646 247.414C148.253 247.572 148.206 247.909 148.539 248.166L152.631 251.328L148.958 252.801L145.294 249.969C144.961 249.71 144.372 249.628 143.979 249.786C143.586 249.944 143.539 250.281 143.872 250.538L147.536 253.37L143.863 254.843L141.546 253.051C141.213 252.792 140.624 252.71 140.231 252.868C139.838 253.026 139.791 253.363 140.124 253.62L142.442 255.412L138.059 257.17C137.666 257.328 137.619 257.664 137.952 257.921L141.679 260.804L137.296 262.561C136.903 262.719 136.856 263.056 137.189 263.313L140.918 266.195L138.194 267.288C137.801 267.446 137.754 267.783 138.087 268.04C138.42 268.298 139.009 268.38 139.402 268.222L142.128 267.13L145.252 269.545L140.944 271.271C140.552 271.429 140.504 271.766 140.837 272.023C141.171 272.282 141.76 272.363 142.152 272.205L146.46 270.479L149.584 272.895L144.773 274.822C144.381 274.98 144.333 275.317 144.666 275.574C145 275.833 145.589 275.914 145.981 275.756L150.792 273.829L153.916 276.244L149.609 277.97C149.216 278.128 149.169 278.465 149.502 278.722C149.835 278.979 150.426 279.062 150.817 278.904L155.124 277.178L158.248 279.592L155.524 280.684C155.131 280.842 155.084 281.179 155.417 281.436C155.75 281.693 156.339 281.776 156.732 281.618L159.456 280.526L163.185 283.409C163.518 283.667 164.108 283.749 164.5 283.591L168.885 281.834L172.614 284.716C172.947 284.975 173.536 285.057 173.929 284.899L178.314 283.141L180.631 284.933C180.964 285.192 181.554 285.274 181.946 285.116C182.339 284.958 182.386 284.621 182.053 284.364L179.736 282.572L183.408 281.099L187.073 283.931C187.406 284.19 187.995 284.272 188.388 284.114C188.78 283.956 188.828 283.619 188.494 283.362L184.83 280.53L188.503 279.057L192.595 282.219C192.928 282.476 193.517 282.56 193.91 282.402C194.303 282.244 194.35 281.907 194.017 281.65L189.925 278.488L193.598 277.015L197.262 279.847C197.595 280.106 198.184 280.188 198.577 280.03C198.97 279.872 199.017 279.535 198.684 279.278L195.02 276.446L198.693 274.973L201.01 276.765C201.344 277.024 201.933 277.105 202.325 276.947C202.718 276.789 202.765 276.453 202.432 276.196L200.115 274.404L204.494 272.648C204.887 272.492 204.934 272.153 204.601 271.896L200.872 269.014L205.257 267.256C205.649 267.098 205.697 266.762 205.364 266.505L201.635 263.622L204.364 262.528C204.757 262.37 204.804 262.033 204.471 261.776C204.138 261.518 203.549 261.436 203.156 261.594L200.427 262.688L197.302 260.274L201.615 258.547C202.008 258.389 202.055 258.052 201.722 257.795C201.389 257.538 200.8 257.454 200.407 257.612L196.095 259.34L192.97 256.925L197.779 254.994ZM190.334 256.558L186.661 258.031L183.536 255.615L187.209 254.143L190.334 256.558ZM171.169 265.659L174.294 268.074L170.621 269.547L167.496 267.131L171.169 265.659ZM166.287 266.197L163.163 263.784L166.836 262.311L169.96 264.725L166.287 266.197ZM172.591 265.089L176.264 263.617L179.388 266.031L175.715 267.503L172.591 265.089ZM171.382 264.155L168.257 261.74L171.93 260.267L175.054 262.681L171.382 264.155ZM167.049 260.806L163.925 258.392L167.598 256.919L170.722 259.333L167.049 260.806ZM165.628 261.375L161.955 262.848L158.83 260.434L162.503 258.962L165.628 261.375ZM160.531 263.417L156.858 264.89L153.734 262.476L157.407 261.004L160.531 263.417ZM161.741 264.353L164.865 266.767L161.192 268.239L158.068 265.824L161.741 264.353ZM166.075 267.701L169.199 270.116L165.526 271.589L162.402 269.173L166.075 267.701ZM170.407 271.051L173.531 273.464L169.858 274.937L166.734 272.521L170.407 271.051ZM171.829 270.481L175.502 269.009L178.626 271.424L174.953 272.896L171.829 270.481ZM176.923 268.439L180.596 266.966L183.721 269.382L180.048 270.854L176.923 268.439ZM182.018 266.397L185.691 264.924L188.815 267.34L185.142 268.812L182.018 266.397ZM180.808 265.463L177.684 263.047L181.357 261.575L184.481 263.988L180.808 265.463ZM176.476 262.113L173.352 259.698L177.025 258.225L180.149 260.639L176.476 262.113ZM172.144 258.764L169.02 256.35L172.693 254.877L175.817 257.293L172.144 258.764ZM174.115 254.308L177.782 252.837L180.907 255.251L177.239 256.722L174.115 254.308ZM172.905 253.374L169.781 250.96L173.449 249.489L176.573 251.903L172.905 253.374ZM171.483 253.943L167.81 255.416L164.686 253L168.359 251.528L171.483 253.943ZM166.388 255.985L162.716 257.458L159.591 255.042L163.264 253.57L166.388 255.985ZM161.294 258.027L157.621 259.5L154.497 257.086L158.17 255.614L161.294 258.027ZM156.199 260.069L152.526 261.542L149.402 259.126L153.075 257.654L156.199 260.069ZM151.104 262.111L147.431 263.584L144.307 261.169L147.98 259.696L151.104 262.111ZM152.314 263.046L155.438 265.459L151.765 266.932L148.641 264.518L152.314 263.046ZM156.646 266.395L159.77 268.811L156.097 270.283L152.973 267.868L156.646 266.395ZM160.98 269.743L164.104 272.157L160.431 273.629L157.307 271.215L160.98 269.743ZM165.312 273.093L168.436 275.506L164.763 276.979L161.639 274.563L165.312 273.093ZM169.644 276.442L172.768 278.856L169.095 280.328L165.971 277.915L169.644 276.442ZM171.066 275.873L174.739 274.4L177.863 276.815L174.19 278.288L171.066 275.873ZM176.161 273.831L179.834 272.358L182.958 274.773L179.285 276.246L176.161 273.831ZM181.256 271.789L184.928 270.316L188.053 272.73L184.38 274.202L181.256 271.789ZM186.35 269.746L190.023 268.274L193.147 270.689L189.474 272.162L186.35 269.746ZM191.447 267.704L195.115 266.234L198.239 268.647L194.571 270.118L191.447 267.704ZM190.237 266.768L187.113 264.355L190.781 262.884L193.905 265.299L190.237 266.768ZM185.903 263.421L182.779 261.005L186.447 259.535L189.571 261.948L185.903 263.421ZM181.571 260.071L178.447 257.657L182.115 256.187L185.239 258.6L181.571 260.071ZM186.001 253.209L182.328 254.681L179.204 252.266L182.877 250.793L186.001 253.209ZM178.545 247.446L181.669 249.861L177.996 251.333L174.872 248.918L178.545 247.446ZM169.116 246.14L172.241 248.555L168.573 250.026L165.449 247.612L169.116 246.14ZM164.027 248.18L167.151 250.594L163.478 252.066L160.354 249.653L164.027 248.18ZM158.932 250.222L162.056 252.637L158.383 254.11L155.259 251.695L158.932 250.222ZM153.837 252.262L156.962 254.678L153.289 256.15L150.164 253.735L153.837 252.262ZM148.743 254.306L151.867 256.72L148.194 258.192L145.07 255.777L148.743 254.306ZM139.975 257.819L143.648 256.346L146.772 258.762L143.099 260.234L139.975 257.819ZM139.214 263.211L142.887 261.738L146.011 264.152L142.338 265.624L139.214 263.211ZM143.546 266.56L147.219 265.088L150.343 267.503L146.67 268.976L143.546 266.56ZM147.878 269.908L151.551 268.435L154.675 270.851L151.002 272.323L147.878 269.908ZM152.212 273.258L155.885 271.785L159.009 274.2L155.336 275.673L152.212 273.258ZM156.544 276.607L160.217 275.135L163.341 277.548L159.668 279.021L156.544 276.607ZM164.001 282.37L160.876 279.955L164.549 278.482L167.674 280.898L164.001 282.37ZM173.429 283.678L170.305 281.262L173.978 279.79L177.102 282.205L173.429 283.678ZM178.524 281.636L175.4 279.222L179.073 277.75L182.197 280.165L178.524 281.636ZM183.617 279.594L180.493 277.18L184.166 275.708L187.29 278.123L183.617 279.594ZM188.712 277.552L185.588 275.138L189.261 273.666L192.385 276.081L188.712 277.552ZM193.807 275.51L190.682 273.096L194.355 271.624L197.48 274.039L193.807 275.51ZM202.571 271.997L198.903 273.468L195.779 271.054L199.447 269.583L202.571 271.997ZM203.332 266.605L199.659 268.078L196.535 265.662L200.208 264.19L203.332 266.605ZM199 263.257L195.327 264.73L192.202 262.316L195.875 260.844L199 263.257ZM194.667 259.908L190.995 261.38L187.87 258.965L191.543 257.493L194.667 259.908Z" fill="#706F6F"/>
<path d="M34.7348 237.047C35.1783 236.794 35.5097 236.504 35.7323 236.191C35.8007 236.094 35.8551 235.997 36.0444 235.443C36.0567 235.365 36.0602 235.288 36.0619 235.212V234.201L36.0602 138.698L36.0619 137.805L36.0602 137.512L36.0619 137.461L36.0584 137.463L33.4111 137.46L32.1208 137.461L29.7487 137.458H26.9962L26.9927 137.46L26.9944 137.675V138.569L26.9927 140.379L26.9944 230.746L26.9962 231.459L26.9927 232.454L26.9944 233.26L26.9962 233.561L26.9944 233.772V233.818L26.9979 234.173L26.9962 234.995L26.9997 235.162C26.9979 235.167 26.9962 235.172 26.9997 235.175L26.9979 235.212C26.9979 235.252 26.9997 235.29 27.0067 235.326C27.0032 235.368 27.0085 235.405 27.0172 235.445C27.0523 235.672 27.1399 235.9 27.2802 236.118L27.2855 236.129C27.4801 236.424 27.7728 236.705 28.1673 236.947C28.2146 236.981 28.2672 237.013 28.3216 237.044C28.5688 237.184 28.8405 237.308 29.1228 237.41C30.0467 237.742 31.132 237.862 32.1769 237.782C32.7922 237.73 33.3936 237.606 33.9371 237.41C34.2193 237.311 34.4876 237.19 34.7348 237.047Z" fill="#DADADA"/>
<path d="M28.3207 135.63C26.55 136.643 26.55 138.285 28.3207 139.298C30.0914 140.31 32.9632 140.31 34.7339 139.298C36.5046 138.285 36.5046 136.643 34.7339 135.63C32.9632 134.618 30.0914 134.618 28.3207 135.63Z" fill="#9D9D9C"/>
<path d="M35.7407 141.267C36.3228 140.934 36.7628 140.547 37.0556 140.133C37.3449 139.724 37.4921 139.288 37.4904 138.85L37.4921 137.793L37.4851 137.791H36.882L32.2782 137.793L30.7616 137.791L30.0551 137.793L29.0137 137.791L28.0652 137.794H27.79L27.4499 137.791H27.3026H26.817H26.3418L26.1735 137.793L26.0403 137.791L25.8615 137.794L25.8194 137.793L25.5494 137.791L25.5459 137.793L25.5477 137.975L25.5459 138.128V138.598V138.682L25.5477 138.849C25.5459 139.724 26.1297 140.597 27.2938 141.266C27.6743 141.483 28.0915 141.663 28.5351 141.811C29.6869 142.193 31.0159 142.334 32.3009 142.236C33.0601 142.179 33.8034 142.042 34.4819 141.821C34.9342 141.67 35.3568 141.486 35.7407 141.267Z" fill="#EDEDED"/>
<path d="M35.7404 140.204C36.9081 139.535 37.4936 138.662 37.4848 137.789C37.4919 137.283 37.2973 136.776 36.901 136.318C36.6223 135.976 36.2296 135.656 35.7404 135.377C34.7639 134.816 33.5349 134.493 32.2621 134.401C31.6941 134.359 31.1173 134.366 30.5527 134.422C29.7848 134.489 29.0415 134.647 28.3647 134.889C28.2911 134.915 28.2157 134.943 28.1438 134.974C27.8931 135.069 27.6565 135.179 27.4321 135.302C27.3865 135.323 27.3391 135.351 27.2953 135.375C26.9867 135.552 26.7203 135.74 26.4958 135.943C26.466 135.965 26.4433 135.988 26.417 136.014C26.3854 136.042 26.3538 136.076 26.3223 136.104C26.3188 136.106 26.3188 136.106 26.317 136.113C26.2592 136.167 26.2048 136.229 26.1557 136.288C26.0768 136.38 26.005 136.474 25.9436 136.566C25.8209 136.747 25.728 136.931 25.6666 137.122C25.6385 137.19 25.6175 137.264 25.6017 137.337C25.5965 137.356 25.5912 137.374 25.5912 137.391C25.5649 137.526 25.5526 137.658 25.5544 137.789C25.5491 137.855 25.5544 137.914 25.5614 137.973C25.5614 138.02 25.5684 138.068 25.5772 138.11C25.6122 138.325 25.6841 138.54 25.7963 138.749C25.8086 138.789 25.8296 138.823 25.8507 138.86C26.1329 139.353 26.6203 139.817 27.3006 140.206C27.681 140.423 28.0965 140.603 28.5418 140.751C29.6937 141.133 31.0173 141.275 32.3024 141.18C33.0598 141.119 33.8031 140.98 34.4851 140.758C34.9304 140.61 35.3547 140.424 35.7404 140.204Z" fill="#9D9D9C"/>
<path d="M35.3299 139.694C35.8576 139.392 36.2486 139.049 36.5115 138.679C36.5922 138.564 36.6571 138.449 36.8815 137.791C36.8973 137.699 36.9008 137.607 36.9025 137.519V136.321L36.9008 130.076L36.9025 129.019L36.9008 128.67L36.9025 128.611L36.899 128.613L33.759 128.609L32.2285 128.611L29.4164 128.607H26.1519L26.1484 128.609L26.1502 128.864V129.925L26.1484 132.07L26.1502 132.226L26.1519 133.072L26.1484 134.251L26.1502 135.206L26.1519 135.56L26.1502 135.812V135.864L26.1537 136.286L26.1519 137.26L26.1554 137.456C26.1537 137.463 26.1519 137.468 26.1537 137.472L26.1519 137.515C26.1519 137.562 26.1537 137.609 26.1625 137.651C26.159 137.699 26.1642 137.744 26.1747 137.79C26.2151 138.059 26.3202 138.33 26.4868 138.588L26.4938 138.601C26.7235 138.95 27.0724 139.285 27.5405 139.571C27.5966 139.613 27.6597 139.649 27.7228 139.686C28.0156 139.853 28.3382 139.998 28.673 140.12C29.7688 140.514 31.0556 140.656 32.2934 140.561C33.0227 140.5 33.7362 140.353 34.3814 140.12C34.7198 140.007 35.0371 139.861 35.3299 139.694Z" fill="#C6C6C6"/>
<path d="M27.7242 126.434C25.6238 127.634 25.6238 129.582 27.7242 130.782C29.8245 131.984 33.2274 131.984 35.3278 130.782C37.4281 129.58 37.4281 127.634 35.3278 126.434C33.2292 125.234 29.8245 125.234 27.7242 126.434Z" fill="#9D9D9C"/>
<path d="M26.5746 131.822L24.5098 133.003L28.2423 139.406L30.3072 138.225L26.5746 131.822Z" fill="#706F6F"/>
<path d="M28.4435 138.045C29.9022 138.878 31.0838 138.203 31.0838 136.536C31.0838 134.869 29.9022 132.841 28.4435 132.007C26.9849 131.174 25.8032 131.849 25.8032 133.516C25.8032 135.183 26.9866 137.213 28.4435 138.045Z" fill="#706F6F"/>
<path d="M26.3781 139.228C27.8368 140.061 29.0184 139.386 29.0184 137.719C29.0184 136.052 27.8368 134.024 26.3781 133.19C24.9194 132.357 23.7378 133.032 23.7378 134.699C23.7395 136.366 24.9212 138.394 26.3781 139.228Z" fill="#DADADA"/>
<path d="M35.8135 130.927C36.2606 130.671 36.627 130.383 36.9005 130.074C36.9847 129.984 37.0583 129.89 37.1249 129.8C37.4177 129.386 37.565 128.952 37.5632 128.513L37.5615 127.54C37.5597 127.509 37.5615 127.478 37.558 127.454H36.5061H34.5583H34.5477L32.2213 127.45H28.6255H28.6149L26.5462 127.452L25.6152 127.45V128.511C25.6152 128.992 25.7906 129.473 26.1482 129.923C26.434 130.288 26.8425 130.624 27.3667 130.927C28.6973 131.687 30.5049 132.015 32.2441 131.909C33.5484 131.826 34.816 131.498 35.8135 130.927Z" fill="#DADADA"/>
<path d="M35.8157 129.87C36.2277 129.634 36.5626 129.375 36.829 129.097C36.8553 129.071 36.8834 129.045 36.9044 129.017C37.3217 128.554 37.5408 128.052 37.5654 127.541C37.5636 127.51 37.5654 127.479 37.5619 127.455C37.5636 126.579 36.9798 125.706 35.8157 125.037C35.4353 124.82 35.0127 124.638 34.5674 124.49C33.8311 124.253 33.0281 124.105 32.2076 124.056C30.9822 123.983 29.7199 124.129 28.6206 124.49C28.1718 124.636 27.751 124.82 27.3671 125.039C26.203 125.704 25.6174 126.578 25.6191 127.451C25.6191 127.932 25.7962 128.416 26.1521 128.863C26.1591 128.875 26.1679 128.891 26.1819 128.904C26.4694 129.253 26.8657 129.58 27.3671 129.87C28.7013 130.629 30.5105 130.96 32.2462 130.846C33.5506 130.768 34.8181 130.439 35.8157 129.87Z" fill="#9D9D9C"/>
<path d="M25.4101 134.296L24.2183 134.978L26.3729 138.674L27.5648 137.992L25.4101 134.296Z" fill="#706F6F"/>
<path d="M26.4947 137.886C27.3362 138.367 28.0182 137.976 28.0182 137.014C28.0182 136.053 27.3362 134.882 26.4947 134.401C25.6532 133.92 24.9712 134.311 24.9712 135.273C24.9694 136.235 25.6532 137.405 26.4947 137.886Z" fill="#706F6F"/>
<path d="M25.3014 138.568C26.1429 139.049 26.8249 138.658 26.8249 137.696C26.8249 136.734 26.1429 135.564 25.3014 135.083C24.4598 134.602 23.7778 134.993 23.7778 135.954C23.7778 136.916 24.4598 138.085 25.3014 138.568Z" fill="#DADADA"/>
<path d="M24.6305 135.762L20.8242 137.938L22.0874 140.105L25.8937 137.929L24.6305 135.762Z" fill="#706F6F"/>
<path d="M25.2659 137.866C25.7586 138.147 26.1583 137.92 26.1583 137.355C26.1583 136.791 25.7586 136.105 25.2659 135.824C24.7733 135.542 24.3735 135.77 24.3735 136.334C24.3718 136.899 24.7715 137.584 25.2659 137.866Z" fill="#706F6F"/>
<path d="M21.4581 140.043C21.9507 140.325 22.3522 140.097 22.3522 139.533C22.3522 138.969 21.9525 138.283 21.4581 138.001C20.9654 137.72 20.564 137.948 20.564 138.512C20.564 139.075 20.9637 139.76 21.4581 140.043Z" fill="#DADADA"/>
<path d="M36.0557 0.579102V127.147C36.0557 127.217 36.0557 127.304 36.0382 127.373C35.8628 127.929 35.7927 128.033 35.7401 128.12C35.5122 128.432 35.1791 128.727 34.7408 128.988C34.4954 129.127 34.2148 129.248 33.9343 129.335C33.3908 129.544 32.7948 129.665 32.1811 129.717C31.1292 129.804 30.0423 129.682 29.1131 129.353C28.8326 129.248 28.5696 129.127 28.3241 128.97C28.2715 128.953 28.2189 128.918 28.1663 128.884C27.7631 128.641 27.4826 128.363 27.2897 128.068L27.2722 128.05C27.132 127.824 27.0443 127.599 27.0092 127.373C27.0092 127.338 26.9917 127.304 27.0092 127.269C26.9917 127.217 26.9917 127.182 26.9917 127.147V30.5672C26.9917 30.5498 26.9917 30.5498 26.9917 30.5498V20.9474C26.9917 20.9474 26.9917 20.9474 26.9917 20.93V0.579102H36.0557Z" fill="#DADADA"/>
<path d="M60.6229 221.775C61.0665 221.521 61.3979 221.231 61.6205 220.919C61.6889 220.822 61.7432 220.724 61.9326 220.17C61.9449 220.092 61.9484 220.016 61.9501 219.939V218.929L61.9484 123.425L61.9501 122.533L61.9484 122.239L61.9501 122.189L61.9466 122.191L59.2993 122.187L58.0089 122.189L55.6386 122.186H52.8844L52.8809 122.187L52.8826 122.403V123.299L52.8809 125.108L52.8826 215.475L52.8844 216.189L52.8809 217.184L52.8826 217.989V218.288L52.8809 218.5V218.545L52.8826 218.901L52.8809 219.722L52.8844 219.889C52.8826 219.894 52.8809 219.899 52.8844 219.903L52.8826 219.939C52.8826 219.979 52.8844 220.018 52.8914 220.054C52.8896 220.096 52.8931 220.132 52.9019 220.172C52.937 220.4 53.0246 220.627 53.1666 220.846L53.1719 220.856C53.3665 221.151 53.6593 221.433 54.0537 221.674C54.1011 221.709 54.1554 221.74 54.208 221.771C54.4552 221.912 54.727 222.035 55.0092 222.138C55.9332 222.469 57.0184 222.591 58.0633 222.509C58.6787 222.457 59.28 222.334 59.8252 222.138C60.1075 222.039 60.3757 221.917 60.6229 221.775Z" fill="#DADADA"/>
<path d="M54.2074 120.358C52.4367 121.37 52.4367 123.013 54.2074 124.025C55.9782 125.038 58.8499 125.038 60.6206 124.025C62.3913 123.013 62.3913 121.37 60.6206 120.358C58.8499 119.346 55.9782 119.346 54.2074 120.358Z" fill="#9D9D9C"/>
<path d="M61.6284 125.994C62.2105 125.661 62.6505 125.274 62.9433 124.861C63.2326 124.449 63.3798 124.015 63.3781 123.576L63.3798 122.518L63.3746 122.516H62.7715L58.1676 122.518L56.6511 122.516L55.9446 122.518L54.9032 122.516L53.9547 122.52H53.6794L53.3393 122.516H53.192H52.7064H52.2313L52.063 122.518L51.9297 122.516L51.7509 122.518L51.7071 122.516L51.4371 122.515L51.4336 122.516V122.699V122.852V123.322V123.405L51.4353 123.572C51.4336 124.447 52.0174 125.321 53.1815 125.989C53.562 126.206 53.9775 126.387 54.4228 126.534C55.5746 126.916 56.9036 127.057 58.1886 126.96C58.9478 126.903 59.6911 126.765 60.3696 126.543C60.8237 126.397 61.2445 126.213 61.6284 125.994Z" fill="#EDEDED"/>
<path d="M61.6272 124.931C62.7965 124.263 63.3803 123.39 63.3716 122.516C63.3768 122.011 63.184 121.504 62.7878 121.045C62.509 120.703 62.1163 120.384 61.6254 120.104C60.6489 119.543 59.4199 119.22 58.1471 119.128C57.579 119.087 57.0022 119.094 56.4377 119.149C55.6698 119.217 54.9265 119.375 54.2497 119.616C54.1761 119.642 54.1007 119.67 54.0288 119.701C53.7781 119.797 53.5414 119.906 53.317 120.03C53.2714 120.05 53.2241 120.078 53.1803 120.102C52.8717 120.28 52.6052 120.467 52.3808 120.67C52.351 120.693 52.3282 120.715 52.3019 120.741C52.2704 120.769 52.2388 120.804 52.2073 120.832C52.2038 120.834 52.2038 120.834 52.202 120.84C52.1441 120.894 52.0898 120.957 52.0407 121.016C51.9618 121.108 51.8899 121.202 51.8286 121.294C51.7058 121.474 51.6129 121.658 51.5516 121.849C51.5235 121.917 51.5025 121.992 51.4867 122.065C51.4814 122.084 51.4762 122.101 51.4762 122.118C51.4499 122.254 51.4376 122.388 51.4394 122.516C51.4359 122.58 51.4394 122.641 51.4464 122.7C51.4464 122.747 51.4534 122.796 51.4622 122.837C51.4972 123.053 51.5709 123.268 51.6813 123.476C51.6936 123.516 51.7146 123.551 51.7357 123.587C52.0179 124.081 52.5053 124.544 53.1855 124.933C53.566 125.15 53.9815 125.331 54.4268 125.478C55.5787 125.86 56.9023 126.003 58.1892 125.906C58.9465 125.845 59.6899 125.706 60.3719 125.484C60.8189 125.338 61.2432 125.152 61.6272 124.931Z" fill="#9D9D9C"/>
<path d="M61.2176 124.421C61.7436 124.119 62.1363 123.775 62.3992 123.405C62.4799 123.291 62.5448 123.176 62.7692 122.52C62.7832 122.428 62.7885 122.336 62.7902 122.247V121.049L62.7885 114.805L62.7902 113.747L62.7867 113.398L62.7902 113.339L62.7867 113.341L59.6467 113.338L58.1162 113.339L55.3041 113.336H52.0396L52.0361 113.338L52.0379 113.593V114.654L52.0361 116.798L52.0379 116.955L52.0396 117.8L52.0361 118.979L52.0396 119.934V120.29L52.0379 120.542V120.594L52.0414 121.016L52.0379 121.99L52.0414 122.187C52.0396 122.193 52.0379 122.199 52.0414 122.202L52.0396 122.246C52.0396 122.292 52.0414 122.339 52.0502 122.381C52.0467 122.43 52.0519 122.475 52.0624 122.52C52.1028 122.789 52.2079 123.06 52.3745 123.319L52.3815 123.331C52.6112 123.68 52.9601 124.015 53.4282 124.301C53.4843 124.343 53.5474 124.38 53.6105 124.416C53.9033 124.583 54.2259 124.729 54.5607 124.85C55.6565 125.244 56.9433 125.387 58.1811 125.291C58.9104 125.23 59.6239 125.085 60.2691 124.85C60.6075 124.732 60.9248 124.588 61.2176 124.421Z" fill="#C6C6C6"/>
<path d="M53.6124 111.162C51.512 112.361 51.512 114.31 53.6124 115.51C55.7127 116.71 59.1156 116.71 61.2159 115.51C63.3163 114.308 63.3163 112.361 61.2159 111.162C59.1174 109.962 55.7127 109.962 53.6124 111.162Z" fill="#9D9D9C"/>
<path d="M52.4613 116.55L50.3965 117.73L54.129 124.133L56.1939 122.953L52.4613 116.55Z" fill="#706F6F"/>
<path d="M54.3317 122.772C55.7886 123.605 56.972 122.93 56.972 121.263C56.972 119.596 55.7904 117.567 54.3317 116.734C52.8748 115.901 51.6914 116.576 51.6914 118.243C51.6932 119.912 52.8748 121.94 54.3317 122.772Z" fill="#706F6F"/>
<path d="M52.2653 123.952C53.7222 124.786 54.9056 124.11 54.9056 122.443C54.9056 120.776 53.724 118.748 52.2653 117.915C50.8067 117.081 49.625 117.757 49.625 119.424C49.6268 121.091 50.8084 123.119 52.2653 123.952Z" fill="#DADADA"/>
<path d="M61.7012 115.653C62.1483 115.398 62.5147 115.11 62.7882 114.801C62.8724 114.71 62.9443 114.616 63.0126 114.526C63.3054 114.113 63.4527 113.677 63.4509 113.239L63.4492 112.267C63.4474 112.236 63.4492 112.205 63.4457 112.18H62.3938H60.446H60.4354L58.109 112.177H54.5132H54.5026L52.4339 112.178L51.5029 112.177V113.238C51.5029 113.719 51.6783 114.2 52.0359 114.649C52.3217 115.014 52.7302 115.351 53.2544 115.653C54.585 116.414 56.3926 116.742 58.1317 116.636C59.4361 116.551 60.7037 116.223 61.7012 115.653Z" fill="#DADADA"/>
<path d="M61.703 114.595C62.115 114.359 62.4499 114.101 62.7146 113.823C62.7426 113.797 62.7689 113.771 62.79 113.743C63.2072 113.279 63.4264 112.777 63.4509 112.267C63.4492 112.236 63.4509 112.204 63.4474 112.18C63.4492 111.305 62.8654 110.432 61.6995 109.763C61.3191 109.546 60.8965 109.364 60.4512 109.216C59.7149 108.978 58.9119 108.831 58.0914 108.782C56.866 108.709 55.6037 108.855 54.5044 109.216C54.0556 109.362 53.6348 109.546 53.2509 109.765C52.0867 110.43 51.5012 111.303 51.5029 112.177C51.5029 112.658 51.68 113.142 52.0359 113.588C52.0429 113.601 52.0517 113.616 52.0657 113.63C52.3532 113.979 52.7495 114.305 53.2509 114.595C54.5868 115.354 56.3943 115.684 58.13 115.571C59.4379 115.491 60.7037 115.165 61.703 114.595Z" fill="#9D9D9C"/>
<path d="M51.3022 119.015L50.1104 119.696L52.265 123.392L53.4569 122.711L51.3022 119.015Z" fill="#706F6F"/>
<path d="M52.3814 122.611C53.223 123.092 53.905 122.703 53.905 121.739C53.905 120.777 53.223 119.607 52.3814 119.124C51.5399 118.643 50.8579 119.034 50.8579 119.996C50.8579 120.958 51.5399 122.13 52.3814 122.611Z" fill="#706F6F"/>
<path d="M51.1886 123.291C52.0301 123.772 52.7121 123.382 52.7121 122.42C52.7121 121.458 52.0301 120.287 51.1886 119.806C50.347 119.325 49.665 119.716 49.665 120.678C49.665 121.64 50.347 122.81 51.1886 123.291Z" fill="#DADADA"/>
<path d="M50.5231 120.479L46.7153 122.656L47.9785 124.823L51.7863 122.646L50.5231 120.479Z" fill="#706F6F"/>
<path d="M51.1534 122.593C51.6461 122.875 52.0458 122.647 52.0458 122.083C52.0458 121.518 51.6461 120.833 51.1534 120.551C50.6608 120.27 50.2593 120.497 50.2593 121.062C50.2593 121.626 50.659 122.312 51.1534 122.593Z" fill="#706F6F"/>
<path d="M47.346 124.77C47.8386 125.051 48.2384 124.824 48.2384 124.26C48.2384 123.695 47.8386 123.009 47.346 122.728C46.8533 122.447 46.4536 122.674 46.4536 123.238C46.4536 123.801 46.8533 124.487 47.346 124.77Z" fill="#DADADA"/>
<path d="M61.9502 0.579102V111.867C61.9502 111.954 61.9502 112.023 61.9327 112.11C61.7398 112.648 61.6873 112.752 61.6171 112.856C61.3892 113.169 61.0736 113.447 60.6178 113.707C60.3724 113.846 60.1094 113.968 59.8289 114.072C59.2854 114.263 58.6718 114.385 58.0581 114.437C57.0238 114.523 55.9368 114.402 55.0076 114.072C54.7271 113.968 54.4466 113.846 54.2011 113.707C54.1485 113.673 54.0959 113.638 54.0609 113.603C53.6576 113.36 53.3596 113.082 53.1667 112.787V112.77C53.0265 112.561 52.9388 112.336 52.9038 112.11C52.8862 112.058 52.8862 112.023 52.8862 111.988V111.832C52.8862 111.832 52.8862 111.832 52.8862 111.815V0.579102H61.9502Z" fill="#DADADA"/>
<path d="M21.4581 140.043C21.9507 140.325 22.3522 140.097 22.3522 139.533C22.3522 138.969 21.9525 138.283 21.4581 138.001C20.9654 137.72 20.564 137.948 20.564 138.512C20.564 139.075 20.9637 139.76 21.4581 140.043Z" fill="#706F6F"/>
<path d="M0.571088 248.949H9.58074L9.57898 148.519C9.57898 138.203 17.1984 125.133 26.2185 119.976L32.5844 116.335L28.0787 108.607L21.7128 112.249C9.85599 119.026 0.569336 134.959 0.569336 148.519L0.571088 248.949Z" fill="#B2B2B2"/>
<path d="M1.89178 247.294C0.129823 248.296 0.129823 249.92 1.89178 250.922C3.65374 251.924 6.50969 251.924 8.26989 250.922C10.0318 249.92 10.0318 248.296 8.26989 247.294C6.50793 246.292 3.65198 246.292 1.89178 247.294Z" fill="#B2B2B2"/>
<path d="M26.5288 110.856C26.5236 108.843 27.9436 108.032 29.7003 109.041C31.457 110.052 32.8841 112.5 32.8894 114.513C32.8947 116.523 31.4746 117.336 29.7179 116.325C27.9629 115.317 26.5341 112.868 26.5288 110.856Z" fill="#B2B2B2"/>
<path d="M28.3202 29.4734C26.5495 30.4858 26.5495 32.1284 28.3202 33.1408C30.091 34.1531 32.9627 34.1531 34.7334 33.1408C36.5041 32.1284 36.5041 30.4858 34.7334 29.4734C32.9627 28.4594 30.091 28.4594 28.3202 29.4734Z" fill="#9D9D9C"/>
<path d="M35.7422 35.1087C36.3242 34.7753 36.7643 34.3881 37.0571 33.9748C37.3463 33.5633 37.4936 33.1292 37.4919 32.6899L37.4936 31.6324L37.4866 31.6306H36.8835L32.2796 31.6324L30.7631 31.6306L30.0566 31.6324L29.0152 31.6306L28.0667 31.6341H27.7914L27.4513 31.6306H27.3041H26.8184H26.3433L26.175 31.6324L26.0418 31.6306L25.8629 31.6324L25.8209 31.6306L25.5509 31.6289L25.5474 31.6306L25.5491 31.813L25.5474 31.9658V32.4363V32.5197L25.5491 32.6864C25.5474 33.5615 26.1312 34.435 27.2953 35.1035C27.6757 35.3205 28.093 35.5011 28.5366 35.6487C29.6884 36.0307 31.0173 36.1714 32.3024 36.0742C33.0615 36.0169 33.8049 35.8797 34.4834 35.6574C34.9357 35.5116 35.3582 35.3292 35.7422 35.1087Z" fill="#EDEDED"/>
<path d="M35.7419 34.0467C36.9095 33.3782 37.4951 32.5065 37.4863 31.6314C37.4933 31.1261 37.2987 30.619 36.9025 30.1606C36.6237 29.8185 36.231 29.499 35.7419 29.2195C34.7654 28.6586 33.5364 28.3356 32.2636 28.2436C31.6955 28.2019 31.1187 28.2089 30.5542 28.2644C29.7863 28.3321 29.0429 28.4902 28.3662 28.7315C28.2926 28.7576 28.2172 28.7854 28.1453 28.8149C27.8946 28.9104 27.6579 29.0198 27.4335 29.1431C27.3879 29.1639 27.3406 29.1917 27.2968 29.216C26.9882 29.3931 26.7217 29.5806 26.4973 29.7838C26.4675 29.8064 26.4447 29.8289 26.4184 29.855C26.3869 29.8828 26.3553 29.9175 26.3237 29.9453C26.3202 29.947 26.3202 29.947 26.3185 29.954C26.2606 30.0078 26.2063 30.0703 26.1572 30.1293C26.0783 30.2214 26.0064 30.3151 25.9451 30.4072C25.8223 30.5878 25.7294 30.7718 25.6681 30.9628C25.64 31.0323 25.619 31.1052 25.6032 31.1781C25.5979 31.1972 25.5927 31.2146 25.5927 31.232C25.5664 31.3674 25.5541 31.4994 25.5558 31.6296C25.5506 31.6956 25.5558 31.7564 25.5629 31.8137C25.5629 31.8606 25.5699 31.9092 25.5786 31.9509C25.6137 32.1662 25.6856 32.3798 25.7978 32.5899C25.8101 32.6298 25.8311 32.6645 25.8521 32.701C26.1344 33.1941 26.6218 33.6578 27.302 34.0467C27.6825 34.2638 28.098 34.4444 28.5433 34.592C29.6951 34.974 31.0188 35.1164 32.3039 35.0191C33.0613 34.9583 33.8046 34.8212 34.4866 34.5972C34.9319 34.4513 35.3562 34.2655 35.7419 34.0467Z" fill="#9D9D9C"/>
<path d="M35.3289 33.5314C35.8566 33.2293 36.2476 32.8855 36.5106 32.5156C36.5912 32.401 36.6561 32.2864 36.8805 31.6283C36.8963 31.5363 36.8998 31.4442 36.9015 31.3557V30.1575L36.8998 23.9134L36.9015 22.8559L36.8998 22.5068L36.9015 22.4478L36.898 22.4495L33.7581 22.4461L32.2275 22.4478L29.4154 22.4443H26.151L26.1475 22.4461L26.1492 22.7013V23.7623L26.1475 25.9068L26.1492 26.063L26.151 26.9087L26.1475 28.0877L26.1492 29.0428L26.151 29.3987L26.1492 29.6505V29.7043L26.1527 30.1263L26.151 31.1004L26.1545 31.2966C26.1527 31.3036 26.151 31.3088 26.1527 31.3123L26.151 31.3557C26.151 31.4026 26.1527 31.4494 26.1615 31.4911C26.158 31.5397 26.1632 31.5849 26.1738 31.63C26.2141 31.8992 26.3193 32.1701 26.4858 32.4288L26.4928 32.4409C26.7225 32.79 27.0714 33.1251 27.5395 33.4116C27.5956 33.4533 27.6587 33.4897 27.7218 33.5262C28.0146 33.6929 28.3372 33.8388 28.6721 33.9603C29.7678 34.3545 31.0546 34.4969 32.2924 34.3996C33.0217 34.3389 33.7353 34.193 34.3804 33.9586C34.7188 33.844 35.0361 33.6999 35.3289 33.5314Z" fill="#C6C6C6"/>
<path d="M27.7232 20.2752C25.6229 21.4751 25.6229 23.4234 27.7232 24.6232C29.8235 25.8231 33.2265 25.8231 35.3268 24.6232C37.4271 23.4216 37.4271 21.4751 35.3268 20.2752C33.2282 19.0736 29.8235 19.0736 27.7232 20.2752Z" fill="#9D9D9C"/>
<path d="M26.5761 25.6669L24.5112 26.8477L28.2438 33.2506L30.3086 32.0698L26.5761 25.6669Z" fill="#706F6F"/>
<path d="M28.4435 31.8868C29.9022 32.7203 31.0838 32.0448 31.0838 30.3778C31.0838 28.7109 29.9022 26.6827 28.4435 25.8492C26.9849 25.0157 25.8032 25.6912 25.8032 27.3582C25.805 29.0269 26.9866 31.0533 28.4435 31.8868Z" fill="#706F6F"/>
<path d="M26.3776 33.0655C27.8363 33.899 29.0179 33.2235 29.0179 31.5565C29.0179 29.8896 27.8363 27.8614 26.3776 27.0279C24.919 26.1945 23.7373 26.8699 23.7373 28.5369C23.7391 30.2056 24.9207 32.232 26.3776 33.0655Z" fill="#DADADA"/>
<path d="M35.8135 24.7693C36.2606 24.514 36.627 24.2258 36.9005 23.9167C36.9847 23.8264 37.0583 23.7326 37.1249 23.6424C37.4177 23.2291 37.565 22.795 37.5632 22.3557L37.5615 21.3833C37.5597 21.3537 37.5615 21.3208 37.558 21.2964H36.5061H34.5583H34.5477L32.2213 21.293H28.6255H28.6149L26.5462 21.2947L25.6152 21.293V22.3539C25.6152 22.8349 25.7906 23.3159 26.1482 23.7656C26.434 24.1303 26.8425 24.4672 27.3667 24.7693C28.6973 25.5298 30.5049 25.858 32.2441 25.7521C33.5484 25.667 34.816 25.3406 35.8135 24.7693Z" fill="#DADADA"/>
<path d="M35.8157 23.7117C36.2277 23.4773 36.5626 23.2168 36.829 22.939C36.8553 22.9129 36.8834 22.8869 36.9044 22.8591C37.3217 22.3955 37.5408 21.8936 37.5654 21.3831C37.5636 21.3536 37.5654 21.3206 37.5619 21.2963C37.5636 20.4212 36.9798 19.5477 35.8157 18.8792C35.4353 18.6622 35.0127 18.4798 34.5674 18.3322C33.8311 18.0943 33.0281 17.9468 32.2076 17.8981C30.9822 17.8252 29.7199 17.9711 28.6206 18.3322C28.1718 18.4781 27.751 18.6622 27.3671 18.8827C26.203 19.5477 25.6174 20.4212 25.6191 21.2946C25.6191 21.7756 25.7962 22.26 26.1521 22.7063C26.1591 22.7185 26.1679 22.7341 26.1819 22.7462C26.4694 23.0953 26.8657 23.4217 27.3671 23.7117C28.7013 24.4705 30.5105 24.8022 32.2462 24.6876C33.5506 24.6094 34.8181 24.283 35.8157 23.7117Z" fill="#9D9D9C"/>
<path d="M25.4135 28.1368L24.2217 28.8184L26.3772 32.5161L27.5691 31.8345L25.4135 28.1368Z" fill="#706F6F"/>
<path d="M26.4937 31.7278C27.3353 32.2088 28.0173 31.8198 28.0173 30.8561C28.0173 29.8941 27.3353 28.7237 26.4937 28.241C25.6522 27.76 24.9702 28.1507 24.9702 29.1127C24.9685 30.0747 25.6522 31.245 26.4937 31.7278Z" fill="#706F6F"/>
<path d="M25.3009 32.4077C26.1424 32.8887 26.8244 32.498 26.8244 31.536C26.8244 30.574 26.1424 29.4036 25.3009 28.9227C24.4593 28.4417 23.7773 28.8324 23.7773 29.7943C23.7773 30.7563 24.4593 31.9267 25.3009 32.4077Z" fill="#DADADA"/>
<path d="M24.6329 29.6037L20.8267 31.7803L22.0898 33.9472L25.8961 31.7706L24.6329 29.6037Z" fill="#706F6F"/>
<path d="M25.2659 31.7083C25.7586 31.9913 26.1583 31.7621 26.1583 31.1978C26.1583 30.6334 25.7586 29.9475 25.2659 29.6662C24.7733 29.3832 24.3735 29.6124 24.3735 30.1768C24.3718 30.7394 24.7715 31.4252 25.2659 31.7083Z" fill="#706F6F"/>
<path d="M21.4586 33.8841C21.9512 34.1654 22.3527 33.9379 22.3527 33.3736C22.3527 32.8092 21.953 32.1233 21.4586 31.842C20.9659 31.559 20.5645 31.7882 20.5645 32.3525C20.5645 32.9169 20.9642 33.6028 21.4586 33.8841Z" fill="#DADADA"/>
<path d="M36.0557 0.579102V20.9821C36.0557 21.0689 36.0557 21.1384 36.0382 21.2079C36.0206 21.2426 36.0206 21.2773 36.0206 21.2947C35.8628 21.7809 35.7927 21.8677 35.7401 21.9719C35.6174 22.1455 35.4596 22.3018 35.2843 22.4407H35.2668C35.109 22.597 34.9512 22.7012 34.7408 22.8227C34.4954 22.9616 34.2148 23.0832 33.9343 23.1874C33.3908 23.3784 32.7948 23.4999 32.1811 23.552C31.1292 23.6388 30.0423 23.5173 29.1131 23.1874C28.8326 23.0832 28.5696 22.9616 28.3241 22.8227C28.2715 22.788 28.2189 22.7533 28.1663 22.7185C28.0261 22.6317 27.8858 22.5449 27.7806 22.4407C27.5703 22.2671 27.4125 22.0934 27.2897 21.9024L27.2722 21.8851C27.1495 21.6941 27.0618 21.503 27.0268 21.2947C27.0092 21.2773 27.0092 21.2426 27.0092 21.2252C27.0092 21.1731 26.9917 21.1384 27.0092 21.1037C26.9917 21.0689 26.9917 21.0342 26.9917 20.9821V20.9474C26.9917 20.9474 26.9917 20.9474 26.9917 20.93V0.579102H36.0557Z" fill="#C6C6C6"/>
<path d="M18.2505 27.9889L6.32617 48.4443L10.3389 50.739L22.2633 30.2836L18.2505 27.9889Z" fill="#963C1F"/>
<path d="M20.3729 33.1966C20.3729 38.5274 16.5948 45.0095 11.933 47.6749C7.27129 50.3403 3.49316 48.1802 3.49316 42.8494C3.49316 37.5186 7.27129 31.0365 11.933 28.3711C16.593 25.7039 20.3711 27.8658 20.3729 33.1966Z" fill="#963C1F"/>
<path d="M7.84912 45.3398C7.84912 50.6707 11.6272 52.8308 16.289 50.1654C20.9507 47.5 24.7288 41.0179 24.7288 35.6871C24.7288 30.3562 20.9507 28.1961 16.289 30.8615C11.6272 33.5269 7.84912 40.009 7.84912 45.3398Z" fill="#F66232"/>
<path d="M9.04053 44.6595C9.04053 49.2384 12.2857 51.0947 16.29 48.8061C20.2943 46.5157 23.5394 40.9487 23.5394 36.3698C23.5394 31.7908 20.2943 29.9346 16.29 32.2232C12.2857 34.5118 9.04053 40.0805 9.04053 44.6595Z" fill="#EDEDED"/>
<path d="M11.4971 41.5914L21.0835 36.1112V33.293L11.4971 38.7731V41.5914Z" fill="white"/>
<path d="M11.3594 38.6948L21.2193 33.0566V36.1874L11.3594 41.8256V38.6948ZM20.9441 33.5272L11.6329 38.8511V41.355L20.9441 36.0311V33.5272Z" fill="#575756"/>
<path d="M19.6709 36.5257L20.7053 35.9335V33.8984L19.6709 34.4906V36.5257Z" fill="#DADADA"/>
<path d="M18.3687 37.2688L19.403 36.6767V34.6416L18.3687 35.2337V37.2688Z" fill="#DADADA"/>
<path d="M17.0659 38.0139L18.1003 37.4218V35.3867L17.0659 35.9788V38.0139Z" fill="#DADADA"/>
<path d="M15.7637 38.76L16.7981 38.1679V36.1328L15.7637 36.7249V38.76Z" fill="#DADADA"/>
<path d="M14.4604 39.5051L15.4948 38.913V36.8779L14.4604 37.4683V39.5051Z" fill="#DADADA"/>
<path d="M13.1577 40.25L14.1921 39.6579V37.6211L13.1577 38.2132V40.25Z" fill="#DADADA"/>
<path d="M11.856 40.9942L12.8903 40.4021V38.3652L11.856 38.9574V40.9942Z" fill="#DADADA"/>
<path d="M11.436 45.344C11.436 46.6446 12.3582 47.1725 13.496 46.5213C14.6339 45.8702 15.556 44.29 15.556 42.9895C15.556 41.6889 14.6339 41.161 13.496 41.8122C12.3565 42.4616 11.436 44.0435 11.436 45.344Z" fill="white"/>
<path d="M13.492 46.3367C13.5306 46.3141 13.5621 46.262 13.5621 46.2169V42.0391C13.5621 41.9939 13.5306 41.9765 13.492 41.9991C13.4534 42.0217 13.4219 42.0738 13.4219 42.1189V46.2968C13.4236 46.3402 13.4534 46.3593 13.492 46.3367Z" fill="#3C3C3B"/>
<path d="M11.6658 45.2895L15.3195 43.2006C15.358 43.178 15.3896 43.1259 15.3896 43.0807C15.3896 43.0373 15.358 43.0182 15.3195 43.0408L11.6658 45.1297C11.6273 45.1523 11.5957 45.2044 11.5957 45.2495C11.5975 45.2947 11.6273 45.312 11.6658 45.2895Z" fill="#3C3C3B"/>
<path d="M12.2 46.4622C12.2175 46.4518 12.2351 46.4344 12.2491 46.4101L14.8315 41.9788C14.8578 41.9319 14.8578 41.8815 14.8315 41.8659C14.8053 41.8503 14.7597 41.8763 14.7334 41.9214L12.1509 46.3528C12.1229 46.3997 12.1229 46.4501 12.1509 46.4657C12.1649 46.4744 12.1825 46.4726 12.2 46.4622Z" fill="#3C3C3B"/>
<path d="M14.7844 44.9843C14.8019 44.9739 14.8195 44.9565 14.8335 44.9322C14.8598 44.8853 14.8598 44.835 14.8335 44.8193L12.2511 43.3416C12.223 43.326 12.1792 43.3503 12.1529 43.3972C12.1248 43.4441 12.1248 43.4944 12.1529 43.5101L14.7353 44.9878C14.7493 44.9965 14.7669 44.9947 14.7844 44.9843Z" fill="#3C3C3B"/>
<path d="M11.9824 45.0333C11.9824 45.9884 12.6592 46.3756 13.4937 45.8981C14.3282 45.4205 15.0049 44.2589 15.0049 43.3056C15.0049 42.3505 14.3282 41.9633 13.4937 42.4408C12.6592 42.9166 11.9824 44.0783 11.9824 45.0333Z" fill="white"/>
<path d="M13.2668 44.7674C13.4947 44.7796 13.7805 44.5209 13.905 44.1892C14.0295 43.8576 13.9453 43.578 13.7174 43.5658C13.4895 43.5537 13.2037 43.8124 13.0792 44.1441C12.9565 44.4757 13.0389 44.7553 13.2668 44.7674Z" fill="#D94919"/>
<path d="M11.8994 44.0795L13.4861 43.8398L13.2459 44.4788L11.8994 44.0795Z" fill="#D94919"/>
<path d="M16.0156 41.3211L21.2857 38.3084V37.7666L16.0156 40.7793V41.3211Z" fill="#878787"/>
<path d="M16.5171 42.2045L21.2858 39.4783V38.9365L16.5171 41.6627V42.2045Z" fill="#878787"/>
<path d="M17.4995 42.8118L21.2864 40.6465V40.1064L17.4995 42.27V42.8118Z" fill="#878787"/>
<path d="M16.8643 44.3466L21.2858 41.8184V41.2783L16.8643 43.8048V44.3466Z" fill="#878787"/>
<path d="M14.6792 47.7433C14.6792 48.0785 14.9176 48.2139 15.2104 48.0472L17.3668 46.8144C17.6596 46.6459 17.8981 46.2396 17.8981 45.9045C17.8981 45.5693 17.6614 45.4339 17.3668 45.6006L15.2104 46.8335C14.9176 47.0002 14.6792 47.4082 14.6792 47.7433Z" fill="#C6C6C6"/>
</svg>
