<svg width="244" height="325" viewBox="0 0 244 325" fill="none" xmlns="http://www.w3.org/2000/svg">
<path d="M81.2655 223.05C81.2336 223.067 81.2016 223.084 81.1696 223.104L79.7358 223.933L80.3482 224.99C80.1932 229.459 78.0511 231.717 74.2414 232.393L72.6772 233.296L73.8159 235.268L74.539 234.853L76.2458 249.049L88.821 258.114L90.3852 257.212L92.3896 242.871C88.58 237.794 86.4378 233.065 86.2828 228.416C86.2828 226.525 84.9547 224.225 83.3167 223.281C82.542 222.833 81.8411 222.774 81.3123 223.03L81.3098 223.028L81.2655 223.05Z" fill="#B54825"/>
<path d="M81.7493 224.184C80.1113 223.239 78.7832 224.004 78.7832 225.896C78.6283 230.365 76.4861 232.62 72.6764 233.296L74.6808 249.952L88.8202 258.114L90.8247 243.773C87.015 238.697 84.8728 233.968 84.7179 229.319C84.7154 227.43 83.3873 225.131 81.7493 224.184Z" fill="#F66232"/>
<path d="M83.3535 228.347C83.3535 229.37 82.6354 229.786 81.75 229.274C80.8646 228.762 80.1464 227.518 80.1464 226.495C80.1464 225.472 80.8646 225.056 81.75 225.568C82.6354 226.079 83.3535 227.324 83.3535 228.347Z" fill="#B54825"/>
<path d="M90.8218 243.775L90.3815 257.214L66.7732 270.844L70.3419 255.6L90.8218 243.775Z" fill="#B54825"/>
<path d="M72.6745 233.299C79.9963 230.242 85.6604 235.719 90.8203 243.776L70.3405 255.598C64.241 248.203 58.1736 243.348 52.1947 245.121L72.6745 233.299Z" fill="#E0592E"/>
<path d="M83.354 228.344C83.354 229.367 82.6359 229.783 81.7505 229.271C80.8651 228.759 80.1469 227.515 80.1469 226.492C80.1469 225.469 80.8651 225.053 81.7505 225.565C82.6359 226.076 83.354 227.321 83.354 228.344Z" fill="#B54825"/>
<path d="M80.614 225.478L82.8828 229.407L60.8385 242.135L58.5697 238.205L80.614 225.478Z" fill="#B54825"/>
<path d="M59.2211 235.775C59.1892 235.792 59.1572 235.809 59.1252 235.829L57.6913 236.658L58.3013 237.718C58.1464 242.187 56.0042 244.442 52.1945 245.121L50.6302 246.023L51.769 247.996L52.4921 247.58L54.199 261.776L66.7741 270.842L68.3383 269.939L70.3428 255.598C66.5331 250.522 64.3909 245.792 64.236 241.144C64.236 239.253 62.9079 236.953 61.2699 236.009C60.4976 235.561 59.7942 235.502 59.2654 235.758L59.2629 235.755L59.2211 235.775Z" fill="#B54825"/>
<path d="M59.7054 236.909C58.0674 235.965 56.7393 236.73 56.7393 238.621C56.5819 243.09 54.4397 245.345 50.6325 246.022L52.6369 262.677L66.7763 270.84L68.7808 256.499C64.9711 251.423 62.8289 246.693 62.6739 242.045C62.6715 240.156 61.3434 237.856 59.7054 236.909Z" fill="#F66232"/>
<path d="M61.3081 241.073C61.3081 242.096 60.5899 242.512 59.7045 242.001C58.8191 241.489 58.0985 240.244 58.0985 239.221C58.0985 238.198 58.8167 237.783 59.7045 238.294C60.5899 238.806 61.3081 240.05 61.3081 241.073Z" fill="#B54825"/>
<path d="M79.7462 246.801L82.5327 249.317V248.058L79.7462 246.801Z" fill="#9D9D9C"/>
<path d="M80.1397 249.872L79.6354 253.089L80.8701 250.044L80.1397 249.872Z" fill="#878787"/>
<path d="M81.4429 249.119L80.9363 252.336L82.1733 249.291L81.4429 249.119Z" fill="#878787"/>
<path d="M80.9363 252.337L79.6352 253.089L80.8698 250.045L82.1733 249.292L80.9363 252.337Z" fill="#B2B2B2"/>
<path d="M77.522 248.115L80.3086 250.631V249.372L77.522 248.115Z" fill="#9D9D9C"/>
<path d="M82.5322 249.319L80.3089 250.632V249.373L82.5322 248.06V249.319Z" fill="#C6C6C6"/>
<path d="M80.3089 249.372L77.5224 248.115L79.7457 246.802L82.5322 248.059L80.3089 249.372Z" fill="#EDEDED"/>
<path d="M219.536 279.848C219.098 280.15 218.435 280.401 217.714 280.56C217.046 280.716 216.321 280.79 215.678 280.76C215.611 280.76 215.549 280.756 215.488 280.756C214.939 280.756 214.434 280.871 214.076 281.078L212.368 282.065L200.114 289.141C199.848 289.297 199.668 289.49 199.592 289.716C199.562 289.813 199.548 289.92 199.556 290.026C199.556 290.052 199.56 290.075 199.566 290.101C199.787 291.354 198.88 292.328 197.106 292.818C196.924 292.871 196.73 292.92 196.526 292.96C196.314 293.004 196.088 293.044 195.854 293.07L195.801 293.08C195.771 293.083 195.739 293.089 195.708 293.093C195.553 293.115 195.363 293.137 195.213 293.137C195.04 293.137 194.917 293.106 194.85 293.04C194.828 293.017 194.814 292.996 194.81 292.973L194.81 294.056C194.809 294.058 194.81 294.062 194.81 294.065L194.81 294.137L194.828 294.133C194.834 294.145 194.838 294.155 194.85 294.167C194.917 294.23 195.04 294.26 195.213 294.26C195.395 294.26 195.638 294.224 195.801 294.203L195.854 294.199C198.296 293.878 199.669 292.871 199.595 291.48L199.595 290.881C199.663 290.643 199.835 290.43 200.115 290.266L212.369 283.19L214.077 282.204C214.436 281.995 214.94 281.881 215.489 281.881C215.551 281.881 215.613 281.885 215.679 281.89C217.015 281.956 218.693 281.549 219.538 280.974C220.046 280.632 220.369 280.03 220.369 279.385L220.369 278.256C220.368 278.901 220.045 279.503 219.536 279.848Z" fill="#9D9D9C"/>
<path d="M196.484 290.961C195.727 290.453 194.71 290.124 193.599 290.02C193.476 290.02 193.352 290.05 193.294 290.09L191.715 291.722C191.582 291.859 191.189 291.855 191.056 291.722C190.67 291.307 190.503 290.824 190.498 290.364C190.498 290.353 190.499 290.341 190.499 290.33C190.498 290.312 190.495 290.297 190.495 290.275L190.495 291.389C190.494 291.412 190.495 291.434 190.495 291.455L190.495 291.535L190.496 291.535C190.514 291.98 190.684 292.441 191.056 292.846C191.189 292.983 191.582 292.983 191.715 292.85L193.294 291.218C193.351 291.174 193.476 291.142 193.599 291.142C194.363 291.188 195.322 291.567 195.889 291.778L196.502 291.15C196.547 291.085 196.534 291.005 196.484 290.961Z" fill="#9D9D9C"/>
<path d="M214.367 277.441C214.318 277.504 214.327 277.587 214.376 277.631C214.558 277.755 214.761 277.866 214.974 277.963L215.957 276.927L216.01 276.874C216.036 276.843 216.059 276.804 216.059 276.764L216.059 275.653C216.055 275.689 216.036 275.724 216.01 275.746L214.367 277.441Z" fill="#9D9D9C"/>
<path d="M195.212 293.139C195.362 293.139 195.553 293.116 195.707 293.095C195.738 293.091 195.77 293.085 195.8 293.081L195.853 293.072C196.088 293.046 196.313 293.006 196.525 292.962C196.729 292.922 196.924 292.873 197.104 292.82C198.879 292.328 199.786 291.355 199.564 290.103C199.56 290.077 199.555 290.054 199.555 290.028C199.546 289.921 199.559 289.815 199.591 289.718C199.667 289.492 199.847 289.298 200.113 289.143L212.366 282.067L214.075 281.08C214.433 280.872 214.938 280.758 215.487 280.758C215.549 280.758 215.61 280.762 215.677 280.762C216.318 280.792 217.043 280.718 217.713 280.562C218.434 280.403 219.098 280.151 219.535 279.85C220.044 279.505 220.367 278.903 220.367 278.258C220.367 278.125 220.353 277.992 220.323 277.859C220.256 277.523 220.088 277.182 219.805 276.872C219.672 276.736 219.283 276.73 219.146 276.872L217.713 278.351L217.567 278.501C217.514 278.541 217.385 278.571 217.265 278.571C216.637 278.514 216.048 278.376 215.508 278.186C215.322 278.12 215.141 278.044 214.973 277.964C214.76 277.867 214.557 277.756 214.375 277.632C214.326 277.588 214.318 277.503 214.366 277.442L216.007 275.747C216.034 275.725 216.051 275.69 216.056 275.654C216.056 275.618 216.047 275.584 216.013 275.548C215.946 275.486 215.827 275.455 215.654 275.455C215.614 275.455 215.57 275.455 215.521 275.459C215.366 275.468 215.189 275.49 215.062 275.512L215.008 275.516C212.424 275.858 211.039 276.968 211.296 278.49C211.362 278.862 211.159 279.211 210.747 279.455L198.494 286.526L196.786 287.513C196.431 287.722 195.932 287.832 195.379 287.832L195.184 287.832C193.857 287.762 192.17 288.168 191.325 288.739C190.816 289.083 190.498 289.688 190.499 290.329C190.499 290.34 190.498 290.352 190.498 290.362C190.502 290.823 190.67 291.305 191.055 291.721C191.188 291.854 191.581 291.858 191.714 291.721L193.294 290.089C193.351 290.049 193.476 290.018 193.599 290.018C194.71 290.125 195.728 290.451 196.484 290.96C196.533 291.004 196.547 291.084 196.501 291.15L195.889 291.778L195.674 292L195.355 292.327L194.856 292.84C194.838 292.862 194.816 292.893 194.807 292.919L194.807 292.972C194.811 292.995 194.824 293.016 194.846 293.039C194.915 293.108 195.039 293.139 195.212 293.139Z" fill="#C6C6C6"/>
<path d="M185.438 251.845C166.528 262.787 135.756 262.758 116.708 251.784C107.161 246.284 102.349 240.055 102.349 235.227V224.922L102.614 66.5029L199.6 69.8366L199.529 231.638C199.745 238.944 195.059 246.278 185.438 251.845Z" fill="#878787"/>
<path d="M185.438 244.884C166.528 255.826 135.756 255.798 116.708 244.823C107.161 239.322 102.373 232.117 102.349 224.92V68.4514L102.614 59.542L199.6 62.8757L199.529 224.677C199.745 231.985 195.059 239.318 185.438 244.884Z" fill="#B2B2B2"/>
<path d="M151.072 88.2301C124.231 88.1093 102.528 75.449 102.598 59.9525C102.668 44.456 124.483 31.9916 151.324 32.1124C178.165 32.2331 199.868 44.8934 199.798 60.3899C199.728 75.8864 177.913 88.3508 151.072 88.2301Z" fill="#B2B2B2"/>
<path d="M185.439 80.9727C166.528 91.9141 135.757 91.8854 116.708 80.9113C107.162 75.412 102.627 68.3448 102.603 61.1479V60.0262L102.615 50.9775L199.804 51.421L199.769 60.7658C199.984 68.0718 195.059 75.4052 185.439 80.9727Z" fill="#878787"/>
<path d="M116.964 71.404C136.008 82.3822 166.788 82.4122 185.699 71.4641C196.869 65.0013 201.401 56.1628 199.322 47.7405C198.98 46.4032 198.474 45.0659 197.807 43.7586C195.563 39.3769 191.449 35.2463 185.448 31.7857C166.388 20.8075 135.623 20.7925 116.713 31.727C97.8009 42.6738 97.9197 60.4408 116.964 71.404Z" fill="#787878"/>
<path d="M151.08 76.5594C125.726 76.4453 105.225 64.4863 105.291 49.8482C105.357 35.2102 125.964 23.4362 151.318 23.5503C176.672 23.6643 197.173 35.6233 197.107 50.2614C197.041 64.8995 176.434 76.6735 151.08 76.5594Z" fill="#8C8C8C"/>
<path d="M157.857 34.6732C159.7 35.7281 163.026 35.3569 165.315 34.4658L182.735 33.7084L181.131 29.4604L165.76 29.8753C165.507 29.3554 165.046 28.8655 164.334 28.4493C162.165 27.187 160.724 28.1368 158.555 29.3854C156.401 30.6326 155.674 33.411 157.857 34.6732Z" fill="#8C8C8C"/>
<path d="M122.121 125.538C122.121 130.371 117.094 132.521 112.883 130.089C108.672 127.657 106.869 121.566 106.869 116.732C106.869 111.899 109.414 108.905 113.625 111.337C117.838 113.768 122.121 120.706 122.121 125.538Z" fill="#CAC4C4"/>
<path d="M117.772 165.244C117.772 168.912 114.452 170.621 111.523 168.376C108.088 165.745 106.198 162.23 106.198 158.562C106.198 154.894 108.129 152.622 111.325 154.468C114.521 156.312 117.772 161.576 117.772 165.244Z" fill="#CAC4C4"/>
<path d="M120.093 122.942C120.093 118.109 116.148 112.869 111.953 110.407C109.151 108.761 106.552 109.863 106.552 109.863L104.6 111.055L115.983 129.258L117.273 128.498C118.695 127.731 120.093 125.401 120.093 122.942Z" fill="#949494"/>
<path d="M117.728 124.694C117.728 129.527 114.314 131.473 110.101 129.042C105.889 126.61 102.475 120.72 102.475 115.888C102.475 111.055 105.889 109.109 110.101 111.541C114.314 113.972 117.728 119.862 117.728 124.694Z" fill="#8D8D8D"/>
<path d="M113.318 128.225C112.553 128.34 111.648 128.183 110.703 127.77C106.947 126.128 103.776 121.042 103.776 116.665C103.776 115.52 104.021 112.822 106.295 112.481C107.06 112.366 107.965 112.523 108.911 112.937C112.666 114.578 115.839 119.664 115.839 124.042C115.839 125.187 115.593 127.884 113.318 128.225Z" fill="#CACAB7"/>
<path d="M113.318 128.225C112.553 128.34 111.648 128.183 110.703 127.77C106.947 126.128 103.776 121.042 103.776 116.665C103.776 115.52 104.021 112.822 106.295 112.481C107.06 112.366 107.965 112.523 108.911 112.937C112.666 114.578 115.839 119.664 115.839 124.042C115.839 125.187 115.593 127.884 113.318 128.225Z" fill="#CACAB7"/>
<path d="M105.615 115.362C105.615 115.362 105.581 111.715 109.513 113.434C113.444 115.154 115.839 121.454 115.623 123.279C113.859 116.97 109.513 113.987 107.276 116.183L105.615 115.362Z" fill="#963C1F"/>
<path d="M110.939 121.103C110.825 121.121 110.69 121.096 110.549 121.035C109.988 120.789 109.513 120.029 109.513 119.376C109.513 119.205 109.55 118.801 109.89 118.751C110.005 118.733 110.14 118.758 110.28 118.819C110.841 119.065 111.316 119.825 111.316 120.478C111.316 120.649 111.279 121.053 110.939 121.103Z" fill="#535353"/>
<path d="M109.718 119.155C109.656 117.443 110.103 115.053 110.103 115.053C110.103 115.053 110.67 118.459 110.835 119.807C110.977 120.054 111.069 120.331 111.069 120.592C111.069 120.739 111.038 121.088 110.745 121.132C110.646 121.147 110.529 121.127 110.408 121.073C109.923 120.862 109.512 120.204 109.512 119.639C109.512 119.516 109.544 119.265 109.718 119.155Z" fill="#B2B2B2"/>
<path d="M114.101 127.286C113.336 127.401 112.431 127.244 111.485 126.83C107.73 125.189 104.559 120.103 104.559 115.725C104.559 115.07 104.653 113.916 105.147 112.976C103.947 113.887 103.774 115.757 103.774 116.664C103.774 121.042 106.947 126.128 110.701 127.769C111.646 128.183 112.551 128.34 113.317 128.225C114.291 128.079 114.878 127.494 115.248 126.789C114.936 127.028 114.571 127.215 114.101 127.286Z" fill="#D5D5D5"/>
<path d="M108.911 112.937C107.965 112.523 107.06 112.366 106.295 112.481C105.771 112.56 105.364 112.773 105.034 113.055C104.273 114.04 104.146 115.498 104.146 116.268C104.146 120.645 107.318 125.731 111.072 127.373C112.018 127.786 112.923 127.943 113.688 127.828C114.212 127.749 114.619 127.536 114.951 127.254C115.712 126.269 115.839 124.811 115.839 124.042C115.839 119.664 112.666 114.578 108.911 112.937Z" fill="#F3F3F3"/>
<path d="M164.535 225.821C164.535 225.821 185.084 223.215 193.755 210.718V162.03C185.137 174.021 164.535 177.134 164.535 177.134V225.821Z" stroke="#918C8C" stroke-width="0.762" stroke-miterlimit="10"/>
<path d="M120.651 208.964L124.985 217.982V228.34C124.985 228.34 124.487 233.83 120.651 232.095C116.815 230.362 104.56 222.13 104.56 222.13L120.651 208.964Z" fill="#CAC4C4"/>
<path d="M120.65 208.964V221.17C120.65 223.622 119.521 224.848 116.821 226.263H116.824L111.277 228.08L112.088 226.24L108.036 224.643C104.763 222.753 102.746 219.262 102.746 215.482V198.627L120.65 208.964Z" fill="#797979"/>
<path d="M108.459 227.676L103.208 224.644C99.9353 222.754 99.1889 219.921 99.1889 216.142V208.307L114.276 217.118V222.558C114.276 226.338 111.731 229.566 108.459 227.676Z" fill="#8D8D8D"/>
<path d="M120.65 208.964L114.276 217.118L99.1889 208.307L102.746 198.629L120.65 208.964Z" fill="#B1B1B1"/>
<path d="M116.539 209.255L104.681 202.409L102.031 207.359L113.889 214.205L116.539 209.255Z" fill="#545454"/>
<path d="M104.681 202.409V208.888L102.031 207.359L104.681 202.409Z" fill="#797979"/>
<path d="M179.128 152.818C179.128 150.577 180.711 147.848 182.663 146.721C183.641 146.156 184.527 146.101 185.167 146.468L185.715 146.816L180.44 155.252L180.198 155.105C179.539 154.75 179.128 153.957 179.128 152.818Z" fill="#516A96"/>
<path d="M179.631 153.137C179.631 155.378 181.214 156.28 183.165 155.153C185.118 154.026 186.7 151.296 186.7 149.056C186.7 146.815 185.117 145.913 183.165 147.04C181.214 148.167 179.631 150.897 179.631 153.137Z" fill="#3B3B3B"/>
<path d="M115.645 162.706C115.645 159.426 113.328 155.43 110.469 153.779C109.036 152.952 107.74 152.872 106.804 153.409L106 153.92L113.725 166.272L114.078 166.056C115.043 165.535 115.645 164.375 115.645 162.706Z" fill="#898989"/>
<path d="M114.911 163.176C114.911 166.456 112.594 167.777 109.735 166.126C106.876 164.475 104.559 160.479 104.559 157.199C104.559 153.918 106.876 152.597 109.735 154.249C112.594 155.9 114.911 159.895 114.911 163.176Z" fill="#8D8D8D"/>
<path d="M109.733 166.124C107.652 164.923 105.871 162.477 105.049 159.971C105.201 156.567 107.096 154.548 110.161 156.318C111.769 157.246 113.387 159.039 114.602 161.057C114.786 161.775 114.907 162.49 114.907 163.173C114.909 166.453 112.592 167.773 109.733 166.124Z" fill="#666666"/>
<path d="M181.12 152.532C181.12 153.256 181.382 153.758 181.799 153.984L182.911 154.626L188.957 158.107L192.188 152.695L189.329 151.039L184.953 148.502C184.548 148.269 183.984 148.305 183.362 148.662C182.125 149.378 181.12 151.108 181.12 152.532Z" fill="#9D9D9C"/>
<path d="M188.443 156.766C188.443 158.188 189.447 158.759 190.685 158.044C191.924 157.329 192.927 155.598 192.927 154.176C192.927 152.754 191.922 152.182 190.685 152.897C189.446 153.613 188.443 155.345 188.443 156.766Z" fill="#746D6D"/>
<path d="M179.128 230.79C179.128 228.55 180.711 225.82 182.663 224.693C183.641 224.128 184.527 224.074 185.167 224.441L185.715 224.789L180.44 233.225L180.198 233.077C179.539 232.723 179.128 231.931 179.128 230.79Z" fill="#B2B2B2"/>
<path d="M179.631 231.113C179.631 233.352 181.214 234.256 183.165 233.128C185.118 232.001 186.7 229.272 186.7 227.031C186.7 224.791 185.117 223.889 183.165 225.016C181.214 226.142 179.631 228.872 179.631 231.113Z" fill="#B2B2B2"/>
<path d="M181.119 230.506C181.119 231.231 181.381 231.733 181.799 231.958L182.911 232.601L188.956 236.082L192.188 230.67L189.329 229.013L184.952 226.477C184.547 226.243 183.984 226.28 183.361 226.636C182.125 227.353 181.119 229.083 181.119 230.506Z" fill="#B2B2B2"/>
<path d="M188.442 234.74C188.442 236.162 189.447 236.734 190.684 236.019C191.923 235.304 192.926 233.572 192.926 232.15C192.926 230.728 191.922 230.157 190.684 230.872C189.445 231.587 188.442 233.32 188.442 234.74Z" fill="#746D6D"/>
<path d="M179.128 104.938C179.128 102.697 180.711 99.9679 182.663 98.8408C183.641 98.2758 184.527 98.2212 185.167 98.5883L185.715 98.9362L180.44 107.372L180.198 107.225C179.539 106.87 179.128 106.077 179.128 104.938Z" fill="#9D9D9C"/>
<path d="M179.631 105.258C179.631 107.499 181.214 108.401 183.165 107.274C185.118 106.147 186.7 103.417 186.7 101.177C186.7 98.9362 185.117 98.0342 183.165 99.1613C181.214 100.288 179.631 103.018 179.631 105.258Z" fill="#963C1F"/>
<path d="M181.119 104.653C181.119 105.378 181.381 105.88 181.799 106.105L182.911 106.748L188.956 110.229L192.188 104.817L189.329 103.16L184.952 100.625C184.547 100.392 183.984 100.428 183.361 100.785C182.125 101.5 181.119 103.23 181.119 104.653Z" fill="#9D9D9C"/>
<path d="M188.442 108.888C188.442 110.31 189.447 110.881 190.684 110.166C191.923 109.451 192.926 107.72 192.926 106.298C192.926 104.876 191.922 104.304 190.684 105.019C189.445 105.735 188.442 107.467 188.442 108.888Z" fill="#746D6D"/>
<path d="M113.545 162.688C113.545 160.107 111.722 156.965 109.474 155.665C108.347 155.015 107.328 154.952 106.591 155.375L104.049 156.844L109.919 166.672L112.314 165.321C113.071 164.913 113.545 164 113.545 162.688Z" fill="#B2B2B2"/>
<path d="M106.777 157.14C104.543 155.85 102.731 156.909 102.731 159.505C102.731 162.102 104.542 165.251 106.777 166.541C109.011 167.83 110.823 166.771 110.823 164.176C110.823 161.58 109.011 158.43 106.777 157.14Z" fill="#F3F3F3"/>
<path d="M106.306 157.568V159.487L105.854 159.225V157.308L106.306 157.568Z" fill="#797C7C"/>
<path d="M106.54 157.435V159.352L106.305 159.487V157.568L106.54 157.435Z" fill="#545959"/>
<path d="M106.54 157.433L106.307 157.566L105.857 157.306L106.09 157.173L106.54 157.433Z" fill="#B2B2B2"/>
<path d="M155.106 34.269C157.528 35.6677 161.469 35.6608 163.907 34.2526C165.129 33.5471 165.741 32.6233 165.744 31.7022L165.71 30.8916L153.291 31.3296L153.3 31.683C153.272 32.6192 153.872 33.5567 155.106 34.269Z" fill="#B2B2B2"/>
<path d="M155.074 33.5268C152.652 32.1281 152.664 29.8533 155.102 28.4451C157.54 27.0382 161.48 27.03 163.903 28.4287C166.325 29.8274 166.313 32.1022 163.876 33.5105C161.439 34.9187 157.497 34.9255 155.074 33.5268Z" fill="#DEDEDE"/>
<path d="M156.656 32.2962C155.873 31.8445 155.492 31.2468 155.51 30.6546V29.0498L155.519 2.81817L163.39 2.70215L163.397 24.3474L163.407 30.6641C163.405 31.2481 163.014 31.8349 162.24 32.2853C160.695 33.1763 158.195 33.1845 156.656 32.2962Z" fill="#9D9D9C"/>
<path d="M156.649 4.21158C155.112 3.3246 155.119 1.88084 156.666 0.987033C158.214 0.0945865 160.714 0.0891437 162.25 0.977496C163.787 1.86448 163.78 3.30823 162.233 4.20067C160.685 5.09448 158.185 5.09857 156.649 4.21158Z" fill="#746D6D"/>
<path d="M180.887 47.2328C182.729 48.2876 186.056 47.9164 188.344 47.0254L196.708 46.6542L199.322 47.739C198.981 46.4017 198.475 45.0644 197.808 43.7571L195.104 42.4048L188.79 42.4348C188.538 41.9149 188.077 41.4251 187.364 41.0089C185.196 39.7466 183.755 40.6964 181.585 41.945C179.431 43.1922 178.703 45.9705 180.887 47.2328Z" fill="#8C8C8C"/>
<path d="M176.721 46.7123C179.144 48.111 183.085 48.1042 185.523 46.6959C186.744 45.9904 187.357 45.068 187.36 44.1455L187.326 43.335L174.907 43.773L174.916 44.1264C174.887 45.0625 175.489 46.0013 176.721 46.7123Z" fill="#B2B2B2"/>
<path d="M176.689 45.9682C174.267 44.5695 174.279 42.2947 176.716 40.8865C179.155 39.4796 183.095 39.4714 185.518 40.8701C187.94 42.2688 187.928 44.5436 185.491 45.9519C183.054 47.3601 179.111 47.3669 176.689 45.9682Z" fill="#DEDEDE"/>
<path d="M178.27 44.7376C177.487 44.2859 177.106 43.6882 177.124 43.096V41.4912L177.135 15.2596L185.006 15.1436L185.013 36.7902L185.022 43.1069C185.022 43.6909 184.629 44.2777 183.856 44.728C182.31 45.6178 179.81 45.6259 178.27 44.7376Z" fill="#9D9D9C"/>
<path d="M178.264 16.6521C176.728 15.7652 176.735 14.3214 178.282 13.429C179.828 12.5352 182.328 12.531 183.866 13.4194C185.403 14.3064 185.396 15.7501 183.848 16.6439C182.302 17.535 179.802 17.5391 178.264 16.6521Z" fill="#746D6D"/>
<path d="M108.132 109.269L104.33 111.465L115.63 131.036L119.432 128.841L108.132 109.269Z" fill="#963C1F"/>
<path d="M114.117 128.099C109.7 125.549 106.119 119.347 106.12 114.248C106.12 109.148 109.701 107.08 114.118 109.63C118.535 112.181 122.116 118.383 122.116 123.482C122.115 128.582 118.534 130.65 114.117 128.099Z" fill="#963C1F"/>
<path d="M109.988 112.014C105.571 109.464 101.99 111.532 101.99 116.631C101.99 121.731 105.571 127.933 109.988 130.483C114.405 133.034 117.986 130.966 117.986 125.866C117.986 120.765 114.405 114.563 109.988 112.014Z" fill="#F66232"/>
<path d="M109.989 113.314C106.194 111.123 103.119 112.898 103.119 117.28C103.119 121.661 106.194 126.988 109.989 129.179C113.783 131.37 116.858 129.594 116.858 125.212C116.858 120.832 113.782 115.504 109.989 113.314Z" fill="#EDEDED"/>
<path d="M111.37 116.802V127.289L113.704 128.638V118.149L111.37 116.802Z" fill="white"/>
<path d="M113.835 118.075V128.863L111.24 127.365V116.577L113.835 118.075ZM113.574 128.413V118.224L111.499 117.026V127.215L113.574 128.413Z" fill="#575756"/>
<path d="M111.693 125.934V127.065L113.38 128.04V126.907L111.693 125.934Z" fill="#DADADA"/>
<path d="M111.693 124.508V125.639L113.38 126.614V125.481L111.693 124.508Z" fill="#DADADA"/>
<path d="M111.693 123.082V124.213L113.38 125.188V124.055L111.693 123.082Z" fill="#DADADA"/>
<path d="M111.693 121.657V122.788L113.38 123.763V122.631L111.693 121.657Z" fill="#DADADA"/>
<path d="M111.693 120.231V121.363L113.38 122.338V121.205L111.693 120.231Z" fill="#DADADA"/>
<path d="M111.693 118.808V119.939L113.38 120.914V119.781L111.693 118.808Z" fill="#DADADA"/>
<path d="M111.693 117.381V118.512L113.38 119.486V118.354L111.693 117.381Z" fill="#DADADA"/>
<path d="M108.285 114.955C107.208 114.333 106.333 114.837 106.333 116.082C106.333 117.326 107.208 118.84 108.285 119.463C109.362 120.086 110.236 119.581 110.236 118.336C110.236 117.091 109.362 115.576 108.285 114.955Z" fill="white"/>
<path d="M106.488 116.173C106.488 116.216 106.517 116.267 106.554 116.287L110.015 118.285C110.051 118.306 110.08 118.29 110.08 118.247C110.08 118.205 110.051 118.154 110.015 118.133L106.554 116.135C106.517 116.114 106.488 116.131 106.488 116.173Z" fill="#3C3C3B"/>
<path d="M108.218 115.172V119.169C108.218 119.211 108.247 119.263 108.284 119.283C108.321 119.304 108.35 119.287 108.35 119.245V115.248C108.35 115.205 108.321 115.154 108.284 115.133C108.247 115.112 108.218 115.129 108.218 115.172Z" fill="#3C3C3B"/>
<path d="M106.995 115.052C106.995 115.071 107.001 115.094 107.014 115.116L109.462 119.356C109.489 119.4 109.53 119.425 109.556 119.411C109.582 119.396 109.582 119.348 109.556 119.302L107.108 115.062C107.081 115.018 107.04 114.993 107.014 115.008C107.001 115.017 106.995 115.031 106.995 115.052Z" fill="#3C3C3B"/>
<path d="M106.995 117.879C106.995 117.898 107.001 117.921 107.014 117.945C107.04 117.989 107.081 118.014 107.108 117.999L109.556 116.586C109.582 116.571 109.582 116.523 109.556 116.477C109.53 116.432 109.489 116.409 109.462 116.423L107.014 117.837C107.001 117.844 106.995 117.859 106.995 117.879Z" fill="#3C3C3B"/>
<path d="M108.284 115.556C107.494 115.099 106.852 115.47 106.852 116.384C106.852 117.297 107.494 118.408 108.284 118.864C109.075 119.32 109.717 118.95 109.717 118.037C109.717 117.123 109.075 116.012 108.284 115.556Z" fill="white"/>
<path d="M107.894 116.736C107.775 116.917 107.854 117.275 108.071 117.537C108.287 117.798 108.557 117.863 108.676 117.681C108.794 117.5 108.715 117.142 108.499 116.88C108.283 116.619 108.011 116.554 107.894 116.736Z" fill="#D94919"/>
<path d="M109.112 115.94L108.558 117.358L108.143 116.855L109.112 115.94Z" fill="#D94919"/>
<path d="M109.45 120.637V126.403L109.899 126.662V120.895L109.45 120.637Z" fill="#878787"/>
<path d="M108.479 120.627V125.843L108.928 126.102V120.886L108.479 120.627Z" fill="#878787"/>
<path d="M107.51 121.142V125.285L107.959 125.544V121.402L107.51 121.142Z" fill="#878787"/>
<path d="M106.54 119.887V124.725L106.988 124.983V120.147L106.54 119.887Z" fill="#878787"/>
<path d="M104.763 116.469C104.485 116.309 104.26 116.439 104.26 116.76V119.121C104.26 119.441 104.485 119.831 104.763 119.992C105.04 120.153 105.265 120.023 105.265 119.702V117.342C105.265 117.02 105.04 116.63 104.763 116.469Z" fill="#C6C6C6"/>
<path d="M86.8041 165.969C80.3356 169.718 74.5319 181.526 69.3131 200.437C68.5523 203.195 68.8599 206.15 70.203 208.677L83.4971 241.514L86.8041 165.969Z" fill="#516A96"/>
<path d="M137.772 277.259C121.253 285.798 102.955 288.861 84.0933 290.811C74.0046 290.811 73.3179 269.219 78.501 267.458L95.1817 262.316L140.892 274.223C140.074 275.325 139.038 276.338 137.772 277.259Z" fill="#1E2E4D"/>
<path d="M82.7995 271.905L71.4693 272.518L64.262 272.059C58.0929 272.823 57.4501 287.897 58.9141 301.605L70.2443 308.725C74.1034 308.519 75.0703 308.241 77.9763 306.047C79.2013 303.904 79.0612 301.523 75.1444 298.238L75.9108 290.352L83.6592 288.896C88.9219 286.908 88.617 274.66 82.7995 271.905Z" fill="black"/>
<path d="M160.821 295.169C144.311 303.714 126.023 306.785 107.134 308.729C100.295 308.729 97.7734 298.77 98.4958 291.81C98.8556 288.547 99.9104 285.929 101.567 285.377L118.462 280.169C118.462 280.169 91.1978 268.842 84.2871 261.881C76.1981 253.699 79.008 242.155 80.1588 237.521C80.1835 237.304 80.2302 237.114 80.2797 236.944V236.919C80.4472 236.296 82.727 231.975 82.727 231.736C82.727 231.184 86.902 232.505 92.5437 234.544C93.983 235.071 95.5431 235.623 97.128 236.224C103.824 238.721 111.408 241.721 116.544 243.761C120.192 245.225 122.617 246.209 122.617 246.209C122.689 246.255 122.738 246.28 122.81 246.33C131.833 251.776 140.331 257.347 147.865 263.106C153.65 267.545 158.858 272.107 163.296 276.81C167.806 285.064 166.559 291.016 160.821 295.169Z" fill="#29406A"/>
<path d="M135.768 190.147C135.023 194.204 133.823 198.307 133.153 203.633L132.626 203.416L131.425 202.935C131.09 205.72 130.706 208.574 130.321 211.456C128.376 225.903 126.001 240.615 123.482 245.391C123.361 245.655 123.193 245.897 122.976 246.136C122.927 246.207 122.856 246.278 122.809 246.328C121.512 247.792 118.898 248.512 115.585 248.632C115.25 248.657 114.865 248.632 114.481 248.657V248.682C114.338 248.657 114.217 248.657 114.074 248.682C109.754 248.586 104.378 248.154 99.146 247.218C98.4263 247.075 97.7067 246.929 97.009 246.787C90.0489 245.298 83.6408 242.804 80.6414 238.794C80.4244 238.505 80.2569 238.049 80.1607 237.522C79.5125 234.594 80.136 228.691 80.3283 227.035C81.3116 197.972 75.4803 172.219 86.8077 165.981C87.8872 165.814 89.8072 165.525 91.8232 165.237C95.784 164.685 100.247 164.086 100.247 164.086C100.247 164.086 100.582 164.133 101.135 164.207C101.184 164.232 101.255 164.231 101.302 164.231H101.327C104.326 164.687 112.679 166.009 117 167.448C117.024 167.473 117.049 167.473 117.071 167.495C117.263 167.637 117.478 167.783 117.67 167.926C120.285 169.75 123.262 171.527 126.789 174.573C127.316 175.029 127.844 175.485 128.374 175.965C133.032 180.259 136.729 185.01 135.768 190.147Z" fill="#29406A"/>
<path opacity="0.3" d="M96.9485 228.856C96.943 235.52 97.1545 242.348 99.6155 248.542C96.6628 246.333 93.3256 244.639 89.7988 243.554C97.0089 225.755 93.1031 205.108 99.415 186.972C97.7835 200.87 96.9595 214.864 96.9485 228.856Z" fill="#1D1D1B"/>
<path d="M86.3001 177.641L113.273 186.873C114.794 176.202 120.433 173.221 128.371 175.96C127.844 175.496 127.317 175.029 126.789 174.562C122.958 171.269 119.774 169.456 117.006 167.434C111.682 165.676 100.248 164.086 100.248 164.086C100.248 164.086 95.7735 164.679 91.821 165.223C88.3519 168.599 86.1353 173.186 86.3001 177.641Z" fill="#516A96"/>
<path d="M109.099 147.091C108.687 149.486 108.278 151.89 108.286 154.318C108.294 156.743 108.742 159.215 109.948 161.319C111.31 163.684 113.637 165.45 116.254 166.2C117.076 166.442 117.922 166.579 118.779 166.604C119.633 166.626 120.504 166.546 121.289 166.205C122.514 165.681 123.385 164.61 124.096 163.459C124.096 163.453 124.099 163.45 124.099 163.45C124.258 163.195 124.409 162.934 124.552 162.673C127.881 156.683 129.395 148.758 130.491 141.99C130.65 140.988 130.117 140.875 130.021 139.862C129.738 136.868 128.307 134.67 125.475 133.643C122.643 132.616 119.507 132.83 116.565 133.481C115.757 133.662 114.944 133.874 114.233 134.302C113.557 134.709 113.008 135.291 112.365 135.753C111.58 136.318 109.717 143.496 109.099 147.091Z" fill="#FFBB7D"/>
<path opacity="0.1" d="M117.025 160.517C116.695 161.94 116.407 163.374 116.118 164.807C116.058 165.115 115.992 165.436 116.055 165.744C116.088 165.912 116.162 166.065 116.256 166.2C117.077 166.442 117.923 166.579 118.78 166.604C119.634 166.626 120.505 166.546 121.29 166.206C122.515 165.681 123.386 164.61 124.097 163.459C124.097 163.453 124.1 163.451 124.1 163.451C120.755 165.472 119.51 162.816 120.582 155.145C119.31 158.561 117.838 156.96 117.025 160.517Z" fill="#1D1D1B"/>
<path d="M105.508 144.991L122.037 148.754L117.165 170.148L100.918 165.136L105.508 144.991Z" fill="#FFBB7D"/>
<path d="M103.922 162.951C100.26 164.083 99.8429 165.398 102.653 168.002C105.463 170.609 108.871 171.389 114.227 171.337C118.059 171.298 118.452 168.225 115.642 165.621C112.832 163.017 107.583 161.822 103.922 162.951Z" fill="#FFBB7D"/>
<path d="M124.49 151.618C124.149 155.258 120.856 152.772 119.919 155.502C116.255 166.2 102.044 161.037 101.601 156.669C98.6157 127.189 116.637 129.46 119.01 129.922C127.077 131.493 131.746 135.435 130.197 142.378C122.366 140.868 124.91 147.16 124.49 151.618Z" fill="black"/>
<path d="M121.341 148.597C122.245 148.83 122.72 149.808 122.81 150.674C122.926 151.753 122.662 152.81 122.401 153.846C122.069 155.162 121.712 156.527 120.794 157.546C120.547 157.818 120.242 158.073 119.855 158.123C119.275 158.199 118.693 157.779 118.429 157.268C118.166 156.76 118.155 156.183 118.166 155.634C118.204 154.044 118.418 152.464 118.8 150.934C118.954 150.322 119.144 149.698 119.558 149.218C119.976 148.737 120.673 148.424 121.341 148.597Z" fill="#FFBB7D"/>
<path d="M106.178 287.669L94.8478 288.281L87.6404 287.823C81.4713 288.586 80.8286 303.66 82.2926 317.369L93.6227 324.489C97.4818 324.283 98.4487 324.005 101.355 321.811C102.58 319.668 102.44 317.287 98.5228 314.002L99.2892 306.116L107.038 304.66C112.3 302.671 111.995 290.424 106.178 287.669Z" fill="black"/>
<path opacity="0.25" d="M84.2974 261.874C91.2082 268.845 118.453 280.167 118.453 280.167L101.561 285.367C99.907 285.932 98.8495 288.539 98.5062 291.816L110.869 294.601C115.382 285.485 129.311 282.117 144.415 280.703C121.117 276.591 107.101 268.249 110.765 253.145C96.1962 265.703 80.5262 250.582 80.2872 236.923L80.2735 236.937C79.2627 241.125 75.8513 253.323 84.2974 261.874Z" fill="#1D1D1B"/>
<path d="M131.002 139.469C131.016 140.081 130.988 140.705 130.939 141.353C130.9 141.405 130.875 141.444 130.837 141.493C130.837 141.507 130.837 141.507 130.837 141.507C130.722 141.672 130.609 141.839 130.494 141.99C130.035 142.614 129.563 143.188 129.068 143.735C128.305 144.561 127.489 145.3 126.624 145.951C126.33 146.168 126.039 146.371 125.731 146.561C125.681 146.599 125.629 146.638 125.577 146.662C125.451 146.75 125.322 146.827 125.182 146.904C125.066 146.981 124.954 147.044 124.838 147.094C124.814 147.118 124.8 147.132 124.775 147.132C124.495 147.297 124.201 147.451 123.896 147.577C123.616 147.717 123.336 147.844 123.056 147.959H123.042C123.017 147.984 122.992 147.997 122.965 147.997C122.825 148.074 122.671 148.124 122.52 148.176C122.366 148.239 122.226 148.291 122.061 148.341C121.998 148.379 121.907 148.404 121.833 148.418C121.809 148.431 121.781 148.442 121.756 148.442C121.605 148.506 121.438 148.558 121.287 148.596C121.122 148.646 120.957 148.684 120.79 148.736C120.688 148.761 120.586 148.786 120.485 148.813C120.485 148.813 120.485 148.813 120.471 148.813C120.075 148.915 119.655 149.005 119.235 149.08C119.147 149.093 119.07 149.104 118.993 149.118C118.738 149.156 118.485 149.195 118.216 149.233H118.125C116.42 148.162 114.763 147.195 113.146 146.355C109.643 144.52 106.345 143.248 103.301 142.663C103.277 142.663 103.238 142.663 103.213 142.65C102.703 142.562 102.208 142.485 101.711 142.433L102.041 138.178L102.269 135.261C102.395 133.643 103.172 132.127 104.46 131.135C111.198 125.914 118.493 125.2 126.467 129.798C129.538 132.171 130.939 135.445 131.002 139.469Z" fill="#29406A"/>
<path d="M124.776 147.136C124.776 147.136 117.381 152.025 113.701 154.84C112.135 156.049 109.334 156.815 107.436 155.313C107.32 155.225 107.208 155.134 107.079 155.046C105.653 154.016 103.513 152.997 101.209 152.297C101.146 152.272 101.082 152.258 101.019 152.234C99.3768 151.75 97.6683 151.418 96.1027 151.379C94.7266 151.33 93.4549 151.506 92.4359 151.964C92.2051 152.066 92.0541 151.709 92.2189 151.53C93.4659 150.245 97.0036 147.086 98.1243 145.902C99.8437 144.068 101.267 142.713 101.717 142.439C108.988 137.992 120.699 147.567 124.776 147.136Z" fill="#516A96"/>
<path opacity="0.25" d="M147.864 263.105C136.825 258.089 125.687 253.288 114.48 248.682V248.657C115.225 247.05 115.898 245.416 116.543 243.763C122.495 228.282 124.536 211.291 122.375 194.827C125.253 198.258 128.758 201.164 132.623 203.419L131.422 202.938C131.087 205.723 130.703 208.577 130.318 211.458C128.373 225.906 125.997 240.618 123.479 245.394C123.358 245.658 123.19 245.899 122.973 246.138C122.924 246.21 122.852 246.281 122.806 246.331C131.834 251.777 140.33 257.345 147.864 263.105Z" fill="#1D1D1B"/>
<path d="M189.484 188.614H182.604V195.997H189.484V188.614Z" fill="#FFBB7D"/>
<path d="M185.699 220.442C185.812 222.197 183.779 222.183 183.658 220.826L182.604 190.821L185.77 189.456L185.699 220.442Z" fill="#E94E1B"/>
<path d="M189.416 217.671C189.528 219.426 187.496 219.413 187.375 218.056L186.32 188.051L189.485 186.686L189.416 217.671Z" fill="#706F6F"/>
<path d="M194.442 151.379L193.19 152.06V152.071L193.187 152.074C193.181 152.236 193.072 152.428 192.934 152.508C192.794 152.587 192.682 152.524 192.679 152.368L192.673 152.371C192.668 152.533 192.558 152.725 192.418 152.804C192.278 152.884 192.168 152.821 192.162 152.664L192.157 152.667C192.151 152.829 192.042 153.021 191.904 153.101C191.764 153.181 191.652 153.118 191.649 152.961L191.643 152.964C191.638 153.126 191.528 153.318 191.388 153.398C191.248 153.477 191.138 153.414 191.132 153.258L191.127 153.26C191.121 153.423 191.012 153.615 190.874 153.694C190.734 153.774 190.624 153.711 190.619 153.554L190.613 153.557C190.608 153.719 190.498 153.911 190.358 153.991C190.218 154.071 190.108 154.008 190.102 153.851L190.097 153.854C190.091 154.016 189.982 154.208 189.844 154.288C189.704 154.367 189.594 154.304 189.589 154.148L189.575 154.159C189.57 154.321 189.46 154.513 189.32 154.593C189.18 154.672 189.07 154.609 189.064 154.453L189.059 154.455C189.053 154.617 188.943 154.81 188.806 154.889C188.666 154.969 188.556 154.906 188.551 154.749L188.545 154.752C188.54 154.914 188.43 155.106 188.292 155.186C188.152 155.266 188.04 155.202 188.037 155.046L188.031 155.049C188.026 155.211 187.916 155.403 187.779 155.483C187.639 155.562 187.529 155.499 187.523 155.342L187.518 155.345C187.512 155.507 187.402 155.7 187.265 155.779C187.125 155.859 187.012 155.796 187.01 155.639L186.567 155.895L185.837 159.149V162.245L186.081 161.891V159.413L186.523 159.158C186.523 158.993 186.639 158.792 186.782 158.71C186.924 158.628 187.04 158.693 187.04 158.858C187.04 158.693 187.155 158.493 187.298 158.411C187.441 158.328 187.556 158.394 187.556 158.559C187.556 158.394 187.672 158.194 187.814 158.111C187.957 158.029 188.073 158.095 188.073 158.26C188.073 158.095 188.188 157.894 188.331 157.812C188.474 157.729 188.589 157.795 188.589 157.96C188.589 157.795 188.704 157.595 188.847 157.512C188.99 157.43 189.105 157.496 189.105 157.661C189.105 157.496 189.221 157.295 189.364 157.213C189.506 157.131 189.622 157.196 189.622 157.361C189.622 157.196 189.737 156.996 189.88 156.914C190.023 156.831 190.138 156.897 190.138 157.062C190.138 156.897 190.253 156.697 190.396 156.614C190.539 156.532 190.654 156.598 190.654 156.763C190.654 156.598 190.77 156.397 190.913 156.315C191.056 156.232 191.171 156.298 191.171 156.463C191.171 156.298 191.286 156.098 191.429 156.015C191.572 155.933 191.687 155.999 191.687 156.164C191.687 155.999 191.803 155.798 191.945 155.716C192.088 155.634 192.204 155.7 192.204 155.864C192.204 155.7 192.319 155.499 192.462 155.417C192.605 155.334 194.154 156.285 194.154 156.285C194.154 156.968 192.47 157.79 192.075 158.416L191.522 160.723C191.248 161.871 190.712 163.047 189.99 164.085L189.347 165.008L190.119 166.31C190.372 166.736 190.484 167.313 190.446 167.975L189.27 187.787L189.361 187.734C189.479 187.666 189.575 187.721 189.575 187.858L185.688 189.866V170.268L185.249 170.9L185.109 189.078L183.703 191.69L182.156 190.846L182.153 190.794L181.563 170.026C181.538 169.178 181.849 168.189 182.379 167.291L181.887 159.905C181.851 159.66 181.832 159.399 181.835 159.127V159.116C181.843 158.542 181.934 157.911 182.126 157.24C182.859 154.667 184.705 151.89 187.578 151.354L192 150.258C192.704 150.088 193.437 150.624 194.442 151.379Z" fill="#C6C6C6"/>
<path d="M183.383 160.018V160.007C183.391 159.433 183.482 158.804 183.674 158.131C184.408 155.561 186.253 152.781 189.126 152.245L193.549 151.149C194.252 150.976 194.735 151.438 194.735 152.281V152.959L188.107 156.786L187.377 160.04V166.435L183.943 168.418L183.435 160.796C183.4 160.554 183.38 160.293 183.383 160.018Z" fill="#706F6F"/>
<path d="M186.538 165.953V160.388L187.483 156.18L193.856 152.499C193.773 152.266 193.575 152.153 193.32 152.217L188.879 153.315L188.859 153.318C188.343 153.414 187.851 153.595 187.395 153.859C185.508 154.95 184.715 157.141 184.459 158.031C184.311 158.556 184.231 159.059 184.226 159.531V159.583C184.226 159.781 184.239 159.976 184.267 160.163L184.272 160.199L184.726 166.994L186.538 165.953Z" fill="#9D9D9C"/>
<path d="M194.221 153.249C194.221 153.084 194.336 152.884 194.478 152.802C194.621 152.72 194.736 152.786 194.736 152.95C194.736 153.114 194.621 153.314 194.478 153.397C194.336 153.479 194.221 153.413 194.221 153.249Z" fill="#706F6F"/>
<path d="M193.706 153.549C193.706 153.385 193.821 153.185 193.963 153.103C194.106 153.021 194.221 153.086 194.221 153.251C194.221 153.415 194.106 153.615 193.963 153.697C193.821 153.779 193.706 153.711 193.706 153.549Z" fill="#706F6F"/>
<path d="M193.192 153.845C193.192 153.681 193.307 153.481 193.449 153.399C193.592 153.316 193.707 153.382 193.707 153.547C193.707 153.711 193.592 153.911 193.449 153.993C193.307 154.075 193.192 154.01 193.192 153.845Z" fill="#706F6F"/>
<path d="M192.674 154.141C192.674 153.977 192.789 153.777 192.931 153.695C193.074 153.612 193.189 153.678 193.189 153.842C193.189 154.007 193.074 154.207 192.931 154.289C192.789 154.371 192.674 154.305 192.674 154.141Z" fill="#706F6F"/>
<path d="M192.159 154.441C192.159 154.277 192.274 154.077 192.416 153.994C192.559 153.912 192.674 153.978 192.674 154.142C192.674 154.307 192.559 154.507 192.416 154.589C192.274 154.671 192.159 154.605 192.159 154.441Z" fill="#706F6F"/>
<path d="M191.643 154.737C191.643 154.572 191.758 154.372 191.901 154.29C192.043 154.208 192.158 154.274 192.158 154.438C192.158 154.603 192.043 154.803 191.901 154.885C191.761 154.967 191.643 154.901 191.643 154.737Z" fill="#706F6F"/>
<path d="M191.129 155.037C191.129 154.872 191.244 154.672 191.386 154.59C191.529 154.508 191.644 154.574 191.644 154.738C191.644 154.902 191.529 155.102 191.386 155.185C191.244 155.269 191.129 155.201 191.129 155.037Z" fill="#706F6F"/>
<path d="M190.612 155.335C190.612 155.171 190.727 154.971 190.87 154.889C191.012 154.807 191.127 154.872 191.127 155.037C191.127 155.201 191.012 155.401 190.87 155.483C190.727 155.566 190.612 155.5 190.612 155.335Z" fill="#706F6F"/>
<path d="M190.097 155.629C190.097 155.465 190.212 155.265 190.354 155.183C190.497 155.101 190.612 155.166 190.612 155.331C190.612 155.495 190.497 155.695 190.354 155.777C190.212 155.86 190.097 155.794 190.097 155.629Z" fill="#706F6F"/>
<path d="M189.582 155.928C189.582 155.764 189.697 155.564 189.84 155.482C189.982 155.399 190.097 155.465 190.097 155.63C190.097 155.794 189.982 155.994 189.84 156.076C189.694 156.158 189.582 156.093 189.582 155.928Z" fill="#706F6F"/>
<path d="M189.067 156.227C189.067 156.063 189.182 155.863 189.324 155.781C189.467 155.698 189.582 155.764 189.582 155.928C189.582 156.093 189.467 156.293 189.324 156.375C189.182 156.457 189.067 156.391 189.067 156.227Z" fill="#706F6F"/>
<path d="M188.547 156.524C188.547 156.36 188.662 156.16 188.805 156.077C188.947 155.995 189.062 156.061 189.062 156.225C189.062 156.39 188.947 156.59 188.805 156.672C188.662 156.757 188.547 156.688 188.547 156.524Z" fill="#706F6F"/>
<path d="M190.216 164.8L191.653 167.225C191.905 167.651 192.018 168.228 191.979 168.89L190.804 188.699L187.239 190.759V170.829L186.415 166.896L190.216 164.8Z" fill="#706F6F"/>
<path opacity="0.4" d="M191.089 167.878C191.289 168.216 191.377 168.672 191.347 169.197L190.213 188.303L189.688 188.608L189.982 166.008L191.089 167.878Z" fill="white"/>
<path d="M184.156 167.796L187.623 162.783L193.608 159.328L193.056 161.635C192.781 162.783 192.245 163.959 191.523 164.997L186.796 171.787L186.656 189.965L183.7 191.684L183.11 170.916C183.082 169.947 183.472 168.782 184.156 167.796Z" fill="#878787"/>
<path d="M193.609 159.333L187.624 162.789V160.311L194.254 156.482V157.254C194.254 157.941 194.004 158.707 193.609 159.333Z" fill="#706F6F"/>
<path d="M193.737 156.778C193.737 156.614 193.852 156.413 193.994 156.331C194.137 156.249 194.252 156.315 194.252 156.479C194.252 156.644 194.137 156.844 193.994 156.926C193.852 157.008 193.737 156.942 193.737 156.778Z" fill="#706F6F"/>
<path d="M193.224 157.075C193.224 156.91 193.339 156.71 193.482 156.628C193.624 156.546 193.739 156.612 193.739 156.776C193.739 156.941 193.624 157.14 193.482 157.223C193.339 157.305 193.224 157.239 193.224 157.075Z" fill="#706F6F"/>
<path d="M192.708 157.374C192.708 157.21 192.823 157.01 192.965 156.928C193.107 156.846 193.223 156.912 193.223 157.076C193.223 157.24 193.107 157.44 192.965 157.522C192.823 157.605 192.708 157.536 192.708 157.374Z" fill="#706F6F"/>
<path d="M192.191 157.673C192.191 157.509 192.306 157.309 192.448 157.227C192.591 157.145 192.706 157.21 192.706 157.375C192.706 157.539 192.591 157.739 192.448 157.821C192.306 157.903 192.191 157.838 192.191 157.673Z" fill="#706F6F"/>
<path d="M191.674 157.966C191.674 157.802 191.789 157.602 191.932 157.52C192.074 157.438 192.189 157.503 192.189 157.668C192.189 157.832 192.074 158.032 191.932 158.114C191.789 158.199 191.674 158.131 191.674 157.966Z" fill="#706F6F"/>
<path d="M191.161 158.265C191.161 158.101 191.276 157.901 191.419 157.819C191.561 157.736 191.676 157.802 191.676 157.966C191.676 158.131 191.561 158.331 191.419 158.413C191.276 158.495 191.161 158.43 191.161 158.265Z" fill="#706F6F"/>
<path d="M190.645 158.565C190.645 158.401 190.76 158.201 190.902 158.118C191.044 158.036 191.16 158.102 191.16 158.266C191.16 158.431 191.044 158.631 190.902 158.713C190.76 158.795 190.645 158.729 190.645 158.565Z" fill="#706F6F"/>
<path d="M190.128 158.861C190.128 158.697 190.243 158.496 190.385 158.414C190.528 158.332 190.643 158.398 190.643 158.562C190.643 158.727 190.528 158.927 190.385 159.009C190.243 159.091 190.128 159.023 190.128 158.861Z" fill="#706F6F"/>
<path d="M189.613 159.161C189.613 158.996 189.728 158.796 189.87 158.714C190.013 158.632 190.128 158.698 190.128 158.862C190.128 159.026 190.013 159.226 189.87 159.309C189.728 159.391 189.613 159.325 189.613 159.161Z" fill="#706F6F"/>
<path d="M189.098 159.456C189.098 159.291 189.213 159.091 189.356 159.009C189.498 158.927 189.613 158.993 189.613 159.157C189.613 159.321 189.498 159.521 189.356 159.604C189.213 159.686 189.098 159.62 189.098 159.456Z" fill="#706F6F"/>
<path d="M188.58 159.756C188.58 159.592 188.695 159.392 188.838 159.31C188.98 159.228 189.095 159.293 189.095 159.458C189.095 159.622 188.98 159.822 188.838 159.904C188.695 159.987 188.58 159.921 188.58 159.756Z" fill="#706F6F"/>
<path d="M188.064 160.049C188.064 159.885 188.18 159.685 188.322 159.603C188.464 159.521 188.58 159.586 188.58 159.751C188.58 159.915 188.464 160.115 188.322 160.197C188.18 160.279 188.064 160.214 188.064 160.049Z" fill="#706F6F"/>
<path d="M191.53 161.649C191.53 161.943 191.736 162.061 191.989 161.912C192.242 161.767 192.448 161.41 192.448 161.116C192.448 160.822 192.242 160.704 191.989 160.849C191.734 161 191.53 161.355 191.53 161.649Z" fill="#B2B2B2"/>
<path d="M188.347 163.486C188.347 163.779 188.553 163.898 188.805 163.749C189.058 163.604 189.264 163.247 189.264 162.953C189.264 162.659 189.058 162.541 188.805 162.689C188.55 162.837 188.347 163.192 188.347 163.486Z" fill="#B2B2B2"/>
<path d="M186.629 167.317C186.629 167.951 187.074 168.209 187.623 167.891C188.173 167.572 188.618 166.8 188.618 166.166C188.618 165.531 188.173 165.273 187.623 165.592C187.074 165.91 186.629 166.682 186.629 167.317Z" fill="#B2B2B2"/>
<path d="M188.55 207.493L193.186 203.277C193.337 199.398 194.485 193.441 191.566 190.035L189.492 189.458C189.344 191.556 188.558 192.512 186.962 193.674C185.905 194.245 184.768 194.364 183.49 193.644C183.468 193.301 183.691 191.933 183.705 191.688C183.136 191.142 183.619 191.512 182.158 190.845L179.736 193.084C176.464 197.228 176.382 202.675 178.049 208.127C181.381 210.967 185.603 209.844 188.55 207.493Z" fill="#FFBB7D"/>
<path d="M133.658 181.9L146.441 203.025L177.306 197.339C180.882 200.042 184.43 207.359 181.264 211.973C168.079 220.222 157.249 223.974 144.054 225.899C132.836 221.408 125.599 212.567 120.314 199.473C113.763 183.246 127.326 176.552 133.658 181.9Z" fill="#516A96"/>
<path d="M190.679 157.854C190.089 158.195 189.608 157.917 189.608 157.236C189.608 156.552 190.086 155.723 190.679 155.382C191.27 155.041 191.75 155.319 191.75 156C191.75 156.681 191.27 157.513 190.679 157.854Z" fill="#706F6F"/>
<path d="M195.686 271.646L211.893 262.289C214.059 261.038 217.857 261.039 220.022 262.289L229.777 267.947L232.666 262.966L222.906 257.305C218.942 255.017 212.971 255.017 209.012 257.302L192.806 266.66L195.686 271.646Z" fill="#DADADA"/>
<path d="M224.447 264.889C224.447 265.348 224.528 265.741 224.674 266.057C224.821 266.368 225.03 266.605 225.292 266.756L225.923 267.121L225.926 267.118L226.132 266.762L227.702 264.04L228.22 263.144L228.46 262.726L228.816 262.111L229.137 261.549L229.231 261.387L229.35 261.186L229.399 261.099L229.565 260.812L229.728 260.531L229.783 260.431L229.83 260.353L229.889 260.247L229.905 260.222L229.998 260.063V260.059L229.889 259.997L229.799 259.943L229.518 259.781L229.468 259.753L229.368 259.697C228.847 259.394 228.126 259.438 227.331 259.896C227.072 260.045 226.822 260.23 226.582 260.442C225.96 260.991 225.424 261.728 225.043 262.521C224.819 262.989 224.647 263.476 224.547 263.953C224.481 264.274 224.447 264.587 224.447 264.889Z" fill="#EDEDED"/>
<path d="M225.081 265.254C225.081 266.175 225.402 266.821 225.926 267.118C226.226 267.295 226.593 267.355 227.002 267.28C227.302 267.234 227.627 267.112 227.96 266.918C228.628 266.534 229.239 265.919 229.73 265.198C229.948 264.877 230.142 264.533 230.301 264.181C230.523 263.704 230.682 263.21 230.769 262.727C230.779 262.674 230.788 262.62 230.794 262.568C230.823 262.387 230.838 262.209 230.841 262.034C230.844 262 230.844 261.962 230.844 261.928C230.844 261.685 230.823 261.463 230.779 261.26C230.775 261.235 230.769 261.214 230.763 261.188C230.757 261.16 230.748 261.129 230.741 261.101C230.741 261.097 230.741 261.097 230.738 261.095C230.726 261.041 230.707 260.988 230.688 260.938C230.66 260.86 230.629 260.785 230.594 260.717C230.529 260.582 230.451 260.464 230.357 260.361C230.326 260.32 230.288 260.283 230.251 260.248C230.241 260.239 230.232 260.229 230.222 260.223C230.151 260.161 230.075 260.108 229.998 260.064C229.96 260.04 229.923 260.021 229.885 260.005C229.857 259.99 229.826 259.977 229.798 259.967C229.658 259.914 229.505 259.883 229.343 259.877C229.314 259.871 229.287 259.871 229.258 259.871C228.868 259.868 228.425 259.996 227.96 260.265C227.702 260.414 227.452 260.599 227.211 260.811C226.59 261.36 226.053 262.094 225.672 262.887C225.451 263.355 225.279 263.842 225.179 264.322C225.115 264.637 225.081 264.952 225.081 265.254Z" fill="#9D9D9C"/>
<path d="M225.527 265.187C225.527 265.601 225.599 265.951 225.73 266.235C225.77 266.323 225.817 266.401 226.133 266.76C226.182 266.8 226.236 266.834 226.289 266.866L227.004 267.278L230.73 269.428L231.36 269.793L231.569 269.912L231.603 269.933V269.93L232.677 268.076L233.199 267.171L234.16 265.51L235.274 263.582V263.578L235.121 263.491L234.488 263.126L233.209 262.386L233.115 262.333L232.609 262.042L231.907 261.633L231.336 261.306L231.124 261.184L230.974 261.096L230.943 261.078L230.691 260.934L230.11 260.597L229.992 260.532C229.988 260.529 229.986 260.526 229.982 260.526L229.957 260.511C229.929 260.495 229.901 260.48 229.873 260.47C229.845 260.451 229.817 260.439 229.785 260.43C229.611 260.361 229.414 260.33 229.202 260.34H229.193C228.906 260.355 228.587 260.446 228.256 260.624C228.212 260.643 228.169 260.668 228.125 260.693C227.925 260.808 227.729 260.949 227.541 261.104C226.933 261.616 226.408 262.327 226.043 263.092C225.831 263.545 225.675 264.016 225.594 264.478C225.549 264.718 225.527 264.955 225.527 265.187Z" fill="#C6C6C6"/>
<path d="M236.031 265.259C236.031 263.604 234.87 262.934 233.437 263.762C232.004 264.589 230.842 266.601 230.842 268.255C230.842 269.909 232.004 270.579 233.437 269.752C234.87 268.926 236.031 266.914 236.031 265.259Z" fill="#9D9D9C"/>
<path d="M230.592 268.493C230.592 268.845 230.639 269.16 230.729 269.429C230.754 269.51 230.785 269.586 230.817 269.657C230.964 269.972 231.173 270.209 231.435 270.359L232.015 270.693C232.034 270.702 232.053 270.714 232.069 270.721L232.428 270.1L233.093 268.949L233.096 268.943L233.892 267.57L235.118 265.445L235.122 265.439L235.827 264.215L236.146 263.666L235.513 263.301C235.226 263.135 234.88 263.074 234.489 263.129C234.173 263.173 233.833 263.298 233.474 263.504C232.566 264.028 231.754 264.983 231.224 266.048C230.829 266.845 230.592 267.706 230.592 268.493Z" fill="#DADADA"/>
<path d="M231.222 268.858C231.222 269.183 231.263 269.47 231.337 269.722C231.343 269.747 231.349 269.772 231.359 269.794C231.493 270.2 231.718 270.503 232.014 270.693C232.033 270.702 232.052 270.714 232.068 270.721C232.589 271.024 233.31 270.981 234.105 270.522C234.364 270.372 234.617 270.185 234.858 269.973C235.251 269.621 235.613 269.195 235.922 268.728C236.384 268.029 236.727 267.233 236.886 266.459C236.951 266.144 236.986 265.832 236.986 265.529C236.986 264.611 236.665 263.965 236.143 263.666C235.856 263.5 235.506 263.438 235.119 263.494C235.11 263.494 235.098 263.494 235.085 263.497C234.779 263.547 234.448 263.669 234.104 263.866C233.196 264.393 232.382 265.348 231.858 266.412C231.459 267.21 231.222 268.071 231.222 268.858Z" fill="#9D9D9C"/>
<path d="M235.548 264.831L232.664 269.815L239.936 274.024L242.821 269.04L235.548 264.831Z" fill="#DADADA"/>
<path d="M231.985 268.45C231.985 268.681 232.014 268.885 232.067 269.065C232.071 269.083 232.076 269.1 232.082 269.115C232.178 269.403 232.338 269.619 232.548 269.754C232.562 269.76 232.575 269.769 232.586 269.773C232.956 269.988 233.468 269.957 234.033 269.632C234.217 269.525 234.397 269.392 234.568 269.242C234.847 268.991 235.104 268.69 235.324 268.358C235.652 267.861 235.895 267.296 236.008 266.747C236.055 266.523 236.079 266.302 236.079 266.086C236.079 265.435 235.85 264.976 235.481 264.763C235.277 264.645 235.029 264.602 234.754 264.641C234.747 264.641 234.739 264.641 234.73 264.644C234.513 264.679 234.278 264.766 234.034 264.905C233.389 265.279 232.811 265.957 232.439 266.713C232.154 267.28 231.985 267.892 231.985 268.45Z" fill="#DADADA"/>
<path d="M239.331 272.7C239.331 272.931 239.36 273.135 239.412 273.315C239.416 273.333 239.421 273.35 239.428 273.365C239.523 273.653 239.683 273.869 239.893 274.004C239.906 274.01 239.92 274.019 239.931 274.023C240.301 274.238 240.813 274.207 241.378 273.882C241.562 273.775 241.741 273.642 241.912 273.492C242.191 273.241 242.448 272.94 242.668 272.608C242.996 272.111 243.24 271.546 243.353 270.997C243.399 270.773 243.424 270.551 243.424 270.336C243.424 269.685 243.196 269.226 242.826 269.013C242.623 268.895 242.374 268.852 242.099 268.891C242.093 268.891 242.084 268.891 242.075 268.894C241.858 268.929 241.623 269.016 241.379 269.155C240.734 269.529 240.156 270.207 239.784 270.963C239.499 271.53 239.331 272.142 239.331 272.7Z" fill="#9D9D9C"/>
<path d="M239.844 272.403C239.844 272.575 239.866 272.728 239.905 272.862C239.909 272.876 239.912 272.889 239.917 272.9C239.989 273.116 240.108 273.276 240.266 273.378C240.276 273.383 240.286 273.39 240.294 273.392C240.571 273.553 240.955 273.53 241.378 273.286C241.515 273.206 241.65 273.106 241.778 272.994C241.987 272.807 242.179 272.581 242.344 272.331C242.59 271.959 242.772 271.537 242.857 271.125C242.891 270.958 242.91 270.792 242.91 270.63C242.91 270.143 242.739 269.799 242.462 269.64C242.309 269.552 242.123 269.519 241.918 269.549C241.913 269.549 241.906 269.549 241.9 269.551C241.738 269.577 241.562 269.642 241.379 269.746C240.896 270.027 240.463 270.535 240.184 271.1C239.971 271.527 239.844 271.984 239.844 272.403Z" fill="#3C3C3B"/>
<path d="M196.293 270.334C196.293 270.564 196.265 270.769 196.212 270.948C196.207 270.966 196.203 270.984 196.196 270.999C196.101 271.287 195.941 271.502 195.731 271.637C195.717 271.644 195.704 271.653 195.693 271.657C195.323 271.872 194.81 271.841 194.246 271.515C194.062 271.409 193.883 271.276 193.712 271.125C193.433 270.874 193.176 270.574 192.956 270.241C192.628 269.745 192.384 269.18 192.271 268.631C192.225 268.406 192.2 268.186 192.2 267.97C192.2 267.319 192.428 266.86 192.798 266.647C193.002 266.529 193.25 266.485 193.525 266.525C193.532 266.525 193.541 266.525 193.549 266.528C193.767 266.563 194.001 266.649 194.245 266.789C194.89 267.163 195.469 267.841 195.841 268.597C196.125 269.164 196.293 269.776 196.293 270.334Z" fill="#9D9D9C"/>
<path d="M195.779 270.038C195.779 270.21 195.758 270.362 195.718 270.497C195.715 270.51 195.711 270.524 195.706 270.535C195.635 270.751 195.515 270.912 195.357 271.013C195.347 271.018 195.338 271.025 195.329 271.027C195.052 271.188 194.668 271.165 194.246 270.921C194.108 270.841 193.973 270.741 193.846 270.629C193.637 270.441 193.445 270.215 193.28 269.966C193.034 269.594 192.852 269.172 192.767 268.76C192.733 268.593 192.714 268.427 192.714 268.265C192.714 267.777 192.885 267.434 193.161 267.275C193.314 267.187 193.5 267.154 193.706 267.184C193.711 267.184 193.717 267.184 193.724 267.185C193.887 267.212 194.063 267.276 194.246 267.381C194.728 267.661 195.161 268.169 195.441 268.735C195.654 269.161 195.779 269.62 195.779 270.038Z" fill="#3C3C3B"/>
<path d="M9.43185 270.405L6.22363 275.948L14.3123 280.629L17.5205 275.086L9.43185 270.405Z" fill="#DADADA"/>
<path d="M5.48047 274.424C5.48047 274.68 5.51283 274.907 5.57202 275.106C5.57664 275.126 5.58219 275.146 5.58959 275.163C5.69594 275.483 5.87257 275.722 6.10746 275.873C6.12226 275.88 6.13705 275.891 6.14907 275.895C6.56059 276.135 7.13025 276.1 7.75816 275.737C7.96253 275.619 8.16228 275.471 8.35186 275.303C8.66258 275.025 8.94833 274.689 9.19247 274.319C9.55775 273.767 9.82871 273.139 9.95447 272.527C10.0063 272.278 10.0331 272.032 10.0331 271.793C10.0331 271.068 9.77877 270.558 9.36725 270.322C9.14068 270.191 8.86418 270.141 8.559 270.186C8.55161 270.186 8.54143 270.186 8.53219 270.189C8.29082 270.228 8.02912 270.324 7.75816 270.479C7.04055 270.896 6.39783 271.65 5.98354 272.49C5.66819 273.123 5.48047 273.803 5.48047 274.424Z" fill="#DADADA"/>
<path d="M13.6504 279.151C13.6504 279.408 13.6828 279.634 13.741 279.834C13.7456 279.853 13.7512 279.874 13.7586 279.89C13.8649 280.21 14.0425 280.45 14.2765 280.601C14.2913 280.608 14.306 280.618 14.3181 280.623C14.7296 280.862 15.2992 280.827 15.9281 280.465C16.1325 280.346 16.3322 280.198 16.5218 280.031C16.8325 279.753 17.1183 279.417 17.3624 279.047C17.7267 278.495 17.9986 277.866 18.1244 277.255C18.1762 277.006 18.203 276.759 18.203 276.521C18.203 275.796 17.9487 275.286 17.5372 275.049C17.3106 274.919 17.0341 274.869 16.7289 274.913C16.7215 274.913 16.7114 274.913 16.7021 274.916C16.4607 274.956 16.199 275.052 15.9281 275.207C15.2105 275.624 14.5678 276.378 14.1535 277.219C13.8381 277.849 13.6504 278.53 13.6504 279.151Z" fill="#9D9D9C"/>
<path d="M14.2231 278.822C14.2231 279.014 14.2472 279.183 14.2916 279.333C14.2953 279.348 14.299 279.363 14.3045 279.375C14.3841 279.616 14.5163 279.794 14.692 279.907C14.7031 279.913 14.7142 279.92 14.7234 279.924C15.0314 280.103 15.4577 280.077 15.9284 279.805C16.0819 279.717 16.2308 279.606 16.3732 279.481C16.6063 279.273 16.8199 279.021 17.003 278.745C17.2758 278.331 17.4792 277.861 17.5736 277.403C17.6124 277.216 17.6327 277.032 17.6327 276.853C17.6327 276.31 17.4422 275.928 17.1343 275.75C16.9641 275.652 16.7579 275.615 16.5286 275.649C16.523 275.649 16.5156 275.649 16.5082 275.651C16.327 275.68 16.1318 275.752 15.9284 275.869C15.3911 276.18 14.9093 276.745 14.5995 277.375C14.3628 277.847 14.2231 278.356 14.2231 278.822Z" fill="#3C3C3B"/>
<path d="M12.1489 279.15C12.1489 279.66 12.2396 280.098 12.4023 280.448C12.5651 280.795 12.7981 281.06 13.0894 281.226L13.7904 281.632L13.7941 281.628L14.0234 281.232L15.7694 278.206L16.3455 277.21L16.6128 276.745L17.0086 276.06L17.3664 275.435L17.4709 275.255L17.6032 275.033L17.6587 274.936L17.8427 274.617L18.023 274.304L18.0859 274.193L18.1377 274.106L18.2034 273.988L18.2209 273.96L18.3254 273.784V273.78L18.2043 273.71L18.1035 273.651L17.7909 273.471L17.7354 273.44L17.6244 273.377C17.0446 273.04 16.2429 273.089 15.3579 273.599C15.0693 273.765 14.7919 273.97 14.5246 274.206C13.8338 274.817 13.2364 275.636 12.8138 276.518C12.5641 277.039 12.3727 277.581 12.2617 278.111C12.1868 278.466 12.1489 278.813 12.1489 279.15Z" fill="#EDEDED"/>
<path d="M12.8535 279.555C12.8535 280.579 13.2114 281.298 13.794 281.628C14.1269 281.826 14.5366 281.891 14.9916 281.808C15.3245 281.756 15.6861 281.62 16.0569 281.406C16.7995 280.979 17.4801 280.295 18.0248 279.493C18.268 279.135 18.4825 278.754 18.6601 278.361C18.9061 277.831 19.0836 277.282 19.1807 276.744C19.1909 276.685 19.202 276.626 19.2085 276.567C19.2399 276.366 19.2575 276.168 19.2603 275.974C19.264 275.936 19.264 275.894 19.264 275.855C19.264 275.584 19.2399 275.338 19.1909 275.113C19.1872 275.085 19.1807 275.061 19.1733 275.033C19.1669 275.002 19.1558 274.968 19.1493 274.936C19.1493 274.932 19.1493 274.932 19.1456 274.929C19.1317 274.87 19.1114 274.81 19.0901 274.755C19.0587 274.668 19.0245 274.585 18.9856 274.509C18.9126 274.36 18.8256 274.228 18.7221 274.113C18.6878 274.068 18.6453 274.026 18.6037 273.988C18.5935 273.978 18.5833 273.968 18.5722 273.961C18.4927 273.891 18.4095 273.832 18.3226 273.784C18.281 273.756 18.2393 273.735 18.1977 273.718C18.1663 273.701 18.1321 273.687 18.1006 273.677C17.9443 273.617 17.7742 273.583 17.5939 273.576C17.5624 273.568 17.5319 273.568 17.5005 273.568C17.0667 273.565 16.5738 273.707 16.056 274.006C15.7674 274.172 15.49 274.378 15.2228 274.613C14.532 275.225 13.9346 276.04 13.511 276.922C13.2641 277.442 13.0736 277.984 12.9626 278.519C12.8914 278.868 12.8535 279.219 12.8535 279.555Z" fill="#9D9D9C"/>
<path d="M13.3491 279.483C13.3491 279.944 13.4286 280.334 13.5748 280.649C13.6201 280.746 13.6719 280.833 14.0223 281.233C14.0778 281.278 14.137 281.316 14.1962 281.351L14.9906 281.81L20.5244 285.011L21.2253 285.417L21.4584 285.549L21.4963 285.573V285.57L22.6902 283.507L23.27 282.5L24.339 280.654L25.5782 278.508V278.504L25.408 278.407L24.7034 278.001L23.2801 277.178L23.1757 277.119L22.6134 276.796L21.832 276.341L19.8077 275.167L19.5718 275.032L19.4054 274.935L19.3702 274.914L19.0891 274.754L18.4436 274.379L18.3114 274.306C18.3077 274.302 18.304 274.299 18.3012 274.299L18.2735 274.281C18.242 274.263 18.2106 274.246 18.1801 274.236C18.1486 274.215 18.1172 274.201 18.083 274.19C17.8888 274.114 17.6696 274.079 17.4338 274.09H17.4236C17.1046 274.107 16.7504 274.208 16.3823 274.406C16.3333 274.427 16.2852 274.455 16.2362 274.483C16.0143 274.611 15.7951 274.768 15.587 274.94C14.9101 275.51 14.3275 276.301 13.9206 277.152C13.6848 277.655 13.511 278.179 13.4212 278.693C13.3741 278.962 13.3491 279.226 13.3491 279.483Z" fill="#B2B2B2"/>
<path d="M26.4234 280.374C26.4234 278.534 25.1315 277.789 23.5381 278.709C21.9447 279.629 20.6528 281.867 20.6528 283.706C20.6528 285.546 21.9447 286.292 23.5381 285.373C25.1315 284.452 26.4234 282.214 26.4234 280.374Z" fill="#9D9D9C"/>
<path d="M20.3726 283.97C20.3726 284.362 20.4243 284.712 20.5251 285.011C20.5529 285.101 20.588 285.185 20.6222 285.264C20.785 285.615 21.018 285.878 21.3093 286.046L21.9548 286.418C21.9752 286.428 21.9964 286.442 22.014 286.449L22.4135 285.758L23.1533 284.477L23.157 284.471L24.042 282.943L25.406 280.58L25.4097 280.572L26.1939 279.212L26.5481 278.601L25.8435 278.195C25.5244 278.011 25.1388 277.941 24.7051 278.004C24.3546 278.053 23.9764 278.192 23.5769 278.42C22.567 279.004 21.6645 280.065 21.0745 281.249C20.6361 282.137 20.3726 283.095 20.3726 283.97Z" fill="#DADADA"/>
<path d="M21.0732 284.375C21.0732 284.736 21.1186 285.056 21.2018 285.337C21.2083 285.365 21.2157 285.393 21.2258 285.417C21.3747 285.868 21.6253 286.205 21.9545 286.416C21.9749 286.426 21.9962 286.44 22.0137 286.448C22.5936 286.784 23.3953 286.736 24.2803 286.226C24.5688 286.059 24.85 285.851 25.1172 285.615C25.5546 285.222 25.9578 284.75 26.3009 284.229C26.8151 283.452 27.1961 282.567 27.3737 281.706C27.4467 281.355 27.4846 281.008 27.4846 280.671C27.4846 279.65 27.1267 278.931 26.5478 278.598C26.2288 278.414 25.8395 278.345 25.4095 278.407C25.3993 278.407 25.3854 278.407 25.3715 278.411C25.0312 278.466 24.6632 278.601 24.2812 278.82C23.2714 279.407 22.3651 280.469 21.7816 281.653C21.3368 282.542 21.0732 283.501 21.0732 284.375Z" fill="#9D9D9C"/>
<path d="M26.0456 279.927L22.8374 285.471L30.9261 290.152L34.1343 284.609L26.0456 279.927Z" fill="#DADADA"/>
<path d="M22.0933 283.946C22.0933 284.203 22.1256 284.429 22.1848 284.629C22.1894 284.648 22.195 284.669 22.2024 284.685C22.3087 285.005 22.4863 285.245 22.7203 285.396C22.735 285.403 22.7499 285.413 22.7619 285.418C23.1734 285.657 23.743 285.622 24.3719 285.26C24.5763 285.141 24.776 284.993 24.9656 284.826C25.2763 284.548 25.5621 284.212 25.8062 283.843C26.1715 283.291 26.4424 282.662 26.5682 282.051C26.62 281.802 26.6468 281.555 26.6468 281.316C26.6468 280.591 26.3925 280.082 25.981 279.845C25.7544 279.715 25.4779 279.665 25.1727 279.709C25.1653 279.709 25.1552 279.709 25.1459 279.712C24.9045 279.752 24.6428 279.848 24.3719 280.003C23.6543 280.42 23.0116 281.174 22.5973 282.015C22.281 282.644 22.0933 283.325 22.0933 283.946Z" fill="#DADADA"/>
<path d="M20.2693 282.366C20.2693 282.827 20.1898 283.216 20.0437 283.532C19.9984 283.629 19.9466 283.716 19.5961 284.115C19.5406 284.161 19.4814 284.198 19.4222 284.234L18.6279 284.691L14.4831 287.083L13.7821 287.489L13.55 287.621L13.5121 287.645V287.641L12.3182 285.579L11.7384 284.572L10.6694 282.725L9.43018 280.58V280.576L9.60033 280.479L10.305 280.073L11.7282 279.25L11.8327 279.191L12.395 278.868L13.1764 278.413L13.8117 278.049L14.0475 277.914L14.214 277.817L14.2482 277.795L14.5293 277.635L15.1748 277.261L15.307 277.188C15.3107 277.184 15.3135 277.18 15.3172 277.18L15.345 277.163C15.3764 277.145 15.4078 277.128 15.4384 277.118C15.4698 277.096 15.5012 277.082 15.5355 277.072C15.7297 276.996 15.9488 276.961 16.1846 276.971H16.1948C16.5139 276.989 16.868 277.09 17.2361 277.288C17.2851 277.309 17.3332 277.337 17.3822 277.365C17.6042 277.493 17.8233 277.649 18.0314 277.823C18.7083 278.393 19.2918 279.184 19.6978 280.034C19.9336 280.537 20.1075 281.062 20.1972 281.576C20.2453 281.844 20.2693 282.109 20.2693 282.366Z" fill="#C6C6C6"/>
<path d="M8.58496 282.445C8.58496 280.605 9.87686 279.859 11.4702 280.779C13.0636 281.699 14.3555 283.937 14.3555 285.777C14.3555 287.617 13.0636 288.363 11.4702 287.443C9.87686 286.523 8.58496 284.286 8.58496 282.445Z" fill="#9D9D9C"/>
<path d="M14.6356 286.041C14.6356 286.434 14.5838 286.784 14.483 287.083C14.4553 287.173 14.421 287.257 14.3859 287.336C14.2231 287.687 13.9901 287.95 13.6988 288.117L13.0533 288.489C13.033 288.499 13.0117 288.513 12.9941 288.521L12.5946 287.83L11.8557 286.549L11.852 286.542L10.967 285.014L9.60302 282.65L9.59932 282.643L8.81512 281.283L8.46094 280.671L9.16561 280.265C9.48465 280.081 9.87028 280.012 10.304 280.074C10.6545 280.123 11.0327 280.262 11.4322 280.491C12.442 281.074 13.3446 282.136 13.9346 283.32C14.372 284.209 14.6356 285.167 14.6356 286.041Z" fill="#DADADA"/>
<path d="M13.9348 286.447C13.9348 286.808 13.8895 287.128 13.8063 287.409C13.7998 287.437 13.7924 287.464 13.7822 287.489C13.6333 287.94 13.3827 288.276 13.0535 288.488C13.0332 288.498 13.0119 288.512 12.9943 288.52C12.4145 288.856 11.6127 288.807 10.7277 288.298C10.4392 288.131 10.1581 287.923 9.89083 287.686C9.45342 287.294 9.05114 286.822 8.70713 286.301C8.19296 285.523 7.81196 284.638 7.63441 283.777C7.56135 283.427 7.52344 283.079 7.52344 282.744C7.52344 281.723 7.88132 281.004 8.46022 280.671C8.77927 280.487 9.16859 280.418 9.59861 280.481C9.60878 280.481 9.62265 280.481 9.63652 280.484C9.97683 280.54 10.3449 280.676 10.7268 280.894C11.7367 281.48 12.6429 282.543 13.2265 283.727C13.6713 284.614 13.9348 285.572 13.9348 286.447Z" fill="#9D9D9C"/>
<path d="M30.2637 288.673C30.2637 288.929 30.296 289.155 30.3552 289.355C30.3598 289.375 30.3654 289.395 30.3728 289.411C30.4791 289.731 30.6567 289.971 30.8907 290.122C30.9055 290.129 30.9203 290.139 30.9323 290.144C31.3438 290.382 31.9134 290.348 32.5423 289.986C32.7467 289.867 32.9464 289.719 33.136 289.552C33.4467 289.274 33.7325 288.938 33.9766 288.568C34.3419 288.016 34.6128 287.387 34.7386 286.776C34.7904 286.527 34.8172 286.28 34.8172 286.042C34.8172 285.317 34.5638 284.807 34.1514 284.57C33.9248 284.44 33.6483 284.391 33.3431 284.434C33.3357 284.434 33.3256 284.434 33.3163 284.437C33.0749 284.477 32.8132 284.573 32.5423 284.728C31.8247 285.145 31.182 285.899 30.7677 286.74C30.4514 287.371 30.2637 288.051 30.2637 288.673Z" fill="#9D9D9C"/>
<path d="M30.8354 288.342C30.8354 288.534 30.8595 288.704 30.9039 288.853C30.9076 288.868 30.9113 288.883 30.9168 288.896C30.9964 289.136 31.1286 289.315 31.3043 289.428C31.3154 289.433 31.3265 289.441 31.3357 289.444C31.6437 289.624 32.07 289.598 32.5407 289.326C32.6942 289.237 32.8431 289.126 32.9855 289.001C33.2176 288.793 33.4322 288.542 33.6153 288.265C33.8881 287.852 34.0915 287.381 34.1859 286.924C34.2247 286.737 34.2451 286.553 34.2451 286.373C34.2451 285.83 34.0555 285.449 33.7466 285.272C33.5764 285.174 33.3702 285.137 33.1409 285.17C33.1353 285.17 33.1279 285.17 33.1205 285.172C32.9393 285.202 32.7442 285.274 32.5407 285.389C32.0034 285.701 31.5216 286.266 31.2118 286.896C30.976 287.367 30.8354 287.877 30.8354 288.342Z" fill="#3C3C3B"/>
<path d="M8.88749 281.805L0.798828 286.485L4.0064 292.029L12.0951 287.348L8.88749 281.805Z" fill="#DADADA"/>
<path d="M12.8685 285.856C12.8685 286.112 12.8361 286.339 12.7769 286.539C12.7723 286.558 12.7668 286.578 12.7594 286.595C12.653 286.915 12.4764 287.155 12.2415 287.305C12.2267 287.313 12.2119 287.323 12.1999 287.328C11.7884 287.566 11.2187 287.532 10.5899 287.169C10.3855 287.051 10.1857 286.903 9.99616 286.736C9.68544 286.457 9.39969 286.122 9.15555 285.752C8.79027 285.2 8.51932 284.571 8.39355 283.96C8.34176 283.711 8.31494 283.464 8.31494 283.225C8.31494 282.5 8.56833 281.991 8.98077 281.754C9.20734 281.624 9.48384 281.575 9.78902 281.618C9.79641 281.618 9.80659 281.618 9.81583 281.621C10.0572 281.661 10.3189 281.757 10.5899 281.911C11.3075 282.328 11.9502 283.082 12.3645 283.923C12.6807 284.555 12.8685 285.236 12.8685 285.856Z" fill="#DADADA"/>
<path d="M4.69855 290.583C4.69855 290.839 4.66619 291.066 4.607 291.266C4.60238 291.285 4.59683 291.305 4.58943 291.322C4.48308 291.642 4.30646 291.882 4.07157 292.032C4.05677 292.04 4.04197 292.05 4.02995 292.054C3.61843 292.294 3.04877 292.259 2.41994 291.896C2.21556 291.778 2.01582 291.63 1.82624 291.463C1.51552 291.184 1.22977 290.849 0.985629 290.48C0.620348 289.928 0.349391 289.299 0.223624 288.687C0.171837 288.439 0.14502 288.192 0.14502 287.953C0.14502 287.228 0.398406 286.719 0.81085 286.482C1.03742 286.351 1.31392 286.302 1.61909 286.346C1.62649 286.346 1.63666 286.346 1.64591 286.349C1.88727 286.388 2.14898 286.485 2.41994 286.64C3.13755 287.057 3.78026 287.811 4.19456 288.651C4.51083 289.282 4.69855 289.962 4.69855 290.583Z" fill="#9D9D9C"/>
<path d="M4.1264 290.254C4.1264 290.447 4.10235 290.616 4.05796 290.766C4.05427 290.78 4.05057 290.795 4.04502 290.808C3.96549 291.048 3.83232 291.227 3.65754 291.34C3.64645 291.345 3.63535 291.353 3.6261 291.356C3.31816 291.536 2.89184 291.51 2.42114 291.238C2.26763 291.149 2.11874 291.038 1.97632 290.913C1.74328 290.705 1.52966 290.454 1.34656 290.177C1.07376 289.764 0.870307 289.293 0.775981 288.836C0.737141 288.649 0.716797 288.465 0.716797 288.285C0.716797 287.742 0.907299 287.361 1.21525 287.183C1.3854 287.085 1.59162 287.048 1.82096 287.081C1.82651 287.081 1.83391 287.081 1.84131 287.083C2.02256 287.113 2.21769 287.185 2.42114 287.301C2.95842 287.613 3.44023 288.178 3.75002 288.808C3.98676 289.279 4.1264 289.789 4.1264 290.254Z" fill="#3C3C3B"/>
<path d="M13.4073 252.358L9.81982 246.159L32.0016 233.358L35.589 239.558L13.4073 252.358Z" fill="#DADADA"/>
<path d="M36.4315 237.877C36.4315 238.164 36.3957 238.417 36.3294 238.641C36.3241 238.663 36.3188 238.685 36.3104 238.704C36.1914 239.062 35.9935 239.329 35.7313 239.498C35.7144 239.506 35.6986 239.517 35.6849 239.523C35.2248 239.791 34.5877 239.752 33.8844 239.346C33.6559 239.214 33.4326 239.048 33.2199 238.861C32.8725 238.549 32.5534 238.174 32.2797 237.76C31.8722 237.143 31.5689 236.44 31.4278 235.757C31.3699 235.479 31.3394 235.203 31.3394 234.935C31.3394 234.125 31.6237 233.554 32.0838 233.29C32.3376 233.143 32.6461 233.088 32.9883 233.138C32.9967 233.138 33.0073 233.138 33.0188 233.141C33.2894 233.185 33.5811 233.293 33.8844 233.466C34.6867 233.932 35.4059 234.775 35.8692 235.716C36.222 236.421 36.4315 237.182 36.4315 237.877Z" fill="#DADADA"/>
<path d="M14.1595 250.729C14.1595 251.015 14.1237 251.269 14.0574 251.492C14.0521 251.514 14.0469 251.536 14.0384 251.555C13.9195 251.913 13.7215 252.181 13.4593 252.349C13.4425 252.358 13.4267 252.368 13.413 252.375C12.9528 252.642 12.3158 252.603 11.6124 252.198C11.3839 252.065 11.1607 251.9 10.948 251.712C10.6005 251.401 10.2804 251.026 10.0077 250.612C9.60019 249.995 9.29693 249.292 9.15583 248.608C9.09792 248.33 9.06738 248.054 9.06738 247.787C9.06738 246.976 9.35168 246.405 9.81183 246.141C10.0656 245.995 10.3741 245.94 10.7163 245.989C10.7248 245.989 10.7353 245.989 10.7469 245.993C11.0175 246.037 11.3092 246.144 11.6124 246.318C12.4148 246.783 13.1339 247.628 13.5972 248.567C13.95 249.273 14.1595 250.034 14.1595 250.729Z" fill="#9D9D9C"/>
<path d="M13.5203 250.359C13.5203 250.574 13.494 250.764 13.4445 250.931C13.4403 250.948 13.4361 250.964 13.4298 250.979C13.3413 251.247 13.1928 251.447 12.9959 251.573C12.9833 251.58 12.9717 251.588 12.9612 251.592C12.6169 251.792 12.1399 251.764 11.6134 251.461C11.4417 251.362 11.2743 251.238 11.1164 251.098C10.8563 250.865 10.6173 250.584 10.412 250.274C10.1066 249.812 9.87916 249.285 9.77386 248.774C9.73069 248.565 9.70752 248.359 9.70752 248.159C9.70752 247.552 9.92023 247.125 10.2645 246.927C10.4541 246.817 10.6857 246.776 10.9416 246.813C10.9479 246.813 10.9563 246.813 10.9648 246.815C11.1669 246.848 11.3859 246.929 11.6134 247.058C12.2136 247.407 12.7527 248.039 13.0991 248.743C13.3634 249.27 13.5203 249.839 13.5203 250.359Z" fill="#3C3C3B"/>
</svg>
