<svg width="433" height="61" viewBox="0 0 433 61" fill="none" xmlns="http://www.w3.org/2000/svg">
<path d="M82.3327 40.2378C83.5202 40.2378 84.4109 40.5451 85.0046 41.1597C85.4942 41.6493 85.7442 42.2899 85.7546 43.0815C85.7546 43.8628 85.5046 44.5034 85.0046 45.0034C84.4004 45.618 83.5098 45.9253 82.3327 45.9253H80.0046V48.6597C80.0046 48.8159 79.9473 48.9513 79.8327 49.0659C79.7181 49.1805 79.5775 49.2378 79.4109 49.2378C79.2546 49.2378 79.1192 49.1805 79.0046 49.0659C78.89 48.9513 78.8327 48.8159 78.8327 48.6597V40.8315C78.8327 40.6753 78.89 40.5399 79.0046 40.4253C79.1192 40.3003 79.2546 40.2378 79.4109 40.2378H82.3327ZM82.2234 44.8315C83.0984 44.8315 83.7338 44.644 84.1296 44.269C84.4421 43.9774 84.5931 43.5815 84.5827 43.0815C84.5827 42.2899 84.1869 41.7638 83.3952 41.5034C83.0827 41.3993 82.6921 41.342 82.2234 41.3315H80.0046V44.8315H82.2234ZM105.075 48.019C105.241 48.019 105.377 48.0763 105.481 48.1909C105.595 48.2951 105.653 48.4305 105.653 48.5972C105.653 48.7534 105.595 48.8888 105.481 49.0034C105.377 49.118 105.241 49.1753 105.075 49.1753H100.528C100.299 49.1753 100.106 49.0972 99.9496 48.9409C99.7934 48.7847 99.7152 48.592 99.7152 48.3628V40.769C99.7152 40.6128 99.7725 40.4774 99.8871 40.3628C100.002 40.2378 100.137 40.1753 100.293 40.1753C100.45 40.1753 100.585 40.2326 100.7 40.3472C100.825 40.4618 100.887 40.6024 100.887 40.769V48.019H105.075ZM126.098 40.1753C126.254 40.1753 126.389 40.2326 126.504 40.3472C126.629 40.4618 126.691 40.6024 126.691 40.769V45.8315C126.691 46.9461 126.29 47.8211 125.488 48.4565C124.801 49.019 123.973 49.3003 123.004 49.3003C122.025 49.3003 121.197 49.019 120.52 48.4565C119.728 47.8107 119.332 46.9357 119.332 45.8315V40.769C119.332 40.6128 119.389 40.4774 119.504 40.3628C119.619 40.2378 119.754 40.1753 119.91 40.1753C120.066 40.1753 120.202 40.2326 120.316 40.3472C120.441 40.4618 120.504 40.6024 120.504 40.769V45.8628C120.504 46.6232 120.764 47.217 121.285 47.644C121.764 48.0399 122.337 48.2378 123.004 48.2378C123.681 48.2378 124.259 48.0399 124.738 47.644C125.259 47.2065 125.52 46.6128 125.52 45.8628V40.769C125.52 40.6128 125.577 40.4774 125.691 40.3628C125.806 40.2378 125.941 40.1753 126.098 40.1753ZM150.449 40.1753C150.689 40.1753 150.886 40.2586 151.043 40.4253C151.209 40.592 151.293 40.7899 151.293 41.019V48.6597C151.293 48.8159 151.235 48.9513 151.121 49.0659C151.006 49.1805 150.871 49.2378 150.715 49.2378C150.558 49.2378 150.423 49.1805 150.308 49.0659C150.194 48.9513 150.136 48.8159 150.136 48.6597V41.394L147.168 48.7065C147.105 48.8628 147.001 48.993 146.855 49.0972C146.709 49.1909 146.543 49.2378 146.355 49.2378C146.168 49.2378 146.001 49.1909 145.855 49.0972C145.709 49.0034 145.6 48.8732 145.527 48.7065L142.574 41.394V48.6597C142.574 48.8159 142.517 48.9513 142.402 49.0659C142.288 49.1805 142.147 49.2378 141.98 49.2378C141.824 49.2378 141.689 49.1805 141.574 49.0659C141.459 48.9513 141.402 48.8159 141.402 48.6597V41.019C141.402 40.7899 141.48 40.592 141.636 40.4253C141.803 40.2586 142.006 40.1753 142.246 40.1753H142.668C142.834 40.1753 142.985 40.2274 143.121 40.3315C143.267 40.4357 143.376 40.5607 143.449 40.7065L146.355 47.9565L149.261 40.7065C149.324 40.5607 149.423 40.4357 149.558 40.3315C149.704 40.2274 149.866 40.1753 150.043 40.1753H150.449ZM172.55 42.5659C172.55 43.493 172.134 44.144 171.3 44.519C172.113 44.7899 172.649 45.243 172.91 45.8784C173.003 46.118 173.05 46.4045 173.05 46.7378C173.05 47.0607 172.988 47.3784 172.863 47.6909C172.748 47.993 172.561 48.2586 172.3 48.4878C171.748 48.9461 170.899 49.1753 169.753 49.1753H166.66C166.503 49.1753 166.368 49.118 166.253 49.0034C166.139 48.8888 166.081 48.7534 166.081 48.5972V40.8315C166.081 40.6753 166.139 40.5399 166.253 40.4253C166.368 40.3003 166.503 40.2378 166.66 40.2378H169.691C170.628 40.2378 171.337 40.4565 171.816 40.894C172.305 41.3211 172.55 41.8784 172.55 42.5659ZM171.441 42.644C171.441 42.2482 171.279 41.9305 170.956 41.6909C170.644 41.4513 170.191 41.3315 169.597 41.3315H167.253V44.0972H169.378C170.483 44.0972 171.139 43.8055 171.347 43.2222C171.41 43.0451 171.441 42.8524 171.441 42.644ZM169.644 48.0815C170.852 48.0815 171.576 47.7899 171.816 47.2065C171.889 47.019 171.925 46.8211 171.925 46.6128C171.925 46.1024 171.733 45.7326 171.347 45.5034C170.962 45.2638 170.399 45.144 169.66 45.144H167.253V48.0815H169.644ZM187.839 40.1753C187.995 40.1753 188.131 40.2326 188.245 40.3472C188.37 40.4618 188.433 40.6024 188.433 40.769V48.6597C188.433 48.8159 188.375 48.9513 188.261 49.0659C188.146 49.1805 188.006 49.2378 187.839 49.2378C187.683 49.2378 187.547 49.1805 187.433 49.0659C187.318 48.9513 187.261 48.8159 187.261 48.6597V40.769C187.261 40.6128 187.318 40.4774 187.433 40.3628C187.547 40.2378 187.683 40.1753 187.839 40.1753ZM210.425 40.1753C210.581 40.1753 210.716 40.2326 210.831 40.3472C210.945 40.4618 211.003 40.6024 211.003 40.769V48.4097C211.003 48.6388 210.919 48.8368 210.753 49.0034C210.586 49.1597 210.388 49.2378 210.159 49.2378H210.003C209.721 49.2378 209.498 49.1232 209.331 48.894L204.378 41.7378V48.6597C204.378 48.8159 204.32 48.9513 204.206 49.0659C204.091 49.1805 203.951 49.2378 203.784 49.2378C203.628 49.2378 203.492 49.1805 203.378 49.0659C203.263 48.9513 203.206 48.8159 203.206 48.6597V41.019C203.206 40.7899 203.284 40.592 203.44 40.4253C203.607 40.2586 203.81 40.1753 204.05 40.1753H204.206C204.477 40.1753 204.716 40.3055 204.925 40.5659L209.846 47.6753V40.769C209.846 40.6128 209.904 40.4774 210.018 40.3628C210.133 40.2378 210.268 40.1753 210.425 40.1753ZM229.901 48.2065C230.703 48.2065 231.453 48.019 232.151 47.644V45.3315H230.026C229.88 45.3315 229.755 45.2795 229.651 45.1753C229.557 45.0711 229.51 44.9461 229.51 44.8003C229.51 44.6545 229.562 44.5295 229.666 44.4253C229.771 44.3211 229.89 44.269 230.026 44.269H232.557C232.724 44.269 232.864 44.3315 232.979 44.4565C233.104 44.5711 233.166 44.717 233.166 44.894V47.7847C233.166 47.9722 233.12 48.1388 233.026 48.2847C232.943 48.4201 232.828 48.519 232.682 48.5815C231.724 49.0607 230.75 49.3003 229.76 49.3003C228.416 49.3003 227.333 48.8732 226.51 48.019C225.687 47.1649 225.271 46.0659 225.26 44.7222C225.26 43.368 225.693 42.2482 226.557 41.3628C227.38 40.5295 228.432 40.1128 229.713 40.1128C230.443 40.1128 231.057 40.2013 231.557 40.3784C232.057 40.5555 232.505 40.7743 232.901 41.0347C233.068 41.1284 233.151 41.2638 233.151 41.4409C233.151 41.618 233.104 41.7586 233.01 41.8628C232.927 41.967 232.818 42.019 232.682 42.019C232.547 42.019 232.437 41.9982 232.354 41.9565C231.531 41.4774 230.693 41.2378 229.838 41.2378C228.849 41.2378 228.036 41.5399 227.401 42.144C226.745 42.7795 226.422 43.6388 226.432 44.7222C226.432 45.7326 226.734 46.5607 227.338 47.2065C227.974 47.8732 228.828 48.2065 229.901 48.2065ZM268.978 48.3003C268.208 48.967 267.333 49.3003 266.353 49.3003C265.301 49.3003 264.494 49.019 263.931 48.4565C263.452 47.9774 263.213 47.3784 263.213 46.6597C263.213 46.0763 263.39 45.5451 263.744 45.0659C264.015 44.7013 264.317 44.4149 264.65 44.2065C264.421 43.9357 264.234 43.6597 264.088 43.3784C263.952 43.0972 263.885 42.7795 263.885 42.4253C263.885 42.0711 263.937 41.7586 264.041 41.4878C264.155 41.217 264.317 40.9774 264.525 40.769C264.963 40.3315 265.546 40.1128 266.275 40.1128C266.848 40.1128 267.416 40.3003 267.978 40.6753C268.124 40.7586 268.197 40.8732 268.197 41.019C268.208 41.1649 268.171 41.2847 268.088 41.3784C268.004 41.4722 267.911 41.519 267.806 41.519C267.702 41.519 267.588 41.4774 267.463 41.394C267.098 41.1961 266.76 41.1024 266.447 41.1128C266.145 41.1128 265.905 41.1493 265.728 41.2222C265.562 41.2847 265.421 41.3732 265.306 41.4878C265.077 41.717 264.963 41.9565 264.963 42.2065C264.963 42.4565 264.984 42.6545 265.025 42.8003C265.067 42.9461 265.145 43.092 265.26 43.2378C265.405 43.467 265.728 43.8107 266.228 44.269L268.9 46.8003C269.046 46.5711 269.166 46.3628 269.26 46.1753C269.353 45.9774 269.442 45.8472 269.525 45.7847C269.619 45.7222 269.734 45.6909 269.869 45.6909C270.004 45.6909 270.119 45.743 270.213 45.8472C270.317 45.9409 270.369 46.0451 270.369 46.1597C270.369 46.4305 270.145 46.8836 269.697 47.519L270.541 48.3315C270.676 48.4461 270.744 48.5815 270.744 48.7378C270.754 48.8836 270.713 49.0086 270.619 49.1128C270.525 49.217 270.395 49.269 270.228 49.269C270.072 49.269 269.942 49.2222 269.838 49.1284L268.978 48.3003ZM265.369 44.9253C264.9 45.2274 264.577 45.618 264.4 46.0972C264.338 46.2847 264.306 46.493 264.306 46.7222C264.317 46.9513 264.369 47.1649 264.463 47.3628C264.567 47.5607 264.708 47.7326 264.885 47.8784C265.239 48.1805 265.661 48.3315 266.15 48.3315C266.64 48.3211 267.041 48.2482 267.353 48.1128C267.676 47.967 267.963 47.7951 268.213 47.5972L265.369 44.9253ZM307.759 40.1753C307.915 40.1753 308.051 40.2326 308.165 40.3472C308.28 40.4618 308.337 40.6024 308.337 40.769V48.6597C308.337 48.8159 308.28 48.9513 308.165 49.0659C308.051 49.1805 307.915 49.2378 307.759 49.2378C307.603 49.2378 307.467 49.1805 307.353 49.0659C307.238 48.9513 307.181 48.8159 307.181 48.6597V45.269H302.321V48.6597C302.321 48.8159 302.264 48.9513 302.15 49.0659C302.035 49.1805 301.894 49.2378 301.728 49.2378C301.571 49.2378 301.436 49.1805 301.321 49.0659C301.207 48.9513 301.15 48.8159 301.15 48.6597V40.769C301.15 40.6128 301.207 40.4774 301.321 40.3628C301.436 40.2378 301.571 40.1753 301.728 40.1753C301.884 40.1753 302.019 40.2326 302.134 40.3472C302.259 40.4618 302.321 40.6024 302.321 40.769V44.1753H307.181V40.769C307.181 40.6128 307.238 40.4774 307.353 40.3628C307.467 40.2378 307.603 40.1753 307.759 40.1753ZM328.845 48.0815C328.99 48.0815 329.115 48.1388 329.22 48.2534C329.334 48.3576 329.391 48.4878 329.391 48.644C329.391 48.7899 329.334 48.9149 329.22 49.019C329.115 49.1232 328.99 49.1753 328.845 49.1753H323.704C323.548 49.1753 323.412 49.118 323.298 49.0034C323.183 48.8888 323.126 48.7534 323.126 48.5972V40.8315C323.126 40.6753 323.183 40.5399 323.298 40.4253C323.412 40.3003 323.548 40.2378 323.704 40.2378H328.845C328.99 40.2378 329.115 40.2951 329.22 40.4097C329.334 40.5138 329.391 40.6388 329.391 40.7847C329.391 40.9305 329.334 41.0607 329.22 41.1753C329.115 41.2795 328.99 41.3315 328.845 41.3315H324.298V44.1597H328.376C328.522 44.1597 328.647 44.2118 328.751 44.3159C328.865 44.4201 328.923 44.5503 328.923 44.7065C328.923 44.8524 328.871 44.9826 328.766 45.0972C328.662 45.2013 328.532 45.2534 328.376 45.2534H324.298V48.0815H328.845ZM350.899 48.4097C350.941 48.5138 350.961 48.6232 350.961 48.7378C350.961 48.842 350.909 48.9513 350.805 49.0659C350.711 49.1805 350.55 49.2378 350.321 49.2378C350.102 49.2378 349.941 49.118 349.836 48.8784L349.008 46.894H344.649L343.836 48.8784C343.732 49.118 343.566 49.2378 343.336 49.2378C343.118 49.2378 342.956 49.1805 342.852 49.0659C342.758 48.9513 342.711 48.842 342.711 48.7378C342.711 48.6232 342.732 48.5138 342.774 48.4097L346.024 40.7065C346.17 40.3524 346.42 40.1753 346.774 40.1753H346.899C347.243 40.1753 347.493 40.3524 347.649 40.7065L350.899 48.4097ZM348.571 45.8315L346.836 41.6597L345.102 45.8315H348.571ZM370.688 40.2378C370.844 40.2378 370.974 40.2951 371.078 40.4097C371.183 40.5138 371.235 40.6388 371.235 40.7847C371.235 40.9305 371.183 41.0607 371.078 41.1753C370.974 41.2795 370.844 41.3315 370.688 41.3315H368.078V48.6597C368.078 48.8159 368.021 48.9513 367.906 49.0659C367.802 49.1805 367.667 49.2378 367.5 49.2378C367.344 49.2378 367.209 49.1805 367.094 49.0659C366.979 48.9513 366.922 48.8159 366.922 48.6597V41.3315H364.313C364.167 41.3315 364.037 41.2795 363.922 41.1753C363.818 41.0711 363.766 40.9409 363.766 40.7847C363.766 40.6388 363.818 40.5138 363.922 40.4097C364.026 40.2951 364.156 40.2378 364.313 40.2378H370.688ZM385.539 40.1753C385.695 40.1753 385.831 40.2326 385.945 40.3472C386.07 40.4618 386.133 40.6024 386.133 40.769V48.6597C386.133 48.8159 386.075 48.9513 385.961 49.0659C385.846 49.1805 385.706 49.2378 385.539 49.2378C385.383 49.2378 385.247 49.1805 385.133 49.0659C385.018 48.9513 384.961 48.8159 384.961 48.6597V40.769C384.961 40.6128 385.018 40.4774 385.133 40.3628C385.247 40.2378 385.383 40.1753 385.539 40.1753ZM408.125 40.1753C408.281 40.1753 408.416 40.2326 408.531 40.3472C408.645 40.4618 408.703 40.6024 408.703 40.769V48.4097C408.703 48.6388 408.619 48.8368 408.453 49.0034C408.286 49.1597 408.088 49.2378 407.859 49.2378H407.703C407.421 49.2378 407.198 49.1232 407.031 48.894L402.078 41.7378V48.6597C402.078 48.8159 402.02 48.9513 401.906 49.0659C401.791 49.1805 401.651 49.2378 401.484 49.2378C401.328 49.2378 401.192 49.1805 401.078 49.0659C400.963 48.9513 400.906 48.8159 400.906 48.6597V41.019C400.906 40.7899 400.984 40.592 401.14 40.4253C401.307 40.2586 401.51 40.1753 401.75 40.1753H401.906C402.177 40.1753 402.416 40.3055 402.625 40.5659L407.546 47.6753V40.769C407.546 40.6128 407.604 40.4774 407.718 40.3628C407.833 40.2378 407.968 40.1753 408.125 40.1753ZM427.601 48.2065C428.403 48.2065 429.153 48.019 429.851 47.644V45.3315H427.726C427.58 45.3315 427.455 45.2795 427.351 45.1753C427.257 45.0711 427.21 44.9461 427.21 44.8003C427.21 44.6545 427.262 44.5295 427.366 44.4253C427.471 44.3211 427.59 44.269 427.726 44.269H430.257C430.424 44.269 430.564 44.3315 430.679 44.4565C430.804 44.5711 430.866 44.717 430.866 44.894V47.7847C430.866 47.9722 430.82 48.1388 430.726 48.2847C430.643 48.4201 430.528 48.519 430.382 48.5815C429.424 49.0607 428.45 49.3003 427.46 49.3003C426.116 49.3003 425.033 48.8732 424.21 48.019C423.387 47.1649 422.971 46.0659 422.96 44.7222C422.96 43.368 423.393 42.2482 424.257 41.3628C425.08 40.5295 426.132 40.1128 427.413 40.1128C428.143 40.1128 428.757 40.2013 429.257 40.3784C429.757 40.5555 430.205 40.7743 430.601 41.0347C430.768 41.1284 430.851 41.2638 430.851 41.4409C430.851 41.618 430.804 41.7586 430.71 41.8628C430.627 41.967 430.518 42.019 430.382 42.019C430.247 42.019 430.137 41.9982 430.054 41.9565C429.231 41.4774 428.393 41.2378 427.538 41.2378C426.549 41.2378 425.736 41.5399 425.101 42.144C424.445 42.7795 424.122 43.6388 424.132 44.7222C424.132 45.7326 424.434 46.5607 425.038 47.2065C425.674 47.8732 426.528 48.2065 427.601 48.2065Z" fill="#51A3E1"/>
<path d="M95.9503 27.0884C96.1964 27.3892 96.3194 27.7446 96.3194 28.1548C96.3194 28.5376 96.1827 28.8657 95.9093 29.1392C95.6358 29.4126 95.2667 29.5493 94.8018 29.5493C94.337 29.5493 93.9405 29.3579 93.6124 28.9751L84.9581 17.9009L81.1436 21.7563V28.0317C81.1436 28.4419 80.9932 28.7974 80.6925 29.0981C80.3917 29.3989 80.0225 29.5493 79.585 29.5493C79.1749 29.5493 78.8194 29.3989 78.5186 29.0981C78.2178 28.7974 78.0675 28.4419 78.0675 28.0317V7.31885C78.0675 6.90869 78.2178 6.55322 78.5186 6.25244C78.8194 5.92432 79.1749 5.76025 79.585 5.76025C79.9952 5.76025 80.3507 5.91064 80.6514 6.21143C80.9796 6.51221 81.1436 6.88135 81.1436 7.31885V17.9829L92.628 6.33447C92.9014 5.979 93.2569 5.80127 93.6944 5.80127C94.1593 5.77393 94.5284 5.89697 94.8018 6.17041C95.0753 6.4165 95.212 6.7583 95.212 7.1958C95.212 7.60596 95.0753 7.92041 94.8018 8.13916L87.0499 15.8501L95.9503 27.0884ZM135.873 5.76025C136.283 5.76025 136.639 5.91064 136.94 6.21143C137.24 6.51221 137.391 6.88135 137.391 7.31885V27.3755C137.391 27.9771 137.172 28.4966 136.735 28.9341C136.297 29.3442 135.778 29.5493 135.176 29.5493H134.766C134.028 29.5493 133.44 29.2485 133.002 28.647L120 9.86182V28.0317C120 28.4419 119.85 28.7974 119.549 29.0981C119.248 29.3989 118.879 29.5493 118.442 29.5493C118.031 29.5493 117.676 29.3989 117.375 29.0981C117.074 28.7974 116.924 28.4419 116.924 28.0317V7.9751C116.924 7.37354 117.129 6.854 117.539 6.4165C117.977 5.979 118.51 5.76025 119.139 5.76025H119.549C120.26 5.76025 120.889 6.10205 121.436 6.78564L134.356 25.4478V7.31885C134.356 6.90869 134.506 6.55322 134.807 6.25244C135.108 5.92432 135.463 5.76025 135.873 5.76025ZM162.138 8.95947C164.271 6.71729 167.115 5.59619 170.669 5.59619C174.224 5.59619 177.068 6.71729 179.201 8.95947C181.279 11.1743 182.359 14.0728 182.441 17.6548C182.359 21.2095 181.279 24.1079 179.201 26.3501C177.068 28.5923 174.224 29.7134 170.669 29.7134C167.115 29.7134 164.271 28.5923 162.138 26.3501C160.005 24.1079 158.911 21.2095 158.857 17.6548C158.911 14.1001 160.005 11.2017 162.138 8.95947ZM170.669 26.8423C173.404 26.8423 175.55 25.9673 177.109 24.2173C178.64 22.522 179.406 20.3345 179.406 17.6548C179.406 14.9751 178.64 12.7876 177.109 11.0923C175.523 9.31494 173.376 8.43994 170.669 8.46729C167.935 8.46729 165.775 9.34229 164.189 11.0923C162.658 12.7876 161.906 14.9751 161.933 17.6548C161.933 20.3345 162.685 22.522 164.189 24.2173C165.775 25.9673 167.935 26.8423 170.669 26.8423ZM220.723 25.2017C220.887 25.1196 221.133 25.0786 221.461 25.0786C221.789 25.0786 222.077 25.2153 222.323 25.4888C222.569 25.7349 222.692 26.022 222.692 26.3501C222.692 26.9517 222.432 27.3892 221.913 27.6626C220.873 28.2642 219.752 28.7563 218.549 29.1392C217.373 29.522 215.938 29.7134 214.243 29.7134C212.575 29.7134 211.016 29.4399 209.567 28.8931C208.145 28.3462 206.914 27.5532 205.875 26.5142C203.633 24.3267 202.512 21.3735 202.512 17.6548C202.512 13.9634 203.633 11.0103 205.875 8.79541C208.036 6.6626 210.838 5.59619 214.284 5.59619C215.952 5.59619 217.373 5.80127 218.549 6.21143C219.752 6.62158 220.668 7.00439 221.297 7.35986C221.926 7.68799 222.309 7.96143 222.446 8.18018C222.61 8.37158 222.692 8.63135 222.692 8.95947C222.692 9.2876 222.569 9.58838 222.323 9.86182C222.077 10.1079 221.789 10.231 221.461 10.231C221.161 10.231 220.914 10.1899 220.723 10.1079C219.821 9.61572 218.891 9.23291 217.934 8.95947C217.004 8.65869 215.842 8.5083 214.448 8.5083C213.053 8.5083 211.782 8.75439 210.633 9.24658C209.512 9.71143 208.569 10.354 207.803 11.1743C206.299 12.8149 205.561 14.9751 205.588 17.6548C205.588 20.3345 206.327 22.4946 207.803 24.1353C209.444 25.9126 211.7 26.8013 214.571 26.8013C215.883 26.8013 217.004 26.6646 217.934 26.3911C218.891 26.0903 219.821 25.6938 220.723 25.2017ZM261.548 27.0884C261.794 27.3892 261.918 27.7446 261.918 28.1548C261.918 28.5376 261.781 28.8657 261.507 29.1392C261.234 29.4126 260.865 29.5493 260.4 29.5493C259.935 29.5493 259.539 29.3579 259.21 28.9751L250.556 17.9009L246.742 21.7563V28.0317C246.742 28.4419 246.591 28.7974 246.291 29.0981C245.99 29.3989 245.621 29.5493 245.183 29.5493C244.773 29.5493 244.418 29.3989 244.117 29.0981C243.816 28.7974 243.666 28.4419 243.666 28.0317V7.31885C243.666 6.90869 243.816 6.55322 244.117 6.25244C244.418 5.92432 244.773 5.76025 245.183 5.76025C245.593 5.76025 245.949 5.91064 246.25 6.21143C246.578 6.51221 246.742 6.88135 246.742 7.31885V17.9829L258.226 6.33447C258.5 5.979 258.855 5.80127 259.293 5.80127C259.757 5.77393 260.127 5.89697 260.4 6.17041C260.673 6.4165 260.81 6.7583 260.81 7.1958C260.81 7.60596 260.673 7.92041 260.4 8.13916L252.648 15.8501L261.548 27.0884ZM284.409 8.95947C286.542 6.71729 289.385 5.59619 292.94 5.59619C296.495 5.59619 299.339 6.71729 301.471 8.95947C303.549 11.1743 304.63 14.0728 304.712 17.6548C304.63 21.2095 303.549 24.1079 301.471 26.3501C299.339 28.5923 296.495 29.7134 292.94 29.7134C289.385 29.7134 286.542 28.5923 284.409 26.3501C282.276 24.1079 281.182 21.2095 281.128 17.6548C281.182 14.1001 282.276 11.2017 284.409 8.95947ZM292.94 26.8423C295.674 26.8423 297.821 25.9673 299.38 24.2173C300.911 22.522 301.676 20.3345 301.676 17.6548C301.676 14.9751 300.911 12.7876 299.38 11.0923C297.794 9.31494 295.647 8.43994 292.94 8.46729C290.206 8.46729 288.046 9.34229 286.46 11.0923C284.928 12.7876 284.176 14.9751 284.204 17.6548C284.204 20.3345 284.956 22.522 286.46 24.2173C288.046 25.9673 290.206 26.8423 292.94 26.8423ZM343.732 5.76025C344.142 5.76025 344.498 5.91064 344.799 6.21143C345.127 6.51221 345.291 6.88135 345.291 7.31885V20.6079C345.291 23.5337 344.238 25.8306 342.133 27.4985C340.328 28.9751 338.154 29.7134 335.611 29.7134C333.041 29.7134 330.867 28.9751 329.09 27.4985C327.012 25.8032 325.972 23.5063 325.972 20.6079V7.31885C325.972 6.90869 326.123 6.55322 326.424 6.25244C326.724 5.92432 327.08 5.76025 327.49 5.76025C327.9 5.76025 328.256 5.91064 328.556 6.21143C328.885 6.51221 329.049 6.88135 329.049 7.31885V20.6899C329.049 22.686 329.732 24.2446 331.099 25.3657C332.357 26.4048 333.861 26.9243 335.611 26.9243C337.388 26.9243 338.906 26.4048 340.164 25.3657C341.531 24.2173 342.215 22.6587 342.215 20.6899V7.31885C342.215 6.90869 342.365 6.55322 342.666 6.25244C342.967 5.92432 343.322 5.76025 343.732 5.76025ZM383.327 5.92432C383.737 5.92432 384.079 6.07471 384.352 6.37549C384.626 6.64893 384.763 6.97705 384.763 7.35986C384.763 7.74268 384.626 8.08447 384.352 8.38525C384.079 8.65869 383.737 8.79541 383.327 8.79541H376.477V28.0317C376.477 28.4419 376.327 28.7974 376.026 29.0981C375.753 29.3989 375.397 29.5493 374.96 29.5493C374.55 29.5493 374.194 29.3989 373.893 29.0981C373.593 28.7974 373.442 28.4419 373.442 28.0317V8.79541H366.593C366.21 8.79541 365.868 8.65869 365.567 8.38525C365.294 8.11182 365.157 7.77002 365.157 7.35986C365.157 6.97705 365.294 6.64893 365.567 6.37549C365.841 6.07471 366.183 5.92432 366.593 5.92432H383.327Z" fill="#262626"/>
<path d="M47.4602 40.7944C47.509 40.852 47.5578 40.9096 47.5944 41.0041C47.6231 41.2105 47.5764 41.4362 47.8745 41.4409C47.8745 41.4409 47.873 41.4569 47.8557 41.4877C47.8489 41.5785 47.8457 41.6444 47.8719 41.6976C48.4589 42.89 49.1915 43.9983 50.1618 44.9487C51.0885 45.8565 52.0498 46.7275 53.1787 47.4316C54.0532 47.9771 54.9756 48.4109 55.9795 48.663C57.7132 49.0984 59.4904 48.8317 61.2487 48.8824C61.8442 48.8996 62.4979 48.8879 63.0191 49.1085C64.8435 49.8809 65.4927 52.2996 64.2139 53.7075C63.9958 53.9477 63.8015 54.2069 63.5793 54.4791C62.507 54.9458 61.4063 55.0028 60.2888 54.7963C58.7824 54.518 57.3878 53.9666 56.0627 53.2437C53.7968 52.0075 51.8579 50.4337 50.307 48.4472C50.1096 48.1944 49.8816 47.9625 49.6678 47.7209C49.6105 47.8141 49.6182 47.8608 49.6392 47.9015C50.0656 48.7272 50.4935 49.5522 50.8999 50.3951C50.8823 50.4825 50.8804 50.5528 50.8904 50.6216C50.9781 51.2232 51.1179 51.823 51.1396 52.4265C51.154 52.8283 51.0007 53.2354 50.8924 53.6385C50.1735 53.5378 49.8063 53.0758 49.5082 52.5564C48.9041 51.5041 48.6234 50.3504 48.3461 49.1977C47.8904 47.303 47.6336 45.3828 47.5083 43.4454C47.4727 42.8948 47.3872 42.3465 47.3675 41.7958C47.3557 41.4633 47.4265 41.1283 47.4602 40.7944Z" fill="#468FC4"/>
<path d="M50.9213 50.3769C50.4936 49.5518 50.0657 48.7268 49.6393 47.9011C49.6183 47.8604 49.6107 47.8137 49.6679 47.7205C49.8817 47.9621 50.1097 48.194 50.3071 48.4468C51.858 50.4332 53.7969 52.0071 56.0628 53.2432C57.388 53.9662 58.7825 54.5176 60.2889 54.7959C61.4064 55.0024 62.5071 54.9453 63.607 54.4757C65.2725 53.5813 65.9624 52.2019 65.4792 50.6573C65.3356 50.1979 65.0177 49.7863 64.7796 49.3527C65.4413 49.7168 65.7905 50.3132 66.0433 50.9472C66.7709 52.7721 65.9266 54.7783 64.0806 55.7343C62.6271 56.487 61.1117 56.5139 59.5536 56.1151C57.5791 55.6097 55.8871 54.6314 54.3438 53.3965C53.2517 52.5226 52.3577 51.4882 51.4853 50.3722C51.2931 50.1062 51.1223 49.8838 50.9514 49.6614C50.9173 49.683 50.8833 49.7047 50.8492 49.7263C51.0233 49.9749 51.1973 50.2235 51.3714 50.4721C51.7042 51.2335 52.0981 51.978 52.3443 52.7632C52.469 53.1608 52.4352 53.6679 52.2848 54.0627C51.8611 55.1751 50.4804 55.4257 49.5486 54.6C48.7638 53.9045 48.3856 52.9941 48.0927 52.0525C47.2723 49.4149 46.7351 46.7265 46.5657 43.9826C46.4745 42.506 46.4579 41.0254 46.4106 39.5464C46.4069 39.4308 46.4265 39.3146 46.5272 39.1787C46.8374 39.6992 47.1477 40.2197 47.4591 40.7671C47.4267 41.1279 47.3558 41.4629 47.3677 41.7954C47.3873 42.3461 47.4728 42.8944 47.5084 43.445C47.6337 45.3824 47.8905 47.3026 48.3463 49.1973C48.6235 50.3499 48.9042 51.5037 49.5083 52.5559C49.8065 53.0754 50.1737 53.5374 50.921 53.6361C51.5408 53.4569 51.7002 53.2383 51.7217 52.69C51.7556 51.8251 51.3553 51.0971 50.9213 50.3769Z" fill="#3B78A4"/>
<path d="M64.763 49.3326C65.0174 49.7861 65.3353 50.1978 65.479 50.6571C65.9621 52.2017 65.2723 53.5812 63.6235 54.4537C63.8013 54.2063 63.9956 53.9471 64.2138 53.7069C65.4926 52.2991 64.8433 49.8804 63.019 49.108C62.4977 48.8873 61.8441 48.8991 61.2486 48.8819C59.4903 48.8312 57.7131 49.0979 55.9794 48.6625C54.9755 48.4104 54.0531 47.9765 53.1785 47.431C52.0497 46.7269 51.0884 45.8559 50.1617 44.9481C49.1914 43.9977 48.4588 42.8894 47.8718 41.6971C47.8456 41.6439 47.8488 41.578 47.8472 41.4888C48.6494 42.4073 49.3982 43.3917 50.2459 44.2947C51.7791 45.928 53.6032 47.2033 55.7843 48.0083C57.1811 48.5239 58.6295 48.5587 60.0997 48.5257C61.097 48.5033 62.0982 48.52 63.0937 48.5778C63.727 48.6145 64.2648 48.9303 64.763 49.3326Z" fill="#51A3E1"/>
<path d="M39.0306 29.3072C39.7116 28.654 40.7872 28.5907 41.649 29.1551C42.1754 29.4999 42.5834 29.9391 42.8511 30.5446C43.1455 31.3838 43.2999 32.1749 43.02 33.0118C42.7653 32.7829 42.5399 32.5682 42.3008 32.3679C41.6708 31.84 40.88 31.6055 40.1158 31.3166C39.2664 30.9956 38.5612 30.4083 39.0306 29.3072Z" fill="#4791C7"/>
<path d="M51.9535 29.2324C52.8008 29.7088 53.0818 30.8289 52.5638 31.6817C52.0799 32.4782 51.3076 32.8908 50.3847 33.0932C49.7814 33.2254 49.1734 33.3397 48.571 33.4755C47.1604 33.7935 45.9988 34.4752 45.1258 35.5705C45.0874 35.6188 45.0459 35.665 44.9255 35.8069C44.9255 35.1473 44.8975 34.5901 44.931 34.0362C45.0186 32.5868 45.5531 31.2917 46.5389 30.166C46.6214 30.0718 46.7276 29.9957 46.85 29.9335C46.8356 30.0171 46.8004 30.0832 46.7517 30.139C46.0173 30.9815 45.5606 31.9332 45.4385 33.0509C45.4036 33.4959 45.3824 33.9127 45.3613 34.3295C45.401 34.3368 45.4407 34.3442 45.4805 34.3515C45.5841 34.2608 45.6751 34.1511 45.7934 34.0825C46.4815 33.6833 47.1413 33.2173 47.8787 32.9239C48.5434 32.6594 49.2975 32.5951 50.0085 32.4287C50.6977 32.2673 51.3979 32.1082 51.8804 31.563C52.2642 31.1293 52.5649 30.66 52.3484 30.0288C52.214 29.7448 52.0838 29.4886 51.9535 29.2324Z" fill="#3B78A4"/>
<path d="M58.2905 59.8793C57.6702 60.4601 56.6969 60.5177 55.9801 59.9242C55.5703 59.5848 55.2859 59.1128 54.9456 58.6442C54.7394 57.9896 54.6364 57.3884 54.8772 56.7476C54.9645 56.7885 55.0502 56.8041 55.0934 56.8527C55.7072 57.5425 56.5656 57.8458 57.4168 58.17C58.3102 58.5102 58.5691 59.0383 58.2905 59.8793Z" fill="#4791C7"/>
<path d="M39.0047 29.3135C38.5616 30.4081 39.2668 30.9955 40.1161 31.3165C40.8804 31.6053 41.6711 31.8398 42.3012 32.3677C42.5403 32.568 42.7656 32.7827 43.0203 33.0116C43.3003 32.1748 43.1459 31.3836 42.8572 30.5694C43.2782 31.1152 43.383 31.7695 43.3619 32.4404C43.3463 32.9375 43.2674 33.4328 43.2109 33.9857C42.858 33.5783 42.6205 33.1685 42.2577 32.9174C41.7157 32.5422 41.1002 32.2499 40.4884 31.9763C39.9428 31.7323 39.3571 31.5707 38.9485 31.1122C38.4296 30.5299 38.4359 29.836 39.0047 29.3135Z" fill="#3975A0"/>
<path d="M49.1741 34.8902C49.5847 34.9918 49.9119 35.1998 50.1334 35.593C50.1684 35.6853 50.2 35.7316 50.2316 35.7779C50.2417 35.8092 50.2518 35.8405 50.2471 35.9072C50.2429 35.9819 50.2535 36.0213 50.2641 36.0607C50.261 36.0932 50.258 36.1257 50.2226 36.1916C50.1783 36.2812 50.1662 36.3373 50.1541 36.3935C50.114 36.4552 50.0739 36.5169 49.9803 36.5861C49.4573 36.7134 49.2485 36.6021 48.8691 36.1811C48.5567 35.8345 48.1791 35.5395 47.8311 35.2209C47.7808 35.1749 47.7347 35.1249 47.6787 35.0688C47.8286 34.9799 47.9522 34.9066 48.0758 34.8333C48.1098 34.8273 48.1438 34.8212 48.2253 34.8352C48.4408 34.8432 48.6088 34.8313 48.7768 34.8193C48.8355 34.8222 48.8941 34.825 48.9867 34.8555C49.0718 34.8854 49.1229 34.8878 49.1741 34.8902Z" fill="#468FC4"/>
<path d="M58.3169 59.8729C58.5691 59.0384 58.3102 58.5102 57.4168 58.17C56.5656 57.8459 55.7072 57.5426 55.0935 56.8528C55.0502 56.8042 54.9645 56.7886 54.8772 56.7476C54.6364 57.3885 54.7394 57.9897 54.9407 58.6189C54.4755 57.9516 54.5509 57.1863 54.6237 56.4236C54.6397 56.2557 54.6972 56.0912 54.7329 55.937C55.1026 56.3009 55.4167 56.7044 55.8263 56.9863C56.2315 57.2653 56.7392 57.4107 57.1906 57.6348C57.5701 57.8232 57.9799 57.9918 58.2933 58.2556C58.8336 58.7104 58.8212 59.3367 58.3169 59.8729Z" fill="#3975A0"/>
<path d="M45.4521 33.0235C45.5604 31.934 46.0172 30.9824 46.7515 30.1399C46.8002 30.0841 46.8355 30.018 46.8763 29.9303C47.9661 28.858 49.2296 28.2477 50.8284 28.6391C51.2189 28.7347 51.5613 29.0026 51.9396 29.2123C52.0836 29.4895 52.2138 29.7457 52.3205 30.0259C52.2645 30.0303 52.2197 30.0178 52.2015 29.9901C51.404 28.7732 50.0552 28.531 48.758 29.0407C47.0728 29.7028 46.1358 30.979 45.685 32.6028C45.6436 32.7519 45.5314 32.8837 45.4521 33.0235Z" fill="#4F9EDA"/>
<path d="M48.0453 34.8271C47.9522 34.9063 47.8286 34.9796 47.6787 35.0684C47.7347 35.1246 47.7808 35.1746 47.8311 35.2206C48.1791 35.5392 48.5568 35.8342 48.8691 36.1808C49.2485 36.6017 49.4573 36.7131 49.9591 36.5952C49.6874 36.906 49.3312 36.9243 48.9713 36.6131C48.7814 36.4489 48.6571 36.2193 48.4714 36.0498C48.0971 35.7084 47.7011 35.388 47.2803 35.0302C47.4874 34.9713 47.7511 34.8963 48.0453 34.8271Z" fill="#346B93"/>
<path d="M48.7545 34.8013C48.6085 34.8313 48.4405 34.8433 48.251 34.8372C48.3972 34.8072 48.5649 34.7953 48.7545 34.8013Z" fill="#346B93"/>
<path d="M47.8744 41.4168C47.5761 41.4365 47.6229 41.2109 47.604 41.0254C47.709 41.137 47.7918 41.2647 47.8744 41.4168Z" fill="#51A3E1"/>
<path d="M50.2402 35.7576C50.1999 35.7319 50.1681 35.6852 50.1411 35.6162C50.1802 35.6415 50.2145 35.689 50.2402 35.7576Z" fill="#346B93"/>
<path d="M50.279 36.0507C50.253 36.0214 50.2425 35.9817 50.2464 35.9312C50.2721 35.9603 50.2833 36.0003 50.279 36.0507Z" fill="#346B93"/>
<path d="M45.4381 33.0512C45.5312 32.8831 45.6433 32.7513 45.6847 32.6022C46.1355 30.9785 47.0725 29.7022 48.7577 29.0401C50.0549 28.5304 51.4037 28.7726 52.2012 29.9895C52.2194 30.0173 52.2642 30.0298 52.3244 30.0531C52.5645 30.6603 52.2638 31.1296 51.88 31.5633C51.3975 32.1085 50.6972 32.2676 50.008 32.429C49.297 32.5954 48.5429 32.6597 47.8783 32.9242C47.1408 33.2176 46.4811 33.6836 45.7929 34.0828C45.6747 34.1514 45.5836 34.2611 45.48 34.3518C45.4403 34.3445 45.4006 34.3371 45.3608 34.3298C45.382 33.913 45.4031 33.4962 45.4381 33.0512Z" fill="#4791C7"/>
<path d="M44.5073 25.0925C44.5286 24.2974 44.9359 23.6551 45.4427 23.058C45.6876 22.7696 45.9617 22.503 46.2745 22.1714C46.2955 22.2986 46.3159 22.3515 46.3108 22.4021C46.2052 23.4442 46.5867 24.3452 47.2258 25.1704C47.6529 25.7217 48.1041 26.2584 48.0726 26.999C48.0435 27.685 47.6544 28.1129 46.9071 28.2048C46.9986 28.1047 47.0992 28.0409 47.1977 27.9767C47.1956 27.9763 47.1948 27.9803 47.2136 27.9792C47.2324 27.9782 47.2699 27.9748 47.2932 27.9602C47.4094 27.7084 47.5372 27.4775 47.5883 27.2326C47.7165 26.617 47.3671 26.1325 46.9975 25.6852C46.5073 25.0917 46.1232 24.4592 45.9637 23.7203C45.919 23.5136 45.9123 23.2996 45.8882 23.089C45.8475 23.0756 45.8067 23.0623 45.766 23.0489C45.6342 23.229 45.5023 23.409 45.3512 23.6035C45.3185 23.6607 45.3051 23.7036 45.2925 23.7468C45.2934 23.7471 45.291 23.7457 45.2655 23.7478C45.2044 23.7977 45.1689 23.8456 45.1344 23.8945C45.1355 23.8956 45.1325 23.8954 45.1078 23.9063C44.9156 24.304 44.748 24.6908 44.5627 25.0837C44.5449 25.0897 44.5073 25.0925 44.5073 25.0925Z" fill="#3975A0"/>
<path d="M50.0429 25.5902C49.4323 25.9944 48.7063 25.8904 48.1528 25.2993C47.9905 25.1259 47.876 24.9131 47.7379 24.6629C47.5838 24.187 47.5263 23.7625 47.6508 23.248C48.1965 23.825 48.8702 24.0579 49.5495 24.2937C50.1334 24.4964 50.3202 24.8383 50.2265 25.4078C50.2265 25.4078 50.2151 25.4327 50.1804 25.444C50.1115 25.5003 50.0772 25.5453 50.0429 25.5902Z" fill="#468FC4"/>
<path d="M42.3457 24.0435C42.504 23.8817 42.6346 23.7237 42.8014 23.6137C43.1791 23.3647 43.5746 23.1393 43.9604 22.9058C44.2658 23.4229 44.0167 24.3328 43.4045 24.6723C43.1358 24.8213 42.8523 24.8439 42.5844 24.6729C42.3596 24.5295 42.242 24.3341 42.3457 24.0435Z" fill="#4186B8"/>
<path d="M50.2533 25.3962C50.3202 24.8384 50.1334 24.4965 49.5495 24.2938C48.8702 24.058 48.1965 23.8251 47.6508 23.2481C47.5263 23.7626 47.5838 24.1871 47.7313 24.6383C47.6288 24.3584 47.4927 24.0528 47.4443 23.7355C47.3955 23.4151 47.4336 23.0831 47.4336 22.7601C47.5479 22.7601 47.5882 22.7509 47.5953 22.7614C48.039 23.4176 48.7295 23.7209 49.484 23.9493C49.8622 24.0638 50.2602 24.2261 50.3576 24.6249C50.4152 24.8602 50.3114 25.1302 50.2533 25.3962Z" fill="#346B93"/>
<path d="M47.1995 27.977C47.0988 28.0408 46.9982 28.1046 46.8848 28.1908C46.8221 28.2236 46.7721 28.2338 46.6731 28.2318C46.5749 28.2314 46.5256 28.2433 46.4763 28.2552C45.9131 28.2508 45.4472 28.0302 45.107 27.6285C44.5289 26.9457 44.2643 26.1748 44.501 25.2439C44.5008 25.1744 44.4974 25.1593 44.494 25.1442C44.494 25.1442 44.4968 25.1174 44.5019 25.1049C44.5069 25.0924 44.5445 25.0896 44.5832 25.0922C44.6617 25.1154 44.7015 25.1362 44.7385 25.1881C44.5177 25.9961 44.7083 26.7229 45.1784 27.3507C45.6604 27.9944 46.3807 28.1773 47.1995 27.977Z" fill="#8ABDD3"/>
<path d="M47.1974 27.9761C46.3808 28.1768 45.6605 27.994 45.1785 27.3502C44.7084 26.7225 44.5178 25.9957 44.7603 25.1681C44.9005 24.7099 45.0164 24.3023 45.1322 23.8948C45.1322 23.8948 45.1352 23.895 45.16 23.8921C45.2201 23.8412 45.2554 23.7932 45.2907 23.7451C45.2907 23.7451 45.2931 23.7466 45.313 23.7336C45.3453 23.6766 45.3577 23.6326 45.3702 23.5885C45.502 23.4085 45.6339 23.2284 45.7657 23.0483C45.8064 23.0617 45.8472 23.075 45.8879 23.0884C45.912 23.299 45.9187 23.513 45.9634 23.7198C46.1229 24.4586 46.507 25.0911 46.9972 25.6846C47.3667 26.132 47.7162 26.6165 47.588 27.232C47.5369 27.4769 47.4091 27.7078 47.2855 27.9488C47.2347 27.9616 47.2146 27.9706 47.1945 27.9797L47.1974 27.9761Z" fill="#4791C7"/>
<path d="M45.1071 23.9062C45.0159 24.3029 44.9001 24.7104 44.7626 25.1375C44.7011 25.1363 44.6613 25.1155 44.6006 25.0862C44.7472 24.6908 44.9148 24.304 45.1071 23.9062Z" fill="#4F9EDA"/>
<path d="M45.2654 23.7476C45.2556 23.794 45.2201 23.8425 45.1587 23.8928C45.1684 23.8463 45.2041 23.798 45.2654 23.7476Z" fill="#4F9EDA"/>
<path d="M45.3507 23.603C45.3575 23.6329 45.3451 23.6774 45.312 23.7346C45.3047 23.7041 45.3181 23.6608 45.3507 23.603Z" fill="#4F9EDA"/>
<path d="M47.2134 27.9801C47.2147 27.9717 47.2352 27.9622 47.2633 27.9641C47.2709 27.9754 47.2326 27.979 47.2134 27.9801Z" fill="#8ABDD3"/>
<path d="M50.8994 50.3945C51.3546 51.0969 51.7549 51.8249 51.721 52.6899C51.6995 53.2381 51.5401 53.4568 50.9503 53.6375C51.0001 53.2348 51.1534 52.8277 51.139 52.4259C51.1174 51.8224 50.9775 51.2227 50.8898 50.6211C50.8798 50.5523 50.8818 50.4819 50.8994 50.3945Z" fill="#51A3E1"/>
<path d="M50.1739 36.3823C50.1656 36.3382 50.1777 36.2814 50.211 36.2134C50.2196 36.258 50.2069 36.3138 50.1739 36.3823Z" fill="#346B93"/>
<path d="M18.1934 49.0036C17.7848 48.4766 16.7436 47.6644 16.7436 47.6644C16.7436 47.6644 16.0184 47.7614 15.4082 47.6644C14.6996 47.5517 14.102 47.7109 13.373 47.7633C12.1253 47.853 11.4244 47.7442 10.1772 47.841C9.298 47.9092 8.80336 47.9649 7.93875 48.1382C7.00081 48.3263 6.35724 48.3593 5.42431 48.5708C4.66391 48.7432 3.98134 48.9193 3.27784 49.1575C2.97074 49.2615 2.63104 49.3714 2.31905 49.4703C1.79738 49.6357 1.27347 49.2329 1.29233 48.686L1.72408 36.1632C1.73565 35.8277 1.99045 35.5507 2.32441 35.5165C2.58269 35.49 2.88205 35.4618 3.12218 35.4461C4.22601 35.3743 4.84854 35.4461 5.95471 35.4461H9.41882C9.91212 35.4461 10.1887 35.4517 10.682 35.4461C11.7364 35.4342 12.3262 35.4286 13.3805 35.4461C14.0989 35.458 14.5003 35.4461 15.2179 35.4461C15.6962 35.4461 15.9646 35.4337 16.4427 35.4461C17.2141 35.4661 17.6445 35.5238 18.414 35.5799C19.2415 35.6402 19.7057 35.6716 20.5321 35.7459C21.5761 35.8396 22.2005 35.9157 23.2457 35.9944C24.1933 36.0658 24.6915 36.0143 25.6252 36.0243C26.6453 36.0353 27.2332 35.9844 28.2535 35.9278C28.987 35.887 29.4035 35.823 30.1291 35.7702C30.9498 35.7104 31.4027 35.6334 32.2111 35.5338C33.343 35.3943 33.9564 35.2449 35.0737 35.054C36.046 34.8878 36.5872 34.7707 37.5623 34.6217C38.3316 34.5041 38.7586 34.3477 39.5369 34.3521C40.2838 34.3564 40.7065 34.438 41.4304 34.6217C42.1398 34.8017 42.547 34.9185 43.1886 35.2703C43.7257 35.5648 43.9922 35.7728 44.4118 36.2187C45.0362 36.8822 45.2274 37.4061 45.5149 38.2682C45.7985 39.1187 45.7519 39.622 45.8201 40.5159C45.9364 42.0431 45.814 42.9165 45.7836 44.4554C45.758 45.7526 45.795 46.4748 45.8629 47.7708C45.9035 48.5441 45.9154 48.9978 46.0022 49.7648C46.0807 50.459 46.1906 50.815 46.2438 51.4953C46.265 51.7654 46.3052 52.0057 46.3409 52.2326C46.4207 52.741 46.4774 53.1825 46.2438 53.7426C46.1297 54.0163 46.0437 54.1644 45.8629 54.3995C45.2181 55.238 44.4315 55.2838 43.4045 55.5405C42.5161 55.7625 41.9826 55.7579 41.0672 55.7306C39.7619 55.6919 39.0781 55.3782 37.8501 54.9347C38.2225 55.3402 38.4289 55.6395 38.6453 56.1832C38.9641 56.9841 38.8961 57.5558 38.6453 58.3651C38.4438 59.0153 38.1149 59.3218 37.6276 59.7758L37.6195 59.7834C36.8603 60.4907 36.2465 60.6682 35.2643 60.6137C34.2204 60.5559 33.7977 59.9417 32.9286 59.3893C32.0229 58.8136 31.3962 58.2628 30.3133 57.7842C29.0441 57.2232 28.1845 57.2999 26.8902 56.8292L26.8206 56.8039C24.3248 55.8963 22.7694 55.3307 20.9238 53.4175C19.5161 51.9583 19.2861 50.4127 18.1934 49.0036Z" fill="#262626"/>
<path d="M16.7436 47.6644C16.7436 47.6644 17.7848 48.4766 18.1934 49.0036C19.2861 50.4127 19.5161 51.9583 20.9238 53.4175C22.7865 55.3484 24.3535 55.9067 26.8902 56.8292C28.1845 57.2999 29.0441 57.2232 30.3133 57.7842C31.3962 58.2628 32.0229 58.8136 32.9286 59.3893C33.7977 59.9417 34.2204 60.5559 35.2643 60.6137C36.2465 60.6682 36.8603 60.4907 37.6195 59.7834C38.1112 59.3252 38.4427 59.0189 38.6453 58.3651C38.8961 57.5558 38.9641 56.9841 38.6453 56.1832C38.4289 55.6395 38.2225 55.3402 37.8501 54.9346M16.7436 47.6644C16.7436 47.6644 16.0184 47.7614 15.4082 47.6644C14.6996 47.5517 14.102 47.7109 13.373 47.7633C12.1253 47.853 11.4244 47.7442 10.1772 47.841C9.298 47.9092 8.80336 47.9649 7.93875 48.1382C7.00081 48.3263 6.35724 48.3593 5.42431 48.5708C4.66391 48.7432 3.98134 48.9193 3.27784 49.1575C2.97074 49.2615 2.63104 49.3714 2.31905 49.4703V49.4703C1.79738 49.6357 1.27347 49.2329 1.29233 48.686L1.72408 36.1632C1.73565 35.8277 1.99045 35.5507 2.32441 35.5165V35.5165C2.58269 35.49 2.88205 35.4618 3.12218 35.4461C4.22601 35.3743 4.84854 35.4461 5.95471 35.4461C7.30753 35.4461 8.066 35.4461 9.41882 35.4461C9.91212 35.4461 10.1887 35.4517 10.682 35.4461C11.7364 35.4342 12.3262 35.4286 13.3805 35.4461C14.0989 35.458 14.5003 35.4461 15.2179 35.4461C15.6962 35.4461 15.9646 35.4337 16.4427 35.4461C17.2141 35.4661 17.6445 35.5238 18.414 35.5799C19.2415 35.6402 19.7057 35.6716 20.5321 35.7459C21.5761 35.8396 22.2005 35.9157 23.2457 35.9944C24.1933 36.0658 24.6915 36.0143 25.6252 36.0243C26.6453 36.0353 27.2332 35.9844 28.2535 35.9278C28.987 35.887 29.4035 35.823 30.1291 35.7702C30.9498 35.7104 31.4027 35.6334 32.2111 35.5338C33.343 35.3943 33.9564 35.2449 35.0737 35.054C36.046 34.8878 36.5872 34.7707 37.5623 34.6217C38.3316 34.5041 38.7586 34.3477 39.5369 34.3521C40.2838 34.3564 40.7065 34.438 41.4304 34.6217C42.1398 34.8017 42.547 34.9185 43.1886 35.2703C43.7257 35.5648 43.9922 35.7728 44.4118 36.2187C45.0362 36.8822 45.2274 37.4061 45.5149 38.2682C45.7985 39.1187 45.7519 39.622 45.8201 40.5159C45.9364 42.0431 45.814 42.9165 45.7836 44.4554C45.758 45.7526 45.795 46.4748 45.8629 47.7708C45.9035 48.5441 45.9154 48.9978 46.0022 49.7648C46.0807 50.459 46.1906 50.815 46.2438 51.4953C46.265 51.7654 46.3052 52.0057 46.3409 52.2326M16.7436 47.6644C16.7436 47.6644 16.6077 47.2403 16.4427 47.0143C16.1141 46.5639 15.7756 46.4125 15.2179 46.2795M37.8501 54.9346C37.0039 54.1404 36.4138 53.9125 35.6227 53.042C34.8417 52.1826 34.5118 51.6899 34.1149 50.7028C33.8404 50.02 33.5808 48.5547 33.5808 48.5547C33.5808 48.5547 33.471 47.4583 33.7271 46.8399M37.8501 54.9346C39.0781 55.3782 39.7619 55.6919 41.0672 55.7306C41.9826 55.7579 42.5161 55.7625 43.4045 55.5405C44.4315 55.2838 45.2181 55.238 45.8629 54.3995C46.0437 54.1644 46.1297 54.0163 46.2438 53.7426M33.7271 46.8399C34.1672 46.3667 34.4286 46.0916 34.8789 45.6281M33.7271 46.8399C33.7271 46.8399 33.6507 45.7389 33.7271 45.0241C33.8102 44.2472 33.8535 43.8206 34.1348 43.0725M34.8789 45.6281C35.5392 44.8106 35.9683 44.3961 36.7628 43.6769C37.5574 42.9578 38.1326 42.5214 39.0394 41.9498M34.8789 45.6281C35.5376 45.5553 35.9111 45.7458 36.4864 46.1237C36.9688 46.4406 37.4161 47.009 37.7334 47.4907M46.2438 53.7426C46.2438 53.7426 45.9019 53.611 45.6219 53.5386C45.393 53.4795 45.2243 53.4658 45.013 53.3598C44.8494 53.2778 44.6692 53.1452 44.6692 53.1452M46.2438 53.7426C46.4774 53.1825 46.4207 52.741 46.3409 52.2326M37.7334 47.4907C37.9002 48.0268 37.9376 48.1405 37.9894 48.5708C38.0443 49.027 38.0443 49.2912 37.9894 49.7474M37.7334 47.4907C37.6475 47.1486 38.9194 46.2591 39.631 46.5162M37.9894 49.7474C37.7933 50.0882 37.7189 50.3125 37.6724 50.7028C37.616 51.1772 37.6622 51.5237 37.8283 51.9163M37.9894 49.7474C38.5264 49.7982 38.7986 50.0633 39.2466 50.3823C39.6329 50.6573 39.7743 50.9021 40.1359 51.2089C40.7235 51.7077 41.1995 51.9757 41.854 52.3832M46.3409 52.2326C46.174 52.2785 46.0789 52.2999 45.9084 52.3298C45.7501 52.3576 45.626 52.3586 45.4651 52.3574C45.2066 52.3555 44.8712 52.2326 44.8712 52.2326" stroke="white" stroke-width="0.5" stroke-linecap="round"/>
<path d="M31.9125 42.6958C31.9125 42.6958 31.6906 44.1178 31.7534 45.0288C31.8188 45.9798 32.2661 47.4153 32.2661 47.4153" stroke="white" stroke-width="0.5" stroke-linecap="round"/>
<path d="M31.9125 42.6958C31.9125 42.6958 31.6906 44.1178 31.7534 45.0288C31.8188 45.9798 32.2661 47.4153 32.2661 47.4153" stroke="white" stroke-width="0.5" stroke-linecap="round"/>
<path d="M36.6299 56.6685C36.6299 56.6685 36.0873 56.9312 35.7113 57.3967C35.3188 57.8826 34.7024 59.1003 34.7024 59.1003" stroke="white" stroke-width="0.5" stroke-linecap="round"/>
<path d="M37.1816 57.3589C37.1816 57.3589 37.0761 57.3813 36.8171 57.6791C36.6765 57.8407 36.3145 58.5564 36.11 58.8609C35.9212 59.1422 35.7897 59.1757 35.7897 59.1757" stroke="white" stroke-width="0.5" stroke-linecap="round"/>
<path d="M5.33887 45.9913C5.76612 45.8875 6.00838 45.8385 6.44238 45.7682C6.82765 45.7057 7.04611 45.687 7.43383 45.6422C7.91855 45.5863 8.18957 45.5401 8.67694 45.5166C9.1237 45.495 9.37592 45.4877 9.82227 45.5166C10.1567 45.5383 10.3361 45.5704 10.675 45.6135C11.1537 45.6745 11.4374 45.7184 11.9174 45.7682C12.4356 45.8219 12.7236 45.8883 13.2443 45.9075C13.5277 45.918 13.6872 45.918 13.9706 45.9075" stroke="white" stroke-width="0.5" stroke-linecap="round"/>
<path d="M29.2885 2.83342V8.3427H3.86271C3.65811 8.3427 3.49224 8.50857 3.49224 8.71317V10.4708C3.49224 10.6559 3.34222 10.8059 3.15716 10.8059H1.36451C1.17945 10.8059 1.02943 10.6559 1.02943 10.4708L1.02936 0.95201C1.0294 0.774094 1.17364 0.629883 1.35155 0.629883H3.17011C3.34802 0.629883 3.49224 0.774104 3.49224 0.95201V2.31466V2.43754C3.49224 2.65618 3.66948 2.83342 3.88812 2.83342H29.2885Z" fill="#262626" stroke="white" stroke-width="0.5"/>
<path d="M40.5233 20.7564V17.5793C40.5233 17.027 40.971 16.5793 41.5233 16.5793H42.0089C42.1984 16.5793 42.3521 16.4256 42.3521 16.2361V13.036V11.2643C42.3521 10.2858 41.5589 9.4926 40.5804 9.4926H40.4688H35.1683C34.9754 9.4926 34.819 9.64899 34.819 9.84191V10.2459V10.4935C34.819 10.7729 34.5926 10.9993 34.3133 10.9993H29.8454C29.5446 10.9993 29.3008 10.7554 29.3008 10.4546V10.2459L29.3007 1.336L29.3007 1.14573C29.3008 0.844918 29.5446 0.601074 29.8454 0.601074H34.3133C34.5927 0.601074 34.8191 0.827565 34.8191 1.10696V1.336V1.72174C34.8191 1.9146 34.9755 2.07093 35.1683 2.07093L40.8513 2.16173C46.3112 2.24896 50.6916 6.69988 50.6916 12.1604V16.2094C50.6916 16.4137 50.8572 16.5793 51.0615 16.5793H51.3036C51.8559 16.5793 52.3036 17.027 52.3036 17.5793V20.7564C52.3036 21.3087 51.8559 21.7564 51.3036 21.7564H41.5233C40.971 21.7564 40.5233 21.3087 40.5233 20.7564Z" fill="#262626" stroke="white" stroke-width="0.5"/>
<rect x="30.6948" y="3.34619" width="0.549316" height="5.43848" rx="0.274658" fill="white"/>
<rect x="3.21875" y="5.11865" width="0.55" height="0.999512" rx="0.275" fill="white"/>
<rect x="1.43359" y="7.09229" width="0.55" height="2.21533" rx="0.275" fill="white"/>
<rect x="1.43359" y="4.72998" width="0.55" height="1.10254" rx="0.275" fill="white"/>
<rect x="50.2734" y="20.6797" width="0.457031" height="4.29883" rx="0.228516" transform="rotate(90 50.2734 20.6797)" fill="white"/>
<rect x="45.2905" y="20.6182" width="0.457031" height="2.52686" rx="0.228516" transform="rotate(90 45.2905 20.6182)" fill="white"/>
<rect x="48.0527" y="16.1636" width="0.457031" height="2.07812" rx="0.228516" transform="rotate(90 48.0527 16.1636)" fill="white"/>
<path d="M47.1767 7.39629C47.0888 7.29804 47.1033 7.14299 47.2116 7.06785V7.06785C47.296 7.00929 47.4103 7.0197 47.4799 7.09531C47.5639 7.18664 47.6728 7.31107 47.7442 7.4155C47.8092 7.51062 47.8796 7.64254 47.9313 7.74545C47.9774 7.83703 47.9471 7.9474 47.8628 8.00582V8.00582C47.7544 8.08105 47.604 8.03997 47.543 7.92294C47.4967 7.83424 47.4419 7.73602 47.3905 7.6608C47.3328 7.57635 47.2505 7.47882 47.1767 7.39629Z" fill="white"/>
<path d="M48.1728 9.12103C48.1225 8.99609 48.1984 8.8548 48.3308 8.83001V8.83001C48.427 8.81199 48.5226 8.86257 48.5598 8.95314C48.696 9.28479 49.0094 10.0855 49.1209 10.688C49.2231 11.2395 49.2803 12.0316 49.3022 12.3873C49.3088 12.4936 49.2347 12.5873 49.13 12.6069V12.6069C49.0029 12.6307 48.8838 12.5371 48.8755 12.4081C48.8512 12.0297 48.7948 11.2903 48.6979 10.7672C48.5953 10.2131 48.322 9.49138 48.1728 9.12103Z" fill="white"/>
<path d="M30.6094 0.601074H31.3325L31.2648 1.50862C31.2533 1.66291 31.1247 1.78223 30.97 1.78223V1.78223C30.815 1.78223 30.6864 1.66256 30.6752 1.508L30.6094 0.601074Z" fill="white"/>
<path d="M1.43378 0.457031H1.98359L1.91671 2.15076C1.91159 2.28037 1.80502 2.38281 1.67531 2.38281V2.38281C1.54188 2.38281 1.43371 2.27464 1.43372 2.14121L1.43378 0.457031Z" fill="white"/>
<path d="M3.3457 4.34564L3.3457 3.85554C3.3457 3.85554 11.1847 3.76188 16.2078 3.77512C20.7497 3.78709 27.5935 3.89859 28.8633 3.91984C28.9786 3.92177 29.0698 4.01579 29.0698 4.13112V4.13112C29.0698 4.24911 28.9752 4.3443 28.8572 4.34259C27.5718 4.32398 20.7424 4.22832 16.2078 4.22831C11.1846 4.2283 3.3457 4.34564 3.3457 4.34564Z" fill="white"/>
<path d="M41.8301 16.5825L42.3449 15.984L45.0477 16.1449C45.1516 16.1511 45.2326 16.2371 45.2326 16.3411V16.3411C45.2326 16.4485 45.1463 16.536 45.0388 16.5375L41.8301 16.5825Z" fill="white"/>
<path d="M40.4701 21.208L40.394 20.53L41.3979 20.6752C41.5039 20.6905 41.5826 20.7814 41.5826 20.8885V20.8885C41.5826 20.9981 41.5004 21.0902 41.3915 21.1027L40.4701 21.208Z" fill="white"/>
<path d="M51.2017 16.582L50.7436 16.0356L49.1691 16.143C49.0652 16.1501 48.9845 16.2364 48.9845 16.3406V16.3406C48.9845 16.4483 49.0706 16.5363 49.1783 16.5386L51.2017 16.582Z" fill="white"/>
<path d="M34.8213 9.82568H35.5445L35.4824 9.17685C35.4676 9.02202 35.3375 8.90381 35.182 8.90381V8.90381C35.0261 8.90381 34.8959 9.02248 34.8815 9.17766L34.8213 9.82568Z" fill="white"/>
<path d="M34.8574 3.1499C34.8574 3.08923 34.9066 3.04004 34.9673 3.04004V3.04004C35.21 3.04004 35.4067 3.23679 35.4067 3.47949V7.39136C35.4067 7.54305 35.2838 7.66602 35.1321 7.66602V7.66602C34.9804 7.66602 34.8574 7.54305 34.8574 7.39136V3.1499Z" fill="white"/>
<path d="M34.9854 3.03864V3.03864C34.9195 3.35025 35.161 3.64199 35.4794 3.63544L37.844 3.58679C37.8548 3.58657 37.8639 3.58633 37.8746 3.58599C38.0775 3.57963 40.3676 3.51405 41.5742 3.75522C42.4213 3.92453 42.8321 4.05296 43.6353 4.37089C44.4239 4.68306 45.255 5.34349 45.6931 5.72157C45.8128 5.82492 46.006 5.73997 46.006 5.58179V5.58179C46.006 5.53386 45.9872 5.4883 45.9525 5.45524C45.7203 5.23399 44.7703 4.36018 43.8661 3.97785C42.9804 3.60336 42.5153 3.44327 41.5742 3.24553C40.4138 3.00169 38.2484 3.03132 37.9062 3.0377C37.8745 3.03829 37.8443 3.03864 37.8125 3.03864L34.9854 3.03864Z" fill="white"/>
</svg>
