<svg width="218" height="376" viewBox="0 0 218 376" fill="none" xmlns="http://www.w3.org/2000/svg">
<path d="M71.7104 74.9154C65.5631 86.5111 72.4833 120.148 92.1712 126.938C101.708 126.938 121.813 126.938 131.278 126.938C152.586 115.89 160.641 83.7034 152.203 75.169C141.674 68.023 115.353 59.0742 115.353 59.0742C115.353 59.0742 79.6325 68.0415 71.7104 74.9154Z" fill="#5E4424"/>
<path d="M73.6063 88.9135C67.7157 90.1319 61.8159 85.7595 60.4399 79.1392C59.0731 72.525 62.7343 66.1768 68.6403 64.9461C74.534 63.7309 79.5155 87.6798 73.6063 88.9135Z" fill="#FED2A9"/>
<path d="M149.556 88.9135C155.456 90.1319 161.35 85.7595 162.722 79.1392C164.092 72.525 160.425 66.1768 154.522 64.9461C148.625 63.7309 143.653 87.6798 149.556 88.9135Z" fill="#FED2A9"/>
<path d="M132.767 120.048H91.1118V166.344H132.767V120.048Z" fill="#F3C396"/>
<path d="M132.763 166.343H91.1118V137.079C91.1118 137.079 108.208 153.332 112.769 153.332C117.327 153.332 132.767 137.079 132.767 137.079V166.343H132.763Z" fill="#F3C396"/>
<path d="M111.875 132.711C160.784 132.711 152.954 48.8075 152.954 48.8075C152.954 48.8075 150.947 21.3057 112.932 21.3057C79.7933 21.3057 71.63 49.4878 71.63 49.4878C71.63 49.4878 62.6317 132.711 111.875 132.711Z" fill="#FED2A9"/>
<path d="M44.8807 270.031C44.8807 270.031 26.2225 274.555 28.9622 278.504C31.6956 282.453 44.8807 270.031 44.8807 270.031Z" fill="#F3C396"/>
<path d="M120.774 96.8057H104.438V96.7748C104.438 95.0988 107.159 93.7383 110.514 93.7383H114.698C118.056 93.7383 120.777 95.0988 120.777 96.7748V96.8057H120.774Z" fill="#F3C396"/>
<path d="M112.692 102.715C112.021 112.672 136.888 111.374 136.888 111.374C136.888 111.374 113.369 92.7525 112.692 102.715Z" fill="#5E4424"/>
<path d="M112.349 102.715C113.017 112.672 88.1494 111.374 88.1494 111.374C88.1494 111.374 111.672 92.7525 112.349 102.715Z" fill="#5E4424"/>
<path d="M66.3373 65.7404C70.3355 64.8499 74.6212 72.4721 74.6212 72.4721L76.2632 43.3747C76.2632 43.3747 98.8856 55.9073 122.689 51.9709C118.682 44.4446 120.317 38.755 120.317 38.755C120.317 38.755 134.047 49.3951 140.478 49.4261C142.12 46.204 146.901 43.2819 146.901 43.2819C146.901 43.2819 150.38 75.1066 150.243 73.8852C152.337 65.694 158.156 66.5289 158.156 66.5289C158.156 66.5289 170.627 8.14551 112.204 8.14551C53.783 8.14551 66.2415 64.0861 66.3373 65.7404Z" fill="#5E4424"/>
<path d="M203.076 160.331C201.944 158.513 199.634 156.741 196.524 155.04C187.634 146.518 138.119 137.066 137.525 137.73L117.639 157.341L108.993 158.408L88.0283 137.73C87.4346 137.066 37.9196 146.518 29.0296 155.04C25.9189 156.741 23.6121 158.516 22.4772 160.331C22.4772 160.331 4.47459 178.85 5.63106 192.474C6.51233 196.241 33.3865 245.004 33.3865 245.004L43.6618 295.02L43.4886 343.734L57.3168 346.329H116.56H168.239L182.068 343.734L181.895 295.02L192.173 245.004C192.173 245.004 215.677 203.337 216.558 199.571C217.711 185.947 203.076 160.331 203.076 160.331Z" fill="#516A96"/>
<path d="M36.3452 245.186L50.2724 239.011L51.9112 230.134L36.3452 245.186Z" fill="#AD954E"/>
<path d="M188.456 245.186L174.761 238.903L174.687 230.134L188.456 245.186Z" fill="#AD954E"/>
<path d="M49.4868 366.017C49.4868 366.017 71.2496 373.909 111.188 373.909C151.124 373.909 172.889 366.017 172.889 366.017V344.112H49.4868V366.017Z" fill="#3C3C3B"/>
<path d="M96.25 356.968V375.846H128.226V356.968H96.25ZM123.427 373.01H101.049V359.8H123.427V373.01Z" fill="#B3ADA3"/>
<path d="M109.42 368.631H104.874C103.838 368.631 103 367.793 103 366.757V366.72C103 365.684 103.838 364.843 104.874 364.843H109.42C110.459 364.843 111.297 365.681 111.297 366.72V366.757C111.297 367.79 110.459 368.631 109.42 368.631Z" fill="#B3ADA3"/>
<path d="M94.4076 365.467C94.4076 366.512 93.5603 367.362 92.5152 367.362C91.4669 367.362 90.6196 366.512 90.6196 365.467C90.6196 364.422 91.47 363.571 92.5152 363.571C93.5603 363.571 94.4076 364.419 94.4076 365.467Z" fill="#50504E"/>
<path d="M83.5941 364.839C83.5941 365.884 82.7437 366.734 81.6986 366.734C80.6534 366.734 79.8062 365.887 79.8062 364.839C79.8062 363.794 80.6534 362.943 81.6986 362.943C82.7468 362.943 83.5941 363.794 83.5941 364.839Z" fill="#50504E"/>
<path d="M43.1108 346.33C43.4633 359.357 161.928 360.353 178.647 349.672C184.785 341.061 174.788 318.701 174.788 301.601C174.788 284.502 170.828 200.323 170.828 200.323H50.3063C50.3063 200.323 50.3063 287.572 50.3063 300.726C50.3063 313.88 42.7552 333.302 43.1108 346.33Z" fill="#29406A"/>
<path d="M152.966 213.611H170.728V143.079L152.966 139.435V213.611Z" fill="#29406A"/>
<path d="M73.1921 215.96H55.4399V143.195L73.1921 139.435V215.96Z" fill="#29406A"/>
<path d="M110.016 154.618C111.315 156.102 113.621 156.118 114.939 154.649L133.847 137.725C133.968 137.589 136.497 136.968 139.454 137.425C136.102 142.997 123.374 154.714 116.952 160.357C114.509 162.503 110.916 162.642 108.291 160.725C101.55 155.805 87.5637 142.095 84.5303 137.691C87.5977 137.132 90.022 137.626 90.022 137.626C91.1444 137.462 110.016 154.618 110.016 154.618Z" fill="#415579"/>
<path d="M211.759 238.139C211.759 238.139 211.697 243.655 211.366 249.793C204.508 266.624 189.334 298.544 169.9 307.521C168.156 307.574 161.152 263.198 161.152 263.198L173.141 222.044L211.759 238.139Z" fill="#FED2A9"/>
<path d="M210.99 241.42L211.843 249.256L206.525 260.886L168.862 236.736L173.141 222.048L210.99 241.42Z" fill="#F3C396"/>
<path d="M214.817 187.279C220.571 194.956 216.387 247.941 212.504 251.921C210.948 251.358 165.305 234.852 165.305 234.852L171.077 206.855C171.077 206.855 214.409 185.81 214.817 187.279Z" fill="#516A96"/>
<path d="M193.056 211.866L174.463 211.514L205.169 190.456L170.712 208.579L169.53 214.887L172.064 214.312L193.056 211.866Z" fill="#415579"/>
<path d="M164.774 260.872C141.014 253.107 108.017 234.227 108.017 234.227C108.017 234.227 105.763 242.22 89.498 245.522C101.864 262.402 116.221 277.332 126.901 286.92C139.548 301.104 161.159 308.293 169.904 307.524C183.933 274.595 165.631 265.062 164.774 260.872Z" fill="#FED2A9"/>
<path d="M162.764 264.909C162.764 264.909 178.691 275.627 174.755 278.382C170.813 281.137 162.764 264.909 162.764 264.909Z" fill="#F3C396"/>
<path d="M4.46582 227.686C4.46582 227.686 5.39652 280.371 23.9991 307.103C25.4771 307.613 46.9833 268.979 46.9833 268.979L50.026 226.224L4.46582 227.686Z" fill="#FED2A9"/>
<path d="M4.46582 227.686C4.46582 227.686 4.63277 237.123 6.23452 250.036L48.6747 245.234L50.029 226.227L4.46582 227.686Z" fill="#F3C396"/>
<path d="M8.64294 179.786C-4.46789 197.924 3.00902 245.015 3.00902 245.015L50.2637 237.044L51.4449 211.261C51.4449 211.261 13.7172 173.339 8.64294 179.786Z" fill="#516A96"/>
<path d="M29.0076 201.038L45.7888 204.511L25.1362 178.289L50.2725 201.527V209.198L46.9484 209.737L29.0076 201.038Z" fill="#415579"/>
<path d="M57.4035 254.157C57.4035 254.157 60.7647 246.599 57.3942 240.535C57.3942 240.535 54.6916 236.918 59.2804 229.132L83.9869 187.155C84.0116 187.171 84.0333 187.183 84.0333 187.183C88.6221 179.397 93.1027 180.015 93.1027 180.015C100.038 180.028 105.026 173.429 105.026 173.429C105.026 173.429 110.515 166.676 106.909 158.305C104.751 157.031 104.751 157.031 104.751 157.031L99.6642 165.655L89.8157 166.203L85.5639 157.34L90.6506 148.716C90.6506 148.716 90.6505 148.716 88.4922 147.442C79.4197 148.339 76.1699 156.413 76.1699 156.413L76.1854 156.422C76.1854 156.422 72.8272 163.979 76.1946 170.043C76.1946 170.043 78.9003 173.661 74.3115 181.447L49.5556 223.392C44.9668 231.179 40.4862 230.56 40.4862 230.56C33.5535 230.548 28.5659 237.146 28.5659 237.146C28.5659 237.146 23.0741 243.9 26.6796 252.27C28.8379 253.544 28.8379 253.544 28.8379 253.544L33.9184 244.923L43.7083 244.435L48.0187 253.238L42.9352 261.859C42.9352 261.859 42.9352 261.859 45.0936 263.133C54.166 262.236 57.4158 254.163 57.4158 254.163L57.4035 254.157Z" fill="#C6C6C6"/>
<path d="M53.3064 230.418L51.4357 229.314C50.7461 228.906 50.5173 228.019 50.9223 227.329L77.1286 182.888C77.5367 182.199 78.4242 181.97 79.1137 182.375L80.9907 183.479C81.6802 183.887 81.9091 184.775 81.504 185.464L55.2947 229.905C54.8865 230.594 53.9991 230.823 53.3064 230.418Z" fill="#9D9D9C"/>
<path d="M82.1315 259.566L114.844 257.365L127.225 230.259L106.959 222.909L107.153 213.116L100.626 212.983L95.3815 206.801L81.4821 187.185L66.5469 178.616L62.0571 178.527L57.2239 175.382L49.7719 180.475L53.3216 186.619L47.4805 192.775L47.3847 197.67L43.9771 204.544L46.9115 221.251L69.1288 236.035L71.4727 241.387L74.7226 242.272L82.1315 259.566Z" fill="#CBBBA0"/>
<path d="M82.1309 259.567L114.843 257.366L126.012 229.821L122.524 228.553L118.52 231.577L111.299 229.533L107.468 239.007L85.4673 240.55L86.0765 255.149L82.1309 259.567Z" fill="#A3947B"/>
<path d="M81.5625 199.477L79.2032 194.94L52.6724 218.917L81.5625 199.477Z" fill="#AC9D84"/>
<path d="M97.3972 232.557L80.9097 240.39L93.2505 229.854L97.3972 232.557Z" fill="#AC9D84"/>
<path d="M42.6687 264.046C67.6628 263.638 104.763 255.339 104.763 255.339C104.763 255.339 104.559 263.641 119.126 271.594C102.329 284.074 84.206 294.102 71.1693 300.11C54.9014 309.931 32.1306 310.42 24.0013 307.105C20.3092 271.502 40.6124 267.791 42.6687 264.046Z" fill="#FED2A9"/>
<path d="M131.193 137.561C121.187 138.953 114.205 148.192 115.596 158.199L129.195 221.684C129.678 223.932 131.815 225.429 134.093 225.11L134.177 225.098C136.576 224.764 138.252 222.547 137.922 220.144L129.038 156.325L151.827 153.155C150.436 143.149 141.196 136.17 131.193 137.561Z" fill="#C6C6C6"/>
<path d="M145.855 182.371L134.977 183.883L132.32 164.78L150.648 162.229L151.755 174.965C152.073 178.614 149.479 181.867 145.855 182.371Z" fill="#C6C6C6"/>
<path d="M136.65 165.833L134.096 166.188L130.571 166.68L116.662 168.616C114.433 168.925 112.877 170.984 113.19 173.214L114.244 180.79C114.553 183.019 116.613 184.575 118.839 184.265L133.131 182.277L134.789 192.354L123.638 193.907C121.972 194.139 120.809 195.675 121.041 197.342L122.173 205.475C122.401 207.141 123.941 208.304 125.605 208.069L137.108 206.467L149.634 285.621C150.182 288.948 153.28 291.23 156.619 290.766L156.74 290.751C160.077 290.287 162.436 287.244 162.055 283.895L149.674 175.932C148.942 169.503 143.06 164.942 136.65 165.833Z" fill="#B54825"/>
<path d="M155.33 281.348C156.795 281.144 157.862 279.666 157.67 278.024L149.875 212.318C149.677 210.621 148.267 209.396 146.749 209.607L144.492 209.922C142.976 210.132 141.953 211.697 142.225 213.385L152.225 278.785C152.488 280.414 153.87 281.552 155.33 281.348Z" fill="#F66232"/>
<path d="M152.633 158.689L129.932 161.848L130.383 165.091L153.084 161.933L152.633 158.689Z" fill="#9D9D9C"/>
<path d="M151.868 153.19L129.167 156.349L129.618 159.592L152.319 156.434L151.868 153.19Z" fill="#9D9D9C"/>
<path d="M119.99 194.412L132.817 192.625C133.791 192.489 134.471 191.592 134.335 190.618L133.417 184.032C133.28 183.058 132.384 182.377 131.41 182.513L118.58 184.298C117.609 184.434 116.929 185.333 117.062 186.304L117.98 192.891C118.116 193.868 119.013 194.545 119.99 194.412Z" fill="#9D9D9C"/>
<path d="M122.012 287.186L91.4119 275.43L87.5776 245.874L109.112 244.836L111.814 235.42L118.091 237.219L124.928 232.86L143.998 218.218L160.797 214.442L165.111 215.679L170.658 214.105L176.277 221.168L171.07 225.989L174.833 233.595L173.481 238.302L174.706 245.874L166.975 260.974L141.382 268.537L137.563 272.962L134.198 272.848L122.012 287.186Z" fill="#CBBBA0"/>
<path d="M140.498 231.289L144.963 228.794L165.393 258.414L140.498 231.289Z" fill="#AC9D84"/>
<path d="M117.543 249.271L127.018 264.874L122.491 249.292L117.543 249.271Z" fill="#AC9D84"/>
<path opacity="0.25" d="M111.924 63.6073C70.9155 63.6073 65.7393 85.4968 65.7393 56.5664C68.2285 56.5664 157.549 56.5664 159.169 56.5664C159.169 87.7819 150.885 63.6073 111.924 63.6073Z" fill="#1D1D1B"/>
<path d="M118.596 5.89116H106.123V2.99997C106.123 1.81876 107.081 0.863281 108.259 0.863281H116.457C117.638 0.863281 118.593 1.82185 118.593 2.99997V5.89116H118.596Z" fill="#29406A"/>
<path d="M112.38 3.6748H111.402C84.6242 3.6748 62.9141 25.385 62.9141 52.1632V54.0835H160.868V52.1632C160.865 25.3819 139.158 3.6748 112.38 3.6748Z" fill="#29406A"/>
<path d="M111.887 42.4502C81.1782 42.4502 62.9097 54.083 62.9097 54.083H160.864C160.864 54.083 142.725 42.4502 111.887 42.4502Z" fill="#415579"/>
<path d="M62.6847 54.1281C62.6847 54.1281 89.6083 44.7557 112.011 44.7063C134.714 44.6537 161.096 54.1281 161.096 54.1281C172.633 80.6652 137.352 57.6718 112.027 57.6594C86.6151 57.647 51.3426 80.2199 62.6847 54.1281Z" fill="#516A96"/>
<path d="M123.674 24.63C123.883 30.9345 118.94 36.1791 112.634 36.3442C106.329 36.5093 101.048 31.5324 100.84 25.228C100.632 18.9235 105.575 13.679 111.881 13.5138C118.186 13.3487 123.466 18.3256 123.674 24.63Z" fill="#516A96" stroke="#415579"/>
<g opacity="0.5">
<path d="M116.766 23.5843C116.78 23.6002 116.794 23.6161 116.806 23.6425C116.816 23.7005 116.805 23.7646 116.889 23.7637C116.889 23.7637 116.889 23.7682 116.884 23.7771C116.883 23.8027 116.883 23.8214 116.89 23.8362C117.067 24.1685 117.285 24.4759 117.567 24.7371C117.837 24.9865 118.117 25.2253 118.442 25.4157C118.694 25.5632 118.959 25.6789 119.245 25.7426C119.738 25.8527 120.238 25.7643 120.735 25.7656C120.903 25.7661 121.087 25.7579 121.237 25.8164C121.759 26.0209 121.965 26.6989 121.617 27.1058C121.557 27.1753 121.505 27.2499 121.445 27.3284C121.146 27.4681 120.836 27.4923 120.519 27.4423C120.091 27.3748 119.692 27.2295 119.311 27.0352C118.659 26.703 118.097 26.273 117.641 25.7237C117.583 25.6537 117.516 25.59 117.454 25.5234C117.438 25.5501 117.441 25.5632 117.447 25.5745C117.575 25.8045 117.704 26.0342 117.826 26.2692C117.822 26.294 117.822 26.3139 117.826 26.3332C117.856 26.5024 117.901 26.6707 117.913 26.8409C117.921 26.9542 117.881 27.0703 117.855 27.1849C117.651 27.1618 117.543 27.034 117.454 26.8896C117.273 26.597 117.183 26.2734 117.094 25.95C116.948 25.4185 116.857 24.8783 116.804 24.3323C116.789 24.1771 116.76 24.023 116.749 23.8676C116.743 23.7739 116.759 23.6788 116.766 23.5843Z" fill="#468FC4"/>
<path d="M117.832 26.2647C117.704 26.0349 117.575 25.8052 117.447 25.5753C117.441 25.5639 117.438 25.5508 117.454 25.5241C117.516 25.5907 117.583 25.6544 117.641 25.7244C118.097 26.2737 118.659 26.7037 119.311 27.0359C119.692 27.2302 120.091 27.3755 120.518 27.443C120.836 27.493 121.146 27.4688 121.452 27.328C121.914 27.0632 122.096 26.6687 121.945 26.2362C121.901 26.1076 121.807 25.9937 121.736 25.8731C121.926 25.971 122.03 26.1368 122.107 26.3139C122.33 26.8237 122.11 27.3963 121.598 27.6799C121.194 27.9031 120.767 27.9219 120.323 27.8208C119.761 27.6927 119.274 27.4291 118.827 27.0919C118.51 26.8532 118.248 26.5678 117.991 26.2592C117.935 26.1855 117.884 26.124 117.834 26.0625C117.825 26.0688 117.815 26.0752 117.806 26.0816C117.857 26.1505 117.909 26.2194 117.96 26.2883C118.061 26.5007 118.179 26.708 118.256 26.9279C118.295 27.0392 118.29 27.1826 118.252 27.2952C118.142 27.6123 117.755 27.6933 117.484 27.4671C117.256 27.2765 117.141 27.0223 117.049 26.7586C116.793 26.0201 116.616 25.2651 116.543 24.4918C116.503 24.0756 116.485 23.6577 116.458 23.2405C116.456 23.2079 116.46 23.175 116.487 23.1359C116.58 23.2805 116.672 23.4251 116.765 23.5774C116.759 23.6795 116.742 23.7746 116.749 23.8683C116.76 24.0237 116.789 24.1778 116.804 24.333C116.857 24.879 116.948 25.4192 117.094 25.9507C117.183 26.2741 117.273 26.5977 117.454 26.8903C117.543 27.0347 117.651 27.1625 117.862 27.1848C118.036 27.1296 118.079 27.0667 118.08 26.9118C118.081 26.6674 117.961 26.4648 117.832 26.2647Z" fill="#3B78A4"/>
<path d="M121.731 25.8676C121.807 25.9938 121.901 26.1076 121.945 26.2363C122.096 26.6687 121.914 27.0633 121.457 27.3218C121.505 27.2506 121.557 27.176 121.617 27.1066C121.965 26.6997 121.759 26.0217 121.236 25.8171C121.087 25.7587 120.903 25.7668 120.734 25.7664C120.237 25.765 119.738 25.8535 119.244 25.7434C118.959 25.6796 118.694 25.564 118.442 25.4165C118.117 25.226 117.837 24.9872 117.567 24.7378C117.284 24.4767 117.067 24.1692 116.89 23.8369C116.882 23.8221 116.883 23.8035 116.881 23.7783C117.116 24.0317 117.337 24.3041 117.585 24.5527C118.033 25.0025 118.56 25.349 119.183 25.5602C119.582 25.6954 119.992 25.6945 120.407 25.6743C120.688 25.6606 120.971 25.6579 121.252 25.6669C121.432 25.6726 121.586 25.7577 121.731 25.8676Z" fill="#51A3E1"/>
<path d="M114.278 20.4042C114.465 20.2147 114.768 20.1889 115.016 20.3419C115.168 20.4353 115.287 20.5563 115.369 20.7253C115.46 20.96 115.511 21.1822 115.439 21.4205C115.365 21.3578 115.3 21.2988 115.23 21.244C115.047 21.0997 114.822 21.0393 114.604 20.9634C114.361 20.8791 114.156 20.7185 114.278 20.4042Z" fill="#4791C7"/>
<path d="M117.927 20.2878C118.17 20.416 118.26 20.7302 118.122 20.9747C117.992 21.2032 117.778 21.3254 117.52 21.3893C117.35 21.4311 117.18 21.4679 117.011 21.5107C116.616 21.6109 116.294 21.8119 116.058 22.1276C116.047 22.1415 116.036 22.1548 116.003 22.1958C115.997 22.0096 115.984 21.8525 115.988 21.6959C116 21.286 116.138 20.9165 116.406 20.5914C116.429 20.5642 116.458 20.5419 116.492 20.5235C116.489 20.5472 116.479 20.5661 116.466 20.5822C116.267 20.8255 116.147 21.0975 116.122 21.414C116.117 21.5398 116.115 21.6577 116.113 21.7755C116.124 21.7773 116.135 21.779 116.146 21.7808C116.175 21.7544 116.2 21.7228 116.232 21.7026C116.423 21.5848 116.605 21.4483 116.81 21.3601C116.996 21.2805 117.208 21.2568 117.407 21.2045C117.6 21.1539 117.796 21.1038 117.928 20.9463C118.032 20.821 118.112 20.6863 118.045 20.5097C118.005 20.4305 117.966 20.3592 117.927 20.2878Z" fill="#3B78A4"/>
<path d="M120.002 28.892C119.832 29.0606 119.558 29.084 119.35 28.9218C119.231 28.829 119.146 28.6979 119.046 28.5681C118.981 28.3848 118.947 28.2159 119.009 28.0331C119.034 28.0441 119.058 28.0478 119.071 28.0612C119.25 28.2514 119.496 28.3307 119.739 28.4159C119.994 28.5054 120.072 28.6525 120.002 28.892Z" fill="#4791C7"/>
<path d="M114.271 20.406C114.156 20.7183 114.361 20.8789 114.604 20.9632C114.822 21.0391 115.048 21.0994 115.23 21.2438C115.3 21.2986 115.365 21.3575 115.439 21.4203C115.511 21.182 115.46 20.9598 115.371 20.732C115.495 20.883 115.53 21.0669 115.531 21.2565C115.531 21.3969 115.513 21.5374 115.502 21.6938C115.399 21.5815 115.328 21.4675 115.223 21.3993C115.067 21.2974 114.89 21.2194 114.715 21.1467C114.559 21.0819 114.392 21.0406 114.272 20.9142C114.12 20.7536 114.115 20.5577 114.271 20.406Z" fill="#3975A0"/>
<path d="M117.194 21.9054C117.311 21.9311 117.406 21.9874 117.472 22.0967C117.483 22.1225 117.492 22.1354 117.501 22.1482C117.504 22.157 117.508 22.1657 117.507 22.1846C117.506 22.2057 117.51 22.2168 117.513 22.2278C117.513 22.237 117.512 22.2462 117.503 22.2651C117.491 22.2907 117.488 22.3066 117.485 22.3226C117.474 22.3403 117.464 22.358 117.438 22.3782C117.291 22.418 117.231 22.3882 117.12 22.2721C117.029 22.1766 116.919 22.0961 116.818 22.0087C116.804 21.9961 116.79 21.9823 116.774 21.9669C116.815 21.9407 116.85 21.9191 116.884 21.8975C116.893 21.8955 116.903 21.8936 116.926 21.8969C116.987 21.8976 117.034 21.893 117.082 21.8884C117.098 21.8887 117.115 21.8891 117.141 21.897C117.165 21.9048 117.18 21.9051 117.194 21.9054Z" fill="#468FC4"/>
<path d="M120.009 28.891C120.072 28.6536 119.994 28.5064 119.739 28.417C119.496 28.3318 119.25 28.2525 119.071 28.0623C119.058 28.0489 119.034 28.0451 119.009 28.0342C118.947 28.2169 118.981 28.3858 119.044 28.562C118.906 28.3771 118.92 28.1604 118.934 27.9446C118.937 27.8971 118.952 27.8502 118.96 27.8064C119.068 27.9064 119.16 28.018 119.279 28.0946C119.396 28.1703 119.54 28.2076 119.67 28.2675C119.779 28.3179 119.896 28.3625 119.987 28.4347C120.144 28.559 120.146 28.736 120.009 28.891Z" fill="#3975A0"/>
<path d="M116.126 21.4061C116.147 21.0978 116.267 20.8257 116.466 20.5825C116.48 20.5663 116.489 20.5474 116.5 20.5224C116.797 20.2116 117.149 20.03 117.604 20.1286C117.715 20.1527 117.814 20.2258 117.923 20.2822C117.966 20.3594 118.005 20.4308 118.038 20.5091C118.022 20.5108 118.009 20.5076 118.004 20.4999C117.767 20.1622 117.384 20.1038 117.023 20.2573C116.553 20.4567 116.3 20.8239 116.188 21.2856C116.178 21.328 116.148 21.3661 116.126 21.4061Z" fill="#4F9EDA"/>
<path d="M116.875 21.8957C116.85 21.9187 116.815 21.9403 116.774 21.9665C116.79 21.982 116.804 21.9957 116.818 22.0084C116.92 22.0957 117.029 22.1762 117.12 22.2718C117.231 22.3878 117.291 22.4177 117.432 22.3807C117.358 22.4704 117.258 22.4782 117.153 22.393C117.098 22.3481 117.061 22.2842 117.007 22.2377C116.898 22.1441 116.783 22.0566 116.661 21.9587C116.719 21.9405 116.793 21.9174 116.875 21.8957Z" fill="#346B93"/>
<path d="M117.075 21.8834C117.034 21.893 116.987 21.8976 116.933 21.8973C116.974 21.8877 117.022 21.8831 117.075 21.8834Z" fill="#346B93"/>
<path d="M116.889 23.7579C116.805 23.7657 116.816 23.7011 116.809 23.6484C116.84 23.6794 116.864 23.7152 116.889 23.7579Z" fill="#51A3E1"/>
<path d="M117.504 22.143C117.492 22.136 117.482 22.123 117.474 22.1035C117.485 22.1104 117.496 22.1237 117.504 22.143Z" fill="#346B93"/>
<path d="M117.517 22.2249C117.51 22.2168 117.506 22.2057 117.507 22.1914C117.515 22.1995 117.518 22.2106 117.517 22.2249Z" fill="#346B93"/>
<path d="M116.123 21.4136C116.147 21.3655 116.178 21.3274 116.188 21.285C116.3 20.8233 116.553 20.4561 117.023 20.2567C117.384 20.1032 117.767 20.1616 118.004 20.4993C118.009 20.507 118.022 20.5102 118.039 20.5163C118.113 20.6859 118.032 20.8206 117.928 20.9459C117.797 21.1034 117.6 21.1535 117.407 21.2042C117.208 21.2564 116.996 21.2801 116.81 21.3597C116.605 21.448 116.423 21.5844 116.232 21.7022C116.2 21.7224 116.175 21.7541 116.147 21.7805C116.135 21.7787 116.124 21.7769 116.113 21.7751C116.115 21.6573 116.117 21.5395 116.123 21.4136Z" fill="#4791C7"/>
<path d="M117.827 26.2704C117.962 26.4653 118.082 26.6679 118.08 26.9123C118.079 27.0673 118.036 27.1302 117.871 27.1855C117.882 27.0715 117.921 26.9554 117.913 26.8421C117.902 26.6719 117.856 26.5036 117.826 26.3344C117.823 26.3151 117.823 26.2952 117.827 26.2704Z" fill="#51A3E1"/>
<path d="M117.491 22.3196C117.488 22.3071 117.491 22.2908 117.5 22.2712C117.503 22.2838 117.5 22.2998 117.491 22.3196Z" fill="#346B93"/>
<path d="M108.156 25.7511C108.156 25.7511 108.458 25.9727 108.578 26.1184C108.9 26.5081 108.979 26.9428 109.39 27.3443C109.934 27.8757 110.382 28.0217 111.107 28.2634C111.477 28.3867 111.719 28.3587 112.082 28.5076C112.393 28.6347 112.575 28.7856 112.836 28.9414C113.086 29.091 113.211 29.2612 113.507 29.2698C113.785 29.2779 113.956 29.2233 114.164 29.018C114.299 28.885 114.389 28.7961 114.44 28.61C114.504 28.3797 114.518 28.2178 114.42 27.9941C114.354 27.8422 114.293 27.7592 114.184 27.6475M108.156 25.7511C108.156 25.7511 107.953 25.7838 107.779 25.7609C107.578 25.7344 107.411 25.7838 107.206 25.8039C106.854 25.8385 106.655 25.8129 106.304 25.8495C106.056 25.8752 105.917 25.8946 105.675 25.95C105.412 26.01 105.23 26.0241 104.969 26.0907C104.756 26.145 104.565 26.1997 104.368 26.2722C104.282 26.3038 104.187 26.3373 104.1 26.3676V26.3676C103.955 26.4181 103.803 26.3083 103.803 26.1537L103.808 22.6153C103.808 22.5205 103.878 22.4404 103.972 22.4282V22.4282C104.044 22.4188 104.129 22.4087 104.196 22.4025C104.507 22.374 104.684 22.3897 104.996 22.3815C105.378 22.3715 105.592 22.3659 105.974 22.3559C106.114 22.3523 106.192 22.3518 106.331 22.3466C106.629 22.3354 106.795 22.3295 107.093 22.3266C107.296 22.3247 107.409 22.3183 107.612 22.313C107.747 22.3095 107.823 22.304 107.958 22.304C108.176 22.3039 108.298 22.317 108.516 22.3272C108.75 22.3381 108.881 22.3435 109.115 22.3584C109.411 22.3771 109.588 22.394 109.884 22.4085C110.152 22.4216 110.292 22.4034 110.556 22.3993C110.844 22.3949 111.01 22.3762 111.297 22.3526C111.504 22.3357 111.621 22.3145 111.825 22.2943C112.056 22.2713 112.184 22.2462 112.411 22.2121C112.729 22.1644 112.901 22.1177 113.215 22.0555C113.488 22.0014 113.639 21.9644 113.913 21.9151C114.13 21.8762 114.249 21.8289 114.468 21.8244C114.679 21.8201 114.8 21.84 115.006 21.8865C115.208 21.9321 115.324 21.962 115.508 22.0566C115.663 22.1357 115.74 22.1925 115.862 22.3153C116.045 22.498 116.104 22.6445 116.193 22.8857C116.281 23.1237 116.272 23.2662 116.3 23.518C116.347 23.9483 116.321 24.1958 116.326 24.6304C116.331 24.9968 116.348 25.2005 116.38 25.5658C116.398 25.7838 116.406 25.9118 116.438 26.1277C116.466 26.3231 116.501 26.4228 116.522 26.6145C116.53 26.6905 116.544 26.7581 116.556 26.8219M108.156 25.7511C108.156 25.7511 108.114 25.6324 108.065 25.5698C107.968 25.4451 107.871 25.4048 107.713 25.3714M114.184 27.6475C113.938 27.4295 113.769 27.3695 113.537 27.1296C113.309 26.8928 113.211 26.7561 113.09 26.4804C113.006 26.2897 112.919 25.8779 112.919 25.8779C112.919 25.8779 112.878 25.5692 112.944 25.3927M114.184 27.6475C114.535 27.7636 114.731 27.8471 115.1 27.8484C115.358 27.8493 115.509 27.8467 115.758 27.7774C116.046 27.6974 116.267 27.6786 116.441 27.4372C116.49 27.3694 116.513 27.327 116.543 27.2489M112.944 25.3927C113.064 25.2559 113.135 25.1763 113.258 25.0421M112.944 25.3927C112.944 25.3927 112.912 25.0825 112.927 24.8801C112.944 24.6602 112.952 24.5394 113.024 24.3262M113.258 25.0421C113.437 24.8065 113.554 24.6863 113.772 24.4774C113.99 24.2685 114.148 24.141 114.399 23.9729M113.258 25.0421C113.444 25.0167 113.551 25.0677 113.717 25.1702C113.856 25.256 113.988 25.4132 114.082 25.5468M116.543 27.2489C116.543 27.2489 116.445 27.2143 116.365 27.1959C116.3 27.1809 116.252 27.1783 116.192 27.1499C116.145 27.128 116.093 27.0919 116.093 27.0919M116.543 27.2489C116.604 27.089 116.584 26.9648 116.556 26.8219M114.082 25.5468C114.134 25.697 114.145 25.7288 114.164 25.8499C114.184 25.9783 114.186 26.0528 114.175 26.182M114.082 25.5468C114.054 25.4509 114.405 25.1904 114.608 25.2577M114.175 26.182C114.123 26.2797 114.104 26.3436 114.094 26.4541C114.083 26.5885 114.099 26.6859 114.15 26.7955M114.175 26.182C114.327 26.1924 114.406 26.2652 114.536 26.352C114.647 26.4268 114.69 26.4948 114.795 26.5788C114.965 26.7152 115.102 26.7874 115.291 26.8976M116.556 26.8219C116.51 26.8361 116.483 26.8428 116.435 26.8525C116.391 26.8615 116.356 26.8627 116.31 26.8636C116.237 26.865 116.141 26.8328 116.141 26.8328" stroke="white" stroke-width="0.2" stroke-linecap="round"/>
<path d="M112.393 24.2351C112.393 24.2351 112.344 24.6381 112.37 24.8949C112.397 25.1629 112.537 25.5648 112.537 25.5648" stroke="white" stroke-width="0.2" stroke-linecap="round"/>
<path d="M112.393 24.2351C112.393 24.2351 112.344 24.6381 112.37 24.8949C112.397 25.1629 112.537 25.5648 112.537 25.5648" stroke="white" stroke-width="0.2" stroke-linecap="round"/>
<path d="M113.856 28.1458C113.856 28.1458 113.705 28.224 113.603 28.3582C113.497 28.4982 113.334 28.8466 113.334 28.8466" stroke="white" stroke-width="0.2" stroke-linecap="round"/>
<path d="M114.018 28.3356C114.018 28.3356 113.988 28.3428 113.918 28.4287C113.88 28.4754 113.784 28.6801 113.729 28.7676C113.678 28.8484 113.642 28.8588 113.642 28.8588" stroke="white" stroke-width="0.2" stroke-linecap="round"/>
<path d="M104.921 25.362C105.04 25.3296 105.108 25.314 105.23 25.2909C105.338 25.2704 105.4 25.2635 105.509 25.248C105.645 25.2286 105.721 25.2136 105.859 25.2033C105.985 25.194 106.056 25.19 106.182 25.1949C106.277 25.1985 106.328 25.2063 106.424 25.2159C106.56 25.2296 106.64 25.2399 106.776 25.2504C106.923 25.2617 107.005 25.2784 107.152 25.2799C107.232 25.2808 107.277 25.2796 107.357 25.2746" stroke="white" stroke-width="0.2" stroke-linecap="round"/>
</g>
</svg>
