<svg width="302" height="273" viewBox="0 0 302 273" fill="none" xmlns="http://www.w3.org/2000/svg">
<path d="M176.776 245.943C174.998 244.917 172.115 244.917 170.338 245.943C168.56 246.97 168.56 248.634 170.338 249.661C172.116 250.687 174.999 250.687 176.776 249.661C178.554 248.634 178.554 246.97 176.776 245.943Z" fill="#97A7C1"/>
<path d="M142.829 249.547C140.615 248.269 137.026 248.269 134.812 249.547C132.598 250.825 132.598 252.898 134.812 254.176C137.026 255.454 140.615 255.454 142.829 254.176C145.042 252.898 145.042 250.825 142.829 249.547Z" fill="#97A7C1"/>
<path d="M193.581 243.607C192.432 242.944 190.568 242.944 189.419 243.607C188.27 244.27 188.27 245.347 189.419 246.01C190.568 246.673 192.432 246.673 193.581 246.01C194.73 245.347 194.73 244.27 193.581 243.607Z" fill="#97A7C1"/>
<path d="M183.153 249.886C182.632 249.585 181.787 249.585 181.267 249.886C180.746 250.187 180.746 250.674 181.267 250.975C181.787 251.275 182.632 251.275 183.153 250.975C183.675 250.675 183.675 250.187 183.153 249.886Z" fill="#97A7C1"/>
<path d="M180.879 221.287C181.4 221.588 182.245 221.588 182.766 221.287C183.287 220.986 183.287 220.499 182.766 220.198C182.245 219.897 181.4 219.897 180.879 220.198C180.359 220.498 180.359 220.986 180.879 221.287Z" fill="#97A7C1"/>
<path d="M182.174 232.226C180.754 231.406 179.032 230.871 177.217 230.607C180.32 227.701 179.703 223.846 175.34 221.327C172.534 219.707 168.769 218.984 165.1 219.147C166.067 216.703 164.916 214.035 161.618 212.131C156.519 209.187 148.251 209.187 143.152 212.131C139.847 214.039 138.698 216.715 139.677 219.163C136.228 219.518 132.925 220.459 130.259 221.998C124.126 225.539 123.434 231.026 128.161 235.014C126.571 235.147 125.036 235.552 123.812 236.259C120.795 238.001 120.795 240.826 123.812 242.568C126.828 244.31 131.72 244.31 134.737 242.568C136.473 241.566 137.205 240.205 136.942 238.899C138.949 239.304 141.051 239.499 143.153 239.475C143.033 239.525 142.915 239.576 142.806 239.638C141.657 240.301 141.657 241.377 142.806 242.041C143.956 242.704 145.819 242.704 146.969 242.041C148.118 241.377 148.118 240.301 146.969 239.638C146.717 239.493 146.426 239.384 146.121 239.303C147.35 239.168 148.557 238.954 149.725 238.668C150.122 239.056 150.598 239.423 151.175 239.756C154.877 241.894 160.88 241.894 164.582 239.756C164.753 239.658 164.906 239.554 165.061 239.45C165.556 240.003 166.202 240.522 167.004 240.985C171.193 243.404 177.985 243.404 182.174 240.985C186.362 238.565 186.362 234.644 182.174 232.226Z" fill="#97A7C1"/>
<path d="M157.019 252.506C161.225 252.506 164.635 250.537 164.635 248.109C164.635 245.68 161.225 243.712 157.019 243.712C152.813 243.712 149.404 245.68 149.404 248.109C149.404 250.537 152.813 252.506 157.019 252.506Z" fill="#97A7C1"/>
<path d="M228.001 140.471C229.641 140.471 231.277 139.544 232.247 138.278C233.558 136.568 233.918 134.407 234.149 132.516C235.315 123.056 234.648 113.418 234.001 104.097C233.462 96.3153 232.904 88.2688 233.427 80.416C233.522 79.0001 233.68 77.5347 234.48 76.5617C234.806 76.1669 235.252 75.8523 235.733 75.6775C236.534 75.5464 236.209 73.376 235.02 73.7198C234.183 74.0242 233.44 74.5501 232.872 75.2391C231.679 76.6884 231.459 78.601 231.347 80.279C230.815 88.2746 231.377 96.3925 231.922 104.244C232.56 113.467 233.221 123.004 232.081 132.264C231.881 133.884 231.586 135.718 230.592 137.014C229.774 138.082 228.142 138.784 227.016 138.134C226.116 137.611 225.669 136.383 225.321 135.135C222.253 124.117 222.624 112.461 222.984 101.189L224.135 65.1139L222.053 65.0469L220.903 101.122C220.538 112.551 220.161 124.37 223.315 135.694C223.782 137.368 224.426 139.039 225.972 139.935C226.617 140.305 227.309 140.471 228.001 140.471Z" fill="#706F6F"/>
<path d="M224.612 59.2589L222.92 56.0324L227.638 53.5007C227.876 53.2822 228.243 53.2633 228.661 53.5037C229.376 53.9174 229.956 54.921 229.956 55.7469C229.956 56.1431 229.821 56.4228 229.602 56.5641C229.58 56.5786 229.557 56.5888 229.534 56.6005L224.612 59.2589Z" fill="#706F6F"/>
<path d="M220.893 66.0482C220.918 68.1764 225.556 68.0453 225.599 66.0482V45.1045H220.893V66.0482Z" fill="#ACACAC"/>
<path d="M213.096 39.3602C213.096 43.5422 216.031 48.6259 219.653 50.7177C223.274 52.8079 225.626 51.0731 226.209 46.9318C227.086 40.7032 224.111 36.5037 219.653 35.5743C215.559 34.7207 213.096 35.1781 213.096 39.3602Z" fill="#706F6F"/>
<path d="M221.853 52.5538L224.025 51.1889L214.712 35.6436L212.814 36.3806L221.853 52.5538Z" fill="#706F6F"/>
<path d="M210.592 40.7776C210.592 44.9596 213.527 50.0433 217.148 52.1351C220.769 54.2254 223.706 52.5313 223.706 48.3492C223.706 44.1672 220.771 39.0835 217.15 36.9917C213.528 34.9 210.592 36.5955 210.592 40.7776Z" fill="#ACACAC"/>
<path d="M211.153 41.7068C211.153 45.1517 213.571 49.3396 216.554 51.0614C219.537 52.7832 221.955 51.3877 221.955 47.9427C221.955 44.4977 219.537 40.3098 216.554 38.5881C213.571 36.8663 211.153 38.2618 211.153 41.7068Z" fill="#EDEDED"/>
<path d="M218.42 43.4451C218.42 43.7131 218.608 44.0394 218.839 44.1734C219.071 44.3074 219.259 44.1982 219.259 43.9301C219.259 43.6621 219.071 43.3358 218.839 43.2018C218.608 43.0678 218.42 43.177 218.42 43.4451Z" fill="#706F6F"/>
<path d="M216.133 40.6222C216.133 40.8902 216.321 41.2165 216.552 41.3505C216.784 41.4845 216.972 41.3753 216.972 41.1072C216.972 40.8392 216.784 40.5129 216.552 40.3789C216.322 40.2464 216.133 40.3541 216.133 40.6222Z" fill="#706F6F"/>
<path d="M213.096 39.5398C213.096 39.8078 213.284 40.1341 213.516 40.2681C213.747 40.4022 213.935 40.2929 213.935 40.0249C213.935 39.7568 213.747 39.4305 213.516 39.2965C213.284 39.1625 213.096 39.2718 213.096 39.5398Z" fill="#706F6F"/>
<path d="M212.056 43.1678C212.056 43.4358 212.244 43.7621 212.475 43.8961C212.707 44.0301 212.896 43.9209 212.896 43.6529C212.896 43.3848 212.708 43.0586 212.475 42.9245C212.244 42.792 212.056 42.9012 212.056 43.1678Z" fill="#706F6F"/>
<path d="M213.515 47.0432C213.515 47.3113 213.703 47.6376 213.935 47.7716C214.166 47.9056 214.354 47.7963 214.354 47.5283C214.354 47.2603 214.166 46.934 213.935 46.8015C213.703 46.6674 213.515 46.7767 213.515 47.0432Z" fill="#706F6F"/>
<path d="M216.309 49.7566C216.309 50.0246 216.496 50.3509 216.728 50.4849C216.96 50.6189 217.149 50.5097 217.149 50.2417C217.149 49.9736 216.961 49.6473 216.728 49.5133C216.496 49.3793 216.309 49.4886 216.309 49.7566Z" fill="#706F6F"/>
<path d="M219.31 50.1502C219.31 50.4182 219.497 50.7445 219.729 50.8785C219.961 51.0125 220.149 50.9032 220.149 50.6352C220.149 50.3672 219.961 50.0409 219.729 49.9069C219.497 49.7729 219.31 49.8821 219.31 50.1502Z" fill="#706F6F"/>
<path d="M220.053 46.8033C220.053 47.0713 220.241 47.3976 220.472 47.5316C220.704 47.6656 220.892 47.5564 220.892 47.2883C220.892 47.0203 220.704 46.694 220.472 46.5615C220.241 46.4275 220.053 46.5353 220.053 46.8033Z" fill="#706F6F"/>
<path d="M217.998 46.8033C217.998 47.0713 218.186 47.3976 218.418 47.5316C218.649 47.6656 218.837 47.5564 218.837 47.2883C218.837 47.0203 218.649 46.694 218.418 46.5615C218.187 46.4275 217.998 46.5353 217.998 46.8033Z" fill="#706F6F"/>
<path d="M216.729 44.3199C216.729 44.5879 216.916 44.9142 217.149 45.0482C217.381 45.1822 217.569 45.073 217.569 44.8064C217.569 44.5384 217.381 44.2121 217.149 44.0781C216.916 43.9441 216.729 44.0518 216.729 44.3199Z" fill="#706F6F"/>
<path d="M215.294 42.6267C215.294 42.8947 215.482 43.221 215.713 43.355C215.945 43.489 216.133 43.3798 216.133 43.1118C216.133 42.8438 215.945 42.5175 215.713 42.3835C215.482 42.2494 215.294 42.3587 215.294 42.6267Z" fill="#706F6F"/>
<path d="M213.743 42.0837C213.743 42.3518 213.931 42.678 214.162 42.8121C214.394 42.9461 214.583 42.8368 214.583 42.5688C214.583 42.3008 214.395 41.9745 214.162 41.8405C213.932 41.7065 213.743 41.8157 213.743 42.0837Z" fill="#706F6F"/>
<path d="M213.936 43.9878C213.936 44.2559 214.124 44.5821 214.356 44.7162C214.587 44.8502 214.775 44.7409 214.775 44.4744C214.775 44.2064 214.587 43.8801 214.356 43.7461C214.124 43.612 213.936 43.7198 213.936 43.9878Z" fill="#706F6F"/>
<path d="M214.873 46.2615C214.873 46.5295 215.061 46.8558 215.293 46.9898C215.524 47.1238 215.712 47.0146 215.712 46.7465C215.712 46.4785 215.524 46.1522 215.293 46.0182C215.061 45.8842 214.873 45.9934 214.873 46.2615Z" fill="#706F6F"/>
<path d="M215.713 44.8624C215.713 45.1304 215.901 45.4567 216.133 45.5907C216.364 45.7247 216.552 45.6155 216.552 45.3475C216.552 45.0794 216.364 44.7532 216.133 44.6191C215.901 44.4866 215.713 44.5944 215.713 44.8624Z" fill="#706F6F"/>
<path d="M216.729 47.5871C216.729 47.8552 216.916 48.1815 217.149 48.3155C217.381 48.4495 217.569 48.3402 217.569 48.0722C217.569 47.8042 217.381 47.4779 217.149 47.3453C216.916 47.2098 216.729 47.3191 216.729 47.5871Z" fill="#706F6F"/>
<path d="M244.827 89.0483C238.46 89.0483 232.093 87.4023 226.415 84.1117L149.657 39.6198C147.021 38.0933 145.451 35.365 145.453 32.3191C145.456 29.2747 147.032 26.5493 149.668 25.0272L192.127 0.864271C192.651 0.561288 193.318 0.747737 193.617 1.27213C193.915 1.79652 193.733 2.46365 193.209 2.76081L150.755 26.9208C148.807 28.0453 147.641 30.0642 147.638 32.3206C147.636 34.5755 148.8 36.5973 150.752 37.7291L227.51 82.221C238.171 88.3972 251.421 88.4088 262.088 82.2501L297.687 62.0479C298.214 61.7492 298.878 61.9357 299.176 62.4587C299.473 62.983 299.289 63.6502 298.765 63.9474L263.172 84.1452C257.516 87.414 251.17 89.0483 244.827 89.0483Z" fill="#CCCCCC"/>
<path d="M273.095 243.933V237.241H279.211V243.933C279.211 244.385 278.913 244.836 278.315 245.181C277.121 245.87 275.185 245.87 273.991 245.181C273.393 244.836 273.095 244.385 273.095 243.933Z" fill="#3C3C3B"/>
<path d="M230.541 266.758V260.066H236.657V266.758C236.657 267.21 236.358 267.661 235.761 268.007C234.567 268.696 232.631 268.696 231.436 268.007C230.839 267.663 230.541 267.211 230.541 266.758Z" fill="#3C3C3B"/>
<path d="M147.287 221.097V214.405H153.404V221.097C153.404 221.549 153.105 222 152.508 222.345C151.313 223.034 149.377 223.034 148.183 222.345C147.586 222 147.287 221.549 147.287 221.097Z" fill="#3C3C3B"/>
<path d="M152.668 220.665L222.634 261.059C235.727 268.619 246.343 262.491 246.343 247.371V232.284L128.959 164.514V179.6C128.958 194.72 139.573 213.105 152.668 220.665Z" fill="#CCCCCC"/>
<path d="M168.454 141.686L285.838 209.456V224.543C285.838 232.183 283.124 237.523 278.754 239.966V239.967L239.77 262.484L245.517 228.642L192.163 197.838C179.069 190.278 168.454 171.894 168.454 156.774V141.686Z" fill="#CCCCCC"/>
<path d="M121.721 170.733L239.212 238.567C245.912 242.436 256.776 242.436 263.476 238.567L296.802 219.326C303.502 215.458 303.502 209.185 296.802 205.316L179.311 137.482C172.611 133.613 161.747 133.613 155.046 137.482L121.721 156.723C115.021 160.591 115.021 166.864 121.721 170.733Z" fill="#E6E6E6"/>
<path d="M121.721 168.245L239.212 236.08C245.912 239.949 256.776 239.949 263.476 236.08L296.802 216.839C303.502 212.97 303.502 206.698 296.802 202.829L179.311 134.994C172.611 131.126 161.747 131.126 155.046 134.994L121.721 154.235C115.021 158.104 115.021 164.376 121.721 168.245Z" fill="#EDEDED"/>
<path d="M283.551 208.662C282.868 209.539 281.915 210.364 280.668 211.079L258.338 223.961L253.494 226.768C249.918 228.838 244.903 229.553 240.331 228.902C237.892 228.588 235.585 227.872 233.688 226.768L168.929 189.378L167.012 188.272L157.574 182.833L137.854 171.435C132.383 168.282 132.383 163.156 137.854 160.004L165.028 144.305C165.645 143.948 166.307 143.633 167.01 143.362C172.459 141.195 179.98 141.509 184.822 144.305L280.667 199.648C281.912 200.364 282.866 201.176 283.549 202.053C285.175 204.144 285.175 206.56 283.551 208.662Z" fill="#E6E6E6"/>
<path d="M157.577 182.831L168.925 189.378L233.689 226.769C235.585 227.872 237.893 228.584 240.329 228.906C244.901 229.55 249.921 228.837 253.493 226.769L258.34 223.966L178.322 177.766C175.014 175.848 169.649 175.848 166.341 177.766L157.577 182.831Z" fill="#F6F6F6"/>
<path d="M144.128 146.255C142.591 147.142 142.591 148.58 144.128 149.467C145.664 150.354 148.154 150.354 149.691 149.467C151.226 148.58 151.226 147.142 149.691 146.255C148.154 145.368 145.664 145.368 144.128 146.255Z" fill="#CBCBCB"/>
<path d="M150.841 138.111H142.975V147.861H150.841V138.111Z" fill="#CBCBCB"/>
<path d="M143.021 137.591C143.13 138.066 143.496 138.51 144.128 138.876C145.66 139.766 148.151 139.766 149.694 138.876V139.498C150.593 138.974 150.968 138.263 150.801 137.59C150.692 137.115 150.316 136.65 149.694 136.285C148.151 135.395 145.66 135.395 144.128 136.285C143.496 136.652 143.13 137.116 143.021 137.591Z" fill="#E52205"/>
<path d="M143.021 137.591C143.131 138.066 143.496 138.51 144.128 138.876C145.661 139.766 148.152 139.766 149.694 138.876C150.316 138.51 150.692 138.065 150.801 137.591C150.969 136.91 150.603 136.197 149.694 135.674C148.152 134.784 145.661 134.784 144.128 135.674C143.219 136.197 142.854 136.908 143.021 137.591Z" fill="#CCCCCC"/>
<path d="M144.128 130.387C142.591 131.274 142.591 132.712 144.128 133.599C145.664 134.486 148.154 134.486 149.691 133.599C151.226 132.712 151.226 131.274 149.691 130.387C148.154 129.5 145.664 129.5 144.128 130.387Z" fill="#CCCCCC"/>
<path d="M150.829 132.129H142.975V137.111H150.829V132.129Z" fill="#CCCCCC"/>
<path d="M150.821 140.119L165.763 146.689C166.471 147 167.169 147.854 167.681 149.037C168.194 150.22 168.477 151.622 168.454 152.891C168.454 152.922 168.452 152.951 168.452 152.98L165.156 154.779C165.156 154.343 163.568 152.418 163.387 152.021C163.208 151.625 163.272 150.198 163.032 150.104L150.822 143.95L147.523 142.138L150.821 140.119Z" fill="#DADADA"/>
<path d="M147.521 142.008L162.464 148.577C163.172 148.889 163.868 149.743 164.382 150.925C164.896 152.108 165.178 153.511 165.154 154.78C165.154 154.81 165.153 154.839 165.153 154.87L162.614 153.405C162.614 152.969 162.512 152.494 162.333 152.098C162.154 151.703 161.913 151.424 161.674 151.33L147.524 145.842V142.008H147.521Z" fill="#8F8F8F"/>
<path d="M150.259 134.132L160.052 134.668C160.299 134.681 160.456 134.491 160.456 134.179C160.456 133.822 160.31 133.401 160.061 133.044C159.812 132.687 159.492 132.437 159.196 132.368L148.385 129.861V131.069C149.518 131.777 150.198 132.92 150.259 134.132Z" fill="#CCCCCC"/>
<path d="M158.168 135.81L160.393 134.462L148.384 129.859L146.246 131.095L158.168 135.81Z" fill="#CCCCCC"/>
<path d="M148.119 135.368L157.913 135.904C158.16 135.917 158.317 135.726 158.317 135.414C158.317 135.057 158.171 134.636 157.922 134.279C157.674 133.923 157.353 133.672 157.057 133.604L146.246 131.097V132.303C147.379 133.011 148.059 134.154 148.119 135.368Z" fill="#DADADA"/>
<path d="M144.128 139.499C145.66 140.389 148.151 140.389 149.694 139.499V138.877C148.151 139.767 145.66 139.767 144.128 138.877C143.496 138.511 143.13 138.065 143.021 137.592C142.853 138.263 143.229 138.976 144.128 139.499Z" fill="#1282D7"/>
<g opacity="0.75">
<path d="M286.715 207.235C286.032 208.113 281.916 210.367 280.669 211.082L278.611 212.263L270.354 217.031L265.706 219.718L261.686 222.037L258.338 223.966L253.495 226.773C253.256 226.914 253.007 227.044 252.758 227.152C250.417 228.343 247.568 228.993 244.665 229.112C243.224 229.178 241.75 229.112 240.331 228.907C237.893 228.592 235.586 227.877 233.689 226.773L225.021 221.766L216.678 216.945H216.667L209.96 213.066L200.632 207.692L183.827 197.984L173.522 192.035L168.928 189.381L167.011 188.275C161.659 137.633 168.452 94.8895 167.011 52.5039C170.402 55.8309 173.881 58.4194 177.608 59.0909C177.965 59.1564 178.301 59.2744 178.616 59.4477C178.973 59.6313 179.299 59.8702 179.602 60.1513C179.927 60.4543 180.252 60.7471 180.567 61.0297V61.0399C183.882 63.9648 187.089 65.6342 190.199 66.2955C190.763 66.4149 191.293 66.696 191.749 67.0646C191.869 67.1622 191.988 67.2598 192.096 67.3676C193.57 68.798 195.043 69.9997 196.539 71.0296C199.79 73.283 203.083 74.6814 206.409 75.5918C207.102 75.787 207.732 76.1555 208.24 76.6756C208.565 77.0106 208.901 77.3369 209.248 77.6398C210.342 78.658 211.491 79.5786 212.683 80.4133C216.399 83.0134 220.538 84.7905 224.904 86.1554C225.424 86.3186 225.9 86.588 226.313 86.9464C226.691 87.261 227.072 87.564 227.46 87.8451C228.825 88.8415 230.278 89.6324 231.806 90.2398C235.424 91.6805 239.412 92.049 243.355 91.4532C243.67 91.4095 243.983 91.3993 244.298 91.4314C250.658 92.049 256.421 91.2581 261.406 87.6499C261.623 87.4868 261.85 87.3251 262.067 87.1518C262.62 86.7177 263.259 86.3826 263.952 86.2952C264.472 86.2195 264.982 86.1219 265.459 85.9923C268.156 85.331 270.248 83.934 272.047 82.1889C272.469 81.7884 272.86 81.366 273.25 80.9319C273.868 80.2487 274.702 79.8263 275.601 79.6646C275.611 79.6544 275.611 79.6544 275.623 79.6544C278.743 79.1125 281.279 77.0426 283.554 74.3026C280.3 110.155 293.4 146.018 286.715 207.235Z" fill="#ACC3B7"/>
<path opacity="0.05" d="M183.828 197.983L173.523 192.034C173.751 180.538 173.968 169.042 174.195 157.536C174.271 153.386 174.358 149.236 174.607 145.086C175.539 129.668 178.855 114.283 177.5 98.8975C178.323 101.173 178.843 103.524 179.169 105.908C179.873 111.142 179.603 116.559 179.311 121.857C179.03 126.808 178.759 131.749 178.488 136.69C178.325 139.746 178.151 142.801 178.444 145.845C178.737 149.019 179.528 152.129 180.134 155.261C182.842 169.303 181.823 183.865 183.828 197.983Z" fill="#1D1D1B"/>
<path opacity="0.05" d="M183.513 107.663C182.658 107.371 182.344 106.428 182.246 105.464C182.214 105.149 182.202 104.824 182.202 104.521C182.246 90.1326 177.229 73.7292 178.616 59.4482C178.973 59.6318 179.299 59.8707 179.602 60.1518C179.927 60.4548 180.252 60.7476 180.566 61.0302V61.0404C181.368 75.9929 187.132 93.1551 183.513 107.663Z" fill="#1D1D1B"/>
<path opacity="0.05" d="M196.32 72.7755C194.76 83.7951 194.782 97.1321 194.792 108.259C194.814 127.946 194.835 147.633 194.868 167.331C191.931 158.1 190.23 148.478 189.819 138.792C189.06 121.369 192.473 103.97 191.813 86.5467C191.586 80.7609 190.935 72.7434 191.747 67.0654C191.867 67.163 191.986 67.2606 192.094 67.3684C193.568 68.7989 195.041 70.0006 196.537 71.0304C196.481 71.616 196.396 72.2016 196.32 72.7755Z" fill="#1D1D1B"/>
<path opacity="0.05" d="M209.961 213.064L200.632 207.69C200.068 205.784 199.851 203.747 199.797 201.753C199.656 196.358 200.676 191.016 201.152 185.653C202.561 169.921 199.407 153.582 204.348 138.587C206.255 142.261 205.984 146.638 205.768 150.776C204.674 171.609 206.083 192.564 209.961 213.064Z" fill="#1D1D1B"/>
<path opacity="0.05" d="M225.022 221.765L216.679 216.943H216.668C216.202 215.794 215.855 214.592 215.618 213.4C214.512 207.832 215.336 202.088 215.769 196.422C217.827 169.129 210.535 141.002 217.915 114.651C218.608 120.535 219.02 126.45 219.15 132.377C219.258 137.394 219.162 142.399 219.15 147.416C219.095 172.292 221.055 197.191 225.022 221.765Z" fill="#1D1D1B"/>
<path opacity="0.05" d="M252.758 227.149C250.417 228.341 247.568 228.99 244.665 229.11C248.165 204.742 239.757 180.201 239.594 155.574C239.551 150.015 239.929 144.468 240.32 138.932C240.883 130.719 241.447 122.507 242.009 114.294C243.223 118.205 242.942 122.399 242.693 126.483C242.356 131.879 242.085 137.274 241.87 142.681C241.706 146.895 241.577 151.133 241.762 155.358C242.78 179.606 253.864 203.03 252.758 227.149Z" fill="#1D1D1B"/>
<path opacity="0.05" d="M230.373 97.3805C224.729 114.521 231.75 133.352 228.987 151.176C227.351 150.06 227.09 147.795 227.08 145.813C227.07 141.619 227.524 137.427 227.253 133.245C227.036 129.939 226.365 126.678 225.942 123.385C224.512 112.301 225.835 98.9303 227.459 87.8467C228.824 88.843 230.276 89.634 231.804 90.2414C231.577 91.9311 230.915 95.7446 230.373 97.3805Z" fill="#1D1D1B"/>
<path opacity="0.05" d="M212.679 80.4131C212.614 80.6403 212.55 80.869 212.484 81.0846C211.781 83.338 210.902 87.6934 210.414 90.0022C209.504 94.2717 209.916 98.9417 207.782 102.744C207.013 95.1165 208.832 85.2987 209.245 77.6396C210.34 78.6578 211.488 79.5784 212.679 80.4131Z" fill="#1D1D1B"/>
<path opacity="0.05" d="M265.728 218.201C265.728 218.699 265.728 219.209 265.706 219.717L261.685 222.036C261.869 214.81 261.869 207.528 260.179 200.507C259.225 196.52 257.752 192.685 256.603 188.752C254.23 180.615 253.288 172.066 253.84 163.604C255.822 174.341 258.52 184.949 261.913 195.319C263.05 198.807 264.264 202.274 264.935 205.882C265.674 209.933 265.706 214.083 265.728 218.201Z" fill="#1D1D1B"/>
<path opacity="0.05" d="M270.354 217.031C271.221 207.832 270.842 198.514 269.238 189.413C268.491 185.165 267.473 180.961 266.941 176.671C266.443 172.717 266.367 168.708 266.356 164.721C266.312 148.23 267.386 131.772 268.448 115.314C271.936 130.028 268.296 145.501 270.018 160.517C270.799 167.387 272.705 174.071 274.19 180.833C276.465 191.169 277.764 201.701 278.611 212.265L270.354 217.031Z" fill="#1D1D1B"/>
<path opacity="0.05" d="M278.503 133.429C278.34 139.756 277.018 145.996 275.718 152.183C272.088 146.766 274.58 139.593 275.078 133.092C275.652 125.529 273.323 118.075 272.673 110.512C271.936 101.812 273.42 90.804 272.045 82.1894C272.468 81.7888 272.858 81.3664 273.249 80.9324C273.866 80.2492 274.701 79.8267 275.6 79.665C275.61 91.6693 276.249 105.843 277.463 117.783C277.993 122.984 278.643 128.196 278.503 133.429Z" fill="#1D1D1B"/>
<path opacity="0.05" d="M265.457 85.9941C264.959 95.4522 263.887 107.057 262.239 116.386C259.314 110.004 261.6 100.427 261.763 93.4158C261.806 91.4872 261.687 89.5586 261.404 87.6518C261.621 87.4887 261.849 87.327 262.066 87.1537C262.618 86.7196 263.257 86.3845 263.951 86.2971C264.471 86.2214 264.981 86.1238 265.457 85.9941Z" fill="#1D1D1B"/>
</g>
<path d="M167.227 47.2873L167.213 47.2727L166.586 46.9085H166.572C166.047 47.3747 165.596 48.0011 165.275 48.6711L166.222 49.2247C166.528 48.54 167.009 47.8991 167.562 47.4767L167.227 47.2873ZM167.227 47.2873L167.213 47.2727L166.586 46.9085H166.572C166.047 47.3747 165.596 48.0011 165.275 48.6711L166.222 49.2247C166.528 48.54 167.009 47.8991 167.562 47.4767L167.227 47.2873ZM168.64 45.9326C168.218 45.9326 167.781 46.0637 167.329 46.3259C167.067 46.4861 166.819 46.6609 166.586 46.9085H166.572C166.047 47.3747 165.596 48.0011 165.275 48.6711C164.94 49.3703 164.736 50.1132 164.736 50.8124C164.736 52.1379 165.465 53.0119 166.557 53.0119C166.717 53.0119 166.863 52.9974 167.023 52.9537C167.14 52.9391 167.256 52.8954 167.373 52.8517C167.533 52.7934 167.708 52.7206 167.868 52.6332C168.48 52.2836 169.033 51.7301 169.441 51.0892H169.456C169.878 50.4774 170.199 49.7782 170.33 49.079C170.417 48.7585 170.461 48.4381 170.461 48.1322C170.461 46.8212 169.733 45.9326 168.64 45.9326ZM168.509 50.5502C168.174 51.0309 167.766 51.4388 167.329 51.6864C167.052 51.8466 166.79 51.934 166.557 51.934C165.887 51.934 165.814 51.1474 165.814 50.8124C165.814 50.3026 165.96 49.749 166.222 49.2247C166.528 48.54 167.009 47.8991 167.562 47.4767C167.664 47.4038 167.766 47.331 167.868 47.2727C168.145 47.1125 168.407 47.0251 168.64 47.0251C169.31 47.0251 169.383 47.7971 169.383 48.1322C169.383 48.2487 169.368 48.3798 169.354 48.5109C169.266 49.1955 168.946 49.9238 168.509 50.5502ZM167.227 47.2873L167.213 47.2727L166.586 46.9085H166.572C166.047 47.3747 165.596 48.0011 165.275 48.6711L166.222 49.2247C166.528 48.54 167.009 47.8991 167.562 47.4767L167.227 47.2873Z" fill="#A93939"/>
<path d="M178.007 53.522C177.497 54.0318 177.074 54.6727 176.783 55.3428L177.745 55.8963C178.007 55.2117 178.458 54.5417 178.983 54.0901L178.007 53.522ZM178.007 53.522C177.497 54.0318 177.074 54.6727 176.783 55.3428L177.745 55.8963C178.007 55.2117 178.458 54.5417 178.983 54.0901L178.007 53.522ZM180.25 52.4004C179.828 52.4004 179.391 52.5315 178.939 52.7937C178.604 52.983 178.298 53.2307 178.007 53.522C177.497 54.0318 177.074 54.6727 176.783 55.3428C176.506 55.9837 176.346 56.6538 176.346 57.2802C176.346 57.9794 176.55 58.5474 176.914 58.9407C177.235 59.2903 177.672 59.4797 178.182 59.4797C178.313 59.4797 178.444 59.4651 178.575 59.436C178.866 59.3777 179.172 59.2612 179.478 59.0864C180.032 58.7805 180.527 58.2998 180.935 57.7463C181.372 57.149 181.721 56.4644 181.896 55.7798C182.013 55.372 182.071 54.9787 182.071 54.5999C182.071 53.289 181.342 52.4004 180.25 52.4004ZM179.988 57.2073C179.682 57.6006 179.318 57.9356 178.939 58.1541C178.662 58.3144 178.4 58.4018 178.182 58.4018C177.511 58.4018 177.439 57.6152 177.439 57.2802C177.439 56.8432 177.555 56.3625 177.745 55.8963C178.007 55.2117 178.458 54.5417 178.983 54.0901C179.143 53.9444 179.303 53.8279 179.478 53.7259C179.755 53.5657 180.032 53.4929 180.25 53.4929C180.92 53.4929 180.993 54.2649 180.993 54.5999C180.993 54.8039 180.964 55.0078 180.92 55.2117C180.789 55.8963 180.454 56.6247 179.988 57.2073ZM178.007 53.522C177.497 54.0318 177.074 54.6727 176.783 55.3428L177.745 55.8963C178.007 55.2117 178.458 54.5417 178.983 54.0901L178.007 53.522Z" fill="#A93939"/>
<path d="M190.956 61.039L190.607 60.8351C190.111 61.374 189.733 62.0295 189.485 62.7141L190.432 63.2531C190.665 62.5684 191.058 61.8984 191.553 61.3886L190.956 61.039ZM190.956 61.039L190.607 60.8351C190.111 61.374 189.733 62.0295 189.485 62.7141L190.432 63.2531C190.665 62.5684 191.058 61.8984 191.553 61.3886L190.956 61.039ZM193.068 59.4658C192.646 59.4658 192.209 59.5969 191.757 59.8445C191.335 60.0921 190.942 60.4272 190.607 60.8351C190.111 61.374 189.733 62.0295 189.485 62.7141C189.281 63.2531 189.165 63.8066 189.165 64.3456C189.165 65.2195 189.485 65.9042 190.024 66.2538C190.257 66.4286 190.548 66.516 190.869 66.5305C190.869 66.5305 190.883 66.5451 190.898 66.5305C190.927 66.5451 190.956 66.5451 190.985 66.5451C191.408 66.5451 191.859 66.414 192.296 66.1518C192.762 65.8896 193.185 65.5109 193.534 65.0593C194.015 64.5058 194.394 63.8358 194.612 63.1511C194.787 62.6559 194.889 62.146 194.889 61.6653C194.889 60.3398 194.161 59.4658 193.068 59.4658ZM192.588 64.5058C192.34 64.7971 192.049 65.0448 191.757 65.2196C191.481 65.3652 191.218 65.4526 190.985 65.4526C190.315 65.4526 190.242 64.6806 190.242 64.3456C190.242 63.996 190.315 63.6172 190.432 63.2531C190.665 62.5684 191.058 61.8984 191.553 61.3886H191.568C191.801 61.1409 192.034 60.937 192.296 60.7914C192.573 60.6311 192.835 60.5437 193.068 60.5437C193.738 60.5437 193.811 61.3303 193.811 61.6653C193.811 61.9567 193.753 62.2771 193.666 62.5976V62.6122C193.462 63.2968 193.068 63.9814 192.588 64.5058ZM190.956 61.039L190.607 60.8351C190.111 61.374 189.733 62.0295 189.485 62.7141L190.432 63.2531C190.665 62.5684 191.058 61.8984 191.553 61.3886L190.956 61.039Z" fill="#A93939"/>
<path d="M207.169 70.4341C206.674 70.973 206.281 71.6139 206.019 72.2986L206.98 72.8521C207.213 72.1675 207.621 71.4829 208.131 70.9876L207.169 70.4341ZM207.169 70.4341C206.674 70.973 206.281 71.6139 206.019 72.2986L206.98 72.8521C207.213 72.1675 207.621 71.4829 208.131 70.9876L207.169 70.4341ZM209.573 69.123C209.15 69.123 208.713 69.2542 208.262 69.5164C207.868 69.7494 207.49 70.0699 207.169 70.4341C206.674 70.973 206.281 71.6139 206.019 72.2986C205.8 72.8667 205.669 73.4493 205.669 74.0028C205.669 74.6146 205.829 75.1244 206.106 75.5032C206.426 75.9547 206.922 76.2024 207.504 76.2024C207.548 76.2024 207.592 76.2024 207.65 76.1878C208.014 76.1732 208.407 76.0421 208.801 75.8236C209.281 75.5469 209.733 75.139 210.097 74.6583H210.112C210.563 74.0902 210.927 73.4348 211.146 72.7501V72.7356C211.306 72.2694 211.394 71.7887 211.394 71.3226C211.394 70.0116 210.665 69.123 209.573 69.123ZM209.15 74.1048C208.888 74.4253 208.582 74.6875 208.262 74.8768C207.985 75.0371 207.723 75.1245 207.504 75.1245C206.82 75.1245 206.761 74.3379 206.761 74.0028C206.761 73.6387 206.834 73.2454 206.98 72.8521C207.213 72.1675 207.621 71.4829 208.131 70.9876C208.335 70.7837 208.568 70.5943 208.801 70.4632C209.078 70.303 209.354 70.2155 209.573 70.2155C210.243 70.2155 210.316 70.9876 210.316 71.3226C210.316 71.5994 210.272 71.8907 210.185 72.182C210.01 72.8666 209.631 73.5658 209.15 74.1048ZM207.169 70.4341C206.674 70.973 206.281 71.6139 206.019 72.2986L206.98 72.8521C207.213 72.1675 207.621 71.4829 208.131 70.9876L207.169 70.4341Z" fill="#A93939"/>
<path d="M261.037 80.995C260.585 80.7473 260.148 80.6162 259.726 80.6162C258.633 80.6162 257.89 81.4902 257.89 82.8158C257.89 83.2673 257.978 83.7334 258.123 84.1996C258.138 84.2141 258.138 84.1996 258.138 84.1996C258.152 84.1996 258.152 84.1996 258.152 84.1996C258.225 84.1704 258.298 84.1413 258.371 84.0976C258.517 84.0539 258.662 83.9811 258.793 83.9228C258.895 83.8791 258.997 83.8354 259.099 83.7772C259.114 83.7772 259.114 83.7772 259.114 83.7772C259.128 83.7772 259.128 83.7772 259.128 83.7772V83.7626C259.041 83.4421 258.983 83.1217 258.983 82.8158C258.983 82.4807 259.055 81.6941 259.726 81.6941C259.944 81.6941 260.206 81.7815 260.483 81.9418C260.789 82.1166 261.08 82.3642 261.342 82.6555C261.59 82.5244 261.838 82.3933 262.085 82.2476L262.304 82.1166C261.94 81.6504 261.503 81.2717 261.037 80.995ZM263.367 84.0539C263.149 83.3547 262.784 82.6846 262.304 82.1166C261.94 81.6504 261.503 81.2717 261.037 80.995C260.585 80.7473 260.148 80.6162 259.726 80.6162C258.633 80.6162 257.89 81.4902 257.89 82.8158C257.89 83.2673 257.978 83.7334 258.123 84.1996C258.123 84.2141 258.138 84.2141 258.138 84.2141C258.356 84.8988 258.72 85.5688 259.172 86.1369H259.187C259.551 86.6176 260.002 87.0255 260.483 87.3022C260.789 87.477 261.095 87.6081 261.401 87.6518C261.415 87.6518 261.415 87.6518 261.415 87.6518C261.546 87.6809 261.663 87.6955 261.794 87.6955C262.333 87.6955 262.814 87.4625 263.149 87.0546C263.294 86.8653 263.411 86.6467 263.484 86.3991C263.586 86.1223 263.629 85.831 263.629 85.496C263.629 85.0299 263.542 84.5346 263.367 84.0539ZM261.037 86.3554C260.745 86.1952 260.468 85.9621 260.206 85.6854V85.6708C259.726 85.1464 259.332 84.4618 259.128 83.7772V83.7626C259.041 83.4421 258.983 83.1217 258.983 82.8158C258.983 82.4807 259.055 81.6941 259.726 81.6941C259.944 81.6941 260.206 81.7815 260.483 81.9418C260.789 82.1166 261.08 82.3642 261.342 82.6555C261.823 83.1945 262.216 83.9083 262.406 84.5929C262.493 84.8988 262.537 85.2047 262.537 85.496C262.537 85.8747 262.449 86.1806 262.304 86.37C262.173 86.5302 262.012 86.603 261.794 86.603C261.575 86.603 261.313 86.5156 261.037 86.3554ZM261.037 80.995C260.585 80.7473 260.148 80.6162 259.726 80.6162C258.633 80.6162 257.89 81.4902 257.89 82.8158C257.89 83.2673 257.978 83.7334 258.123 84.1996C258.138 84.2141 258.138 84.1996 258.138 84.1996C258.152 84.1996 258.152 84.1996 258.152 84.1996C258.225 84.1704 258.298 84.1413 258.371 84.0976C258.517 84.0539 258.662 83.9811 258.793 83.9228C258.895 83.8791 258.997 83.8354 259.099 83.7772C259.114 83.7772 259.114 83.7772 259.114 83.7772C259.128 83.7772 259.128 83.7772 259.128 83.7772V83.7626C259.041 83.4421 258.983 83.1217 258.983 82.8158C258.983 82.4807 259.055 81.6941 259.726 81.6941C259.944 81.6941 260.206 81.7815 260.483 81.9418C260.789 82.1166 261.08 82.3642 261.342 82.6555C261.59 82.5244 261.838 82.3933 262.085 82.2476L262.304 82.1166C261.94 81.6504 261.503 81.2717 261.037 80.995Z" fill="#A93939"/>
<path d="M271.028 75.5173C270.591 75.2551 270.139 75.124 269.731 75.124C268.639 75.124 267.896 76.0125 267.896 77.3235C267.896 77.8042 267.983 78.2995 268.158 78.7948H268.173L268.566 78.5763H268.581L268.77 78.4597L269.134 78.2558V78.2412C269.032 77.9208 268.988 77.6149 268.988 77.3235C268.988 76.9885 269.047 76.2019 269.731 76.2019C269.95 76.2019 270.212 76.2893 270.489 76.4496C270.751 76.5952 270.999 76.8137 271.232 77.0468L272.193 76.5078C271.844 76.1 271.45 75.7649 271.028 75.5173ZM271.028 75.5173C270.591 75.2551 270.139 75.124 269.731 75.124C268.639 75.124 267.896 76.0125 267.896 77.3235C267.896 77.8042 267.983 78.2995 268.158 78.7948H268.173L268.566 78.5763L268.755 78.4597H268.77L269.134 78.2558V78.2412C269.032 77.9208 268.988 77.6149 268.988 77.3235C268.988 76.9885 269.047 76.2019 269.731 76.2019C269.95 76.2019 270.212 76.2893 270.489 76.4496C270.751 76.5952 270.999 76.8137 271.232 77.0468L272.193 76.5078C271.844 76.1 271.45 75.7649 271.028 75.5173ZM273.3 78.4015C273.067 77.7169 272.674 77.0468 272.193 76.5078C271.844 76.1 271.45 75.7649 271.028 75.5173C270.591 75.2551 270.139 75.124 269.731 75.124C268.639 75.124 267.896 76.0125 267.896 77.3235C267.896 77.8042 267.983 78.2995 268.158 78.7948C268.158 78.7948 268.158 78.7948 268.173 78.8093C268.391 79.494 268.77 80.164 269.236 80.7175C269.6 81.1691 270.023 81.5478 270.489 81.81C270.94 82.0722 271.377 82.2033 271.8 82.2033C271.887 82.2033 271.975 82.2033 272.062 82.1742C272.499 82.1159 272.878 81.8974 273.155 81.5624C273.344 81.3148 273.475 81.0089 273.548 80.6593C273.591 80.4553 273.621 80.2368 273.621 80.0038C273.621 79.4794 273.519 78.9404 273.3 78.4015ZM271.8 81.1108C271.567 81.1108 271.305 81.038 271.028 80.8778C270.736 80.703 270.445 80.4699 270.183 80.1786C269.717 79.6396 269.324 78.9404 269.134 78.2558V78.2412C269.032 77.9208 268.988 77.6149 268.988 77.3235C268.988 76.9885 269.047 76.2019 269.731 76.2019C269.95 76.2019 270.212 76.2893 270.489 76.4496C270.751 76.5952 270.999 76.8137 271.232 77.0468C271.727 77.5712 272.135 78.2558 272.353 78.9404C272.47 79.3046 272.543 79.6687 272.543 80.0038C272.543 80.3825 272.455 80.6884 272.31 80.8923C272.179 81.038 272.018 81.1108 271.8 81.1108Z" fill="#A93939"/>
<path d="M284.197 72.2252C283.993 71.5406 283.643 70.856 283.177 70.2879V70.2733C282.784 69.778 282.332 69.3702 281.837 69.0788C281.4 68.8166 280.948 68.6855 280.54 68.6855C279.448 68.6855 278.705 69.5741 278.705 70.8851C278.705 71.4386 278.836 72.0358 279.069 72.6039V72.6185C279.317 73.3031 279.725 73.9441 280.22 74.483C280.54 74.8472 280.905 75.1531 281.298 75.3861C281.633 75.5755 281.953 75.692 282.274 75.7357C282.39 75.7503 282.492 75.7649 282.609 75.7649C282.915 75.7649 283.221 75.692 283.468 75.5463C283.658 75.4444 283.818 75.2987 283.964 75.124C284.269 74.7452 284.43 74.2063 284.43 73.5653C284.43 73.1283 284.357 72.6768 284.197 72.2252ZM281.837 74.4393C281.618 74.3082 281.4 74.1334 281.196 73.9295C280.686 73.4488 280.264 72.7642 280.031 72.0796C280.016 72.0796 280.016 72.0795 280.016 72.065C279.87 71.6717 279.798 71.2638 279.798 70.8851C279.798 70.5501 279.87 69.778 280.54 69.778C280.759 69.778 281.021 69.8509 281.298 70.0111C281.633 70.215 281.953 70.4918 282.216 70.8268C282.711 71.3803 283.075 72.0795 283.235 72.7641C283.308 73.0409 283.352 73.3031 283.352 73.5653C283.352 73.9586 283.264 74.2645 283.119 74.4539C282.988 74.6141 282.827 74.6869 282.609 74.6869C282.39 74.6869 282.114 74.5996 281.837 74.4393Z" fill="#A93939"/>
<path d="M227.285 79.2617C226.862 79.2617 226.425 79.3928 225.974 79.655C225.551 79.9026 225.143 80.2522 224.808 80.6601C224.313 81.199 223.934 81.8546 223.701 82.5392C223.643 82.6557 223.599 82.7868 223.57 82.9179C223.439 83.3257 223.381 83.7482 223.381 84.1415C223.381 84.462 223.425 84.7533 223.497 85.0155V85.0446C223.614 85.3796 223.789 85.6418 224.007 85.8603L224.022 85.8749C224.328 86.1808 224.736 86.341 225.216 86.341C225.26 86.341 225.289 86.341 225.333 86.3265H225.347C225.712 86.3119 226.119 86.1808 226.513 85.9477C226.979 85.6855 227.401 85.3068 227.765 84.8552C228.232 84.3017 228.61 83.6317 228.829 82.947C228.843 82.9325 228.843 82.9325 228.843 82.9325C229.018 82.4372 229.106 81.9419 229.106 81.4612C229.106 80.1502 228.377 79.2617 227.285 79.2617ZM227.882 82.4372C227.678 83.1218 227.285 83.7919 226.804 84.3308C226.542 84.6076 226.265 84.8407 225.974 85.0155C225.697 85.1757 225.435 85.2631 225.216 85.2631C224.532 85.2631 224.473 84.4765 224.473 84.1415C224.473 83.8065 224.532 83.4423 224.648 83.0927C224.867 82.4081 225.26 81.7234 225.755 81.199C225.988 80.9514 226.25 80.7475 226.513 80.5873C226.789 80.427 227.052 80.3542 227.285 80.3542C227.955 80.3542 228.028 81.1262 228.028 81.4612C228.028 81.7671 227.969 82.0876 227.882 82.4081V82.4372Z" fill="#A93939"/>
<path d="M244.906 91.3912C244.606 91.3912 244.364 91.1494 244.364 90.8493V84.3934C244.364 84.0934 244.606 83.8516 244.906 83.8516C245.206 83.8516 245.448 84.0934 245.448 84.3934V90.8493C245.448 91.1494 245.206 91.3912 244.906 91.3912Z" fill="#A93939"/>
<path d="M38.905 155.142C38.9331 155.156 38.9592 155.172 38.9853 155.188L40.2064 155.893L39.6862 156.795C39.8188 160.597 41.6424 162.519 44.884 163.095L46.2156 163.864L45.2475 165.541L44.633 165.186L43.1809 177.266L32.4801 184.981L31.1485 184.211L29.4434 172.008C32.6849 167.688 34.5086 163.663 34.6411 159.709C34.6411 158.1 35.7719 156.142 37.1657 155.339C37.8244 154.959 38.4209 154.907 38.8708 155.124L38.8728 155.122L38.905 155.142Z" fill="#B54825"/>
<path d="M38.4952 156.11C39.8891 155.304 41.0198 155.957 41.0198 157.566C41.1524 161.368 42.976 163.288 46.2176 163.864L44.5124 178.036L32.48 184.983L30.7749 172.779C34.0165 168.459 35.8401 164.435 35.9727 160.48C35.9707 158.871 37.1014 156.915 38.4952 156.11Z" fill="#F66232"/>
<path d="M37.1294 159.651C37.1294 160.523 37.74 160.874 38.4951 160.441C39.2503 160.007 39.8608 158.946 39.8608 158.075C39.8608 157.203 39.2503 156.852 38.4951 157.285C37.74 157.721 37.1294 158.78 37.1294 159.651Z" fill="#B54825"/>
<path d="M30.772 172.778L31.1475 184.214L51.2357 195.813L48.1989 182.84L30.772 172.778Z" fill="#B54825"/>
<path d="M46.2156 163.863C39.9835 161.262 35.1653 165.921 30.7749 172.778L48.2019 182.84C53.3916 176.548 58.5552 172.415 63.6445 173.925L46.2156 163.863Z" fill="#E0592E"/>
<path d="M43.3956 154.789L51.7787 157.181L52.8933 166.623L50.1559 169.714C48.9548 171.304 41.7848 166.994 42.5099 164.785L43.012 164.122L43.3956 154.789Z" fill="#FFBB7D"/>
<path d="M37.1304 159.648C37.1304 160.52 37.7409 160.871 38.4961 160.438C39.2513 160.004 39.8618 158.943 39.8618 158.072C39.8618 157.2 39.2513 156.849 38.4961 157.282C37.7409 157.718 37.1304 158.777 37.1304 159.648Z" fill="#B54825"/>
<path d="M39.4516 157.193L37.5205 160.538L56.2786 171.368L58.2097 168.024L39.4516 157.193Z" fill="#B54825"/>
<path d="M57.6623 165.975C57.6904 165.989 57.7165 166.005 57.7426 166.021L58.9637 166.726L58.4436 167.628C58.5761 171.43 60.3998 173.35 63.6413 173.926L64.9729 174.695L64.0049 176.372L63.3903 176.017L61.9382 188.097L51.2374 195.812L49.9058 195.042L48.2007 182.839C51.4423 178.519 53.2659 174.494 53.3984 170.54C53.3984 168.931 54.5292 166.973 55.923 166.17C56.5818 165.79 57.1783 165.738 57.6281 165.955L57.6302 165.953L57.6623 165.975Z" fill="#B54825"/>
<path d="M57.2516 166.941C58.6454 166.135 59.7761 166.788 59.7761 168.397C59.9087 172.199 61.7323 174.119 64.9739 174.695L63.2688 188.867L51.2364 195.814L49.5312 183.611C52.7728 179.29 54.5965 175.266 54.729 171.311C54.729 169.702 55.8577 167.746 57.2516 166.941Z" fill="#F66232"/>
<path d="M55.8857 170.481C55.8857 171.353 56.4963 171.704 57.2515 171.271C58.0066 170.835 58.6172 169.776 58.6172 168.905C58.6172 168.033 58.0066 167.682 57.2515 168.115C56.4983 168.551 55.8857 169.61 55.8857 170.481Z" fill="#B54825"/>
<path d="M40.1976 175.352L37.8276 177.491V176.42L40.1976 175.352Z" fill="#9D9D9C"/>
<path d="M39.8653 177.968L40.2951 180.703L39.2427 178.112L39.8653 177.968Z" fill="#878787"/>
<path d="M38.7563 177.327L39.1861 180.065L38.1357 177.474L38.7563 177.327Z" fill="#878787"/>
<path d="M39.1861 180.064L40.2948 180.703L39.2424 178.112L38.1357 177.474L39.1861 180.064Z" fill="#B2B2B2"/>
<path d="M42.0892 176.469L39.7192 178.61V177.539L42.0892 176.469Z" fill="#9D9D9C"/>
<path d="M37.8271 177.493L39.7191 178.612V177.542L37.8271 176.423V177.493Z" fill="#C6C6C6"/>
<path d="M39.7191 177.54L42.089 176.469L40.1971 175.353L37.8271 176.421L39.7191 177.54Z" fill="#EDEDED"/>
<path d="M44.3135 156.874L45.0651 161.505C45.0651 162.708 45.6624 163.832 46.6602 164.505L48.6776 165.866L49.9566 168.67C50.3863 169.612 51.5268 169.991 52.4358 169.492L52.4576 169.48C52.7285 169.331 52.8494 169.005 52.7402 168.715L51.3229 165.133L53.2442 166.242L51.7424 158.702L44.3135 156.874Z" fill="#FFBB7D"/>
<path d="M33.9515 104.027C33.8728 115.571 34.6099 119.535 36.1918 128.041C36.4759 128.952 36.8153 129.658 37.0833 130.465L50.1057 124.78C50.0081 115.623 50.3519 107.083 49.2448 102.056C46.2849 89.2975 34.0666 87.2217 33.9515 104.027Z" fill="#516A96"/>
<path d="M52.9286 155.777C52.1449 160.589 44.6694 160.889 43.0889 158.061L36.1917 128.043C35.242 122.966 37.2682 124.321 40.1742 123.032C40.1742 123.032 48.8165 121.875 50.1042 124.781L52.9286 155.777Z" fill="#516A96"/>
<path d="M9.18262 263.575C9.48851 264.274 10.581 265.206 12.1396 266.211C12.2416 266.284 12.3581 266.357 12.4747 266.43C17.0922 269.314 25.1183 272.635 27.7986 272.592C34.7031 272.592 34.5137 266.546 32.3433 265.046C25.0164 259.962 22.8168 256.175 22.8168 256.175L22.9625 254.281L23.1373 252.038L23.3995 248.586H11.455L11.2656 250.29L10.9889 252.868L10.6975 255.52C9.64876 257.413 9.27002 260.327 9.18262 263.575Z" fill="black"/>
<path d="M34.1421 231.734L33.3875 238.653C32.3314 240.541 31.9629 243.475 31.8784 246.706C33.0423 249.506 46.8178 255.81 50.4987 255.733C57.3872 255.733 57.1979 249.693 55.0275 248.184C47.7122 243.096 45.4966 239.315 45.4966 239.315L46.0939 231.734H34.1421Z" fill="black"/>
<path d="M44.3321 159.97L47.4931 190.737C47.6606 196.823 47.8791 203.063 48.035 208.907C48.0728 210.485 48.1078 212.042 48.1369 213.55C48.1544 214.457 48.169 215.343 48.1821 216.215C48.2068 217.87 48.2097 219.458 48.2141 220.977V220.984C48.1894 227.159 47.9155 232.119 47.1653 234.811C46.1632 238.554 31.132 238.538 30.5712 233.076C30.3527 229.596 30.1327 226.116 29.9623 222.7C29.8924 221.271 29.8225 219.857 29.77 218.461C29.7307 217.404 29.6928 216.354 29.6622 215.324C29.6229 213.927 29.5996 212.556 29.5938 211.212C29.5515 204.46 29.9361 198.339 31.1262 193.458C28.3498 183.521 27.049 173.889 26.9951 164.525L44.3321 159.97Z" fill="#263652"/>
<path d="M8.29346 249.271C8.29346 250.67 9.24028 251.82 10.7261 252.724C10.8135 252.782 10.9009 252.826 10.9883 252.869C11.6729 253.263 12.4741 253.583 13.3189 253.845C13.3335 253.845 13.348 253.86 13.3626 253.86C16.3342 254.821 19.9903 255.04 22.4084 254.442C22.5977 254.399 22.7871 254.34 22.9619 254.282C23.9816 253.947 24.7099 253.452 24.9575 252.767C25.4819 251.442 25.9335 249.534 26.3559 247.159C26.7783 244.785 27.1425 241.959 27.4775 238.827C27.6232 237.283 27.798 235.666 27.9291 233.991C28.0165 233.103 28.0893 232.199 28.1767 231.282C28.2932 229.738 28.4098 228.164 28.5554 226.548C28.9924 220.604 29.4294 214.224 29.8956 208.034L34.6297 175.769C40.1795 173.89 44.5349 170.918 45.3652 165.048C45.103 159.658 45.2632 155.507 45.0447 150.831L44.5349 150.977L19.1746 157.328L18.0967 157.604L12.678 158.959L12.1973 159.076C12.139 159.382 12.0662 159.673 12.0079 159.964C10.8863 165.703 11.1922 170.933 12.2118 175.303C12.4158 176.264 12.678 177.182 12.9547 178.056C12.9402 178.216 12.9256 178.376 12.911 178.536C12.4595 183.227 12.037 188.281 11.9642 193.453C11.9205 195.04 11.9205 196.628 11.9788 198.201C12.0079 199.002 12.0371 199.789 12.0662 200.576C12.0808 200.634 12.0808 200.692 12.0808 200.75C12.1099 201.348 12.139 201.945 12.1827 202.527C12.2555 203.431 12.3429 204.334 12.4449 205.237C12.5177 205.907 12.5906 206.592 12.6925 207.247C12.7071 207.305 12.7071 207.349 12.7217 207.407C12.7945 207.975 12.8819 208.529 12.9839 209.097C11.265 213.933 10.2454 220.095 9.58987 226.97C9.44421 228.325 9.32768 229.723 9.22571 231.165C9.15288 232.199 9.06549 233.277 9.00722 234.355C8.90526 235.768 8.83241 237.21 8.74501 238.667C8.57022 242.163 8.42456 245.717 8.29346 249.271Z" fill="#29406A"/>
<path d="M45.3494 148.232C45.3494 148.286 45.0654 151.167 45.0654 151.234C44.9707 151.855 42.7755 152.798 41.8462 153.514C36.4959 157.664 26.3096 160.05 19.4371 160.171C18.0489 160.211 16.8093 160.13 15.7591 159.981C14.5602 159.779 13.1983 159.604 12.4976 159.16C10.6652 157.987 10.6375 155.723 10.1801 152.072C10.1393 151.789 10.1131 151.546 10.0854 151.33C9.91064 149.7 9.74894 148.109 9.58725 146.573C9.47946 145.549 9.38478 144.538 9.27699 143.568C9.14152 142.099 8.99441 140.67 8.87351 139.297C8.55013 135.632 8.28064 132.303 8.07817 129.298C8.03738 128.705 7.99806 128.113 7.95728 127.533C7.513 120.755 7.39209 115.782 7.44453 112.468C7.45764 111.996 7.47075 111.552 7.48531 111.147V111.121C7.49842 110.231 7.56688 109.504 7.61932 108.911C8.95361 107.335 10.6506 105.744 12.5239 104.181C15.7722 101.459 19.558 98.8456 22.9127 96.716C26.4159 95.1399 29.7312 93.8464 32.6547 93.0103C35.7137 92.1072 38.3415 91.7037 40.2817 91.9193C50.3341 93.1108 45.6859 146.884 45.3494 148.232Z" fill="#29406A"/>
<path d="M3.49784 171.54C1.25244 170.243 -0.541069 173.525 1.62801 174.778L27.8438 189.943L29.7136 186.706L3.49784 171.54Z" fill="#BFAF95"/>
<path d="M27.6685 185.493C28.3132 185.12 28.986 185.079 29.5182 185.387C30.0464 185.692 30.3497 186.294 30.3497 187.042C30.3497 188.241 29.4901 189.729 28.4517 190.329C27.805 190.703 27.1322 190.741 26.6 190.436C26.0718 190.131 25.7685 189.528 25.7705 188.783C25.7705 188.182 25.9633 187.516 26.3168 186.907C26.6703 186.294 27.1503 185.792 27.6685 185.493ZM27.3732 189.074C27.3973 189.078 27.4998 189.072 27.6705 188.974C28.2328 188.648 28.7851 187.69 28.7871 187.04C28.7871 186.845 28.751 186.754 28.749 186.746C28.7269 186.742 28.6225 186.748 28.4517 186.847C27.8894 187.172 27.3351 188.128 27.3351 188.781C27.3371 188.972 27.3793 189.066 27.3732 189.074Z" fill="#F66232"/>
<path d="M29.9862 197.381C29.9902 197.383 29.9902 197.383 29.9963 197.387C30.9181 197.919 32.1975 197.839 33.6094 197.021C36.4372 195.389 38.7268 191.424 38.7268 188.16C38.7288 186.53 38.1584 185.381 37.2366 184.849C37.2326 184.847 37.2326 184.846 37.2265 184.842C33.766 182.844 29.3375 184.027 27.3371 187.492C25.3367 190.956 26.5257 195.385 29.9862 197.381Z" fill="#B54825"/>
<path d="M38.6483 185.665C38.6443 185.663 38.6443 185.663 38.6383 185.659C37.7164 185.126 36.4371 185.207 35.0251 186.024C32.1973 187.657 29.9077 191.621 29.9077 194.885C29.9057 196.516 30.4761 197.665 31.398 198.197C31.402 198.199 31.402 198.199 31.408 198.203C32.3339 198.737 33.6152 198.659 35.0251 197.842C37.853 196.209 40.1426 192.244 40.1426 188.98C40.1466 187.348 39.5742 186.201 38.6483 185.665Z" fill="#963C1F"/>
<path d="M34.6346 185.347C36.2533 184.409 37.8159 184.281 39.039 184.988C40.2581 185.693 40.9289 187.111 40.9249 188.98C40.9249 190.694 40.3565 192.624 39.3222 194.415C38.2879 196.205 36.9021 197.663 35.4178 198.52C33.7991 199.458 32.2365 199.587 31.0074 198.878C29.7923 198.175 29.1235 196.759 29.1255 194.889C29.1255 193.176 29.6939 191.246 30.7282 189.454C31.7645 187.661 33.1524 186.205 34.6346 185.347ZM39.3624 188.978C39.3644 187.691 38.9727 186.755 38.2497 186.337C37.5488 185.934 36.5185 186.066 35.4178 186.703C34.1686 187.424 32.9837 188.679 32.0859 190.236C31.1881 191.792 30.6921 193.445 30.6921 194.889C30.69 196.159 31.0917 197.119 31.8007 197.528C32.5137 197.94 33.5219 197.811 34.6366 197.167C35.8878 196.446 37.0708 195.19 37.9685 193.634C38.8683 192.075 39.3624 190.423 39.3624 188.978Z" fill="#F66232"/>
<path d="M42.3241 114.204C37.9177 116.737 36.7859 118.975 28.633 121.615C26.1407 108.14 18.9988 104.434 12.5298 104.178C15.7767 101.455 19.5639 98.8422 22.9186 96.7126C26.4218 95.1365 29.7372 93.8415 32.6607 93.0068C33.6847 93.1816 34.5208 93.3579 34.9651 93.4511C41.1515 93.4919 44.1288 107.372 42.3241 114.204Z" fill="#516A96"/>
<path d="M13.182 135.714C12.5425 135.771 11.8229 135.792 11.3495 135.36C10.8251 134.879 10.8367 134.063 10.8892 133.354C11.5214 124.782 11.7865 115.986 14.2482 107.752C21.3902 110.183 25.0012 121.517 23.7048 129.947C23.0318 134.326 15.4835 135.507 13.182 135.714Z" fill="#516A96"/>
<path opacity="0.2" d="M10.6969 255.52C9.64815 257.414 9.26941 260.327 9.18201 263.575C9.48791 264.275 10.5804 265.207 12.139 266.212C12.8382 262.119 13.2315 257.982 13.3189 253.845C13.3335 253.539 13.348 253.233 13.348 252.927C13.3772 252.01 13.3772 251.092 13.348 250.189C13.3335 249.65 13.3189 249.125 13.3043 248.586C13.2315 247.13 13.1295 245.659 12.9984 244.202C12.7363 241.318 12.3284 238.448 12.2992 235.549C12.1827 227.349 15.1543 219.424 18.2424 211.791C18.8833 210.277 19.5242 208.747 19.6408 207.101C19.7136 205.979 19.5679 204.858 19.4222 203.736C18.0676 193.554 17.8054 183.27 18.6065 173.045C18.8396 169.971 19.2475 166.694 21.112 164.217C20.2817 162.265 19.6553 159.906 19.1746 157.327C16.8731 144.888 18.2424 127.51 18.388 127.35L9.31313 147.699C9.47336 149.185 9.63357 150.714 9.7938 152.287C9.82294 152.506 9.85208 152.739 9.89578 153.03C10.3328 156.526 10.3765 158.755 12.0079 159.964C12.0662 160.022 12.139 160.066 12.2118 160.11C11.5564 163.125 11.2942 166.009 11.3524 168.704C11.6146 171.122 11.8914 173.423 12.2118 175.302C12.3721 176.308 12.5469 177.182 12.7362 177.91C12.7945 178.143 12.8528 178.347 12.911 178.536C12.9256 178.594 12.9402 178.638 12.9547 178.682C12.4886 183.314 12.0662 188.325 11.9642 193.452C11.9351 195.025 11.9351 196.613 11.9788 198.201C12.0079 199.002 12.0371 199.789 12.0662 200.575C12.0808 200.634 12.0808 200.692 12.0808 200.75C12.1099 201.347 12.139 201.945 12.1827 202.527C12.2264 203.11 12.2847 203.693 12.3284 204.29C12.3721 204.61 12.4012 204.916 12.4449 205.237C12.5177 205.907 12.5906 206.591 12.6925 207.247C12.7071 207.305 12.7071 207.349 12.7217 207.407C12.7945 207.975 12.8819 208.529 12.9839 209.097C11.265 213.933 10.2454 220.094 9.58987 226.97C9.44421 228.324 9.32768 229.723 9.22571 231.165C9.15288 232.199 9.06549 233.277 9.00722 234.355C8.90526 235.768 8.83241 237.21 8.74501 238.667C8.57022 242.163 8.42456 245.717 8.29346 249.271C8.29346 250.669 9.24028 251.82 10.7261 252.723C10.8135 252.782 10.9009 252.825 10.9883 252.869L10.6969 255.52Z" fill="#1D1D1B"/>
<path d="M4.19463 118.195C2.67097 129.638 2.90695 133.663 3.4124 142.301C3.57992 143.239 3.82756 143.983 3.99216 144.817L15.9177 140.665C16.968 131.568 20.0823 123.28 19.6133 118.154C18.2746 105.126 6.4131 101.535 4.19463 118.195Z" fill="#516A96"/>
<path d="M7.12395 178.291L8.22808 182.79C10.6942 184.253 14.161 187.103 17.4035 186.405L19.0553 184.889C17.6774 184.009 16.834 183.563 16.6606 182.131C16.6621 181.241 16.9869 180.462 17.9046 179.885C19.016 180.402 19.6147 180.905 20.4989 181.359L19.5914 177.642C18.0517 174.054 14.5427 172.08 10.4116 171.241C7.39343 172.409 6.63306 175.549 7.12395 178.291Z" fill="#FFBB7D"/>
<path d="M16.5456 171.914C15.1662 176.588 7.71101 175.952 6.49763 172.948L3.41245 142.303C3.10656 137.147 4.94631 138.744 7.9907 137.831C7.9907 137.831 15.0045 137.623 15.9192 140.667L16.5456 171.914Z" fill="#516A96"/>
<path d="M35.819 100.648C35.4388 101.09 34.8707 101.46 34.1089 101.712C34.0433 101.742 33.9778 101.771 33.9152 101.787C31.1519 102.642 27.1884 101.743 25.0646 99.778C22.9408 97.8145 23.4608 95.5246 26.2241 94.6681C26.8519 94.4875 27.5365 94.3782 28.2459 94.3637C28.6173 94.3447 29.0092 94.3608 29.3996 94.3899C29.602 94.4059 29.7856 94.4336 29.9851 94.4642C30.2983 94.5064 30.6086 94.5618 30.9159 94.6317C32.508 94.9929 34.02 95.7023 35.0761 96.6768C35.803 97.3556 36.2138 98.065 36.3405 98.7394C36.3754 98.9084 36.3827 99.0715 36.3725 99.2449C36.358 99.7576 36.1628 100.228 35.819 100.648Z" fill="#FFBB7D"/>
<path d="M27.4941 80.6452L23.8208 96.832L36.3285 99.6704L40.0018 83.4835L27.4941 80.6452Z" fill="#FFBB7D"/>
<path opacity="0.1" d="M36.3703 99.2468C36.3571 99.7581 36.1619 100.227 35.8167 100.648C35.4365 101.091 34.8684 101.461 34.1066 101.713C31.2647 99.6153 30.1474 97.2323 29.9828 94.4647C29.9333 93.646 29.9639 92.8012 30.0615 91.9141L30.0761 91.917L38.2755 94.6584L37.6099 99.4682L36.3703 99.2468Z" fill="#21211F"/>
<path d="M43.9937 91.6429L42.8706 91.7609C42.7395 92.5126 42.3696 95.7332 42.3696 95.7332C42.272 96.2459 42.1015 96.7878 41.8466 97.3093C41.1882 98.6975 39.9938 99.8934 38.3419 99.5991L37.6121 99.4739L36.4104 99.2612L36.3682 99.251L35.9399 99.1738C34.4075 98.7499 32.6013 97.3909 31.3777 95.4521C31.2145 95.1899 31.0572 94.9087 30.9218 94.6305C30.5124 93.7973 30.192 92.8738 30.0813 91.9095C29.9735 91.1244 29.9866 90.3014 30.141 89.4434L29.9502 89.3982C28.728 89.1797 26.8213 89.407 25.57 89.1156C24.9131 88.9627 24.4397 88.6961 24.3027 88.128C23.7419 85.7406 24.4674 83.5862 24.7499 81.1274C24.9437 80.1004 25.2336 79.7217 25.5059 78.9351C28.1847 70.89 33.0426 71.7101 36.7775 72.2666C40.0753 72.8784 43.0323 74.9526 44.3011 78.6219C44.6171 79.5673 44.8182 80.619 44.8808 81.7945C44.9478 82.6598 44.9143 83.5673 44.8196 84.5505C44.4613 85.2264 44.0855 85.7872 44.0855 85.7872L44.2501 86.5184L45.0745 90.1731C45.2217 90.8782 44.7206 91.5876 43.9937 91.6429Z" fill="#FFBB7D"/>
<path d="M35.8716 70.7563C30.3014 69.9289 26.8258 72.0338 25.0254 77.3709C23.2716 82.5668 23.4493 88.7328 25.1302 91.2368C32.4062 93.9767 29.4448 84.7576 29.4448 84.7576C29.4448 84.7576 29.7143 85.3708 30.0508 86.1137L34.2882 84.6454C35.3093 78.1721 35.8322 75.4933 44.3027 78.6222C45.35 76.9106 45.7724 72.2275 35.8716 70.7563Z" fill="#3C3C3B"/>
<path d="M28.0637 85.3016C27.8131 87.0467 28.9959 89.2724 30.1379 89.437C31.2785 89.6002 31.3557 88.1683 31.6237 86.4247C31.8014 85.2724 32.3287 83.6731 31.1299 83.1297C30.0797 82.6534 28.4308 82.7423 28.0637 85.3016Z" fill="#FFBB7D"/>
<path opacity="0.1" d="M44.0837 85.7883L44.5673 87.9339C39.6482 87.8203 33.3074 83.9718 32.2251 78.9609C33.0802 79.3164 33.9964 79.5072 34.9126 79.6995L35.3365 79.7985C38.5295 80.4759 41.7079 81.1255 44.8805 81.7985C44.9475 82.6637 44.914 83.5712 44.8193 84.5545C44.4595 85.2289 44.0837 85.7883 44.0837 85.7883Z" fill="#1D1D1B"/>
<path d="M24.6284 78.5471L45.9523 81.9848L46.0572 76.8952C46.3689 72.3592 42.8992 70.6681 39.361 70.2195C39.361 70.2195 28.372 67.5814 25.0144 75.6585L24.6284 78.5471Z" fill="#29406A"/>
<path d="M37.105 80.5575C49.1296 87.6557 55.635 87.108 57.0712 83.7024L46.0284 80.3564C44.6125 81.0789 41.2593 80.9872 37.105 80.5575Z" fill="#516A96"/>
<path d="M97.1422 181.304L96.8203 183.995C96.8145 184.066 96.8043 184.14 96.7955 184.212V184.22C96.7955 184.223 96.7955 184.229 96.7926 184.233C96.4401 186.643 94.3688 188.45 91.9099 188.45H91.8211C89.3346 188.45 87.256 186.611 86.9311 184.178V184.175C86.918 184.079 86.9064 183.983 86.9005 183.884L85.8605 172.49L84.8758 164.907V164.904L81.8809 141.817L81.6143 139.771C81.5211 139.554 81.457 139.34 81.4162 139.127C81.1715 137.836 81.8561 136.643 82.9705 135.597C85.8561 132.882 91.6302 131.133 91.6302 131.133V131.136C92.1503 132.167 92.6252 133.241 93.052 134.359C97.8137 146.649 97.5748 163.881 97.1422 181.304Z" fill="#71433D"/>
<path d="M92.476 231.766L90.0376 231.895L90.2139 234.811L92.476 233.461V231.766Z" fill="#3C3C3B"/>
<path d="M92.6181 232.719C93.243 233.286 93.8767 233.86 94.6167 234.266C95.3566 234.672 96.2233 234.907 97.0522 234.742C97.4557 234.662 97.862 234.473 98.0834 234.125C98.3136 233.763 98.3063 233.3 98.2233 232.881C98.0485 231.995 97.5838 231.198 97.1527 230.404C95.8665 228.039 94.8118 225.548 94.0107 222.977C93.9509 222.786 93.8883 222.587 93.7456 222.447C93.6115 222.316 93.4265 222.255 93.2488 222.198C92.066 221.822 90.7551 221.45 89.6189 221.949C89.5213 221.991 89.4237 222.042 89.3538 222.122C89.2547 222.234 89.2212 222.389 89.1819 222.533C89.0318 223.08 88.7449 223.582 88.5395 224.112C87.8593 225.867 88.1418 227.962 89.262 229.475C89.7004 230.067 90.2481 230.565 90.7944 231.06C91.3989 231.614 92.0092 232.167 92.6181 232.719Z" fill="#FFC187"/>
<path d="M87.9883 233.18C88.7588 233.685 89.5017 234.23 90.2155 234.813C90.1557 233.841 90.0975 232.868 90.0378 231.897C91.4726 233.018 91.8965 234.986 92.9525 236.47C94.5549 238.727 97.5002 239.663 100.266 239.704C100.96 239.714 101.697 239.665 102.268 239.269C102.373 239.196 102.476 239.104 102.511 238.982C102.558 238.816 102.47 238.644 102.384 238.494C100.464 235.133 98.4062 231.851 96.2154 228.66C96.683 229.669 97.0355 230.733 97.2627 231.821C97.356 232.267 97.4011 232.803 97.0647 233.108C96.7893 233.358 96.3669 233.344 96.0071 233.253C95.104 233.021 94.3567 232.408 93.6401 231.812C93.0792 231.345 92.517 230.875 91.9547 230.408C91.4449 229.983 90.9307 229.554 90.4995 229.05C89.0239 227.327 88.6554 224.848 89.1084 222.625C87.5484 223.953 86.7938 226.163 87.2177 228.168C87.3721 228.897 87.6678 229.592 87.828 230.32C88.032 231.254 88.0101 232.223 87.9883 233.18Z" fill="#F66232"/>
<path d="M94.2263 223.657C93.2328 225.711 89.5679 225.246 89.2081 222.67C86.4143 208.202 84.828 194.888 86.8979 184.725C86.8979 182.012 89.096 179.814 91.8082 179.814H91.9073C94.6196 179.814 96.8176 182.012 96.8176 184.725L94.2263 223.657Z" fill="#71433D"/>
<path d="M86.4923 136.173L86.4093 137.662L86.2389 140.662L84.874 164.904L83.5179 188.994L83.1959 191.685C83.1901 191.756 83.1799 191.83 83.1712 191.902V191.91C83.1712 191.913 83.1712 191.919 83.1683 191.922C82.8158 194.331 80.7444 196.139 78.2856 196.139H78.1953C75.7088 196.139 73.6316 194.299 73.3068 191.865C73.3068 191.862 73.3068 191.862 73.3068 191.862C73.2937 191.766 73.282 191.67 73.2762 191.571L72.2361 180.176L70.4343 163.554C68.3192 158.591 66.36 151.558 69.9915 142.26L71.5559 137.177L72.5712 133.876L82.9716 135.59L86.4923 136.173Z" fill="#71433D"/>
<path d="M78.8515 239.453L76.4131 239.583L76.5908 242.5L78.8515 241.149V239.453Z" fill="#3C3C3B"/>
<path d="M78.9936 240.409C79.6185 240.975 80.2522 241.549 80.9922 241.955C81.7322 242.363 82.5989 242.596 83.4277 242.432C83.8312 242.352 84.2376 242.161 84.459 241.814C84.6891 241.453 84.6818 240.99 84.5988 240.57C84.424 239.685 83.9594 238.888 83.5282 238.094C82.242 235.728 81.1873 233.237 80.3862 230.666C80.3265 230.476 80.2638 230.276 80.1211 230.136C79.9871 230.005 79.8021 229.944 79.6243 229.887C78.4415 229.511 77.1306 229.14 75.9944 229.638C75.8968 229.68 75.7992 229.731 75.7293 229.811C75.6302 229.924 75.5967 230.078 75.5574 230.222C75.4074 230.771 75.1204 231.271 74.915 231.801C74.2347 233.556 74.5173 235.651 75.6375 237.165C76.076 237.756 76.6237 238.254 77.1699 238.748C77.7744 239.303 78.3848 239.855 78.9936 240.409Z" fill="#FFC187"/>
<path d="M74.3637 240.867C75.1343 241.373 75.8772 241.918 76.5909 242.5C76.5327 241.527 76.473 240.556 76.4133 239.583C77.8481 240.704 78.2719 242.672 79.328 244.158C80.9303 246.414 83.8756 247.351 86.6433 247.392C87.3366 247.402 88.0737 247.352 88.6447 246.958C88.7496 246.885 88.853 246.793 88.8865 246.671C88.9346 246.505 88.8457 246.333 88.7598 246.183C86.8399 242.822 84.7817 239.54 82.5909 236.35C83.0585 237.36 83.411 238.423 83.6382 239.511C83.7315 239.957 83.7781 240.493 83.4401 240.799C83.1648 241.048 82.7424 241.035 82.3826 240.943C81.4795 240.712 80.7322 240.098 80.0155 239.503C79.4547 239.035 78.8925 238.566 78.3316 238.098C77.8218 237.673 77.3076 237.245 76.8765 236.741C75.4009 235.018 75.0323 232.538 75.4853 230.315C73.9253 231.644 73.1708 233.854 73.5947 235.858C73.7491 236.588 74.0447 237.283 74.205 238.011C74.4074 238.943 74.387 239.91 74.3637 240.867Z" fill="#F66232"/>
<path d="M80.6034 231.345C79.61 233.399 75.9451 232.934 75.5853 230.359C73.1774 215.399 70.1753 199.88 73.275 192.413C73.275 189.701 75.4731 187.503 78.1854 187.503H78.2844C80.9953 187.503 83.1948 189.701 83.1948 192.413L80.6034 231.345Z" fill="#71433D"/>
<path d="M95.6458 113.42C93.7653 115.973 91.5483 118.247 88.498 118.748C89.2497 120.425 91.0749 121.43 92.9554 121.067L93.0355 121.051C95.2307 120.627 96.6669 118.504 96.243 116.308L95.6458 113.42Z" fill="#FFC187"/>
<path d="M95.6457 113.42L91.3879 95.6086C90.964 93.4134 84.1512 98.0747 84.5751 100.27L88.2138 117.86C88.275 118.174 88.3726 118.469 88.4979 118.749C91.5481 118.248 93.7651 115.973 95.6457 113.42Z" fill="#F66232"/>
<path d="M110.028 123.539L107.976 127.078L90.6315 121.144C88.579 120.258 87.6337 117.875 88.5194 115.823L88.5514 115.747C89.437 113.695 91.8201 112.749 93.8725 113.635L110.028 123.539Z" fill="#FFC187"/>
<path d="M93.6486 117.989C93.1562 118.525 92.5925 119.007 92.24 119.643C91.8277 120.385 91.7505 121.262 91.6981 122.11C91.5714 124.168 91.5466 126.234 91.6238 128.296C91.634 128.508 91.6398 128.717 91.6457 128.929C91.7083 130.595 91.717 132.312 90.9144 133.756C90.5954 134.326 90.1642 134.824 89.7039 135.283C86.5372 138.441 81.7273 139.849 77.3588 138.899C75.7245 138.547 74.0464 137.788 73.222 136.33C72.801 135.584 72.6495 134.741 72.5694 133.88C72.5257 133.387 72.5039 132.889 72.4703 132.4C72.4587 132.221 72.4427 132.044 72.4267 131.867C72.0712 127.977 70.7573 124.179 68.6335 120.897C68.568 120.795 68.5039 120.693 68.4354 120.591C66.9336 118.343 64.5127 113.23 64.5098 110.527C64.4981 103.839 77.5336 94.3974 79.1243 93.7011C81.0966 92.8344 83.1403 91.9851 85.2918 91.9021C87.4462 91.8191 89.7622 92.6552 90.8868 94.4935C92.256 96.7353 91.5029 99.6515 92.1467 102.198C92.7571 104.613 94.5837 106.541 95.4475 108.879C96.5779 111.932 95.8554 115.593 93.6486 117.989Z" fill="#F66232"/>
<path opacity="0.2" d="M84.2952 123.263C82.237 124.078 79.7592 123.624 78.0506 122.218C76.3405 120.813 75.4213 118.536 75.5553 116.326C76.4774 118.628 78.2953 120.6 80.6041 121.506C82.9114 122.412 85.6878 122.166 87.6834 120.695C86.7133 121.746 85.6237 122.735 84.2952 123.263Z" fill="#1D1D1B"/>
<path opacity="0.2" d="M72.7561 128.121C72.9513 130.06 73.4057 132.14 72.5667 133.881C72.523 133.388 72.5026 132.89 72.4677 132.401C72.1851 128.326 70.8508 124.328 68.6309 120.897C68.7241 120.417 68.8202 119.94 68.9149 119.461C69.5908 116.105 70.3148 112.631 72.3337 109.869C74.2987 115.664 72.1399 122.029 72.7561 128.121Z" fill="#1D1D1B"/>
<path d="M62.487 126.905L62.3079 128.355C62.0049 130.57 63.5548 132.611 65.7703 132.914L65.8519 132.926C68.0675 133.229 70.1082 131.679 70.4112 129.463L70.5612 128.251C67.7936 128.658 64.7434 128.57 62.487 126.905Z" fill="#FFC187"/>
<path d="M68.2715 154.418L64.1899 154.126L62.2744 129.768C62.171 127.535 63.8971 125.64 66.1302 125.535L66.2118 125.531C68.4448 125.427 70.3399 127.153 70.4447 129.387L68.2715 154.418Z" fill="#FFC187"/>
<path d="M68.271 154.417C67.8515 152.759 64.6964 152.026 64.1356 154.341C63.6986 156.141 62.2857 157.736 61.7656 159.548C61.5311 160.366 61.4393 161.218 61.3476 162.063C61.2223 163.222 61.0985 164.383 60.9732 165.543C60.9339 165.914 60.8931 166.293 60.9761 166.657C61.0431 166.955 61.1902 167.229 61.3345 167.497C61.6316 168.052 63.3883 170.332 64.2259 170.083C64.8596 170.301 65.2368 167.912 65.5602 166.717C65.9258 165.365 66.204 164.803 66.4895 163.43C66.7736 162.063 67.7903 160.947 68.153 159.596C68.3497 158.865 68.3453 158.096 68.405 157.34C68.4866 156.325 68.5216 155.407 68.271 154.417Z" fill="#FFC187"/>
<path d="M69.9817 162.484C69.8608 163.701 69.9409 164.926 70.021 166.145C69.6408 166.477 69.0028 166.323 68.6795 165.937C68.3546 165.551 68.2803 165.013 68.2876 164.509C68.2964 164.005 68.3736 163.498 68.3007 162.999C68.1405 161.892 67.2825 161.025 66.8659 159.986C66.4697 159 66.4843 157.903 66.5061 156.841C66.5193 156.2 66.5338 155.551 66.7217 154.937C66.9096 154.324 67.6919 154.691 68.2716 154.416C68.8819 156.279 69.096 157.195 69.7049 159.058C69.8812 159.599 70.0604 160.145 70.1011 160.712C70.1463 161.303 70.04 161.894 69.9817 162.484Z" fill="#FFC187"/>
<path d="M68.271 154.417C67.8515 152.759 64.6964 152.026 64.1356 154.341C63.6986 156.141 62.2857 157.736 61.7656 159.548C61.5311 160.366 61.4393 161.218 61.3476 162.063C61.2223 163.222 61.0985 164.383 60.9732 165.543C60.9339 165.914 60.8931 166.293 60.9761 166.657C61.0431 166.955 61.1902 167.229 61.3345 167.497C61.6316 168.052 63.3883 170.332 64.2259 170.083C64.8596 170.301 65.2368 167.912 65.5602 166.717C65.9258 165.365 66.204 164.803 66.4895 163.43C66.7736 162.063 67.7903 160.947 68.153 159.596C68.3497 158.865 68.3453 158.096 68.405 157.34C68.4866 156.325 68.5216 155.407 68.271 154.417Z" fill="#FFC187"/>
<path d="M69.9817 162.484C69.8608 163.701 69.9409 164.926 70.021 166.145C69.6408 166.477 69.0028 166.323 68.6795 165.937C68.3546 165.551 68.2803 165.013 68.2876 164.509C68.2964 164.005 68.3736 163.498 68.3007 162.999C68.1405 161.892 67.2825 161.025 66.8659 159.986C66.4697 159 66.4843 157.903 66.5061 156.841C66.5193 156.2 66.5338 155.551 66.7217 154.937C66.9096 154.324 67.6919 154.691 68.2716 154.416C68.8819 156.279 69.096 157.195 69.7049 159.058C69.8812 159.599 70.0604 160.145 70.1011 160.712C70.1463 161.303 70.04 161.894 69.9817 162.484Z" fill="#FFC187"/>
<path d="M93.0519 134.357C92.7388 135.333 92.2071 136.255 91.5385 137.023C90.1241 138.651 83.945 143.451 76.5773 141.429C75.8781 141.237 75.1628 141.079 74.5219 140.747C73.1133 140.019 72.0878 138.679 71.5562 137.18L72.5715 133.879C72.6516 134.74 72.8031 135.582 73.224 136.329C74.0485 137.787 75.7266 138.546 77.3609 138.899C78.6923 139.19 80.0645 139.258 81.4177 139.124C83.1555 138.957 84.8612 138.459 86.4125 137.663C87.6259 137.044 88.7402 136.245 89.7074 135.283C90.1692 134.824 90.5989 134.326 90.918 133.757C91.3666 132.951 91.5618 132.057 91.6332 131.135C92.1503 132.165 92.6237 133.24 93.0519 134.357Z" fill="black"/>
<path opacity="0.5" d="M85.9776 158.586C86.1364 157.063 86.2383 155.49 86.9215 154.119C87.8465 152.264 89.7751 150.913 90.1815 148.88C89.0861 150.054 88.0766 151.347 86.7263 152.22C85.376 153.091 83.5552 153.464 82.1699 152.648C83.2784 153.231 83.6499 154.618 83.864 155.851C84.4365 159.149 84.4044 161.556 84.872 164.904L85.9776 158.586Z" fill="#1D1D1B"/>
<path d="M69.1466 107.076L69.065 107.064C66.8495 106.761 64.8087 108.311 64.5057 110.527L62.4854 126.905C64.7417 128.569 67.7919 128.658 70.5596 128.251L72.6091 111.635C72.9121 109.421 71.3622 107.379 69.1466 107.076Z" fill="#F66232"/>
<path d="M88.3389 112.023C87.8247 107.142 85.2508 102.65 84.7934 97.7627C83.6733 98.1676 82.5516 98.574 81.4315 98.979C81.1911 99.0664 80.9362 99.164 80.792 99.3752C83.2115 103.687 87.2988 107.192 88.3389 112.023Z" fill="#FFC187"/>
<path d="M110.029 123.54C108.355 123.19 106.313 125.703 108.148 127.224C109.576 128.406 110.389 130.374 111.79 131.637C112.422 132.207 113.146 132.663 113.867 133.116C114.855 133.736 115.842 134.358 116.83 134.979C117.146 135.178 117.469 135.379 117.832 135.465C118.129 135.535 118.439 135.524 118.745 135.512C119.373 135.487 122.193 134.91 122.337 134.047C122.812 133.573 120.83 132.186 119.896 131.372C118.84 130.45 118.458 129.953 117.35 129.095C116.246 128.24 115.689 126.836 114.635 125.919C114.064 125.42 113.37 125.088 112.718 124.702C111.838 124.182 111.029 123.748 110.029 123.54Z" fill="#FFC187"/>
<path d="M118.027 125.538C119.067 126.179 120.204 126.645 121.334 127.108C121.465 127.595 121.048 128.1 120.559 128.223C120.07 128.345 119.554 128.178 119.105 127.949C118.655 127.72 118.234 127.427 117.753 127.274C116.689 126.934 115.532 127.322 114.418 127.244C113.357 127.168 112.378 126.673 111.433 126.188C110.862 125.895 110.285 125.596 109.816 125.159C109.347 124.722 110.022 124.179 110.027 123.538C111.969 123.808 112.885 124.016 114.829 124.285C115.391 124.363 115.96 124.443 116.488 124.654C117.04 124.872 117.523 125.226 118.027 125.538Z" fill="#FFC187"/>
<path d="M93.7311 67.3834C93.7104 67.379 93.6911 67.3746 93.6704 67.3701L93.7311 67.3834Z" fill="#A16958"/>
<path d="M85.2437 96.177C87.0675 97.8172 86.6538 99.7618 84.3217 100.521C81.9896 101.28 78.6204 100.566 76.7967 98.9242C74.9729 97.284 75.3866 95.3394 77.7187 94.5805C80.0523 93.8216 83.4215 94.5368 85.2437 96.177Z" fill="#FFC187"/>
<path d="M94.0806 69.5889C95.0493 69.7039 95.8461 70.3871 96.5089 71.1038C98.5205 73.2786 99.9101 76.3099 99.2284 79.194C99.0143 80.0972 98.6079 80.9508 98.4739 81.8684C98.3413 82.7861 98.5584 83.8466 99.3304 84.3608C96.3181 84.0097 93.4295 82.2312 92.0544 79.5276C90.6793 76.8241 91.0333 73.2465 93.1498 71.0747C93.5679 70.6435 94.0835 70.1905 94.0806 69.5889Z" fill="#71433D"/>
<path d="M89.2984 84.9009L88.1608 90.2016L86.474 98.0296L86.3356 98.6778L75.689 96.5001L78.6285 82.6387L89.2984 84.9009Z" fill="#FFC187"/>
<path opacity="0.1" d="M88.1605 90.2013L86.4737 98.0294C83.8284 95.3419 83.7673 92.4985 84.4271 89.1963L88.1605 90.2013Z" fill="#21211F"/>
<path d="M96.6644 83.4839C96.7663 82.8444 97.1189 81.5058 97.2806 80.8794C97.8996 78.4629 96.8392 75.7593 95.3519 73.8686C92.7096 70.511 88.3149 69.6385 84.3397 70.578C81.1118 71.3428 78.4228 73.8817 77.2254 76.9756C76.1883 79.6544 76.6733 81.1271 77.6202 83.8379C79.0928 88.0549 84.0265 89.4984 84.2872 89.883C84.3717 90.0083 84.2843 93.143 86.9529 95.5508C88.0294 96.5224 90.982 97.3105 92.9194 94.9652C94.4328 93.1328 94.8174 91.6164 95.1859 90.3025C95.2311 90.1408 95.2922 89.95 95.4204 89.8247C95.7205 89.5261 96.5697 89.7883 96.7605 89.0775C97.0329 88.0607 96.2114 86.3288 96.6644 83.4839Z" fill="#FFC187"/>
<path d="M72.799 79.1647C72.4406 80.8544 72.1989 82.499 73.2622 83.861C73.5055 84.1727 73.8172 84.4465 73.9381 84.8223C74.1114 85.3613 73.8434 85.928 73.657 86.4625C73.1442 87.9338 73.2535 89.6118 73.9512 91.0044C75.1777 93.4516 77.9045 94.713 80.4813 95.6351C81.4296 95.9745 82.3837 96.2935 83.3393 96.611C82.7071 94.6664 81.7326 92.2615 82.5439 90.3853C83.1426 89.0029 84.0997 87.7969 84.6867 86.4087C85.5607 84.3388 85.7005 81.877 84.7843 79.8261C87.0115 80.7306 89.9714 80.9724 91.9393 80.4801C93.9073 79.9863 96.3064 78.2762 97.1134 76.4554C98.2102 73.982 97.4731 72.1845 95.5169 70.3156C94.9051 69.7315 94.1753 69.2843 93.4193 68.9056C89.5286 66.9566 84.4827 66.336 80.4828 68.052C79.1907 68.6055 77.9642 69.3542 77.0043 70.3811C76.0444 71.4081 75.8987 71.8043 75.7982 73.2056C75.7793 73.4721 75.6394 73.9805 75.5025 74.2078C75.3656 74.435 75.2563 74.3403 75.0364 74.4918C73.6569 75.4372 73.1442 77.5289 72.799 79.1647Z" fill="#71433D"/>
<path d="M82.3284 84.41C82.0604 85.6438 81.9089 86.9518 82.2002 88.1201C82.2585 88.3546 82.3371 88.5862 82.4624 88.7726C82.6051 88.9868 82.8047 89.1353 83.0071 89.2664C83.3145 89.466 83.6728 89.6335 84.0254 89.498C84.4871 89.3203 84.7435 88.7071 84.9198 88.1565C85.2038 87.2694 85.4412 86.3459 85.4383 85.4224C85.4368 84.4988 85.1659 83.5695 84.5804 83.0378C84.1419 82.6401 83.4747 82.5149 82.9955 82.9402C82.6124 83.2811 82.4464 83.8666 82.3284 84.41Z" fill="#FFC187"/>
<path d="M274.53 77.5406C274.148 77.5406 273.778 77.3411 273.579 76.9871C273.282 76.4627 273.465 75.7956 273.99 75.4984L281.207 71.4023C281.734 71.1022 282.399 71.2887 282.696 71.8131C282.993 72.3375 282.81 73.0046 282.285 73.3018L275.067 77.3964C274.897 77.494 274.712 77.5406 274.53 77.5406Z" fill="#CCCCCC"/>
<path d="M264.868 83.0225C264.486 83.0225 264.118 82.823 263.917 82.469C263.619 81.9446 263.803 81.2775 264.327 80.9804L270.222 77.6344C270.75 77.3343 271.413 77.5223 271.711 78.0452C272.008 78.5696 271.825 79.2367 271.3 79.5339L265.405 82.8798C265.235 82.9774 265.05 83.0225 264.868 83.0225Z" fill="#CCCCCC"/>
<path d="M247.876 88.9329C247.315 88.9329 246.837 88.5032 246.789 87.9351C246.737 87.3335 247.183 86.8048 247.784 86.7523C252.156 86.3765 256.36 85.1908 260.279 83.2258C260.818 82.9563 261.475 83.1748 261.746 83.7138C262.017 84.2527 261.797 84.9097 261.258 85.1806C257.089 87.268 252.619 88.5294 247.972 88.9286C247.939 88.9315 247.908 88.9329 247.876 88.9329Z" fill="#CCCCCC"/>
<path d="M241.979 88.9498C241.95 88.9498 241.919 88.9483 241.892 88.9469C236.47 88.5099 231.118 86.8406 226.415 84.1152L225.735 83.719C225.215 83.416 225.035 82.7474 225.338 82.2259C225.641 81.7059 226.31 81.5267 226.832 81.8312L227.51 82.2245C231.934 84.7882 236.967 86.3599 242.064 86.7677C242.665 86.8158 243.114 87.3446 243.067 87.9447C243.021 88.5157 242.543 88.9498 241.979 88.9498Z" fill="#CCCCCC"/>
<path d="M216.947 78.4554C216.762 78.4554 216.573 78.4087 216.401 78.3068L208.379 73.6572C207.858 73.3556 207.68 72.6871 207.983 72.1656C208.284 71.6441 208.953 71.462 209.474 71.7679L217.496 76.4175C218.018 76.719 218.195 77.3876 217.892 77.9091C217.691 78.2602 217.324 78.4554 216.947 78.4554Z" fill="#CCCCCC"/>
<path d="M203.823 70.8476C203.638 70.8476 203.448 70.801 203.277 70.699L191.835 64.0669C191.313 63.7654 191.135 63.0968 191.438 62.5753C191.74 62.0538 192.408 61.8717 192.93 62.1791L204.37 68.8112C204.892 69.1127 205.07 69.7813 204.767 70.3028C204.567 70.6524 204.2 70.8476 203.823 70.8476Z" fill="#CCCCCC"/>
<path d="M187.333 61.2882C187.148 61.2882 186.958 61.2416 186.787 61.1397L179.213 56.7493C178.692 56.4478 178.514 55.7792 178.816 55.2577C179.117 54.7377 179.787 54.5571 180.307 54.86L187.88 59.2504C188.402 59.5519 188.58 60.2205 188.278 60.742C188.077 61.0945 187.71 61.2882 187.333 61.2882Z" fill="#CCCCCC"/>
<path d="M174.832 54.0443C174.647 54.0443 174.458 53.9977 174.286 53.8972L167.775 50.1245C167.253 49.8215 167.076 49.1529 167.377 48.6314C167.682 48.1114 168.35 47.9337 168.87 48.2337L175.382 52.0064C175.903 52.3094 176.081 52.9781 175.779 53.4995C175.577 53.8491 175.21 54.0443 174.832 54.0443Z" fill="#CCCCCC"/>
<path d="M163.857 47.6839C163.672 47.6839 163.483 47.6372 163.311 47.5352L149.657 39.6198C147.021 38.0933 145.451 35.365 145.453 32.3191C145.456 29.2747 147.032 26.5493 149.668 25.0271L192.127 0.864271C192.651 0.561288 193.318 0.747737 193.617 1.27213C193.915 1.79652 193.732 2.46365 193.209 2.76081L150.755 26.9208C148.807 28.0453 147.641 30.0642 147.638 32.3206C147.636 34.5755 148.8 36.5973 150.752 37.7291L164.407 45.6446C164.928 45.9461 165.106 46.6147 164.803 47.1361C164.6 47.4887 164.233 47.6839 163.857 47.6839Z" fill="#CCCCCC"/>
</svg>
