<svg width="850" height="423" viewBox="0 0 850 423" fill="none" xmlns="http://www.w3.org/2000/svg">
<path d="M768.393 211.212C756.54 224.313 753.546 242.293 758.973 257.866L602.9 379.781C599.232 382.646 596.942 386.616 596.1 390.876C595.03 396 596.153 401.575 599.674 406.071C602.824 410.112 607.378 412.514 612.146 413.142C616.882 413.717 621.882 412.492 624.088 410.665L782.862 286.638C802.535 292.81 823.839 288.741 837.514 273.609C849.019 260.834 852.156 243.465 847.255 228.145L822.332 255.736C818.928 259.568 813.104 259.885 809.285 256.409L788.32 237.556C784.586 234.125 784.243 228.274 787.643 224.505L812.569 196.913C796.849 193.549 779.934 198.473 768.393 211.212Z" fill="#C6C6C6"/>
<path d="M610.444 387.561C606.977 390.257 606.367 395.261 609.072 398.719C611.776 402.181 616.776 402.787 620.229 400.091L751.158 297.823C754.62 295.123 755.231 290.119 752.531 286.656C749.835 283.203 744.84 282.588 741.377 285.288L610.444 387.561Z" fill="#9D9D9C"/>
<path d="M595.712 5.91943H322.723V380.713H595.712V5.91943Z" fill="#7D9CA3"/>
<path d="M401.544 28.0884H318.922V358.559H401.544V28.0884Z" fill="#F2F2F2"/>
<path d="M393.185 36.4341H327.272V350.212H393.185V36.4341Z" fill="#51A3E1"/>
<path d="M599.514 28.0884H516.896V358.559H599.514V28.0884Z" fill="#F2F2F2"/>
<path d="M591.154 36.4341H525.255V350.212H591.154V36.4341Z" fill="#51A3E1"/>
<path d="M599.517 0.706055H318.922V28.0878H599.517V0.706055Z" fill="white"/>
<path d="M599.517 358.559H318.922V385.936H599.517V358.559Z" fill="white"/>
<path d="M401.544 14.394H318.922V28.0872H401.544V14.394Z" fill="#D4E4E6"/>
<path d="M401.544 0.700684H318.922V14.3938H401.544V0.700684Z" fill="#A5C5CA"/>
<path d="M516.876 0.706055H401.544V14.3992H516.876V0.706055Z" fill="#A5C5CA"/>
<path d="M599.498 0.706055H516.876V14.3992H599.498V0.706055Z" fill="#A5C5CA"/>
<path d="M599.517 358.559H318.922V372.252H599.517V358.559Z" fill="#F2F2F2"/>
<path opacity="0.32" d="M582.803 78.2002V147.579L533.623 196.755V127.421L582.803 78.2002Z" fill="white"/>
<path opacity="0.32" d="M582.803 222.798V281.501L533.623 330.686V271.979L582.803 222.798Z" fill="white"/>
<path opacity="0.32" d="M384.826 82.8604V136.693L335.623 185.931V132.063L384.826 82.8604Z" fill="white"/>
<path opacity="0.32" d="M384.826 169.194V201.66L335.623 250.867V218.397L384.826 169.194Z" fill="white"/>
<path opacity="0.32" d="M384.826 278.739V312.137L355.113 341.853H335.623V327.933L384.826 278.739Z" fill="white"/>
<path opacity="0.32" d="M582.803 324.889V341.852H565.844L582.803 324.889Z" fill="white"/>
<path d="M401.544 28.0884H318.922V43.1673H401.544V28.0884Z" fill="#A5C5CA"/>
<path d="M599.498 28.062V358.559H565.833V43.1855H516.876V28.062H599.498Z" fill="#A5C5CA"/>
<path opacity="0.2" d="M516.902 0.700684H401.546V14.3936H516.902V0.700684Z" fill="white"/>
<path opacity="0.48" d="M599.514 358.559H516.896V385.936H599.514V358.559Z" fill="#A5C5CA"/>
<path opacity="0.48" d="M599.514 0.706055H516.896V28.0878H599.514V0.706055Z" fill="#A5C5CA"/>
<path d="M472.972 147.365H445.461V193.324H472.972V147.365Z" fill="#B4C4C7"/>
<path d="M465.891 177.014C465.891 180.699 462.902 183.689 459.216 183.689C455.536 183.689 452.546 180.699 452.546 177.014C452.546 173.333 455.536 170.348 459.216 170.348C462.902 170.343 465.891 173.333 465.891 177.014Z" fill="#88AAB1"/>
<path d="M487.29 180.58C487.29 186.729 482.309 191.716 476.151 191.716C469.997 191.716 465.011 186.729 465.011 180.58C465.011 174.427 469.997 169.44 476.151 169.44C482.309 169.436 487.29 174.422 487.29 180.58Z" fill="#EDF1F1"/>
<path d="M480.322 224.092H471.967L470.839 184.403H481.623L480.322 224.092Z" fill="#EDF1F1"/>
<path d="M484.933 180.58C484.933 185.375 481.047 189.278 476.23 189.278C471.436 189.278 467.528 185.379 467.528 180.58C467.528 175.772 471.436 171.873 476.23 171.873C481.047 171.869 484.933 175.772 484.933 180.58Z" fill="#7D9CA3"/>
<path d="M461.681 304.508C461.431 304.508 461.191 304.508 460.932 304.485C455.398 304.182 450.167 300.372 447.609 294.794C440.97 280.775 443.46 260.986 446.727 246.861C447.177 244.985 447.649 243.176 448.121 241.385C449.828 234.839 451.441 228.663 451.178 222.22C451.009 218.192 450.884 214.016 450.759 209.912C450.621 205.514 450.492 201.188 450.314 197.226L456.155 196.959C456.343 200.952 456.472 205.301 456.605 209.734C456.73 213.82 456.86 217.973 457.033 221.984C457.318 229.296 455.598 235.882 453.785 242.86C453.321 244.615 452.862 246.393 452.43 248.193C449.93 258.999 446.678 279.131 452.92 292.321C454.565 295.93 457.916 298.452 461.253 298.639C464.372 298.826 466.957 297.093 468.997 293.702C474.403 284.679 473.645 272.532 472.972 261.824L472.843 259.663C472.161 251.954 472.558 243.84 472.937 235.98C473.155 231.577 473.364 227.17 473.4 222.777L479.251 222.821C479.219 227.295 479.001 231.787 478.787 236.269C478.399 244.272 478.03 251.847 478.685 259.226L478.823 261.454C479.545 273.017 480.373 286.136 474.024 296.714C470.989 301.758 466.627 304.508 461.681 304.508Z" fill="#EDF1F1"/>
<path d="M495.658 193.323H422.79V200.867H495.658V193.323Z" fill="#CEDEDD"/>
<path d="M473.552 50.5013V58.9631H444.896V50.5013C444.896 48.5184 451.304 46.9365 459.204 46.9365C467.144 46.9321 473.552 48.5139 473.552 50.5013Z" fill="#EDF1F1"/>
<path d="M464.369 48.3171C464.369 45.4697 462.052 43.166 459.204 43.166C456.366 43.166 454.066 45.4697 454.066 48.3171C454.066 51.16 456.37 53.4682 459.204 53.4682C462.056 53.4682 464.369 51.16 464.369 48.3171Z" fill="#EDF1F1"/>
<path d="M384.824 215.946C384.824 217.934 383.22 219.547 381.233 219.547C379.241 219.547 377.632 217.934 377.632 215.946V188.003C377.632 186.02 379.236 184.407 381.233 184.407C383.216 184.407 384.824 186.02 384.824 188.003V215.946Z" fill="#EDF1F1"/>
<path d="M540.819 215.946C540.819 217.934 539.215 219.547 537.224 219.547C535.232 219.547 533.623 217.934 533.623 215.946V188.003C533.623 186.02 535.227 184.407 537.224 184.407C539.211 184.407 540.819 186.02 540.819 188.003V215.946Z" fill="#EDF1F1"/>
<path d="M465.891 158.914C465.891 162.599 462.902 165.589 459.216 165.589C455.536 165.589 452.546 162.603 452.546 158.914C452.546 155.237 455.536 152.252 459.216 152.252C462.902 152.252 465.891 155.237 465.891 158.914Z" fill="#88AAB1"/>
<path d="M142.01 219.779C137.265 217.76 135.05 212.279 137.064 207.529C139.078 202.788 144.563 200.569 149.309 202.587L269.151 253.461C273.893 255.475 276.112 260.96 274.093 265.701C272.079 270.447 266.594 272.662 261.857 270.648L142.01 219.779Z" fill="#BFAF95"/>
<path d="M138.304 195.885L129.54 216.515L153.11 226.527L161.874 205.898L138.304 195.885Z" fill="#D0522B"/>
<path d="M90.9512 234.907L124.727 155.341C146.713 164.677 156.953 190.044 147.622 212.012C138.291 233.998 112.937 244.242 90.9512 234.907Z" fill="#F66232"/>
<path opacity="0.59" d="M90.9551 234.896L107.839 195.127L147.635 212.019C138.308 233.983 112.945 244.231 90.9551 234.896Z" fill="#B54825"/>
<path d="M83.8296 238.8C80.8263 237.526 79.4227 234.055 80.6971 231.056L114.834 150.644C116.113 147.636 119.575 146.237 122.583 147.507C125.586 148.782 126.99 152.253 125.715 155.26L91.5785 235.677C90.2996 238.68 86.8329 240.079 83.8296 238.8Z" fill="#F66232"/>
<path d="M65.9277 315.56L292.789 315.556C303.358 315.556 311.953 324.142 311.953 334.783C311.953 340.077 309.788 344.853 306.312 348.32C302.846 351.791 298.073 353.961 292.789 353.953L65.9322 353.961L65.9277 315.56Z" fill="#F66232"/>
<path d="M117.945 280.758H99.3101V298.061H117.945V280.758Z" fill="#C6C6C6"/>
<path d="M65.9277 277.501L99.824 277.51C100.582 277.506 101.343 277.506 102.056 277.559C102.012 277.889 102.016 278.219 102.012 278.553C102.012 298.707 118.022 315.114 138.043 315.684L138.047 315.729C138.047 317.819 137.909 319.873 137.57 321.865C136.238 329.948 132.388 337.22 126.827 342.777C119.934 349.674 110.385 353.952 99.824 353.952L65.9322 353.961L65.9277 277.501Z" fill="#F66232"/>
<path d="M94.0694 268.581H77.2393V308.198H94.0694V268.581Z" fill="#9D9D9C"/>
<path d="M69.509 310.373H57.625V356.728H69.509V310.373Z" fill="#C6C6C6"/>
<path d="M35.3146 280.732L65.9179 280.737V298.062L41.9762 298.048C41.7802 298.03 41.5752 298.017 41.3791 298.013C41.1831 298.013 40.987 298.03 40.782 298.057C38.6521 298.333 36.9454 300.076 36.7271 302.228C36.7093 302.379 36.7093 302.535 36.7182 302.7C36.7093 302.852 36.7093 303.012 36.7316 303.164V350.321H35.3101C28.2742 350.321 21.7106 348.24 16.252 344.635C14.2558 343.347 12.3976 341.828 10.691 340.166C4.40815 333.838 0.513672 325.149 0.513672 315.529C0.513672 296.333 16.1095 280.732 35.3146 280.732Z" fill="#F66232"/>
<path d="M45.1082 310.377H33.2197V356.723H45.1082V310.377Z" fill="#C6C6C6"/>
<path opacity="0.68" d="M291.526 325.363C296.717 325.363 300.914 329.574 300.914 334.761C300.914 339.939 296.708 344.145 291.526 344.15L153.374 344.145C148.187 344.15 143.976 339.939 143.98 334.756C143.972 329.57 148.178 325.363 153.369 325.363H291.526Z" fill="#D0522B"/>
<path opacity="0.68" d="M93.9535 317.346H77.2349V345.521H93.9535V317.346Z" fill="#D0522B"/>
<path opacity="0.68" d="M107.678 317.346H99.3101V345.525H107.678V317.346Z" fill="#D0522B"/>
<path d="M699.492 288.369H485.856V314.124H699.492V288.369Z" fill="#F66232"/>
<path d="M693.178 314.121H492.157V422.98H693.178V314.121Z" fill="#F66232"/>
<path d="M699.403 288.37H485.856L512.793 263.154H674.018L699.403 288.37Z" fill="#F66232"/>
<path opacity="0.29" d="M699.403 288.37H485.856L512.793 263.154H674.018L699.403 288.37Z" fill="#D0522B"/>
<path d="M635.995 237.831H554.22C550.459 237.831 547.496 240.785 547.496 244.555V273.933H563.029V252.959H627.181V273.933H642.715V244.555C642.715 240.78 639.756 237.831 635.995 237.831Z" fill="#F66232"/>
<path opacity="0.29" d="M693.191 314.121H492.166V329.401H693.191V314.121Z" fill="#D0522B"/>
<path d="M264.635 68.9946H239.842L227.41 90.499L239.842 112.003H264.635L277.058 90.499L264.635 68.9946ZM252.269 103.435C245.06 103.435 239.276 97.6508 239.276 90.499C239.276 83.3472 245.06 77.5055 252.269 77.5055C259.417 77.5055 265.201 83.3472 265.201 90.499C265.201 97.6508 259.412 103.435 252.269 103.435Z" fill="#F66232"/>
<path d="M777.264 148.337L766.6 137.679L752.021 141.578L748.117 156.162L758.776 166.825L773.36 162.917L777.264 148.337ZM757.145 157.828C754.048 154.736 754.048 149.759 757.118 146.684C760.193 143.614 765.188 143.587 768.289 146.684C771.359 149.759 771.337 154.754 768.262 157.828C765.192 160.903 760.22 160.903 757.145 157.828Z" fill="#F66232"/>
<path d="M198.972 137.232L188.309 126.574L173.73 130.477L169.826 145.061L180.489 155.72L195.069 151.821L198.972 137.232ZM178.854 146.715C175.757 143.618 175.757 138.64 178.827 135.57C181.897 132.496 186.901 132.473 189.998 135.57C193.068 138.64 193.046 143.644 189.972 146.715C186.901 149.789 181.924 149.789 178.854 146.715Z" fill="#509FDB"/>
<path d="M706.699 89.7582L690.346 73.4004L667.968 79.3892L661.979 101.767L678.333 118.12L700.711 112.131L706.699 89.7582ZM675.829 104.311C671.074 99.5568 671.074 91.9282 675.788 87.2138C680.507 82.495 688.176 82.4593 692.931 87.2138C697.645 91.9327 697.605 99.5924 692.89 104.311C688.18 109.026 680.543 109.026 675.829 104.311Z" fill="#509FDB"/>
<path d="M371.652 205.123H207.112V412.195H371.652V205.123Z" fill="#EFEFEC"/>
<path opacity="0.87" d="M364.384 212.35H213.75V258.799H364.384V212.35Z" fill="#DBE2E2"/>
<path d="M306.543 220.487H271.599V239.256H306.543V220.487Z" fill="#F3F3F3"/>
<path d="M324.219 226.964C324.219 230.547 321.327 233.448 317.745 233.448C314.171 233.448 311.261 230.547 311.261 226.964C311.261 223.382 314.171 220.481 317.745 220.481C321.327 220.485 324.219 223.386 324.219 226.964Z" fill="#EFEFEC"/>
<path d="M347.934 230.063C347.934 235.352 343.647 239.63 338.358 239.63C333.064 239.63 328.795 235.348 328.795 230.063C328.795 224.769 333.064 220.487 338.358 220.487C343.647 220.487 347.934 224.774 347.934 230.063Z" fill="#EFEFEC"/>
<path d="M359.167 217.135H353.044V229.87H359.167V217.135Z" fill="#F66232"/>
<path d="M262.754 220.487H218.97V248.671H262.754V220.487Z" fill="#EFEFEC"/>
<path d="M307.081 326.159C307.081 336.006 310.859 344.945 317.044 351.678C310.186 359.146 300.303 363.825 289.342 363.825C268.555 363.825 251.693 346.959 251.693 326.163C251.693 305.367 268.555 288.506 289.342 288.506C300.303 288.506 310.186 293.18 317.044 300.653C310.859 307.372 307.081 316.315 307.081 326.159Z" fill="#E5E5E5"/>
<path d="M307.081 326.159C307.081 336.006 310.859 344.945 317.044 351.678C310.186 359.146 300.303 363.825 289.342 363.825C268.555 363.825 251.693 346.959 251.693 326.163C251.693 305.367 268.555 288.506 289.342 288.506C300.303 288.506 310.186 293.18 317.044 300.653C310.859 307.372 307.081 316.315 307.081 326.159Z" fill="#51A3E1"/>
<path d="M327.261 292.807C317.988 282.273 304.456 275.665 289.346 275.665C261.5 275.665 238.9 298.27 238.9 326.159C238.9 354.013 261.5 376.618 289.346 376.618C304.456 376.618 317.988 370.01 327.261 359.512C335.095 350.605 339.854 338.957 339.854 326.159C339.854 313.366 335.095 301.669 327.261 292.807ZM289.346 363.821C268.559 363.821 251.697 346.955 251.697 326.159C251.697 305.363 268.559 288.502 289.346 288.502C300.307 288.502 310.19 293.176 317.048 300.649C310.859 307.377 307.085 316.321 307.085 326.164C307.085 336.011 310.863 344.95 317.048 351.683C310.19 359.142 300.307 363.821 289.346 363.821Z" fill="white"/>
<path opacity="0.21" d="M305.806 301.607C301.212 305.791 297.068 311.29 295.509 315.723C293.708 321.378 296.538 328.026 291.895 332.665C287.96 336.435 276.348 341.234 269.254 347.347C264.032 342.174 260.752 335.165 260.512 327.371C262.731 326.672 264.58 325.687 265.77 324.207C268.31 320.598 266.26 316.009 269.334 312.684C274.218 306.941 286.806 304.481 287.145 297.097C288.049 296.973 288.981 296.933 289.93 296.933C295.638 296.933 301.128 298.577 305.806 301.607Z" fill="white"/>
<g opacity="0.21">
<path d="M295.104 355.39C295.318 354.61 295.349 353.795 295.224 352.93C294.489 348.541 293.464 345.997 296 341.893C297.069 340.169 298.673 338.079 300.522 336.194C301.623 341.358 303.673 346.287 306.467 350.751C303.067 353.1 299.163 354.655 295.104 355.39Z" fill="white"/>
</g>
<path d="M229.472 412.195H213.141V416.767H229.472V412.195Z" fill="#66797E"/>
<path d="M366.203 412.195H349.868V416.767H366.203V412.195Z" fill="#66797E"/>
<path d="M251.699 227.433C251.699 228.881 250.527 230.062 249.07 230.062H232.476C231.019 230.062 229.838 228.877 229.838 227.433C229.838 225.976 231.019 224.804 232.476 224.804H249.07C250.527 224.804 251.699 225.972 251.699 227.433Z" fill="#E6E8E8"/>
<path d="M429.027 193.328V200.836H436.758V335.775L459.506 358.532H501.788H401.543L401.543 234.84V28.0884H516.849V43.1851H516.881V91.1444H436.758V193.328H429.027Z" fill="#A5C5CA"/>
<path d="M207.113 315.568H191.209V353.956H207.113V315.568Z" fill="#9D9D9C"/>
</svg>
