<svg width="1481" height="211" viewBox="0 0 1481 211" fill="none" xmlns="http://www.w3.org/2000/svg">
<path d="M383.446 175.19C383.445 172.26 383.445 169.797 383.445 167.035C388.329 167.035 392.738 166.698 397.069 167.148C400.181 167.471 402.514 169.466 402.584 173.138C402.657 176.984 400.349 179.224 397.07 179.774C393.38 180.393 389.509 180.393 385.789 179.984C384.865 179.883 384.22 177.17 383.446 175.19Z" fill="#060C11"/>
<path d="M773.027 186.848C776.441 189.808 779.534 192.892 783.112 196.458C781.376 197.81 780.253 198.971 778.9 199.685C774.134 202.204 768.513 201.688 766.748 198.415C763.999 193.316 768.179 190.896 771.059 188.064C771.522 187.61 772.153 187.331 773.027 186.848Z" fill="#060C11"/>
<path d="M778.167 166.196C782.826 170.436 781.965 173.477 774.446 177.518C773.391 174.669 771.67 171.926 771.719 169.216C771.738 168.13 775.655 167.118 778.167 166.196Z" fill="#060C11"/>
<path d="M1089.01 181.782C1090.14 178.839 1091.12 176.265 1092.09 173.691C1092.51 173.666 1092.92 173.642 1093.33 173.618C1094.87 177.795 1096.41 181.971 1098.19 186.812C1094.33 186.812 1091.34 186.812 1087.59 186.812C1088.06 185.122 1088.46 183.636 1089.01 181.782Z" fill="#1F1F1F"/>
<path d="M34.6208 167.144C38.933 166.896 42.9084 166.606 46.8169 167C50.3595 167.357 53.193 169.271 53.1278 173.407C53.0643 177.439 50.2864 179.542 46.7902 179.943C42.7564 180.406 38.6314 180.051 34.2549 180.051C34.2549 175.605 34.2549 171.502 34.6208 167.144Z" fill="#060C11"/>
<path d="M1248.59 202.171C1247.76 203.586 1246.93 204.532 1246.1 205.478C1245.56 204.573 1244.55 203.672 1244.54 202.763C1244.44 189.86 1244.44 176.955 1244.57 164.052C1244.58 163.109 1245.83 162.178 1246.5 161.241C1247.19 162.327 1248.47 163.405 1248.49 164.498C1248.64 176.898 1248.59 189.3 1248.59 202.171Z" fill="#51A3E1"/>
<path d="M242.395 78.7355C229.399 60.9487 216.612 43.4541 203.825 25.9595C203.352 26.0221 202.879 26.0845 202.406 26.147C202.142 28.0639 201.649 29.9807 201.648 31.8979C201.631 55.5557 201.686 79.2134 201.72 102.871C201.721 104.213 201.835 105.574 201.661 106.894C201.23 110.173 199.439 111.952 196.026 111.994C192.653 112.036 190.725 110.456 190.226 107.113C190.079 106.126 190.117 105.106 190.113 104.1C189.999 73.0638 189.89 42.0273 189.78 10.9908C189.778 10.4875 189.792 9.98375 189.779 9.48076C189.68 5.80575 190.77 2.77492 194.502 1.53383C198.197 0.304793 200.775 1.99299 202.972 5.00594C215.463 22.1376 228.034 39.2094 240.575 56.3035C247.191 65.3212 253.789 74.3529 260.429 83.3519C261.357 84.6084 262.483 85.7142 264.53 88.0418C264.935 84.7785 265.354 82.9529 265.358 81.1264C265.401 57.3001 265.384 33.4738 265.39 9.64746C265.39 8.13887 265.275 6.60077 265.517 5.12777C266.056 1.85728 268.148 -0.411424 271.318 0.453729C273.414 1.02599 275.196 3.28602 276.759 5.10834C277.346 5.79266 276.942 7.37508 276.942 8.54806C276.947 39.5894 276.921 70.6308 276.979 101.672C276.986 105.602 276.664 109.32 272.366 110.656C268.214 111.946 265.193 110.129 262.666 106.546C256.122 97.2698 249.31 88.1876 242.395 78.7355Z" fill="#EEEEEE"/>
<path d="M1008.64 18.6776C1025.7 1.27016 1048.81 -3.56179 1070.04 5.63471C1090.58 14.5289 1103.14 34.7427 1102.64 58.0831C1102.02 87.0122 1078.27 110.739 1049.97 110.933C1026.59 111.094 1009.13 100.758 999.482 79.4256C989.723 57.8501 992.948 37.2096 1008.64 18.6776ZM1006.64 47.7543C1004.71 59.9896 1006.46 71.5111 1013.61 81.7715C1024.55 97.4619 1044.89 103.755 1063.03 97.2688C1081.16 90.7837 1091.8 73.9548 1090.88 53.2204C1089.9 31.2413 1073.36 13.8575 1051.08 12.6183C1029.84 11.4372 1010.94 24.7627 1006.64 47.7543Z" fill="#F1F1F1"/>
<path d="M490.649 86.7273C473.028 113.212 438.615 117.819 414.936 101.795C391.437 85.8927 384.092 52.6567 398.874 27.7279C413.785 2.5804 446.188 -6.34472 471.341 7.76708C497.314 22.3385 507.191 54.6289 493.777 81.1704C492.873 82.9595 491.824 84.6739 490.649 86.7273ZM468.277 19.0466C457.488 12.6526 446.043 10.7996 433.94 14.1883C410.364 20.7899 397.673 44.6677 404.59 69.2543C410.888 91.6395 434.548 104.679 457.268 98.0331C474.375 93.0289 484.612 81.2063 487.313 63.5741C490.106 45.3482 484.25 30.1973 468.277 19.0466Z" fill="#F1F1F1"/>
<path d="M816.437 43.3555C816.437 31.275 816.456 19.6981 816.426 8.12126C816.416 4.09528 817.063 0.570431 822.004 0.284607C826.104 0.0474046 828.01 2.54747 828.024 8.15483C828.058 21.745 828.036 35.3353 828.037 48.9255C828.037 50.6817 828.037 52.4379 828.037 54.1942C828.457 54.377 828.878 54.5599 829.298 54.7428C830.511 53.5896 831.82 52.5239 832.922 51.2697C846.118 36.2356 859.284 21.1737 872.458 6.1186C873.226 5.24029 874.022 4.38436 874.751 3.47341C877.39 0.176486 880.554 -1.14223 884.216 1.53246C887.114 3.64822 886.86 7.59805 883.73 11.237C877.533 18.44 871.243 25.561 864.993 32.7174C859.847 38.6091 854.704 44.5027 849.22 50.784C850.777 52.8188 852.178 54.8124 853.74 56.6658C866.207 71.4538 878.672 86.244 891.22 100.962C893.898 104.103 895.341 107.246 892.152 110.695C889.786 113.252 885.345 112.369 882.256 108.757C870.228 94.6931 858.28 80.5594 846.285 66.4675C844.686 64.5901 842.985 62.8027 840.807 60.3933C836.605 65.2135 832.58 69.579 828.904 74.2283C828.021 75.3459 828.088 77.4036 828.073 79.0321C827.998 87.5881 828.08 96.1457 828.02 104.702C827.982 110.058 826.243 112.072 822.012 111.97C817.278 111.856 816.428 108.669 816.43 104.763C816.44 84.4617 816.436 64.1604 816.437 43.3555Z" fill="#EFEFEF"/>
<path d="M0.0120224 65.5111C0.0118933 46.7126 0.0115526 28.4179 0.011636 10.1231C0.0116429 8.94821 -0.0131307 7.7724 0.0218994 6.59856C0.131637 2.92171 1.65008 0.414947 5.58615 0.299143C9.85153 0.173688 11.5008 2.87364 11.5208 6.72113C11.5951 20.9873 11.5497 35.2541 11.5738 49.5206C11.5768 51.2757 11.7284 53.0306 11.8785 56.2162C15.091 52.7186 17.436 50.269 19.6683 47.718C32.1879 33.4107 44.6797 19.0786 57.1834 4.757C57.7319 4.1288 58.3091 3.52649 58.8623 2.90235C61.5846 -0.169116 64.8481 -1.10778 67.9661 1.79145C70.9242 4.5418 70.224 7.86497 67.726 10.7537C62.5989 16.6828 57.4196 22.5656 52.2622 28.4678C45.802 35.861 39.3422 43.2546 32.583 50.9903C38.0077 57.4461 43.2338 63.6862 48.4824 69.907C57.088 80.1069 65.6626 90.3343 74.3491 100.463C77.0704 103.636 79.115 106.811 75.7747 110.6C73.3081 113.399 68.8039 112.282 65.204 108.062C53.2968 94.1034 41.4537 80.0883 29.568 66.1105C28.0771 64.3571 26.479 62.6972 24.4583 60.4746C18.4474 67.9233 9.67842 72.7966 11.3949 84.4921C12.3348 90.8961 11.599 97.5587 11.5519 104.104C11.5095 110.014 9.92924 112.049 5.59409 111.956C0.472268 111.846 -0.00906972 108.291 0.000126062 104.283C0.0293819 91.5266 0.0115447 78.7706 0.0120224 65.5111Z" fill="#F2F2F2"/>
<path d="M1225.98 99.4243C1218.91 91.47 1215.6 82.5203 1215.68 72.0854C1215.85 51.2793 1215.73 30.4712 1215.73 9.66386C1215.73 8.48928 1215.69 7.31175 1215.75 6.14074C1215.96 2.36056 1217.8 0.187379 1221.69 0.284251C1225.37 0.375591 1227.1 2.59665 1227.17 6.09236C1227.29 11.7951 1227.2 17.502 1227.22 23.2071C1227.26 40.3216 1227.06 57.4416 1227.44 74.5485C1227.72 87.4538 1235.76 96.5119 1248.25 99.1401C1262.55 102.147 1276.25 92.4384 1278.21 77.7089C1278.76 73.5732 1278.79 69.3472 1278.81 65.1618C1278.87 45.8649 1278.8 26.5677 1278.86 7.27069C1278.87 1.79401 1282.54 -1.57932 1286.47 0.745072C1288.46 1.92186 1290.08 5.49545 1290.12 8.01684C1290.43 25.6303 1290.31 43.2521 1290.27 60.8711C1290.26 66.7382 1290.69 72.6976 1289.85 78.4539C1287.65 93.5016 1279.34 104.209 1265.08 109.001C1250.55 113.88 1237.34 110.641 1225.98 99.4243Z" fill="#F1F1F1"/>
<path d="M634.104 100.311C615.613 85.057 608.719 65.6446 614.24 42.6901C619.706 19.9647 634.894 6.43422 657.428 2.0374C669.767 -0.370213 681.827 1.60209 692.983 7.86586C697.826 10.5851 699.205 13.5635 697.334 16.975C695.453 20.4044 692.313 20.789 687.465 18.1837C666.016 6.65864 639.974 14.1152 629.131 34.8862C619.749 52.8599 623.765 76.3423 638.434 89.2784C653.629 102.677 675.661 103.259 692.532 90.7066C696.526 87.7354 700.511 87.7156 702.609 90.6566C704.77 93.6857 703.597 97.1048 699.346 100.34C681.332 114.052 654.099 115.256 634.104 100.311Z" fill="#F1F1F1"/>
<path d="M1427.26 1.3512C1442.97 1.35151 1458.18 1.3158 1473.4 1.37333C1478.2 1.39152 1480.99 4.58235 1479.82 8.54386C1478.84 11.8943 1476.24 12.5172 1473.18 12.4943C1464.78 12.4316 1456.39 12.4727 1447.5 12.4727C1447.38 14.9217 1447.22 16.8606 1447.22 18.7996C1447.2 46.801 1447.21 74.8022 1447.21 102.804C1447.21 103.977 1447.28 105.158 1447.19 106.323C1446.88 110.082 1445.06 112.137 1441.1 111.975C1437.34 111.821 1435.81 109.695 1435.79 106.148C1435.76 100.112 1435.77 94.0754 1435.77 88.0392C1435.77 64.9005 1435.77 41.7616 1435.77 18.6228C1435.77 16.8122 1435.77 15.0016 1435.77 12.4786C1427.94 12.4786 1420.57 12.4806 1413.21 12.477C1411.56 12.4762 1409.9 12.5171 1408.25 12.4321C1404.93 12.261 1402.91 10.439 1402.87 7.08863C1402.83 3.52733 1404.82 1.43652 1408.41 1.38501C1414.53 1.29723 1420.65 1.35471 1427.26 1.3512Z" fill="#F3F3F3"/>
<path d="M316.734 203.746C316.732 196.657 316.732 189.993 316.732 183.328C316.226 183.161 315.721 182.994 315.215 182.826C311.098 191.421 306.981 200.017 302.371 209.641C294.427 201.053 293.196 190.514 286.45 182.679C286.45 189.084 286.473 195.489 286.438 201.893C286.424 204.297 287.197 207.044 283.095 207.101C279.057 207.157 279.601 204.545 279.601 202.052C279.598 188.33 279.6 174.608 279.6 160.861C283.743 159.179 285.89 160.376 287.52 164.251C291.79 174.399 296.421 184.392 301.427 195.61C302.685 193.17 303.523 191.712 304.21 190.185C308.12 181.495 312.152 172.856 315.805 164.055C317.355 160.321 319.478 159.272 323.594 160.851C323.594 169.706 323.594 178.72 323.594 187.734C323.594 192.929 323.74 198.132 323.49 203.315C323.43 204.567 322.267 206.528 321.251 206.804C319.374 207.315 316.672 207.757 316.734 203.746Z" fill="#4D9AD4"/>
<path d="M376.91 166.406C376.91 164.28 376.91 162.631 376.91 160.763C384.801 160.763 392.472 159.698 399.715 161.028C409.122 162.756 411.636 172.548 405.976 182.608C406.525 183.229 407.148 183.937 407.774 184.642C414.784 192.534 411.118 204.638 400.705 206.284C393.756 207.383 386.544 206.955 379.461 206.768C378.571 206.745 377.035 204.039 377.01 202.556C376.812 190.668 376.905 178.775 376.91 166.406ZM402.024 198.994C405.471 195.046 405.875 191.623 402.689 189.1C397.355 184.877 390.954 186.484 385.121 187.26C384.144 187.39 383.99 193.914 383.471 197.486C383.424 197.81 383.358 198.276 383.528 198.461C384.223 199.221 385.031 200.531 385.754 200.503C390.96 200.301 396.156 199.822 402.024 198.994ZM383.446 175.657C384.219 177.17 384.865 179.883 385.789 179.984C389.509 180.393 393.38 180.393 397.07 179.774C400.349 179.224 402.657 176.984 402.584 173.138C402.514 169.466 400.181 167.471 397.069 167.148C392.738 166.698 388.329 167.035 383.445 167.035C383.445 169.797 383.444 172.26 383.446 175.657Z" fill="#4F9EDA"/>
<path d="M793.205 181.556C793.503 184.601 794.155 187.799 793.164 190.337C791.295 195.121 792.266 198.64 795.843 201.872C796.555 202.516 797.014 203.448 797.551 204.193C794.558 208.971 794.558 208.971 786.897 202.781C774.896 208.991 766.35 209.155 761.754 202.49C754.909 192.562 762.773 186.96 768.783 181.242C763.629 169.405 763.793 165.052 769.376 161.57C774.705 158.246 781.548 159.053 785.209 163.436C789.692 168.802 788.492 173.992 780.337 183.031C781.944 185.023 783.614 187.094 786.178 190.274C787.016 186.654 787.555 184.329 788.232 181.41C789.661 181.41 791.239 181.41 793.205 181.556ZM772.706 186.971C772.152 187.331 771.522 187.61 771.059 188.064C768.179 190.896 763.999 193.316 766.748 198.415C768.513 201.688 774.134 202.204 778.9 199.685C780.253 198.971 781.376 197.81 783.112 196.458C779.534 192.892 776.44 189.808 772.706 186.971ZM777.797 166.072C775.654 167.118 771.738 168.13 771.719 169.216C771.67 171.926 773.391 174.669 774.446 177.518C781.965 173.477 782.826 170.436 777.797 166.072Z" fill="#4E9BD6"/>
<path d="M555.756 203.859C555.228 205.979 554.706 207.669 553.948 210.117C543.767 200.422 539.186 187.602 529.939 176.515C529.654 179.23 529.372 180.725 529.361 182.222C529.313 189.091 529.313 195.96 529.359 202.829C529.375 205.169 529.404 207.118 526.122 207.106C523.123 207.095 522.591 205.68 522.608 203.065C522.694 189.831 522.607 176.595 522.724 163.361C522.738 161.692 523.59 160.03 524.446 156.957C527.474 160.482 529.906 162.809 531.738 165.549C536.187 172.201 540.35 179.05 544.647 185.808C545.501 187.151 546.436 188.441 548.539 189.481C548.539 179.96 548.539 170.439 548.539 160.528C551.153 160.528 553.023 160.528 555.761 160.528C555.761 174.804 555.761 189.116 555.756 203.859Z" fill="#4D9AD4"/>
<path d="M1396.94 194.52C1401.83 200.65 1410.43 203.102 1416.81 200.143C1417.92 199.628 1418.79 197.733 1419.03 196.342C1419.4 194.243 1419.13 192.028 1419.13 189.238C1414.74 189.238 1410.69 189.238 1406.84 189.238C1405.05 183.066 1405.4 182.556 1410.92 182.52C1414.72 182.495 1418.53 182.604 1422.33 182.484C1424.78 182.407 1426.03 183.162 1425.98 185.874C1425.87 191.073 1426.19 196.295 1425.8 201.466C1425.68 202.965 1423.9 205.391 1422.63 205.564C1416.49 206.409 1410.16 207.575 1404.1 206.854C1395.26 205.801 1390.27 199.543 1388.53 190.811C1387.15 183.924 1387.45 177.125 1390.31 170.59C1393.56 163.163 1399.51 159.666 1407.2 159.493C1414.37 159.332 1420.53 161.77 1424.26 168.607C1426.95 173.555 1426.6 174.377 1420.58 176.063C1420.13 175.333 1419.52 174.574 1419.15 173.708C1416.73 168.017 1413.71 165.891 1407.71 165.982C1402.39 166.063 1398.49 168.568 1396.52 173.63C1393.87 180.468 1393.75 187.356 1396.94 194.52Z" fill="#4E9BD6"/>
<path d="M1309.94 191.4C1309.94 196.717 1309.94 201.533 1309.94 206.662C1307.51 206.662 1305.64 206.662 1303.83 206.662C1302.24 197.338 1303.05 162.067 1305.15 157.462C1315.43 166.422 1319.59 179.686 1329.1 190.753C1329.1 179.976 1329.1 170.446 1329.1 160.531C1331.76 160.531 1333.63 160.531 1336.3 160.531C1335.83 176.746 1337.13 192.994 1334.81 209.371C1324.18 200.201 1319.36 187.04 1309.94 175.421C1309.94 181.443 1309.94 186.171 1309.94 191.4Z" fill="#4E9BD6"/>
<path d="M625.881 188.491C624.231 183.714 625.917 182.083 630.431 182.434C634.212 182.728 638.035 182.564 641.836 182.472C644.246 182.414 645.539 183.152 645.477 185.884C645.358 191.079 645.684 196.297 645.292 201.464C645.178 202.964 643.395 205.387 642.127 205.565C635.994 206.429 629.66 207.642 623.614 206.906C614.859 205.84 609.665 199.787 607.937 190.984C606.34 182.849 606.737 174.927 611.273 167.698C618.531 156.131 637.406 156.758 643.802 168.737C646.554 173.89 645.924 175.021 639.836 175.867C635.019 167.078 630.721 164.573 623.771 166.525C622.977 166.748 622.17 166.986 621.436 167.353C615.587 170.281 612.658 179.676 614.536 189.393C615.886 196.375 620.495 200.48 627.578 201C627.907 201.025 628.239 201.008 628.57 201.017C638.521 201.281 639.511 200.146 638.239 189.372C634.278 189.177 630.224 188.977 625.881 188.491Z" fill="#4B96CF"/>
<path d="M1011.1 186.776C1008.07 187.119 1003.63 186.895 1003.34 187.91C1002.35 191.306 1002.66 195.159 1002.94 198.801C1002.99 199.485 1005.18 200.464 1006.42 200.508C1011.7 200.701 1016.99 200.651 1022.28 200.573C1024.74 200.537 1026.97 201.026 1026.14 204.024C1025.79 205.282 1023.65 206.824 1022.29 206.865C1013.74 207.124 1005.17 206.996 996.273 206.996C996.273 191.18 996.273 175.883 996.273 160.398C1006.26 160.398 1015.94 160.398 1025.57 160.398C1026.83 166.412 1026.57 166.777 1021.04 166.796C1015.13 166.816 1009.23 166.801 1003.67 166.801C1003.16 167.686 1002.88 167.951 1002.86 168.237C1001.89 180.178 1001.89 180.178 1013.71 180.178C1016.67 180.178 1019.63 180.178 1023.01 180.178C1023.01 182.407 1023.01 184.278 1023.01 186.776C1019.1 186.776 1015.35 186.776 1011.1 186.776Z" fill="#4F9EDA"/>
<path d="M930.59 180.055C934.429 180.496 935.952 179.199 935.809 175.592C935.611 170.619 935.759 165.632 935.759 160.388C938.172 160.388 939.931 160.388 941.927 160.388C942.117 161.356 942.46 162.299 942.462 163.242C942.503 176.492 942.467 189.741 942.531 202.99C942.543 205.474 942.287 207.157 939.14 207.134C936.04 207.112 935.667 205.492 935.731 202.979C935.838 198.789 935.673 194.591 935.79 190.402C935.861 187.85 934.932 186.602 932.347 186.835C932.183 186.85 932.017 186.84 931.852 186.832C917.003 186.136 917.003 186.136 916.919 201.38C916.885 207.466 916.749 207.578 910.374 206.435C910.374 191.336 910.374 176.169 910.374 160.557C912.385 160.557 914.389 160.557 916.924 160.557C916.924 165.898 917.004 171.069 916.891 176.236C916.83 179.019 917.888 180.199 920.672 180.078C923.808 179.94 926.956 180.052 930.59 180.055Z" fill="#4B96CF"/>
<path d="M222.894 200.764C217.063 207.757 209.939 209 202.005 206.636C194.805 204.491 190.858 199.003 190.437 191.836C189.832 181.518 190.282 171.137 190.282 160.455C192.319 160.455 194.181 160.455 196.625 160.455C196.625 167.58 196.591 174.416 196.641 181.251C196.663 184.268 196.693 187.301 197.004 190.296C197.693 196.928 201.834 200.865 208.015 201.011C214.387 201.162 219.112 197.29 219.619 190.424C220.174 182.914 219.885 175.34 219.952 167.794C219.973 165.475 219.955 163.156 219.955 160.483C222.311 160.483 224.195 160.483 226.921 160.483C225.255 173.894 229.962 187.625 222.894 200.764Z" fill="#4D9AD4"/>
<path d="M1076.51 197.022C1081.06 184.756 1085.45 172.843 1089.96 160.977C1090.33 159.995 1091.52 159.334 1092.81 158.052C1094.1 159.782 1095.65 161.127 1096.29 162.825C1101.54 176.736 1106.62 190.712 1111.73 204.676C1111.89 205.114 1111.82 205.636 1111.89 206.438C1108.53 207.265 1105.74 207.999 1104.03 203.492C1100.22 193.429 1100.06 193.593 1088.91 193.69C1085.98 193.715 1084.22 194.53 1083.49 197.49C1083.09 199.102 1082.18 200.588 1081.8 202.203C1080.71 206.845 1078.01 208.041 1073.17 206.234C1074.26 203.235 1075.32 200.311 1076.51 197.022ZM1088.87 182.15C1088.46 183.636 1088.06 185.122 1087.59 186.812C1091.34 186.812 1094.33 186.812 1098.19 186.812C1096.41 181.971 1094.87 177.795 1093.33 173.618C1092.92 173.642 1092.51 173.666 1092.09 173.691C1091.12 176.265 1090.14 178.839 1088.87 182.15Z" fill="#4E9BD6"/>
<path d="M27.3023 182.333C27.3026 174.819 27.3026 167.809 27.3026 160.378C34.8778 160.378 41.9804 159.842 48.9655 160.532C55.6903 161.195 59.9764 167.374 59.5934 174.129C59.2227 180.666 53.8198 186.175 46.8983 186.666C42.8131 186.956 38.6916 186.719 34.0674 186.719C34.0674 193.619 34.0674 199.927 34.0674 206.091C27.7581 207.728 27.3066 207.393 27.2954 201.461C27.2837 195.253 27.2987 189.045 27.3023 182.333ZM34.2547 167.399C34.2547 171.502 34.2549 175.605 34.2549 180.051C38.6314 180.051 42.7564 180.406 46.7902 179.943C50.2864 179.542 53.0643 177.439 53.1278 173.407C53.193 169.271 50.3595 167.357 46.8169 167C42.9084 166.606 38.9328 166.896 34.2547 167.399Z" fill="#4F9EDA"/>
<path d="M1193.7 163.999C1192.35 165.233 1191.06 166.596 1189.65 166.737C1186.26 167.078 1182.82 166.848 1178.77 166.848C1178.77 177.315 1178.77 187.154 1178.77 196.994C1178.77 199.006 1178.7 201.023 1178.8 203.03C1178.93 205.544 1178.5 207.187 1175.38 207.131C1172.44 207.078 1171.79 205.752 1171.82 203.087C1171.92 192.691 1171.87 182.292 1171.85 171.895C1171.85 170.428 1171.68 168.961 1171.55 166.848C1168.37 166.848 1165.41 166.624 1162.51 166.899C1157.88 167.337 1155.89 165.762 1157.58 160.103C1162.02 160.103 1166.73 160.103 1171.44 160.104C1177.56 160.104 1183.68 160.175 1189.8 160.071C1192.32 160.029 1194.12 160.436 1193.7 163.999Z" fill="#4B96CF"/>
<path d="M109.913 202.978C109.913 188.651 109.913 174.776 109.913 160.521C112.165 160.521 114.038 160.521 116.634 160.521C116.634 165.999 116.634 171.455 116.634 176.912C116.635 183.273 116.777 189.64 116.583 195.995C116.475 199.521 117.817 200.757 121.211 200.636C126.323 200.453 131.446 200.64 136.564 200.574C138.857 200.544 140.342 201.001 140.369 203.838C140.397 206.769 138.774 207.037 136.548 207.024C128.953 206.977 121.358 206.942 113.764 207.041C111.171 207.075 109.54 206.457 109.913 202.978Z" fill="#4F9EDA"/>
<path d="M1242.99 201.187C1242.99 187.338 1242.99 173.96 1242.99 160.72C1249.93 159.078 1250.31 159.366 1250.31 165.903C1250.32 177.814 1250.36 189.726 1250.29 201.637C1250.27 204.068 1251.43 207.216 1246.94 207.369C1242.32 207.525 1243.01 204.47 1242.99 201.187ZM1248.6 201.703C1248.59 189.301 1248.64 176.899 1248.49 164.499C1248.47 163.405 1247.19 162.327 1246.5 161.242C1245.82 162.179 1244.58 163.109 1244.57 164.053C1244.44 176.956 1244.44 189.861 1244.54 202.764C1244.55 203.673 1245.55 204.574 1246.1 205.479C1246.93 204.532 1247.76 203.586 1248.6 201.703Z" fill="#3B78A4"/>
<path d="M467.846 206.681C467.11 206.724 466.374 206.766 465.081 206.38C464.292 204.823 463.863 203.696 463.859 202.567C463.816 190.049 463.78 177.531 463.929 165.015C463.944 163.725 465.169 162.451 465.833 161.17C466.572 162.55 467.916 163.914 467.951 165.311C468.156 173.652 467.998 182 468.116 190.344C468.14 192.051 468.82 193.748 469.198 195.45C469.211 198.49 469.223 201.531 468.895 205.131C468.318 206.021 468.082 206.351 467.846 206.681Z" fill="#51A3E1"/>
<path d="M469.412 195.098C468.82 193.748 468.14 192.051 468.116 190.344C467.998 182 468.156 173.652 467.951 165.311C467.916 163.914 466.572 162.55 465.833 161.17C465.169 162.451 463.944 163.725 463.929 165.015C463.78 177.531 463.816 190.049 463.859 202.567C463.863 203.696 464.292 204.823 464.713 206.346C464.01 205.84 462.35 204.949 462.34 204.038C462.178 190.318 462.147 176.594 462.408 162.877C462.428 161.813 464.719 160.29 466.199 159.876C468.475 159.238 469.836 160.392 469.801 163.13C469.668 173.668 469.673 184.208 469.412 195.098Z" fill="#346B93"/>
<path d="M467.992 206.853C468.081 206.351 468.318 206.021 468.842 205.585C468.8 205.994 468.47 206.509 467.992 206.853Z" fill="#346B93"/>
<path d="M401.69 199.213C396.156 199.822 390.96 200.301 385.754 200.503C385.031 200.531 384.223 199.221 383.528 198.461C383.358 198.276 383.424 197.81 383.471 197.486C383.99 193.914 384.144 187.39 385.121 187.26C390.954 186.484 397.355 184.877 402.689 189.1C405.875 191.623 405.471 195.046 401.69 199.213Z" fill="#060C11"/>
</svg>
