<svg width="29" height="29" viewBox="0 0 29 29" fill="none" xmlns="http://www.w3.org/2000/svg">
<path d="M26.4832 10.9863V20.8887C26.4832 22.4822 25.1688 23.848 23.4958 23.9619C20.9864 24.1895 17.5211 24.3033 14.8922 24.3033C12.2633 24.3033 8.79792 24.0757 6.28853 23.9619C4.61559 23.848 3.30115 22.4822 3.30115 20.8887V10.9863L5.09357 11.8968L13.3387 16.222C13.8167 16.4497 14.4142 16.5635 14.8922 16.5635C15.3702 16.5635 15.9676 16.4497 16.4456 16.222L24.6908 11.8968L26.4832 10.9863Z" fill="white"/>
<path d="M26.3637 8.48225C26.3637 8.70989 26.2442 9.05135 26.0053 9.16517L24.5713 9.8481L15.4897 14.6286C15.0117 14.8562 14.5337 14.8562 14.0557 14.6286L3.54017 9.16517C3.30118 9.05135 3.06219 8.82371 3.18169 8.59607C3.42068 7.23021 4.61563 6.092 6.16907 5.97818C8.67846 5.75054 12.1438 5.63672 14.7727 5.63672C17.4016 5.63672 20.9865 5.86436 23.3764 5.97818C24.9298 6.092 26.1248 7.11639 26.3637 8.48225Z" fill="white"/>
</svg>
