<svg width="29" height="29" viewBox="0 0 29 29" fill="none" xmlns="http://www.w3.org/2000/svg">
<path d="M25.9173 14.7363C25.9173 15.4374 25.5655 16.1385 24.8619 16.489C22.5164 17.8912 18.06 20.3451 14.7764 21.981C11.9618 23.3831 8.0918 25.019 5.39452 26.1875C5.15998 26.3044 4.80816 26.4212 4.57361 26.4212C4.10452 26.4212 3.51815 26.1875 3.16633 25.837C2.57997 25.2527 2.46269 24.4348 2.69724 23.6168L5.15998 16.3722C5.27725 15.9048 5.74634 15.6711 6.21543 15.6711H12.0791C12.5482 15.6711 13.0173 15.3205 13.0173 14.7363C13.0173 14.1521 12.6655 13.8015 12.0791 13.8015H6.21543C5.74634 13.8015 5.27725 13.451 5.15998 12.9836L2.69724 5.73891C2.46269 5.03781 2.57997 4.21987 3.28361 3.63562C3.86997 3.05138 4.69088 2.93453 5.39452 3.28507C7.62271 4.21987 11.8445 6.08946 14.7764 7.49165C18.06 9.12754 22.5164 11.6982 24.8619 12.9836C25.5655 13.3341 25.9173 14.0352 25.9173 14.7363Z" fill="white"/>
</svg>
